<svg width="160" height="160" viewBox="0 0 160 160" fill="none" xmlns="http://www.w3.org/2000/svg">
<path d="M80.1998 133.5C109.9 133.5 134.1 109.4 134.1 79.8C134 50.1 109.9 26 80.1998 26C50.3998 26 26.2998 50.1 26.2998 79.7C26.2998 109.4 50.3998 133.5 80.1998 133.5Z" fill="#E0F8E9"/>
<g filter="url(#filter0_d_1189_8334)">
<path d="M137.7 86.6C137.7 98.1 128.4 107.4 116.8 107.4C116.6 107.4 114.9 107.4 102.4 107.4C93.7 107.4 79.8 107.4 57.6 107.4H47C33.1 107.7 22 96.6 22 83.2C22 69.7 33.2 58.5 47.3 59.2C59.4 21.4 114.8 26.7 119.5 65.8C129.9 67.1 137.7 75.9 137.7 86.6Z" fill="url(#paint0_linear_1189_8334)"/>
</g>
<path d="M116.8 107.4C128.3 107.4 137.7 98.1 137.7 86.6C137.7 75.1 128.3 65.8 116.8 65.8C105.3 65.8 95.8999 75.1 95.8999 86.6C95.8999 98.1 105.3 107.4 116.8 107.4Z" fill="url(#paint1_linear_1189_8334)"/>
<path d="M82.7 107.6C103.2 107.6 119.9 91 119.9 70.5C119.9 50 103.2 33.4 82.7 33.4C62.2 33.4 45.5 50 45.5 70.5C45.5 91 62.1 107.6 82.7 107.6Z" fill="url(#paint2_linear_1189_8334)"/>
<path d="M66.803 84.8C70.703 82.3 75.303 80.9 80.203 80.9C93.603 80.9 104.503 91.7 104.503 105.1C104.503 118.5 93.603 129.3 80.203 129.3C66.803 129.3 55.903 118.5 55.903 105.1C55.703 96.6 60.103 89.2 66.803 84.8Z" fill="#47C77D"/>
<path d="M80 95.417C75.542 95.417 71.9635 96.9645 69.271 99.0735C68.6095 99.592 68.476 100.511 68.8825 101.222L69.564 102.415C70.1155 103.38 71.393 103.575 72.2725 102.952C74.3455 101.482 76.989 100.298 79.9995 100.298C83.01 100.298 85.654 101.483 87.727 102.952C88.606 103.575 89.8835 103.38 90.435 102.415L91.117 101.222C91.523 100.511 91.39 99.592 90.7285 99.0735C88.035 96.965 84.458 95.417 80 95.417ZM79.98 110.202C79.3327 110.202 78.712 110.459 78.2544 110.917C77.7969 111.375 77.5399 111.996 77.54 112.643C77.5401 113.29 77.7974 113.911 78.2551 114.369C78.7129 114.826 79.3337 115.083 79.981 115.083C80.6283 115.083 81.2489 114.826 81.7065 114.368C82.1641 113.91 82.4211 113.289 82.421 112.642C82.4209 111.995 82.1636 111.374 81.7058 110.916C81.2481 110.459 80.6273 110.202 79.98 110.202Z" fill="#F9FAFB"/>
<path d="M79.9999 103.083C77.2474 103.083 75.3399 103.846 73.7499 105.05C73.0449 105.583 72.9559 106.563 73.4269 107.27L74.0944 108.271C74.6124 109.049 75.6769 109.143 76.4214 108.683C77.3544 108.106 78.5924 107.611 79.9999 107.611C81.4074 107.611 82.6449 108.106 83.5779 108.683C84.3229 109.143 85.3869 109.049 85.9054 108.271L86.5724 107.27C87.0439 106.563 86.9544 105.583 86.2499 105.05C84.6594 103.846 82.7519 103.083 79.9999 103.083Z" fill="#F9FAFB"/>
<defs>
<filter id="filter0_d_1189_8334" x="0" y="22.4904" width="159.7" height="117.916" filterUnits="userSpaceOnUse" color-interpolation-filters="sRGB">
<feFlood flood-opacity="0" result="BackgroundImageFix"/>
<feColorMatrix in="SourceAlpha" type="matrix" values="0 0 0 0 0 0 0 0 0 0 0 0 0 0 0 0 0 0 127 0" result="hardAlpha"/>
<feOffset dy="11"/>
<feGaussianBlur stdDeviation="11"/>
<feColorMatrix type="matrix" values="0 0 0 0 0.397708 0 0 0 0 0.47749 0 0 0 0 0.575 0 0 0 0.27 0"/>
<feBlend mode="normal" in2="BackgroundImageFix" result="effect1_dropShadow_1189_8334"/>
<feBlend mode="normal" in="SourceGraphic" in2="effect1_dropShadow_1189_8334" result="shape"/>
</filter>
<linearGradient id="paint0_linear_1189_8334" x1="79.85" y1="64.0352" x2="79.8123" y2="108.203" gradientUnits="userSpaceOnUse">
<stop stop-color="white"/>
<stop offset="0.9964" stop-color="#ECF0F5"/>
</linearGradient>
<linearGradient id="paint1_linear_1189_8334" x1="93.6758" y1="61.3218" x2="112.204" y2="81.5855" gradientUnits="userSpaceOnUse">
<stop stop-color="#BCCBE1"/>
<stop offset="0.9942" stop-color="white" stop-opacity="0"/>
</linearGradient>
<linearGradient id="paint2_linear_1189_8334" x1="42.0166" y1="53.4758" x2="71.2178" y2="64.9032" gradientUnits="userSpaceOnUse">
<stop stop-color="#E2E8F0"/>
<stop offset="0.9942" stop-color="white" stop-opacity="0"/>
</linearGradient>
</defs>
</svg>
