<svg width="124" height="122" viewBox="0 0 124 122" fill="none" xmlns="http://www.w3.org/2000/svg">
<path d="M50.7 101.6C78.7 101.6 101.4 78.9 101.4 50.8C101.4 22.7 78.7 0 50.7 0C22.7 0 0 22.7 0 50.8C0 78.9 22.7 101.6 50.7 101.6Z" fill="#E0F8E9"/>
<path d="M82.0999 21.2001V62.9001C82.0999 65.4001 79.9999 67.5001 77.4999 67.5001H8.4999C5.9999 67.5001 3.8999 65.5001 3.8999 62.9001V21.2001C3.8999 18.7001 5.9999 16.6001 8.4999 16.6001H77.4999C79.9999 16.6001 82.0999 18.7001 82.0999 21.2001Z" fill="#92E3B4"/>
<path opacity="0.3" d="M82.0997 35.1001V62.9001C82.0997 65.4001 79.9997 67.5001 77.4997 67.5001H19.6997V39.7001C19.6997 37.2001 21.6997 35.1001 24.2997 35.1001H82.0997Z" fill="#35B26A"/>
<g filter="url(#filter0_d_1485_14595)">
<path d="M94.3998 88.5001H30.2998C26.3998 88.5001 23.2998 85.4001 23.2998 81.5001V44.6001C23.2998 40.7001 26.3998 37.6001 30.2998 37.6001H94.3998C98.2998 37.6001 101.4 40.7001 101.4 44.6001V81.5001C101.4 85.4001 98.2998 88.5001 94.3998 88.5001Z" fill="url(#paint0_linear_1485_14595)"/>
</g>
<path d="M43.0998 77.0003H32.8998C31.9998 77.0003 31.2998 76.3003 31.2998 75.4003C31.2998 74.5003 31.9998 73.8003 32.8998 73.8003H43.0998C43.9998 73.8003 44.6998 74.5003 44.6998 75.4003C44.6998 76.3003 43.9998 77.0003 43.0998 77.0003Z" fill="#D2D6DB"/>
<path d="M59.5998 77.0003H49.3998C48.4998 77.0003 47.7998 76.3003 47.7998 75.4003C47.7998 74.5003 48.4998 73.8003 49.3998 73.8003H59.5998C60.4998 73.8003 61.1998 74.5003 61.1998 75.4003C61.1998 76.3003 60.4998 77.0003 59.5998 77.0003Z" fill="#D2D6DB"/>
<path d="M76.0998 77.0003H65.8998C64.9998 77.0003 64.2998 76.3003 64.2998 75.4003C64.2998 74.5003 64.9998 73.8003 65.8998 73.8003H76.0998C76.9998 73.8003 77.6998 74.5003 77.6998 75.4003C77.6998 76.3003 76.9998 77.0003 76.0998 77.0003Z" fill="#D2D6DB"/>
<path d="M92.5998 77.0003H82.3998C81.4998 77.0003 80.7998 76.3003 80.7998 75.4003C80.7998 74.5003 81.4998 73.8003 82.3998 73.8003H92.5998C93.4998 73.8003 94.1998 74.5003 94.1998 75.4003C94.1998 76.3003 93.4998 77.0003 92.5998 77.0003Z" fill="#D2D6DB"/>
<path d="M88.8999 57.8003C92.2136 57.8003 94.8999 55.114 94.8999 51.8003C94.8999 48.4866 92.2136 45.8003 88.8999 45.8003C85.5862 45.8003 82.8999 48.4866 82.8999 51.8003C82.8999 55.114 85.5862 57.8003 88.8999 57.8003Z" fill="#35B26A"/>
<path d="M81 57.8003C84.3137 57.8003 87 55.114 87 51.8003C87 48.4866 84.3137 45.8003 81 45.8003C77.6863 45.8003 75 48.4866 75 51.8003C75 55.114 77.6863 57.8003 81 57.8003Z" fill="#D2D6DB"/>
<path d="M82.1 25.1001H4V34.9001H82.1V25.1001Z" fill="#35B26A"/>
<path d="M43.9998 59.7H32.7998C31.9998 59.7 31.2998 59 31.2998 58.2V51C31.2998 50.2 31.9998 49.5 32.7998 49.5H43.8998C44.6998 49.5 45.3998 50.2 45.3998 51V58.2C45.4998 59 44.7998 59.7 43.9998 59.7Z" fill="#D2D6DB"/>
<defs>
<filter id="filter0_d_1485_14595" x="1.2998" y="26.6001" width="122.1" height="94.8999" filterUnits="userSpaceOnUse" color-interpolation-filters="sRGB">
<feFlood flood-opacity="0" result="BackgroundImageFix"/>
<feColorMatrix in="SourceAlpha" type="matrix" values="0 0 0 0 0 0 0 0 0 0 0 0 0 0 0 0 0 0 127 0" result="hardAlpha"/>
<feOffset dy="11"/>
<feGaussianBlur stdDeviation="11"/>
<feColorMatrix type="matrix" values="0 0 0 0 0.397708 0 0 0 0 0.47749 0 0 0 0 0.575 0 0 0 0.27 0"/>
<feBlend mode="normal" in2="BackgroundImageFix" result="effect1_dropShadow_1485_14595"/>
<feBlend mode="normal" in="SourceGraphic" in2="effect1_dropShadow_1485_14595" result="shape"/>
</filter>
<linearGradient id="paint0_linear_1485_14595" x1="62.3244" y1="36.4227" x2="62.3244" y2="89.0488" gradientUnits="userSpaceOnUse">
<stop stop-color="#FDFEFF"/>
<stop offset="0.9964" stop-color="#ECF0F5"/>
</linearGradient>
</defs>
</svg>
