<svg width="160" height="161" viewBox="0 0 160 161" fill="none" xmlns="http://www.w3.org/2000/svg">
<path d="M80.8442 127.96C106.751 127.96 127.753 106.887 127.753 80.8915C127.753 54.8962 106.751 33.8228 80.8442 33.8228C54.9371 33.8228 33.9353 54.8962 33.9353 80.8915C33.9353 106.887 54.9371 127.96 80.8442 127.96Z" fill="#E0F8E9"/>
<path d="M107.083 119.626H21.8542L37.4276 47.7445H122.751L107.083 119.626Z" fill="white"/>
<path d="M107.083 119.626H21.8542L37.4276 47.7445H122.751L107.083 119.626Z" fill="#C2F0D5"/>
<path d="M57.9091 119.626H40.2592C37.0502 119.626 34.4074 116.88 34.5962 113.66L37.4277 47.7445H41.675L57.9091 119.626Z" fill="#92E3B4"/>
<path d="M141.439 119.626H56.2099L41.7692 64.4127L41.6748 64.0339L37.4275 47.7445H122.751L126.432 61.8557L126.998 64.0339L127.092 64.4127L141.439 119.626Z" fill="white"/>
<path d="M126.998 64.0339H41.6748L37.4275 47.7445H122.751L126.432 61.8557L126.998 64.0339Z" fill="#F1F3FA"/>
<path opacity="0.3" d="M59.8911 59.3932C61.5592 59.3932 62.9114 58.0364 62.9114 56.3626C62.9114 54.6889 61.5592 53.332 59.8911 53.332C58.2231 53.332 56.8708 54.6889 56.8708 56.3626C56.8708 58.0364 58.2231 59.3932 59.8911 59.3932Z" fill="#AAB2C5"/>
<path opacity="0.3" d="M109.726 59.3932C111.394 59.3932 112.746 58.0364 112.746 56.3626C112.746 54.6889 111.394 53.332 109.726 53.332C108.058 53.332 106.706 54.6889 106.706 56.3626C106.706 58.0364 108.058 59.3932 109.726 59.3932Z" fill="#AAB2C5"/>
<path d="M59.1359 57.5939C58.5696 57.5939 58.0977 57.1203 58.0977 56.5521C58.0977 55.9839 58.5696 55.5103 59.1359 55.5103C61.2123 55.5103 63.3832 52.5745 63.3832 48.1233C63.3832 48.0286 63.3832 47.8392 63.3832 47.7445C63.2888 43.388 61.118 40.7362 59.1359 40.7362C57.2482 40.7362 55.1718 43.2933 54.8886 47.2709H52.7178C53.0009 42.3462 55.7381 38.6527 59.0415 38.6527C62.5337 38.6527 65.2709 42.7251 65.4596 47.9339C65.4596 48.0286 65.4596 48.1233 65.4596 48.218C65.554 53.4268 62.7225 57.5939 59.1359 57.5939Z" fill="#35B26A"/>
<path d="M108.688 57.5939C108.121 57.5939 107.649 57.1203 107.649 56.5521C107.649 55.9839 108.121 55.5103 108.688 55.5103C110.764 55.5103 112.935 52.5745 112.935 48.1233C112.935 48.0286 112.935 47.8392 112.935 47.7445C112.841 43.388 110.67 40.7362 108.688 40.7362C106.8 40.7362 104.724 43.2933 104.44 47.2709H102.27C102.553 42.3462 105.29 38.6527 108.593 38.6527C112.085 38.6527 114.823 42.7251 115.011 47.9339C115.011 48.0286 115.011 48.1233 115.011 48.218C115.106 53.4268 112.274 57.5939 108.688 57.5939Z" fill="#35B26A"/>
<path d="M11 119.531H148.329" stroke="#D5DAE5" stroke-width="2" stroke-miterlimit="10" stroke-linecap="round" stroke-linejoin="round"/>
<path opacity="0.3" d="M110.198 85.3427C109.631 85.3427 109.254 84.8692 109.254 84.3957C109.254 83.8274 109.631 83.4486 110.198 83.4486H113.124C113.69 83.4486 114.067 83.9221 114.067 84.3957C114.067 84.9639 113.596 85.3427 113.124 85.3427H110.198Z" fill="#D5DAE5"/>
<path opacity="0.3" d="M69.9902 112.05C69.6126 112.05 69.2351 111.766 69.0463 111.387L67.5362 105.799H60.0798C59.5135 105.799 59.136 105.326 59.136 104.852C59.136 104.284 59.6079 103.905 60.0798 103.905H66.9699L64.6103 95.571H57.4371C56.8708 95.571 56.4932 95.0974 56.4932 94.6239C56.4932 94.0557 56.8708 93.6769 57.4371 93.6769H64.044L61.6844 85.3428H54.8887C54.3224 85.3428 53.9449 84.8692 53.9449 84.3957C53.9449 83.8275 54.3224 83.4486 54.8887 83.4486H61.2124L58.8528 75.1145H52.3403C51.774 75.1145 51.3965 74.641 51.3965 74.1675C51.3965 73.5992 51.774 73.2204 52.3403 73.2204H58.2865L57.3427 69.811C57.2483 69.3375 57.5315 68.7692 58.0034 68.6745C58.0978 68.6745 58.1921 68.6745 58.2865 68.6745C58.6641 68.6745 59.0416 68.9587 59.2304 69.3375L60.363 73.2204H67.9137C68.48 73.2204 68.8576 73.5992 68.8576 74.1675C68.8576 74.7357 68.48 75.1145 67.9137 75.1145H60.9293L63.2889 83.4486H75.1813L71.4059 69.811C71.3115 69.3375 71.5947 68.7692 72.0666 68.6745C72.161 68.6745 72.2554 68.6745 72.3498 68.6745C72.7273 68.6745 73.1048 68.9587 73.2936 69.3375L74.4262 73.2204H78.4847C79.051 73.2204 79.4286 73.5992 79.4286 74.1675C79.4286 74.7357 78.9567 75.1145 78.4847 75.1145H74.9925L77.3521 83.4486H85.3748C85.9411 83.4486 86.3186 83.9222 86.3186 84.3957C86.3186 84.9639 85.9411 85.3428 85.3748 85.3428H77.9184L80.278 93.6769H92.2648L87.0737 75.1145H84.5253C83.959 75.1145 83.5815 74.641 83.5815 74.1675C83.5815 73.5992 84.0534 73.2204 84.5253 73.2204H86.5074L85.5636 69.811C85.4692 69.5269 85.5636 69.3375 85.6579 69.0534C85.7523 68.864 85.9411 68.6745 86.2242 68.5798C86.3186 68.5798 86.413 68.5798 86.5074 68.5798C86.8849 68.5798 87.2625 68.864 87.4512 69.2428L88.5838 73.1257H90.5659C91.1322 73.1257 91.5098 73.5045 91.5098 74.0728C91.5098 74.641 91.1322 75.0198 90.5659 75.0198H89.1502L91.5098 83.3539H103.497L101.137 75.0198H95.002C94.4357 75.0198 94.0581 74.5463 94.0581 74.0728C94.0581 73.5045 94.5301 73.1257 95.002 73.1257H100.287L99.3436 69.7163C99.2493 69.2428 99.5324 68.6745 100.004 68.5798C100.099 68.5798 100.193 68.5798 100.287 68.5798C100.665 68.5798 101.043 68.864 101.231 69.2428L102.364 73.1257H114.351L113.407 69.7163C113.312 69.2428 113.596 68.6745 114.068 68.5798C114.162 68.5798 114.256 68.5798 114.351 68.5798C114.728 68.5798 115.106 68.864 115.295 69.2428L116.427 73.1257H123.789C124.355 73.1257 124.733 73.5045 124.733 74.0728C124.733 74.641 124.355 75.0198 123.789 75.0198H116.71L119.07 83.3539H126.149C126.715 83.3539 127.093 83.8275 127.093 84.301C127.093 84.8692 126.715 85.248 126.149 85.248H119.636L121.996 93.5821H128.792C129.358 93.5821 129.735 94.0557 129.735 94.5292C129.735 95.0974 129.358 95.4763 128.792 95.4763H122.562L124.922 103.81H131.34C131.906 103.81 132.284 104.284 132.284 104.757C132.284 105.326 131.812 105.704 131.34 105.704H125.394L126.809 110.724C126.904 111.197 126.621 111.766 126.149 111.86C126.054 111.86 125.96 111.86 125.866 111.86C125.488 111.86 125.111 111.576 124.922 111.197L123.412 105.704H111.425L112.841 110.629C112.935 110.913 112.841 111.103 112.746 111.387C112.652 111.576 112.463 111.766 112.18 111.86C112.086 111.86 111.991 111.86 111.897 111.86C111.519 111.86 111.142 111.576 110.953 111.197L109.443 105.799H97.456L98.8717 110.724C98.9661 111.197 98.683 111.766 98.211 111.86C98.1167 111.86 98.0223 111.86 97.9279 111.86C97.5503 111.86 97.1728 111.576 96.984 111.197L95.4739 105.799H83.4871L84.9029 110.724C84.9973 111.197 84.7141 111.766 84.2422 111.86C84.1478 111.86 84.0534 111.86 83.959 111.86C83.5815 111.86 83.204 111.576 83.0152 111.197L81.505 105.799H69.5182L70.934 110.819C71.0284 111.103 70.934 111.292 70.8396 111.576C70.7452 111.766 70.5565 111.955 70.2733 112.05C70.1789 112.05 70.0846 112.05 69.9902 112.05ZM96.8897 103.905H122.845L120.486 95.571H108.499L109.348 98.6016C109.443 98.8857 109.348 99.0751 109.254 99.3592C109.16 99.5486 108.971 99.738 108.688 99.8327C108.593 99.8327 108.499 99.8327 108.405 99.8327C108.027 99.8327 107.649 99.5486 107.461 99.1698L106.517 95.6657H102.93C102.364 95.6657 101.986 95.1921 101.986 94.7186C101.986 94.1504 102.364 93.7716 102.93 93.7716H105.951L103.591 85.4375H91.6985L94.0581 93.7716H96.984C97.5503 93.7716 97.9279 94.2451 97.9279 94.7186C97.9279 95.2869 97.5503 95.6657 96.984 95.6657H94.5301L96.8897 103.905ZM82.9208 103.905H94.9076L92.548 95.571H80.5612L82.9208 103.905ZM68.9519 103.905H80.9387L78.5791 95.571H75.0869C74.5206 95.571 74.1431 95.0974 74.1431 94.6239C74.1431 94.0557 74.615 93.6769 75.0869 93.6769H78.1072L75.7476 85.3428H63.7608L66.1204 93.6769H69.2351C69.8014 93.6769 70.1789 94.1504 70.1789 94.6239C70.1789 95.1921 69.707 95.571 69.2351 95.571H66.6867L68.9519 103.905ZM108.027 93.6769H120.014L114.823 75.1145H102.741L108.027 93.6769Z" fill="#D5DAE5"/>
<path d="M81.0391 84.0123C77.1171 84.0123 73.8226 81.5029 72.5675 77.8958C72.2538 77.1116 72.7244 76.3274 73.5088 76.0138C74.2932 75.7001 75.0776 76.1706 75.3914 76.9548C76.1758 79.3073 78.529 81.0324 81.0391 81.0324C83.5492 81.0324 85.9024 79.4641 86.6868 76.9548C87.0006 76.1706 87.785 75.7001 88.5694 76.0138C89.3538 76.3274 89.8245 77.1116 89.5107 77.8958C88.2557 81.6598 84.9611 84.0123 81.0391 84.0123Z" fill="#35B26A"/>
<path d="M104.728 84.0123C100.806 84.0123 97.5118 81.5029 96.2567 77.8958C95.943 77.1116 96.4136 76.3274 97.198 76.0138C97.9824 75.7001 98.7668 76.1706 99.0806 76.9548C99.865 79.3073 102.218 81.0324 104.728 81.0324C107.238 81.0324 109.592 79.4641 110.376 76.9548C110.69 76.1706 111.474 75.7001 112.259 76.0138C113.043 76.3274 113.514 77.1116 113.2 77.8958C111.945 81.6598 108.65 84.0123 104.728 84.0123Z" fill="#35B26A"/>
<path d="M97.5292 103.215C99.522 103.215 101.137 101.6 101.137 99.6078C101.137 97.6156 99.522 96.0006 97.5292 96.0006C95.5364 96.0006 93.9209 97.6156 93.9209 99.6078C93.9209 101.6 95.5364 103.215 97.5292 103.215Z" fill="#35B26A"/>
<path d="M22.4885 38.1497V33.5H40.4586V38.1497L28.1966 52.9441H40.67V57.5937H21.8542V52.9441L34.1162 38.1497H22.4885Z" fill="#35B26A"/>
<path d="M45.6884 67.4943V64.5354H57.3162V67.4943L49.4939 77.005H57.5276V79.9639H45.2656V77.005L53.0879 67.4943H45.6884Z" fill="#35B26A"/>
</svg>
