<svg width="160" height="161" viewBox="0 0 160 161" fill="none" xmlns="http://www.w3.org/2000/svg">
<path d="M84.8724 131.1C112.872 131.1 135.572 108.4 135.572 80.3C135.572 52.2 112.872 29.5 84.8724 29.5C56.8724 29.5 34.1724 52.2 34.1724 80.3C34.1724 108.4 56.8724 131.1 84.8724 131.1Z" fill="#E0F8E9"/>
<g filter="url(#filter0_d_1698_10842)">
<path d="M131.872 60H45.1725C43.2725 60 41.7725 58.5 41.7725 56.6V37.1C41.7725 35.2 43.2725 33.7 45.1725 33.7H131.772C133.672 33.7 135.172 35.2 135.172 37.1V56.6C135.272 58.5 133.672 60 131.872 60Z" fill="white"/>
</g>
<path d="M62.7725 46.7999C62.7725 48.9999 61.7725 50.9999 60.2725 52.3999C58.9725 53.5999 57.1725 54.2999 55.2725 54.2999C53.3725 54.2999 51.5725 53.5999 50.2725 52.3999C48.6725 50.9999 47.7725 48.9999 47.7725 46.7999C47.7725 42.6999 51.1725 39.2999 55.2725 39.2999C59.3725 39.2999 62.7725 42.6999 62.7725 46.7999Z" fill="#E5E7EB"/>
<path d="M60.2725 52.4C58.9725 53.6 57.1725 54.3 55.2725 54.3C53.3725 54.3 51.5725 53.6 50.2725 52.4C50.8725 52.2 51.5725 51.9 52.4725 51.5C52.6725 51.4 52.8725 51.2 52.9725 51C53.0725 50.9 53.0725 50.7 53.0725 50.6V48.7L52.9725 48.6C52.7725 48.4 52.6725 48.1 52.6725 47.8L52.4725 47.7C51.9725 47.8 52.0725 47.3 51.8725 46.3C51.8725 45.9 51.8725 45.8 52.0725 45.7L52.2725 45.5C51.3725 43.4 51.7725 42.1 52.7725 41.6C52.4725 40.9 52.4725 40.7 52.4725 40.7C52.4725 40.7 54.4725 41 55.0725 40.9C55.9725 40.7 57.2725 40.9 57.7725 42.1C58.5725 42.4 58.8725 42.9 58.9725 43.5C59.0725 44.4 58.5725 45.4 58.4725 45.7C58.5725 45.8 58.6725 45.9 58.5725 46.2C58.4725 47.1 58.4725 47.7 57.9725 47.6L57.5725 48.5C57.5725 48.6 57.5725 48.6 57.5725 48.7C57.5725 48.8 57.5725 49.1 57.5725 50.7C57.5725 50.9 57.6725 51.1 57.6725 51.2C57.7725 51.4 57.9725 51.5 58.0725 51.6C58.9725 51.9 59.6725 52.2 60.2725 52.4Z" fill="white"/>
<path d="M58.4988 45.8C58.4988 45.5918 58.3948 45.2796 58.2907 45.0714V44.9673C57.8744 44.1347 57.0417 43.8224 56.209 43.8224C54.1274 43.7183 53.9192 44.1347 53.1907 43.5102C53.3988 43.8224 53.3988 44.3428 53.0866 44.9673C52.8784 45.3836 52.4621 45.5918 52.0458 45.6959C51.109 43.5102 51.5254 42.1571 52.5662 41.6367C52.2539 40.9081 52.2539 40.7 52.2539 40.7C52.2539 40.7 54.3356 41.0122 54.9601 40.9081C55.8968 40.7 57.2499 40.9081 57.7703 42.1571C58.6029 42.4693 58.9152 42.9898 59.0193 43.6142C59.1233 44.3428 58.6029 45.3836 58.4988 45.8Z" fill="#35B26A"/>
<path d="M57.6727 51.2V51.6H52.9727V51.1C53.0727 51 53.0727 50.8 53.0727 50.7V48.8L52.9727 48.7V48.6C53.0727 48.8 53.1727 48.9 53.3727 49.1L54.8727 50.1C55.1727 50.4 55.6727 50.4 56.0727 50.1L57.4727 48.9L57.5727 48.8C57.5727 48.9 57.5727 49.2 57.5727 50.8C57.4727 50.9 57.5727 51 57.6727 51.2Z" fill="url(#paint0_linear_1698_10842)"/>
<path d="M87.3726 44.6H68.1726C67.6726 44.6 67.3726 44.2 67.3726 43.8V41.3C67.3726 40.8 67.7726 40.5 68.1726 40.5H87.3726C87.8726 40.5 88.1726 40.9 88.1726 41.3V43.8C88.1726 44.3 87.8726 44.6 87.3726 44.6Z" fill="#F3F4F6"/>
<path d="M110.173 53.1H68.1726C67.6726 53.1 67.3726 52.7 67.3726 52.3V49.8C67.3726 49.3 67.7726 49 68.1726 49H110.173C110.673 49 110.973 49.4 110.973 49.8V52.3C110.973 52.8 110.573 53.1 110.173 53.1Z" fill="#E5E7EB"/>
<g filter="url(#filter1_d_1698_10842)">
<path d="M131.872 125.6H45.1725C43.2725 125.6 41.7725 124.1 41.7725 122.2V102.7C41.7725 100.8 43.2725 99.3 45.1725 99.3H131.772C133.672 99.3 135.172 100.8 135.172 102.7V122.2C135.272 124.1 133.672 125.6 131.872 125.6Z" fill="white"/>
</g>
<path d="M62.7725 112.4C62.7725 114.6 61.7725 116.6 60.2725 118C58.9725 119.2 57.1725 119.9 55.2725 119.9C53.3725 119.9 51.5725 119.2 50.2725 118C48.6725 116.6 47.7725 114.6 47.7725 112.4C47.7725 108.3 51.1725 104.9 55.2725 104.9C59.3725 104.9 62.7725 108.3 62.7725 112.4Z" fill="#E5E7EB"/>
<path d="M60.2725 118C58.9725 119.2 57.1725 119.9 55.2725 119.9C53.3725 119.9 51.5725 119.2 50.2725 118C50.8725 117.8 51.5725 117.5 52.4725 117.1C52.6725 117 52.8725 116.8 52.9725 116.6C53.0725 116.5 53.0725 116.3 53.0725 116.2V114.3L52.9725 114.2C52.7725 114 52.6725 113.7 52.6725 113.4L52.4725 113.3C51.9725 113.4 52.0725 112.9 51.8725 111.9C51.8725 111.5 51.8725 111.4 52.0725 111.3L52.2725 111.1C51.3725 109 51.7725 107.7 52.7725 107.2C52.4725 106.5 52.4725 106.3 52.4725 106.3C52.4725 106.3 54.4725 106.6 55.0725 106.5C55.9725 106.3 57.2725 106.5 57.7725 107.7C58.5725 108 58.8725 108.5 58.9725 109.1C59.0725 110 58.5725 111 58.4725 111.3C58.5725 111.4 58.6725 111.5 58.5725 111.8C58.4725 112.7 58.4725 113.3 57.9725 113.2L57.5725 114C57.5725 114.1 57.5725 114.1 57.5725 114.2C57.5725 114.3 57.5725 114.6 57.5725 116.2C57.5725 116.4 57.6725 116.6 57.6725 116.7C57.7725 116.9 57.9725 117 58.0725 117.1C58.9725 117.6 59.6725 117.8 60.2725 118Z" fill="white"/>
<path d="M58.4988 111.4C58.4988 111.192 58.3948 110.88 58.2907 110.671V110.567C57.8744 109.735 57.0417 109.423 56.209 109.423C54.1274 109.318 53.9192 109.735 53.1907 109.11C53.3988 109.423 53.3988 109.943 53.0866 110.567C52.8784 110.984 52.4621 111.192 52.0458 111.296C51.109 109.11 51.5254 107.757 52.5662 107.237C52.2539 106.508 52.2539 106.3 52.2539 106.3C52.2539 106.3 54.3356 106.612 54.9601 106.508C55.8968 106.3 57.2499 106.508 57.7703 107.757C58.6029 108.069 58.9152 108.59 59.0193 109.214C59.1233 110.047 58.6029 110.984 58.4988 111.4Z" fill="#35B26A"/>
<path d="M57.6727 116.8V117.2H52.9727V116.7C53.0727 116.6 53.0727 116.4 53.0727 116.3V114.4L52.9727 114.3V114.2C53.0727 114.4 53.1727 114.5 53.3727 114.7L54.8727 115.7C55.1727 116 55.6727 116 56.0727 115.7L57.4727 114.5L57.5727 114.4C57.5727 114.5 57.5727 114.8 57.5727 116.4C57.4727 116.5 57.5727 116.7 57.6727 116.8Z" fill="url(#paint1_linear_1698_10842)"/>
<path d="M87.3726 110.3H68.1726C67.6726 110.3 67.3726 109.9 67.3726 109.5V107C67.3726 106.5 67.7726 106.2 68.1726 106.2H87.3726C87.8726 106.2 88.1726 106.6 88.1726 107V109.5C88.1726 109.9 87.8726 110.3 87.3726 110.3Z" fill="#F3F4F6"/>
<path d="M110.173 118.8H68.1726C67.6726 118.8 67.3726 118.4 67.3726 118V115.5C67.3726 115 67.7726 114.7 68.1726 114.7H110.173C110.673 114.7 110.973 115.1 110.973 115.5V118C110.973 118.4 110.573 118.8 110.173 118.8Z" fill="#E5E7EB"/>
<g filter="url(#filter2_d_1698_10842)">
<path d="M117.172 92.8H30.5724C28.6724 92.8 27.1724 91.3 27.1724 89.4V69.9C27.1724 68 28.6724 66.5 30.5724 66.5H117.172C119.072 66.5 120.572 68 120.572 69.9V89.4C120.672 91.3 119.072 92.8 117.172 92.8Z" fill="white"/>
</g>
<path d="M72.7725 77.4001H53.5725C53.0725 77.4001 52.7725 77 52.7725 76.6V74.1C52.7725 73.6 53.1725 73.3 53.5725 73.3H72.7725C73.2725 73.3 73.5725 73.7 73.5725 74.1V76.6C73.5725 77.1 73.2725 77.4001 72.7725 77.4001Z" fill="#F3F4F6"/>
<path d="M95.5725 86H53.5725C53.0725 86 52.7725 85.6 52.7725 85.2V82.7C52.7725 82.2 53.1725 81.9 53.5725 81.9H95.4725C95.9725 81.9 96.2725 82.3 96.2725 82.7V85.2C96.3725 85.6 95.9725 86 95.5725 86Z" fill="#E5E7EB"/>
<path d="M48.2724 79.6C48.2724 81.7 47.3724 83.6 45.9724 85C45.8724 85.1 45.8724 85.1 45.7724 85.2C44.4724 86.4 42.6724 87.1 40.7724 87.1C38.8724 87.1 37.1724 86.4 35.8724 85.3C35.8724 85.3 35.8724 85.3 35.7724 85.3C34.1724 83.9 33.1724 81.9 33.1724 79.6C33.1724 75.5 36.5724 72.1 40.6724 72.1C44.8724 72.1 48.2724 75.5 48.2724 79.6Z" fill="#E5E7EB"/>
<path d="M45.9431 85.1522C45.6388 84.4423 45.1318 83.8339 44.3205 83.4282C43.9149 83.2254 43.6106 83.124 43.1036 83.124H42.7994C42.0895 83.124 41.9881 83.0226 41.9881 83.0226V81.8057C42.7994 81.1972 43.4078 80.3859 43.6106 79.4733C44.1177 79.3719 44.4219 78.9662 44.3205 78.4592C44.3205 78.2563 44.1177 78.0535 44.1177 77.8507C44.1177 77.7493 44.1177 77.6479 44.1177 77.5465C44.1177 77.4451 44.1177 77.4451 44.1177 77.3437C44.1177 77.2422 44.1177 77.2422 44.1177 77.1408C44.1177 76.7352 44.0163 76.431 43.7121 76.0253C43.1036 74.9098 41.8867 74.2 40.5684 74.2C40.2641 74.2 40.0613 74.1999 39.7571 74.3014C39.25 74.4028 38.8444 74.6056 38.4387 74.9098C38.3373 75.0112 38.3373 75.0112 38.2359 75.1126C38.2359 75.1126 38.2359 75.1126 38.1345 75.214C37.7289 75.6197 37.4246 76.1267 37.2218 76.6338C37.019 77.1408 37.019 77.7493 37.019 78.3578C37.019 78.3578 37.019 78.3578 37.019 78.4592C37.019 78.5606 37.019 78.5606 37.019 78.662C37.019 78.662 37.019 78.7634 36.9176 78.7634C37.1204 78.5606 37.019 78.8648 37.1204 79.0676C37.3232 79.5747 37.6275 79.4733 38.0331 79.7775C38.0331 79.7775 38.0331 79.7775 37.9317 79.7775L37.5261 79.8789C35.295 80.5888 35.0922 82.9212 37.3232 83.4282C37.1204 83.5296 37.019 83.6311 36.9176 83.6311C36.3091 84.1381 35.9035 84.7466 35.7007 85.355C37.019 86.4705 38.743 87.1804 40.6698 87.1804C42.5965 87.1804 44.4219 86.4705 45.7403 85.2536C45.8417 85.355 45.9431 85.2536 45.9431 85.1522C46.0445 85.1522 46.0445 85.1522 45.9431 85.1522ZM39.6557 82.7184C39.5543 82.617 39.4528 82.5156 39.4528 82.5156C39.3514 82.4141 39.25 82.4141 39.1486 82.3127C39.1486 82.3127 39.0472 82.3127 39.0472 82.2113C38.743 82.0085 38.4387 81.8057 38.3373 81.5015C38.3373 81.4 38.4387 81.1972 38.6416 80.9944C38.743 81.0958 38.8444 81.1972 38.9458 81.4C39.0472 81.5015 39.1486 81.6029 39.25 81.7043C39.3514 81.7043 39.4528 81.8057 39.4528 81.9071C39.4528 81.9071 39.4528 81.9071 39.5543 81.9071C39.5543 81.9071 39.5543 81.9071 39.6557 81.9071V82.7184Z" fill="white"/>
<path d="M42.9223 83.066C42.8223 83.466 42.6223 83.766 42.6223 83.766L38.8223 83.166L39.0223 82.166C39.0223 82.166 39.1223 82.166 39.1223 82.266C39.2223 82.366 39.3223 82.366 39.4223 82.466C39.5223 82.466 39.5223 82.566 39.6223 82.666V81.966C39.6223 81.966 39.6223 81.966 39.5223 81.966C40.1223 82.266 40.9223 82.466 42.0223 81.766V82.966C42.1223 82.966 42.2223 83.066 42.9223 83.066Z" fill="url(#paint2_linear_1698_10842)"/>
<path d="M42.1324 77.4884C42.8458 77.4884 43.5592 77.3865 44.1707 77.1827C44.1707 77.1827 44.1707 77.0808 44.2726 76.9789C44.1707 76.6731 44.0688 76.2655 43.8649 75.8578C43.2534 74.7367 42.0304 74.0233 40.7056 74.0233C40.3998 74.0233 40.1065 74.0451 39.6976 74.147C39.1534 74.3134 38.9007 74.4595 38.7718 74.5377C38.7718 74.5377 38.4739 74.738 38.2596 74.9406C38.0453 75.1431 37.5462 75.8578 37.3424 76.3674C37.1385 76.9789 36.9741 77.4986 37.076 78.1101C37.1779 78.1101 37.3424 77.998 37.4443 77.998C38.2596 77.5903 38.8711 77.0808 39.1768 76.2654C39.9921 76.9789 41.0113 77.3865 42.1324 77.4884Z" fill="#35B26A"/>
<path d="M40.0725 84.7999C39.7725 85.1999 39.2725 85.1999 38.7725 85.1999C39.2725 84.6999 38.9725 83.1999 37.3725 83.3999C35.0725 82.9999 35.3725 80.5999 37.5725 79.8999L37.9725 79.7999C37.9725 79.7999 37.9725 79.7999 38.0725 79.8999C38.2725 80.3999 38.4725 80.6999 38.7725 81.0999C37.8725 81.8999 39.1725 82.0999 39.7725 82.6999C40.1725 82.8999 40.5725 84.1999 40.0725 84.7999Z" fill="#35B26A"/>
<defs>
<filter id="filter0_d_1698_10842" x="32.7725" y="29.7" width="111.404" height="44.3" filterUnits="userSpaceOnUse" color-interpolation-filters="sRGB">
<feFlood flood-opacity="0" result="BackgroundImageFix"/>
<feColorMatrix in="SourceAlpha" type="matrix" values="0 0 0 0 0 0 0 0 0 0 0 0 0 0 0 0 0 0 127 0" result="hardAlpha"/>
<feOffset dy="5"/>
<feGaussianBlur stdDeviation="4.5"/>
<feColorMatrix type="matrix" values="0 0 0 0 0.397708 0 0 0 0 0.47749 0 0 0 0 0.575 0 0 0 0.17 0"/>
<feBlend mode="normal" in2="BackgroundImageFix" result="effect1_dropShadow_1698_10842"/>
<feBlend mode="normal" in="SourceGraphic" in2="effect1_dropShadow_1698_10842" result="shape"/>
</filter>
<filter id="filter1_d_1698_10842" x="32.7725" y="95.3" width="111.404" height="44.3" filterUnits="userSpaceOnUse" color-interpolation-filters="sRGB">
<feFlood flood-opacity="0" result="BackgroundImageFix"/>
<feColorMatrix in="SourceAlpha" type="matrix" values="0 0 0 0 0 0 0 0 0 0 0 0 0 0 0 0 0 0 127 0" result="hardAlpha"/>
<feOffset dy="5"/>
<feGaussianBlur stdDeviation="4.5"/>
<feColorMatrix type="matrix" values="0 0 0 0 0.397708 0 0 0 0 0.47749 0 0 0 0 0.575 0 0 0 0.17 0"/>
<feBlend mode="normal" in2="BackgroundImageFix" result="effect1_dropShadow_1698_10842"/>
<feBlend mode="normal" in="SourceGraphic" in2="effect1_dropShadow_1698_10842" result="shape"/>
</filter>
<filter id="filter2_d_1698_10842" x="18.1724" y="62.5" width="111.404" height="44.3" filterUnits="userSpaceOnUse" color-interpolation-filters="sRGB">
<feFlood flood-opacity="0" result="BackgroundImageFix"/>
<feColorMatrix in="SourceAlpha" type="matrix" values="0 0 0 0 0 0 0 0 0 0 0 0 0 0 0 0 0 0 127 0" result="hardAlpha"/>
<feOffset dy="5"/>
<feGaussianBlur stdDeviation="4.5"/>
<feColorMatrix type="matrix" values="0 0 0 0 0.397708 0 0 0 0 0.47749 0 0 0 0 0.575 0 0 0 0.17 0"/>
<feBlend mode="normal" in2="BackgroundImageFix" result="effect1_dropShadow_1698_10842"/>
<feBlend mode="normal" in="SourceGraphic" in2="effect1_dropShadow_1698_10842" result="shape"/>
</filter>
<linearGradient id="paint0_linear_1698_10842" x1="55.3241" y1="51.6182" x2="55.3241" y2="49.9655" gradientUnits="userSpaceOnUse">
<stop stop-color="white"/>
<stop offset="1" stop-color="#E2E5EC"/>
</linearGradient>
<linearGradient id="paint1_linear_1698_10842" x1="55.3241" y1="117.218" x2="55.3241" y2="115.566" gradientUnits="userSpaceOnUse">
<stop stop-color="white"/>
<stop offset="1" stop-color="#E2E5EC"/>
</linearGradient>
<linearGradient id="paint2_linear_1698_10842" x1="40.8735" y1="83.7782" x2="40.8735" y2="82.6764" gradientUnits="userSpaceOnUse">
<stop stop-color="white"/>
<stop offset="1" stop-color="#E2E5EC"/>
</linearGradient>
</defs>
</svg>
