<svg width="23" height="22" viewBox="0 0 23 22" fill="none" xmlns="http://www.w3.org/2000/svg">
<path d="M16.5 12.5C17.0523 12.5 17.5 12.0523 17.5 11.5C17.5 10.9477 17.0523 10.5 16.5 10.5C15.9477 10.5 15.5 10.9477 15.5 11.5C15.5 12.0523 15.9477 12.5 16.5 12.5Z" fill="#8491A5"/>
<path d="M16.5 16.5C17.0523 16.5 17.5 16.0523 17.5 15.5C17.5 14.9477 17.0523 14.5 16.5 14.5C15.9477 14.5 15.5 14.9477 15.5 15.5C15.5 16.0523 15.9477 16.5 16.5 16.5Z" fill="#8491A5"/>
<path d="M12.5 11.5C12.5 12.0523 12.0523 12.5 11.5 12.5C10.9477 12.5 10.5 12.0523 10.5 11.5C10.5 10.9477 10.9477 10.5 11.5 10.5C12.0523 10.5 12.5 10.9477 12.5 11.5Z" fill="#8491A5"/>
<path d="M12.5 15.5C12.5 16.0523 12.0523 16.5 11.5 16.5C10.9477 16.5 10.5 16.0523 10.5 15.5C10.5 14.9477 10.9477 14.5 11.5 14.5C12.0523 14.5 12.5 14.9477 12.5 15.5Z" fill="#8491A5"/>
<path d="M6.5 12.5C7.05229 12.5 7.5 12.0523 7.5 11.5C7.5 10.9477 7.05229 10.5 6.5 10.5C5.94772 10.5 5.5 10.9477 5.5 11.5C5.5 12.0523 5.94772 12.5 6.5 12.5Z" fill="#8491A5"/>
<path d="M6.5 16.5C7.05229 16.5 7.5 16.0523 7.5 15.5C7.5 14.9477 7.05229 14.5 6.5 14.5C5.94772 14.5 5.5 14.9477 5.5 15.5C5.5 16.0523 5.94772 16.5 6.5 16.5Z" fill="#8491A5"/>
<path fill-rule="evenodd" clip-rule="evenodd" d="M6.5 0.25C6.91421 0.25 7.25 0.585786 7.25 1V1.76272C7.912 1.74999 8.64133 1.74999 9.44346 1.75H13.5564C14.3586 1.74999 15.088 1.74999 15.75 1.76272V1C15.75 0.585786 16.0858 0.25 16.5 0.25C16.9142 0.25 17.25 0.585786 17.25 1V1.82709C17.5099 1.84691 17.7561 1.87182 17.989 1.90313C19.1614 2.06076 20.1104 2.39288 20.8588 3.14124C21.6071 3.88961 21.9392 4.83855 22.0969 6.01098C22.25 7.15018 22.25 8.6058 22.25 10.4435V12.5564C22.25 14.3941 22.25 15.8498 22.0969 16.989C21.9392 18.1614 21.6071 19.1104 20.8588 19.8588C20.1104 20.6071 19.1614 20.9392 17.989 21.0969C16.8498 21.25 15.3942 21.25 13.5565 21.25H9.44359C7.60585 21.25 6.15018 21.25 5.01098 21.0969C3.83856 20.9392 2.88961 20.6071 2.14124 19.8588C1.39288 19.1104 1.06076 18.1614 0.903135 16.989C0.749972 15.8498 0.749985 14.3942 0.75 12.5564V10.4436C0.749985 8.60582 0.749972 7.15019 0.903135 6.01098C1.06076 4.83855 1.39288 3.88961 2.14124 3.14124C2.88961 2.39288 3.83856 2.06076 5.01098 1.90313C5.2439 1.87182 5.49006 1.84691 5.75 1.82709V1C5.75 0.585786 6.08579 0.25 6.5 0.25ZM5.21085 3.38976C4.20476 3.52502 3.62511 3.77869 3.2019 4.2019C2.77869 4.62511 2.52502 5.20476 2.38976 6.21085C2.36685 6.38123 2.3477 6.56061 2.33168 6.75H20.6683C20.6523 6.56061 20.6331 6.38124 20.6102 6.21085C20.475 5.20476 20.2213 4.62511 19.7981 4.2019C19.3749 3.77869 18.7952 3.52502 17.7892 3.38976C16.7615 3.25159 15.4068 3.25 13.5 3.25H9.5C7.59318 3.25 6.23851 3.25159 5.21085 3.38976ZM2.25 10.5C2.25 9.64599 2.25032 8.90273 2.26309 8.25H20.7369C20.7497 8.90273 20.75 9.64599 20.75 10.5V12.5C20.75 14.4068 20.7484 15.7615 20.6102 16.7892C20.475 17.7952 20.2213 18.3749 19.7981 18.7981C19.3749 19.2213 18.7952 19.475 17.7892 19.6102C16.7615 19.7484 15.4068 19.75 13.5 19.75H9.5C7.59318 19.75 6.23851 19.7484 5.21085 19.6102C4.20476 19.475 3.62511 19.2213 3.2019 18.7981C2.77869 18.3749 2.52502 17.7952 2.38976 16.7892C2.25159 15.7615 2.25 14.4068 2.25 12.5V10.5Z" fill="#8491A5"/>
</svg>
