<svg width="16" height="17" viewBox="0 0 16 17" fill="none" xmlns="http://www.w3.org/2000/svg">
<path d="M9.33336 11.2733L6.69336 8.6333" stroke="#F55555" stroke-miterlimit="10" stroke-linecap="round" stroke-linejoin="round"/>
<path d="M9.3065 8.66003L6.6665 11.3" stroke="#F55555" stroke-miterlimit="10" stroke-linecap="round" stroke-linejoin="round"/>
<path d="M6.66683 4.50004H9.3335C10.6668 4.50004 10.6668 3.83337 10.6668 3.16671C10.6668 1.83337 10.0002 1.83337 9.3335 1.83337H6.66683C6.00016 1.83337 5.3335 1.83337 5.3335 3.16671C5.3335 4.50004 6.00016 4.50004 6.66683 4.50004Z" stroke="#F55555" stroke-miterlimit="10" stroke-linecap="round" stroke-linejoin="round"/>
<path d="M10.6667 3.18005C12.8867 3.30005 14 4.12005 14 7.16672V11.1667C14 13.8334 13.3333 15.1667 10 15.1667H6C2.66667 15.1667 2 13.8334 2 11.1667V7.16672C2 4.12672 3.11333 3.30005 5.33333 3.18005" stroke="#F55555" stroke-miterlimit="10" stroke-linecap="round" stroke-linejoin="round"/>
</svg>
