<svg width="24" height="24" viewBox="0 0 24 24" fill="none" xmlns="http://www.w3.org/2000/svg">
<path d="M8 3.5V4.5H16V3.5V2.5H8V3.5ZM21 8.5H20V16.5H21H22V8.5H21ZM16 21.5V20.5H8V21.5V22.5H16V21.5ZM3 16.5H4V8.5H3H2V16.5H3ZM8 21.5V20.5C5.79086 20.5 4 18.7091 4 16.5H3H2C2 19.8137 4.68629 22.5 8 22.5V21.5ZM21 16.5H20C20 18.7091 18.2091 20.5 16 20.5V21.5V22.5C19.3137 22.5 22 19.8137 22 16.5H21ZM16 3.5V4.5C18.2091 4.5 20 6.29086 20 8.5H21H22C22 5.18629 19.3137 2.5 16 2.5V3.5ZM8 3.5V2.5C4.68629 2.5 2 5.18629 2 8.5H3H4C4 6.29086 5.79086 4.5 8 4.5V3.5Z" fill="#FF830C"/>
<path d="M3 8.49997H21" stroke="#FF830C" stroke-width="2" stroke-linejoin="round"/>
<path d="M16.5 1.99997L16.5 4.99997" stroke="#FF830C" stroke-width="2" stroke-linecap="round" stroke-linejoin="round"/>
<path d="M7.5 1.99997L7.5 4.99997" stroke="#FF830C" stroke-width="2" stroke-linecap="round" stroke-linejoin="round"/>
<path d="M6.5 12.5H7.5" stroke="#FF830C" stroke-width="2" stroke-linecap="round" stroke-linejoin="round"/>
<path d="M11.5 12.5H12.5" stroke="#FF830C" stroke-width="2" stroke-linecap="round" stroke-linejoin="round"/>
<path d="M16.5 12.5H17.5" stroke="#FF830C" stroke-width="2" stroke-linecap="round" stroke-linejoin="round"/>
<path d="M6.5 16.5H7.5" stroke="#FF830C" stroke-width="2" stroke-linecap="round" stroke-linejoin="round"/>
<path d="M11.5 16.5H12.5" stroke="#FF830C" stroke-width="2" stroke-linecap="round" stroke-linejoin="round"/>
<path d="M16.5 16.5H17.5" stroke="#FF830C" stroke-width="2" stroke-linecap="round" stroke-linejoin="round"/>
</svg>
