<svg width="24" height="24" viewBox="0 0 24 24" fill="none" xmlns="http://www.w3.org/2000/svg">
<path d="M16.888 0.333374H7.11134C2.86467 0.333374 0.333008 2.86504 0.333008 7.11171V16.8767C0.333008 21.135 2.86467 23.6667 7.11134 23.6667H16.8763C21.123 23.6667 23.6547 21.135 23.6547 16.8884V7.11171C23.6663 2.86504 21.1347 0.333374 16.888 0.333374ZM15.9197 14.6834C16.258 15.0217 16.258 15.5817 15.9197 15.92C15.7447 16.095 15.523 16.1767 15.3013 16.1767C15.0797 16.1767 14.858 16.095 14.683 15.92L11.9997 13.2367L9.31634 15.92C9.14134 16.095 8.91967 16.1767 8.69801 16.1767C8.47634 16.1767 8.25467 16.095 8.07967 15.92C7.74134 15.5817 7.74134 15.0217 8.07967 14.6834L10.763 12L8.07967 9.31671C7.74134 8.97837 7.74134 8.41837 8.07967 8.08004C8.41801 7.74171 8.97801 7.74171 9.31634 8.08004L11.9997 10.7634L14.683 8.08004C15.0213 7.74171 15.5813 7.74171 15.9197 8.08004C16.258 8.41837 16.258 8.97837 15.9197 9.31671L13.2363 12L15.9197 14.6834Z" fill="#F55555"/>
</svg>
