<svg width="24" height="24" viewBox="0 0 24 24" fill="none" xmlns="http://www.w3.org/2000/svg">
<path d="M16.8885 0.333374H7.11183C2.86516 0.333374 0.333496 2.86504 0.333496 7.11171V16.8767C0.333496 21.135 2.86516 23.6667 7.11183 23.6667H16.8768C21.1235 23.6667 23.6552 21.135 23.6552 16.8884V7.11171C23.6668 2.86504 21.1352 0.333374 16.8885 0.333374ZM17.5768 9.31671L10.9618 15.9317C10.7985 16.095 10.5768 16.1884 10.3435 16.1884C10.1102 16.1884 9.8885 16.095 9.72516 15.9317L6.4235 12.63C6.08516 12.2917 6.08516 11.7317 6.4235 11.3934C6.76183 11.055 7.32183 11.055 7.66016 11.3934L10.3435 14.0767L16.3402 8.08004C16.6785 7.74171 17.2385 7.74171 17.5768 8.08004C17.9152 8.41837 17.9152 8.96671 17.5768 9.31671Z" fill="#47C77D"/>
</svg>
