<svg width="16" height="17" viewBox="0 0 16 17" fill="none" xmlns="http://www.w3.org/2000/svg">
<path d="M9.33336 11.2733L6.69336 8.63333" stroke="#F55555" stroke-miterlimit="10" stroke-linecap="round" stroke-linejoin="round"/>
<path d="M9.3065 8.66L6.6665 11.3" stroke="#F55555" stroke-miterlimit="10" stroke-linecap="round" stroke-linejoin="round"/>
<path d="M6.66683 4.49999H9.3335C10.6668 4.49999 10.6668 3.83333 10.6668 3.16666C10.6668 1.83333 10.0002 1.83333 9.3335 1.83333H6.66683C6.00016 1.83333 5.3335 1.83333 5.3335 3.16666C5.3335 4.49999 6.00016 4.49999 6.66683 4.49999Z" stroke="#F55555" stroke-miterlimit="10" stroke-linecap="round" stroke-linejoin="round"/>
<path d="M10.6667 3.18001C12.8867 3.30001 14 4.12001 14 7.16667V11.1667C14 13.8333 13.3333 15.1667 10 15.1667H6C2.66667 15.1667 2 13.8333 2 11.1667V7.16667C2 4.12667 3.11333 3.30001 5.33333 3.18001" stroke="#F55555" stroke-miterlimit="10" stroke-linecap="round" stroke-linejoin="round"/>
</svg>
