<svg width="20" height="21" viewBox="0 0 20 21" fill="none" xmlns="http://www.w3.org/2000/svg">
<path d="M4.16663 4.71707C4.16663 4.679 4.18618 4.54328 4.44524 4.32453C4.70089 4.10866 5.11446 3.8811 5.68992 3.67558C6.83442 3.26683 8.46391 3 10.299 3C12.1341 3 13.7636 3.26683 14.9081 3.67558C15.4836 3.8811 15.8971 4.10866 16.1528 4.32453C16.4119 4.54328 16.4314 4.679 16.4314 4.71707C16.4314 4.75514 16.4119 4.89086 16.1528 5.10961C15.8971 5.32548 15.4836 5.55304 14.9081 5.75856C13.7636 6.16731 12.1341 6.43414 10.299 6.43414C8.46391 6.43414 6.83442 6.16731 5.68992 5.75856C5.11446 5.55304 4.70089 5.32548 4.44524 5.10961C4.18618 4.89086 4.16663 4.75514 4.16663 4.71707Z" fill="#3A8FF7"/>
<path d="M15.4031 7.14459C15.6599 7.0529 15.9055 6.95195 16.1355 6.8413C16.2703 6.7765 16.4314 6.87217 16.4314 7.02168V8.6418C16.4314 8.67987 16.4119 8.8156 16.1528 9.03435C15.8971 9.25021 15.4836 9.47777 14.9081 9.68329C13.7636 10.092 12.1341 10.3589 10.299 10.3589C8.46391 10.3589 6.83442 10.092 5.68992 9.68329C5.11446 9.47777 4.70089 9.25021 4.44524 9.03435C4.18618 8.8156 4.16663 8.67987 4.16663 8.6418V7.02168C4.16663 6.87217 4.32778 6.77651 4.46252 6.8413C4.69258 6.95195 4.93818 7.0529 5.19491 7.14459C6.53624 7.62363 8.34088 7.90591 10.299 7.90591C12.2572 7.90591 14.0618 7.62363 15.4031 7.14459Z" fill="#3A8FF7"/>
<path d="M15.4031 11.0693C15.6599 10.9776 15.9055 10.8767 16.1355 10.766C16.2703 10.7012 16.4314 10.7969 16.4314 10.9464V12.5665C16.4314 12.6046 16.4119 12.7403 16.1528 12.9591C15.8971 13.1749 15.4836 13.4025 14.9081 13.608C13.7636 14.0168 12.1341 14.2836 10.299 14.2836C8.46391 14.2836 6.83442 14.0168 5.68992 13.608C5.11446 13.4025 4.70089 13.1749 4.44524 12.9591C4.18618 12.7403 4.16663 12.6046 4.16663 12.5665V10.9464C4.16663 10.7969 4.32778 10.7012 4.46252 10.766C4.69258 10.8767 4.93818 10.9776 5.19491 11.0693C6.53624 11.5484 8.34088 11.8306 10.299 11.8306C12.2572 11.8306 14.0618 11.5484 15.4031 11.0693Z" fill="#3A8FF7"/>
<path d="M15.4031 14.9941C15.6599 14.9024 15.9055 14.8014 16.1355 14.6908C16.2703 14.626 16.4314 14.7216 16.4314 14.8711V16.4913C16.4314 16.5293 16.4119 16.6651 16.1528 16.8838C15.8971 17.0997 15.4836 17.3272 14.9081 17.5327C13.7636 17.9415 12.1341 18.2083 10.299 18.2083C8.46391 18.2083 6.83442 17.9415 5.68992 17.5327C5.11446 17.3272 4.70089 17.0997 4.44524 16.8838C4.18618 16.6651 4.16663 16.5293 4.16663 16.4913V14.8711C4.16663 14.7216 4.32778 14.626 4.46252 14.6908C4.69258 14.8014 4.93818 14.9024 5.19491 14.9941C6.53624 15.4731 8.34088 15.7554 10.299 15.7554C12.2572 15.7554 14.0618 15.4731 15.4031 14.9941Z" fill="#3A8FF7"/>
</svg>
