<svg width="20" height="16" viewBox="0 0 20 16" fill="none" xmlns="http://www.w3.org/2000/svg">
<path fill-rule="evenodd" clip-rule="evenodd" d="M7.9963 0H12.0037C15.7819 0 17.671 0 18.8448 1.17157C19.7234 2.04858 19.9443 3.32572 19.9998 5.49444C20.007 5.77248 19.7788 5.99467 19.5092 6.06517C18.6493 6.29007 18.0148 7.07108 18.0148 8C18.0148 8.92892 18.6493 9.70993 19.5092 9.93483C19.7788 10.0053 20.007 10.2275 19.9998 10.5056C19.9443 12.6743 19.7234 13.9514 18.8448 14.8284C17.671 16 15.7819 16 12.0037 16H7.9963C4.21809 16 2.32899 16 1.15525 14.8284C0.276613 13.9514 0.0557041 12.6743 0.000162315 10.5056C-0.00695862 10.2275 0.221206 10.0053 0.49076 9.93483C1.35074 9.70993 1.98521 8.92892 1.98521 8C1.98521 7.07108 1.35074 6.29007 0.490761 6.06517C0.221206 5.99467 -0.00695861 5.77248 0.000162328 5.49444C0.0557042 3.32572 0.276613 2.04858 1.15525 1.17157C2.32899 0 4.21809 0 7.9963 0ZM10.9541 6.19887L10.8556 6.02251C10.4749 5.34084 10.2846 5 10 5C9.71542 5 9.52507 5.34084 9.14437 6.02251L9.04588 6.19887C8.9377 6.39258 8.88361 6.48944 8.79927 6.55334C8.71493 6.61725 8.60989 6.64097 8.39981 6.68841L8.20855 6.73161C7.46929 6.89857 7.09965 6.98205 7.01171 7.26432C6.92377 7.54659 7.17576 7.84072 7.67975 8.42898L7.81013 8.58117C7.95335 8.74833 8.02496 8.83191 8.05717 8.93532C8.08939 9.03872 8.07856 9.15023 8.05691 9.37327L8.0372 9.57632C7.961 10.3612 7.9229 10.7536 8.15314 10.9281C8.38337 11.1025 8.72946 10.9435 9.42163 10.6254L9.60071 10.5431C9.7974 10.4527 9.89575 10.4075 10 10.4075C10.1042 10.4075 10.2026 10.4527 10.3993 10.5431L10.5784 10.6254C11.2705 10.9435 11.6166 11.1025 11.8469 10.9281C12.0771 10.7536 12.039 10.3612 11.9628 9.57632L11.9431 9.37327C11.9214 9.15023 11.9106 9.03872 11.9428 8.93532C11.975 8.83191 12.0466 8.74833 12.1899 8.58117L12.3203 8.42898C12.8242 7.84072 13.0762 7.54659 12.9883 7.26432C12.9003 6.98205 12.5307 6.89857 11.7914 6.73161L11.6002 6.68841C11.3901 6.64097 11.2851 6.61725 11.2007 6.55334C11.1164 6.48944 11.0623 6.39258 10.9541 6.19887Z" fill="#47C77D"/>
</svg>
