<svg width="25" height="24" viewBox="0 0 25 24" fill="none" xmlns="http://www.w3.org/2000/svg">
<path d="M2.40015 8.42871C2.40015 7.32414 3.29558 6.42871 4.40015 6.42871H20.4001C21.5047 6.42871 22.4001 7.32414 22.4001 8.42871V10.0835C22.4001 10.9667 21.8208 11.7453 20.9748 11.9991L13.5495 14.2267C12.7998 14.4516 12.0005 14.4516 11.2508 14.2267L3.82545 11.9991C2.97948 11.7453 2.40015 10.9667 2.40015 10.0835V8.42871Z" stroke="#D2D6DB" stroke-width="2"/>
<path d="M12.4001 11.5717L12.4001 9.85742" stroke="#D2D6DB" stroke-width="2" stroke-linecap="round" stroke-linejoin="round"/>
<path d="M3.2334 11.5713L3.2334 16.9998C3.2334 19.2089 5.02426 20.9998 7.2334 20.9998H17.5667C19.7759 20.9998 21.5667 19.2089 21.5667 16.9998V11.5713" stroke="#D2D6DB" stroke-width="2"/>
<path d="M15.7336 6.42855V5C15.7336 3.89543 14.8381 3 13.7336 3H11.0669C9.96232 3 9.06689 3.89543 9.06689 5L9.06689 6.42855" stroke="#D2D6DB" stroke-width="2"/>
</svg>
