<svg width="26" height="30" viewBox="0 0 26 30" fill="none" xmlns="http://www.w3.org/2000/svg">
    <g opacity="0.3">
        <path opacity="0.3"
            d="M17.9579 6.15564C17.2745 6.15498 16.6193 5.88319 16.1361 5.39996C15.6529 4.91673 15.3812 4.26152 15.3805 3.57813V-0.000610119H3.86484C3.42302 -0.000774311 2.98549 0.0860954 2.57726 0.255066C2.16903 0.424037 1.79808 0.671792 1.48561 0.984162C1.17314 1.29653 0.925266 1.6674 0.756152 2.07559C0.587038 2.48378 0.5 2.92129 0.5 3.36313V23.6406C0.5 24.0825 0.587038 24.52 0.756152 24.9282C0.925266 25.3364 1.17314 25.7073 1.48561 26.0196C1.79808 26.332 2.16903 26.5797 2.57726 26.7487C2.98549 26.9177 3.42302 27.0046 3.86484 27.0044H17.6891C18.5812 27.0044 19.4368 26.65 20.0675 26.0192C20.6983 25.3883 21.0527 24.5327 21.0527 23.6406V6.15564H17.9579Z"
            fill="#0072FF" />
    </g>
    <path
        d="M21.0531 6.15564H17.9582C17.2749 6.15498 16.6197 5.88319 16.1365 5.39996C15.6533 4.91673 15.3815 4.26152 15.3809 3.57812V-0.000610352L21.0531 6.15564Z"
        fill="#0072FF" />
    <path
        d="M16.824 10.4657H3.91963C3.79564 10.4657 3.67674 10.4164 3.58908 10.3287C3.50141 10.2411 3.45215 10.1222 3.45215 9.99817C3.45199 9.93667 3.46396 9.87574 3.48738 9.81888C3.5108 9.76201 3.54521 9.71032 3.58863 9.66678C3.63206 9.62323 3.68364 9.5887 3.74044 9.56512C3.79723 9.54155 3.85813 9.52942 3.91963 9.52942H16.824C16.9483 9.52942 17.0675 9.57881 17.1554 9.66672C17.2433 9.75463 17.2927 9.87385 17.2927 9.99817C17.2924 10.1223 17.2428 10.2412 17.155 10.3288C17.0671 10.4165 16.9481 10.4657 16.824 10.4657Z"
        fill="#0072FF" />
    <path
        d="M16.824 13.2619H3.91963C3.79564 13.2619 3.67674 13.2127 3.58908 13.125C3.50141 13.0373 3.45215 12.9184 3.45215 12.7944C3.45199 12.7329 3.46396 12.672 3.48738 12.6151C3.5108 12.5583 3.54521 12.5066 3.58863 12.463C3.63206 12.4195 3.68364 12.385 3.74044 12.3614C3.79723 12.3378 3.85813 12.3257 3.91963 12.3257H16.824C16.9483 12.3257 17.0675 12.375 17.1554 12.463C17.2433 12.5509 17.2927 12.6701 17.2927 12.7944C17.2924 12.9185 17.2428 13.0374 17.155 13.1251C17.0671 13.2127 16.9481 13.2619 16.824 13.2619Z"
        fill="#0072FF" />
    <path
        d="M16.824 16.0581H3.91963C3.85813 16.0581 3.79723 16.046 3.74044 16.0224C3.68364 15.9989 3.63206 15.9643 3.58863 15.9208C3.54521 15.8772 3.5108 15.8255 3.48738 15.7687C3.46396 15.7118 3.45199 15.6509 3.45215 15.5894C3.45215 15.4654 3.50141 15.3465 3.58908 15.2588C3.67674 15.1711 3.79564 15.1219 3.91963 15.1219H16.824C16.9481 15.1219 17.0671 15.1711 17.155 15.2587C17.2428 15.3464 17.2924 15.4653 17.2927 15.5894C17.2927 15.7137 17.2433 15.8329 17.1554 15.9208C17.0675 16.0087 16.9483 16.0581 16.824 16.0581Z"
        fill="#0072FF" />
    <path
        d="M11.7317 18.8544H3.91963C3.85813 18.8544 3.79723 18.8423 3.74044 18.8187C3.68364 18.7951 3.63206 18.7606 3.58863 18.717C3.54521 18.6735 3.5108 18.6218 3.48738 18.5649C3.46396 18.5081 3.45199 18.4471 3.45215 18.3857C3.45215 18.2617 3.50141 18.1427 3.58908 18.0551C3.67674 17.9674 3.79564 17.9182 3.91963 17.9182H11.7317C11.8557 17.9182 11.9746 17.9674 12.0623 18.0551C12.15 18.1427 12.1992 18.2617 12.1992 18.3857C12.1994 18.4471 12.1874 18.5081 12.164 18.5649C12.1406 18.6218 12.1062 18.6735 12.0627 18.717C12.0193 18.7606 11.9677 18.7951 11.9109 18.8187C11.8541 18.8423 11.7932 18.8544 11.7317 18.8544Z"
        fill="#0072FF" />
    <path
        d="M23.4931 21.3257H7.86384C6.75519 21.3257 5.85645 22.2245 5.85645 23.3332V27.9932C5.85645 29.1019 6.75519 30.0007 7.86384 30.0007H23.4931C24.6017 30.0007 25.5005 29.1019 25.5005 27.9932V23.3332C25.5005 22.2245 24.6017 21.3257 23.4931 21.3257Z"
        fill="#0072FF" />
    <path d="M8.14729 26.6719V27.5806H7.20605V26.6719H8.14729Z" fill="white" />
    <path
        d="M11.7641 26.6744C11.6073 26.9583 11.3709 27.1903 11.0841 27.3419C10.7611 27.5071 10.4019 27.5891 10.0391 27.5806H8.61914V23.8219H10.0391C10.4022 23.8131 10.7618 23.8933 11.0866 24.0556C11.3726 24.2041 11.6083 24.4337 11.7641 24.7156C11.9258 25.0157 12.0071 25.3524 12.0004 25.6931C12.0068 26.035 11.9255 26.3729 11.7641 26.6744ZM10.7866 26.4856C10.8882 26.3813 10.967 26.257 11.0178 26.1205C11.0686 25.984 11.0903 25.8385 11.0816 25.6931C11.0904 25.548 11.0687 25.4026 11.0179 25.2663C10.967 25.13 10.8883 25.0059 10.7866 24.9019C10.5589 24.7022 10.2614 24.6006 9.95914 24.6194H9.52914V26.7669H9.95914C10.2612 26.7854 10.5584 26.6844 10.7866 26.4856Z"
        fill="white" />
    <path
        d="M15.2677 24.0106C15.5537 24.1731 15.7901 24.4103 15.9515 24.6969C16.1206 24.9995 16.2069 25.3415 16.2015 25.6881C16.2078 26.0357 16.1215 26.3787 15.9515 26.6819C15.7904 26.9698 15.5535 27.208 15.2665 27.3706C14.9743 27.5375 14.643 27.6238 14.3065 27.6206C13.97 27.6238 13.6387 27.5375 13.3465 27.3706C13.0595 27.208 12.8225 26.9698 12.6615 26.6819C12.4914 26.3787 12.4051 26.0357 12.4115 25.6881C12.405 25.3413 12.4913 24.9991 12.6615 24.6969C12.8233 24.4103 13.0601 24.173 13.3465 24.0106C13.6387 23.8438 13.97 23.7575 14.3065 23.7606C14.6433 23.7577 14.975 23.8439 15.2677 24.0106ZM13.5927 24.8981C13.4083 25.1187 13.3145 25.4011 13.3302 25.6881C13.3145 25.9741 13.4083 26.2553 13.5927 26.4744C13.6826 26.572 13.7927 26.6488 13.9153 26.6993C14.038 26.7498 14.1702 26.7729 14.3027 26.7669C14.4348 26.7724 14.5665 26.749 14.6887 26.6985C14.8109 26.648 14.9206 26.5715 15.0102 26.4744C15.1955 26.2556 15.2903 25.9744 15.2752 25.6881C15.2902 25.4023 15.1964 25.1214 15.0127 24.9019C14.923 24.8042 14.8129 24.7274 14.6902 24.6768C14.5675 24.6263 14.4353 24.6033 14.3027 24.6094C14.1705 24.6033 14.0386 24.626 13.916 24.6758C13.7935 24.7257 13.6832 24.8015 13.5927 24.8981Z"
        fill="white" />
    <path
        d="M19.6165 24.1619C19.9336 24.4199 20.1492 24.7816 20.2253 25.1832H19.2628C19.1979 25.0167 19.0841 24.8738 18.9365 24.7732C18.781 24.6719 18.5984 24.62 18.4128 24.6244C18.2902 24.6205 18.1684 24.6448 18.0568 24.6956C17.9451 24.7463 17.8467 24.822 17.769 24.9169C17.5951 25.1396 17.5064 25.4171 17.519 25.6994C17.5063 25.9806 17.595 26.257 17.769 26.4782C17.8473 26.5721 17.946 26.6469 18.0575 26.697C18.1691 26.747 18.2906 26.7709 18.4128 26.7669C18.5984 26.7719 18.7812 26.72 18.9365 26.6182C19.0833 26.5193 19.197 26.3787 19.2628 26.2144H20.2253C20.1479 26.6148 19.9325 26.9754 19.6165 27.2332C19.2765 27.4928 18.8565 27.6254 18.429 27.6082C18.0922 27.6153 17.7598 27.5315 17.4665 27.3657C17.1921 27.2062 16.9695 26.9709 16.8253 26.6882C16.67 26.3781 16.5923 26.0349 16.599 25.6882C16.5924 25.3414 16.67 24.9983 16.8253 24.6882C16.9695 24.4054 17.1921 24.1702 17.4665 24.0107C17.7598 23.8449 18.0922 23.7611 18.429 23.7682C18.8587 23.7568 19.2788 23.8961 19.6165 24.1619Z"
        fill="white" />
    <path
        d="M23.0161 27.5806L22.2236 26.4106L21.5436 27.5806H20.5011L21.7036 25.6456L20.4648 23.8219H21.5436L22.3148 24.9544L22.9786 23.8219H24.0161L22.8298 25.7144L24.0948 27.5806H23.0161Z"
        fill="white" />
</svg>
