<svg width="21" height="20" viewBox="0 0 21 20" fill="none" xmlns="http://www.w3.org/2000/svg">
<path d="M5.00001 16L5.00001 15.9105C4.99991 15.0449 4.99981 14.2512 5.08661 13.6056C5.1822 12.8946 5.40709 12.1432 6.02514 11.5251C6.64319 10.9071 7.39464 10.6822 8.1056 10.5866C8.75122 10.4998 9.54488 10.4999 10.4105 10.5H10.5895C11.4551 10.4999 12.2488 10.4998 12.8944 10.5866C13.6054 10.6822 14.3568 10.9071 14.9749 11.5251C15.5929 12.1432 15.8178 12.8946 15.9134 13.6056C15.9989 14.2417 16.0001 15.0215 16 15.8722C18.5726 15.3221 20.5 13.0599 20.5 10.3529C20.5 7.88113 18.893 5.78024 16.6551 5.01498C16.3371 2.19371 13.9159 0 10.9762 0C7.82028 0 5.2619 2.52827 5.2619 5.64706C5.2619 6.33687 5.38706 6.9978 5.61616 7.60887C5.3475 7.55673 5.06983 7.52941 4.78571 7.52941C2.41878 7.52941 0.5 9.42562 0.5 11.7647C0.5 14.1038 2.41878 16 4.78571 16L5.00001 16Z" fill="#636D7C"/>
<path fill-rule="evenodd" clip-rule="evenodd" d="M10.5 12C8.61438 12 7.67157 12 7.08579 12.5858C6.5 13.1716 6.5 14.1144 6.5 16C6.5 17.8856 6.5 18.8284 7.08579 19.4142C7.67157 20 8.61438 20 10.5 20C12.3856 20 13.3284 20 13.9142 19.4142C14.5 18.8284 14.5 17.8856 14.5 16C14.5 14.1144 14.5 13.1716 13.9142 12.5858C13.3284 12 12.3856 12 10.5 12ZM12.3047 15.0842L10.9714 13.7508C10.7111 13.4905 10.2889 13.4905 10.0286 13.7508L8.69526 15.0842C8.43491 15.3445 8.43491 15.7666 8.69526 16.027C8.95561 16.2873 9.37772 16.2873 9.63807 16.027L9.83333 15.8317V17.7778C9.83333 18.146 10.1318 18.4444 10.5 18.4444C10.8682 18.4444 11.1667 18.146 11.1667 17.7778V15.8317L11.3619 16.027C11.6223 16.2873 12.0444 16.2873 12.3047 16.027C12.5651 15.7666 12.5651 15.3445 12.3047 15.0842Z" fill="#636D7C"/>
</svg>
