<svg width="21" height="22" viewBox="0 0 21 22" fill="none" xmlns="http://www.w3.org/2000/svg">
<path fill-rule="evenodd" clip-rule="evenodd" d="M7.90002 0.75C5.27667 0.75 3.15002 2.87665 3.15002 5.5C3.15002 8.12335 5.27667 10.25 7.90002 10.25C10.5234 10.25 12.65 8.12335 12.65 5.5C12.65 2.87665 10.5234 0.75 7.90002 0.75ZM4.65002 5.5C4.65002 3.70507 6.1051 2.25 7.90002 2.25C9.69495 2.25 11.15 3.70507 11.15 5.5C11.15 7.29493 9.69495 8.75 7.90002 8.75C6.1051 8.75 4.65002 7.29493 4.65002 5.5Z" fill="#8491A5"/>
<path d="M13.9 1.75C13.4858 1.75 13.15 2.08579 13.15 2.5C13.15 2.91421 13.4858 3.25 13.9 3.25C15.1427 3.25 16.15 4.25736 16.15 5.5C16.15 6.74264 15.1427 7.75 13.9 7.75C13.4858 7.75 13.15 8.08579 13.15 8.5C13.15 8.91421 13.4858 9.25 13.9 9.25C15.9711 9.25 17.65 7.57107 17.65 5.5C17.65 3.42893 15.9711 1.75 13.9 1.75Z" fill="#8491A5"/>
<path fill-rule="evenodd" clip-rule="evenodd" d="M2.57817 13.0204C3.97754 12.2208 5.86069 11.75 7.90002 11.75C9.93936 11.75 11.8225 12.2208 13.2219 13.0204C14.6 13.8079 15.65 15.0101 15.65 16.5C15.65 17.9899 14.6 19.1921 13.2219 19.9796C11.8225 20.7792 9.93936 21.25 7.90002 21.25C5.86069 21.25 3.97754 20.7792 2.57817 19.9796C1.20002 19.1921 0.150024 17.9899 0.150024 16.5C0.150024 15.0101 1.20002 13.8079 2.57817 13.0204ZM3.32238 14.3228C2.16703 14.983 1.65002 15.7807 1.65002 16.5C1.65002 17.2193 2.16703 18.017 3.32238 18.6772C4.45651 19.3253 6.07337 19.75 7.90002 19.75C9.72668 19.75 11.3435 19.3253 12.4777 18.6772C13.633 18.017 14.15 17.2193 14.15 16.5C14.15 15.7807 13.633 14.983 12.4777 14.3228C11.3435 13.6747 9.72668 13.25 7.90002 13.25C6.07337 13.25 4.45651 13.6747 3.32238 14.3228Z" fill="#8491A5"/>
<path d="M17.0607 12.7674C16.6561 12.6787 16.2562 12.9347 16.1674 13.3393C16.0787 13.7439 16.3348 14.1439 16.7394 14.2326C17.5317 14.4064 18.165 14.7048 18.5829 15.0468C19.0014 15.3892 19.15 15.7237 19.15 16C19.15 16.2507 19.0294 16.545 18.6969 16.8539C18.362 17.165 17.8475 17.4524 17.1838 17.6523C16.7872 17.7717 16.5624 18.19 16.6819 18.5867C16.8013 18.9833 17.2196 19.208 17.6163 19.0886C18.4388 18.8409 19.1743 18.4578 19.7178 17.9529C20.2638 17.4457 20.65 16.7786 20.65 16C20.65 15.1352 20.1758 14.412 19.5328 13.8859C18.8893 13.3593 18.0226 12.9783 17.0607 12.7674Z" fill="#8491A5"/>
</svg>
