<svg width="22" height="22" viewBox="0 0 22 22" fill="none" xmlns="http://www.w3.org/2000/svg">
<path d="M1.30005 9.93841C1.30005 8.71422 1.86063 7.55744 2.82147 6.79888L8.32147 2.45677C9.77471 1.30948 11.8254 1.30948 13.2786 2.45677L18.7786 6.79888C19.7395 7.55744 20.3 8.71422 20.3 9.93841V16.5C20.3 18.7091 18.5092 20.5 16.3 20.5H14.8C14.2478 20.5 13.8 20.0523 13.8 19.5V16.5C13.8 15.3954 12.9046 14.5 11.8 14.5H9.80005C8.69548 14.5 7.80005 15.3954 7.80005 16.5V19.5C7.80005 20.0523 7.35233 20.5 6.80005 20.5H5.30005C3.09091 20.5 1.30005 18.7091 1.30005 16.5L1.30005 9.93841Z" fill="#D2D6DB" stroke="#D2D6DB" stroke-width="1.5"/>
</svg>
