<svg width="25" height="24" viewBox="0 0 25 24" fill="none" xmlns="http://www.w3.org/2000/svg">
<path d="M13.4999 4.99988C13.4999 4.44759 13.0522 3.99988 12.4999 3.99988C11.9476 3.99988 11.4999 4.44759 11.4999 4.99988V10.9999H5.49988C4.94759 10.9999 4.49988 11.4476 4.49988 11.9999C4.49988 12.5522 4.94759 12.9999 5.49988 12.9999H11.4999V18.9999C11.4999 19.5522 11.9476 19.9999 12.4999 19.9999C13.0522 19.9999 13.4999 19.5522 13.4999 18.9999V12.9999H19.4999C20.0522 12.9999 20.4999 12.5522 20.4999 11.9999C20.4999 11.4476 20.0522 10.9999 19.4999 10.9999H13.4999V4.99988Z" fill="#F9FAFB"/>
</svg>
