<svg width="20" height="20" viewBox="0 0 20 20" fill="none" xmlns="http://www.w3.org/2000/svg">
<path fill-rule="evenodd" clip-rule="evenodd" d="M11.7035 3.61281C12.3539 2.96144 13.4087 2.96104 14.0596 3.61192L16.1362 5.68846C16.7815 6.33378 16.7882 7.37849 16.1512 8.03204L14.7679 9.45127L10.3175 5.00086L11.7035 3.61281ZM9.43432 5.88542L13.8954 10.3465L8.45691 15.9264C7.98656 16.409 7.34145 16.6811 6.66783 16.6811L4.37437 16.681C3.66368 16.681 3.09612 16.0885 3.12601 15.3779L3.22447 13.0371C3.2508 12.4111 3.51099 11.8177 3.95354 11.3745L9.43432 5.88542ZM17.0956 17.2454C17.4406 17.2454 17.7203 16.9654 17.7203 16.6201C17.7203 16.2748 17.4406 15.9949 17.0956 15.9949H11.9941C11.6491 15.9949 11.3694 16.2748 11.3694 16.6201C11.3694 16.9654 11.6491 17.2454 11.9941 17.2454H17.0956Z" fill="#0D121C"/>
</svg>
