<svg width="64" height="65" viewBox="0 0 64 65" fill="none" xmlns="http://www.w3.org/2000/svg">
<path d="M11 25.5C11 22.7386 13.2386 20.5 16 20.5H48C50.7614 20.5 53 22.7386 53 25.5V37.5C53 49.098 43.598 58.5 32 58.5C20.402 58.5 11 49.098 11 37.5V25.5Z" fill="#35B26A"/>
<path d="M42 16.5C42 13.8478 40.9464 11.3043 39.0711 9.42893C37.1957 7.55357 34.6522 6.5 32 6.5C29.3478 6.5 26.8043 7.55357 24.9289 9.42893C23.0536 11.3043 22 13.8478 22 16.5" stroke="#35B26A" stroke-width="4" stroke-linecap="round"/>
<rect x="20" y="27.5" width="24" height="24" rx="12" fill="#C2F0D5"/>
<path d="M25.5 39.5C25.5 35.91 28.41 33 32 33C35.59 33 38.5 35.91 38.5 39.5C38.5 43.09 35.59 46 32 46C28.41 46 25.5 43.09 25.5 39.5ZM29.6467 37.1467C29.553 37.2404 29.5004 37.3675 29.5004 37.5C29.5004 37.6325 29.553 37.7596 29.6467 37.8533L31.2933 39.5L29.6467 41.1467C29.5975 41.1924 29.5581 41.2476 29.5308 41.309C29.5035 41.3703 29.4888 41.4365 29.4876 41.5037C29.4864 41.5708 29.4988 41.6375 29.5239 41.6997C29.5491 41.762 29.5865 41.8185 29.634 41.866C29.6815 41.9135 29.738 41.9509 29.8003 41.9761C29.8625 42.0012 29.9292 42.0136 29.9963 42.0124C30.0635 42.0112 30.1297 41.9965 30.191 41.9692C30.2524 41.9419 30.3076 41.9025 30.3533 41.8533L32 40.2067L33.6467 41.8533C33.7415 41.9417 33.8668 41.9897 33.9963 41.9875C34.1259 41.9852 34.2495 41.9327 34.3411 41.8411C34.4327 41.7495 34.4852 41.6259 34.4875 41.4963C34.4897 41.3668 34.4417 41.2415 34.3533 41.1467L32.7067 39.5L34.3533 37.8533C34.4417 37.7586 34.4897 37.6332 34.4875 37.5037C34.4852 37.3741 34.4327 37.2505 34.3411 37.1589C34.2495 37.0673 34.1259 37.0148 33.9963 37.0125C33.8668 37.0103 33.7415 37.0583 33.6467 37.1467L32 38.7933L30.3533 37.1467C30.2596 37.053 30.1325 37.0004 30 37.0004C29.8675 37.0004 29.7404 37.053 29.6467 37.1467Z" fill="#35B26A"/>
</svg>
