<svg width="120" height="69" viewBox="0 0 120 69" fill="none" xmlns="http://www.w3.org/2000/svg">
    <path
        d="M76.0577 15.3333C75.191 11.8333 73.6577 8.43329 71.5577 5.26662C70.7244 3.96662 69.3577 2.26664 68.5244 1.46664L67.0577 -3.8147e-05L66.5244 1.7333C65.8577 3.99997 64.3911 10.0333 64.0244 12C63.7577 13.4 63.8577 13.8333 65.0577 16.5666C68.091 23.3666 69.4577 29.4666 69.491 36.1C69.491 41 69.091 43.8666 67.7244 48.2666L67.1577 50.1666L67.1244 41.5666C67.1244 35.0666 66.991 32.1333 66.5577 29.7666C65.3577 22.7333 62.9577 16.6666 59.7244 12.4333C57.3911 9.33328 53.191 5.53331 50.1244 3.69997C46.4577 1.49998 46.191 1.4333 46.4244 2.63329C46.5244 3.16663 46.7911 6.1333 47.0244 9.2333L47.4244 14.9L50.5911 18.2333C57.0244 25.1 62.2577 34.7333 64.291 43.4333C64.4577 44.2666 64.7244 46.2333 64.791 47.7666L64.991 50.6L64.5244 48.4C61.9244 36.2 53.7577 23.1333 45.3244 17.6666C41.6244 15.2666 40.4911 14.7333 36.3244 13.2666C31.0244 11.4333 26.2911 10.7333 19.2244 10.7333C15.9911 10.7333 13.1577 10.8333 12.991 10.9333C12.791 11.0666 12.891 11.5 13.291 12.0333C14.4244 13.6333 24.391 25.2666 24.9577 25.6333C25.2577 25.8666 26.8244 26.2666 28.4577 26.5666C44.5244 29.6 56.1577 37.1 61.5577 47.9333C63.3577 51.5 63.1577 51.6 60.3911 48.5666C53.6911 41.0666 48.091 36.3999 42.4577 33.5333C34.791 29.6333 27.2577 28.4333 17.4244 29.5666C11.0577 30.3 0.0243816 33.3 0.857715 34.0666C1.12438 34.3 16.791 44.2666 17.891 44.9C18.1244 45.0333 19.1577 44.9 20.2244 44.6333C26.8577 42.9 34.591 42.3666 39.6911 43.2666C46.3911 44.4333 53.3244 47.8666 61.4244 54L63.3911 55.4666L64.5577 54.9333C65.2577 54.6 66.2577 54.4333 67.091 54.5L68.4244 54.6333L69.3244 52.6C70.8911 49.1333 75.2577 35.7666 76.0244 32.1C77.091 27.1 77.091 19.5 76.0577 15.3333Z"
        fill="url(#paint0_linear_22_1477)" />
    <path
        d="M119.158 4.63329C119.624 4.03329 119.991 3.36662 119.991 3.16662C119.991 2.93329 119.724 2.76662 119.424 2.76662C118.491 2.76662 112.591 6.03328 111.691 7.03328C111.224 7.53328 110.724 7.89997 110.558 7.8333C110.158 7.69997 107.658 9.4333 107.658 9.8333C107.658 9.96664 107.291 10.2666 106.824 10.4333C105.524 10.9333 102.958 13.4666 102.324 14.8666C101.791 16.0333 101.724 16.0666 101.558 15.3666C101.358 14.6333 101.324 14.6333 99.991 15.9333C99.2577 16.6333 98.6577 17.4333 98.6577 17.6666C98.6577 17.8999 98.5244 18.1 98.3244 18.1C97.9244 18.1 94.991 22.4333 94.991 23C94.991 23.2333 94.8577 23.4333 94.691 23.4333C94.5244 23.4333 93.6244 24.6333 92.6577 26.1C91.2244 28.3 90.9244 28.9333 91.0577 29.9333C91.1577 30.6999 91.091 31 90.8577 30.7666C90.6577 30.5666 90.3244 30.4333 90.0577 30.4333C89.4244 30.4333 87.5577 34.6333 87.8577 35.5C87.991 35.9666 87.9244 36.1 87.691 35.9666C86.591 35.2666 87.9911 40.4666 89.6577 43.1333C90.591 44.7 90.691 45.0333 90.491 46.5666C90.3577 47.5 90.1577 48.7 89.991 49.2666C89.1244 52.2666 88.8911 54.1666 89.2577 54.7999C89.4911 55.1333 89.6577 55.8 89.6577 56.2666C89.6577 56.8 89.8577 57.1 90.1577 57.1C90.4244 57.1 90.6577 56.9 90.6577 56.6333C90.6577 56.3666 91.0244 55.7333 91.4577 55.2C92.191 54.3333 92.2911 53.7999 92.4577 50.5333C92.6895 45.3339 92.691 45.3331 95.1754 43.9277L95.2244 43.9C96.8244 43.0333 97.2911 42.6 96.9577 42.4C96.591 42.1666 96.6244 42.1 97.0577 42.1C98.2244 42.1 99.6577 40.2999 100.824 37.4333C101.424 35.8666 101.791 34.5 101.624 34.4C101.458 34.3 101.591 33.9333 101.958 33.6333C102.724 32.9333 103.458 30.9333 103.158 30.4333C103.058 30.2666 103.124 30.1 103.291 30.1C103.724 30.1 105.391 26.7999 105.158 26.4333C105.058 26.2666 105.458 25.7 105.991 25.1C106.524 24.5333 107.158 23.3999 107.391 22.6666C107.624 21.8999 107.958 21.0999 108.191 20.9333C108.758 20.4666 111.991 15.5333 111.991 15.1666C111.991 14.9666 112.224 14.7666 112.491 14.6333C112.924 14.5 115.991 10.0333 115.991 9.59996C115.991 9.49997 116.524 8.69995 117.158 7.79995C117.791 6.93328 118.324 6.06663 118.324 5.96663C118.324 5.8333 118.691 5.23329 119.158 4.63329Z"
        fill="url(#paint1_linear_22_1477)" />
    <path
        d="M56.0577 55.3666C51.3244 51.6666 46.291 49.5666 39.891 48.6333C35.691 48 26.991 48 21.991 48.6C14.691 49.5 5.29104 51.4666 4.72438 52.2C4.55771 52.4333 4.15772 54.1 3.82438 55.9333C3.52438 57.7666 2.65771 61.3333 1.92438 63.8666C1.19105 66.4333 0.657709 68.5666 0.724376 68.6333C0.791043 68.7 2.65772 68.1666 4.82438 67.4333C15.1244 64.1 26.9577 62.5666 35.8244 63.4C41.4577 63.9333 45.7577 64.8666 51.3244 66.7999C53.991 67.6999 56.5244 68.4333 56.9244 68.4333C57.4577 68.4333 58.4911 67.6666 59.9577 66.2666C62.4911 63.8333 63.9244 63.1 66.2577 63.1C68.4577 63.1 70.3244 63.8 72.791 65.5666C75.9577 67.8 76.8911 68.2 78.5244 67.9666C79.2911 67.8666 82.4577 66.9666 85.5577 65.9666C93.0244 63.5333 97.9244 62.3333 105.958 60.9333C109.658 60.3 112.791 59.7666 112.924 59.7333C113.058 59.7333 112.791 59.5666 112.391 59.4C111.958 59.2333 109.991 58.9666 108.024 58.7666C100.824 58.1666 90.8577 59.4999 81.8911 62.2999C79.8911 62.9333 77.9244 63.4333 77.5244 63.4333C77.0577 63.4333 76.2577 62.8 75.2244 61.6333C72.9244 58.9333 70.6244 57.9333 66.991 57.9333C63.491 57.9666 61.8244 58.6666 58.8244 61.5C57.6577 62.5666 56.4244 63.4333 56.0577 63.4333C55.6577 63.4333 53.4577 62.8333 51.1577 62.1C37.3244 57.7 23.891 57.3333 10.591 60.9666C9.35771 61.3 8.29104 61.5 8.19104 61.4333C8.12438 61.3333 8.35771 60.0999 8.72438 58.6666L9.42438 56.1L11.0244 55.6333C13.2244 54.9666 18.9577 53.8666 22.1577 53.4666C33.0244 52.1333 43.1244 53.1666 53.691 56.7666C56.391 57.7 58.6577 58.4333 58.791 58.4333C59.3244 58.4333 57.791 56.7 56.0577 55.3666Z"
        fill="url(#paint2_linear_22_1477)" />
    <defs>
        <linearGradient id="paint0_linear_22_1477" x1="100.81" y1="42.5974" x2="10.8103"
            y2="34.5974" gradientUnits="userSpaceOnUse">
            <stop stop-color="#F4D096" />
            <stop offset="1" stop-color="#F2A326" />
        </linearGradient>
        <linearGradient id="paint1_linear_22_1477" x1="100.81" y1="42.5974" x2="10.8103"
            y2="34.5974" gradientUnits="userSpaceOnUse">
            <stop stop-color="#F4D096" />
            <stop offset="1" stop-color="#F2A326" />
        </linearGradient>
        <linearGradient id="paint2_linear_22_1477" x1="100.81" y1="42.5974" x2="10.8103"
            y2="34.5974" gradientUnits="userSpaceOnUse">
            <stop stop-color="#F4D096" />
            <stop offset="1" stop-color="#F2A326" />
        </linearGradient>
    </defs>
</svg>
