<svg width="208" height="165" viewBox="0 0 208 165" fill="none" xmlns="http://www.w3.org/2000/svg">
<path fill-rule="evenodd" clip-rule="evenodd" d="M105.075 0.584156C124.756 0.395107 144.938 -2.50985 162.355 6.65587C181.383 16.6691 198.665 32.4835 204.834 53.0811C210.948 73.4938 204.874 95.8943 194.691 114.613C185.628 131.273 168.576 140.847 152.038 150.134C137.368 158.372 121.89 164.322 105.075 164.939C87.7289 165.575 71.1793 161.205 55.5398 153.675C36.7953 144.649 15.5263 136.278 6.56349 117.503C-2.79744 97.8945 0.151719 74.2192 7.92165 53.9275C15.4403 34.292 30.1593 17.868 48.5897 7.74867C65.6437 -1.61503 85.6208 0.771031 105.075 0.584156Z" fill="white"/>
<path d="M119.058 63.3333C118.191 59.8333 116.658 56.4333 114.558 53.2666C113.724 51.9666 112.358 50.2666 111.524 49.4666L110.058 48L109.524 49.7333C108.858 52 107.391 58.0333 107.024 60C106.758 61.4 106.858 61.8333 108.058 64.5666C111.091 71.3666 112.458 77.4666 112.491 84.1C112.491 89 112.091 91.8666 110.724 96.2666L110.158 98.1666L110.124 89.5666C110.124 83.0666 109.991 80.1333 109.558 77.7666C108.358 70.7333 105.958 64.6666 102.724 60.4333C100.391 57.3333 96.191 53.5333 93.1244 51.7C89.4577 49.5 89.191 49.4333 89.4244 50.6333C89.5244 51.1666 89.7911 54.1333 90.0244 57.2333L90.4244 62.9L93.5911 66.2333C100.024 73.1 105.258 82.7333 107.291 91.4333C107.458 92.2666 107.724 94.2333 107.791 95.7666L107.991 98.6L107.524 96.4C104.924 84.2 96.7577 71.1333 88.3244 65.6666C84.6244 63.2666 83.4911 62.7333 79.3244 61.2666C74.0244 59.4333 69.2911 58.7333 62.2244 58.7333C58.9911 58.7333 56.1577 58.8333 55.991 58.9333C55.791 59.0666 55.891 59.5 56.291 60.0333C57.4244 61.6333 67.391 73.2666 67.9577 73.6333C68.2577 73.8666 69.8244 74.2666 71.4577 74.5666C87.5244 77.6 99.1577 85.1 104.558 95.9333C106.358 99.5 106.158 99.6 103.391 96.5666C96.6911 89.0666 91.091 84.3999 85.4577 81.5333C77.791 77.6333 70.2577 76.4333 60.4244 77.5666C54.0577 78.3 43.0244 81.3 43.8577 82.0666C44.1244 82.3 59.791 92.2666 60.891 92.9C61.1244 93.0333 62.1577 92.9 63.2244 92.6333C69.8577 90.9 77.591 90.3666 82.6911 91.2666C89.3911 92.4333 96.3244 95.8666 104.424 102L106.391 103.467L107.558 102.933C108.258 102.6 109.258 102.433 110.091 102.5L111.424 102.633L112.324 100.6C113.891 97.1333 118.258 83.7666 119.024 80.1C120.091 75.1 120.091 67.5 119.058 63.3333Z" fill="url(#paint0_linear_22_1475)"/>
<path d="M162.158 52.6333C162.624 52.0333 162.991 51.3666 162.991 51.1666C162.991 50.9333 162.724 50.7666 162.424 50.7666C161.491 50.7666 155.591 54.0333 154.691 55.0333C154.224 55.5333 153.724 55.9 153.558 55.8333C153.158 55.7 150.658 57.4333 150.658 57.8333C150.658 57.9666 150.291 58.2666 149.824 58.4333C148.524 58.9333 145.958 61.4666 145.324 62.8666C144.791 64.0333 144.724 64.0666 144.558 63.3666C144.358 62.6333 144.324 62.6333 142.991 63.9333C142.258 64.6333 141.658 65.4333 141.658 65.6666C141.658 65.8999 141.524 66.1 141.324 66.1C140.924 66.1 137.991 70.4333 137.991 71C137.991 71.2333 137.858 71.4333 137.691 71.4333C137.524 71.4333 136.624 72.6333 135.658 74.1C134.224 76.3 133.924 76.9333 134.058 77.9333C134.158 78.6999 134.091 79 133.858 78.7666C133.658 78.5666 133.324 78.4333 133.058 78.4333C132.424 78.4333 130.558 82.6333 130.858 83.5C130.991 83.9666 130.924 84.1 130.691 83.9666C129.591 83.2666 130.991 88.4666 132.658 91.1333C133.591 92.7 133.691 93.0333 133.491 94.5666C133.358 95.5 133.158 96.7 132.991 97.2666C132.124 100.267 131.891 102.167 132.258 102.8C132.491 103.133 132.658 103.8 132.658 104.267C132.658 104.8 132.858 105.1 133.158 105.1C133.424 105.1 133.658 104.9 133.658 104.633C133.658 104.367 134.024 103.733 134.458 103.2C135.191 102.333 135.291 101.8 135.458 98.5333C135.69 93.3339 135.691 93.3331 138.175 91.9277L138.224 91.9C139.824 91.0333 140.291 90.6 139.958 90.4C139.591 90.1666 139.624 90.1 140.058 90.1C141.224 90.1 142.658 88.2999 143.824 85.4333C144.424 83.8666 144.791 82.5 144.624 82.4C144.458 82.3 144.591 81.9333 144.958 81.6333C145.724 80.9333 146.458 78.9333 146.158 78.4333C146.058 78.2666 146.124 78.1 146.291 78.1C146.724 78.1 148.391 74.7999 148.158 74.4333C148.058 74.2666 148.458 73.7 148.991 73.1C149.524 72.5333 150.158 71.3999 150.391 70.6666C150.624 69.8999 150.958 69.0999 151.191 68.9333C151.758 68.4666 154.991 63.5333 154.991 63.1666C154.991 62.9666 155.224 62.7666 155.491 62.6333C155.924 62.5 158.991 58.0333 158.991 57.6C158.991 57.5 159.524 56.6999 160.158 55.7999C160.791 54.9333 161.324 54.0666 161.324 53.9666C161.324 53.8333 161.691 53.2333 162.158 52.6333Z" fill="url(#paint1_linear_22_1475)"/>
<path d="M99.0577 103.367C94.3244 99.6666 89.291 97.5666 82.891 96.6333C78.691 96 69.991 96 64.991 96.6C57.691 97.5 48.291 99.4666 47.7244 100.2C47.5577 100.433 47.1577 102.1 46.8244 103.933C46.5244 105.767 45.6577 109.333 44.9244 111.867C44.191 114.433 43.6577 116.567 43.7244 116.633C43.791 116.7 45.6577 116.167 47.8244 115.433C58.1244 112.1 69.9577 110.567 78.8244 111.4C84.4577 111.933 88.7577 112.867 94.3244 114.8C96.991 115.7 99.5244 116.433 99.9244 116.433C100.458 116.433 101.491 115.667 102.958 114.267C105.491 111.833 106.924 111.1 109.258 111.1C111.458 111.1 113.324 111.8 115.791 113.567C118.958 115.8 119.891 116.2 121.524 115.967C122.291 115.867 125.458 114.967 128.558 113.967C136.024 111.533 140.924 110.333 148.958 108.933C152.658 108.3 155.791 107.767 155.924 107.733C156.058 107.733 155.791 107.567 155.391 107.4C154.958 107.233 152.991 106.967 151.024 106.767C143.824 106.167 133.858 107.5 124.891 110.3C122.891 110.933 120.924 111.433 120.524 111.433C120.058 111.433 119.258 110.8 118.224 109.633C115.924 106.933 113.624 105.933 109.991 105.933C106.491 105.967 104.824 106.667 101.824 109.5C100.658 110.567 99.4244 111.433 99.0577 111.433C98.6577 111.433 96.4577 110.833 94.1577 110.1C80.3244 105.7 66.891 105.333 53.591 108.967C52.3577 109.3 51.291 109.5 51.191 109.433C51.1244 109.333 51.3577 108.1 51.7244 106.667L52.4244 104.1L54.0244 103.633C56.2244 102.967 61.9577 101.867 65.1577 101.467C76.0244 100.133 86.1244 101.167 96.691 104.767C99.391 105.7 101.658 106.433 101.791 106.433C102.324 106.433 100.791 104.7 99.0577 103.367Z" fill="url(#paint2_linear_22_1475)"/>
<defs>
<linearGradient id="paint0_linear_22_1475" x1="143.81" y1="90.5974" x2="53.8103" y2="82.5974" gradientUnits="userSpaceOnUse">
<stop stop-color="#F4D096"/>
<stop offset="1" stop-color="#F2A326"/>
</linearGradient>
<linearGradient id="paint1_linear_22_1475" x1="143.81" y1="90.5974" x2="53.8103" y2="82.5974" gradientUnits="userSpaceOnUse">
<stop stop-color="#F4D096"/>
<stop offset="1" stop-color="#F2A326"/>
</linearGradient>
<linearGradient id="paint2_linear_22_1475" x1="143.81" y1="90.5974" x2="53.8103" y2="82.5974" gradientUnits="userSpaceOnUse">
<stop stop-color="#F4D096"/>
<stop offset="1" stop-color="#F2A326"/>
</linearGradient>
</defs>
</svg>
