<svg width="64" height="65" viewBox="0 0 64 65" fill="none" xmlns="http://www.w3.org/2000/svg">
<rect x="16" y="6.5" width="32" height="52" rx="5" fill="#35B26A"/>
<path d="M23 6.5H41L39.5858 7.91421C39.2107 8.28929 38.702 8.5 38.1716 8.5H25.8284C25.298 8.5 24.7893 8.28929 24.4142 7.91421L23 6.5Z" fill="#C2F0D5"/>
<rect x="27" y="53.5" width="10" height="2" rx="1" fill="#C2F0D5"/>
<rect x="24" y="25.5" width="16" height="14" rx="3" fill="#C2F0D5"/>
<path d="M28 36.5C27.725 36.5 27.4897 36.4022 27.294 36.2065C27.0983 36.0108 27.0003 35.7753 27 35.5V29.5C27 29.225 27.098 28.9897 27.294 28.794C27.49 28.5983 27.7253 28.5003 28 28.5H36C36.275 28.5 36.5105 28.598 36.7065 28.794C36.9025 28.99 37.0003 29.2253 37 29.5V35.5C37 35.775 36.9022 36.0105 36.7065 36.2065C36.5108 36.4025 36.2753 36.5003 36 36.5H28ZM32 32.9125C32.0417 32.9125 32.0855 32.9062 32.1315 32.8935C32.1775 32.8808 32.2212 32.8622 32.2625 32.8375L35.8 30.625C35.8667 30.5833 35.9167 30.5313 35.95 30.469C35.9833 30.4067 36 30.3378 36 30.2625C36 30.0958 35.9292 29.9708 35.7875 29.8875C35.6458 29.8042 35.5 29.8083 35.35 29.9L32 32L28.65 29.9C28.5 29.8083 28.3542 29.8063 28.2125 29.894C28.0708 29.9817 28 30.1045 28 30.2625C28 30.3458 28.0167 30.4188 28.05 30.4815C28.0833 30.5442 28.1333 30.592 28.2 30.625L31.7375 32.8375C31.7792 32.8625 31.823 32.8813 31.869 32.894C31.915 32.9067 31.9587 32.9128 32 32.9125Z" fill="#35B26A"/>
</svg>
