<svg width="25" height="25" viewBox="0 0 25 25" fill="none" xmlns="http://www.w3.org/2000/svg">
<path d="M2.80005 7C2.80005 5.11438 2.80005 4.17157 3.38584 3.58579C3.97162 3 4.91443 3 6.80005 3C8.68567 3 9.62848 3 10.2143 3.58579C10.8 4.17157 10.8 5.11438 10.8 7C10.8 8.88562 10.8 9.82843 10.2143 10.4142C9.62848 11 8.68567 11 6.80005 11C4.91443 11 3.97162 11 3.38584 10.4142C2.80005 9.82843 2.80005 8.88562 2.80005 7Z" stroke="#8491A5" stroke-width="1.5"/>
<path d="M13.8 18C13.8 16.1144 13.8 15.1716 14.3858 14.5858C14.9716 14 15.9144 14 17.8 14C19.6857 14 20.6285 14 21.2143 14.5858C21.8 15.1716 21.8 16.1144 21.8 18C21.8 19.8856 21.8 20.8284 21.2143 21.4142C20.6285 22 19.6857 22 17.8 22C15.9144 22 14.9716 22 14.3858 21.4142C13.8 20.8284 13.8 19.8856 13.8 18Z" stroke="#8491A5" stroke-width="1.5"/>
<path d="M2.80005 18C2.80005 16.1144 2.80005 15.1716 3.38584 14.5858C3.97162 14 4.91443 14 6.80005 14C8.68567 14 9.62848 14 10.2143 14.5858C10.8 15.1716 10.8 16.1144 10.8 18C10.8 19.8856 10.8 20.8284 10.2143 21.4142C9.62848 22 8.68567 22 6.80005 22C4.91443 22 3.97162 22 3.38584 21.4142C2.80005 20.8284 2.80005 19.8856 2.80005 18Z" stroke="#8491A5" stroke-width="1.5"/>
<path d="M13.8 7C13.8 5.11438 13.8 4.17157 14.3858 3.58579C14.9716 3 15.9144 3 17.8 3C19.6857 3 20.6285 3 21.2143 3.58579C21.8 4.17157 21.8 5.11438 21.8 7C21.8 8.88562 21.8 9.82843 21.2143 10.4142C20.6285 11 19.6857 11 17.8 11C15.9144 11 14.9716 11 14.3858 10.4142C13.8 9.82843 13.8 8.88562 13.8 7Z" stroke="#8491A5" stroke-width="1.5"/>
</svg>
