<svg width="280" height="280" viewBox="0 0 280 280" fill="none" xmlns="http://www.w3.org/2000/svg">
<path d="M263.126 91.7363C263.126 91.7363 221.767 124.872 269.389 195.827C311.683 258.841 216.62 286.157 175.656 278.843C122.589 269.367 92.1209 208.147 51.5392 227.545C10.9575 246.943 -29.2453 159.042 29.7845 126.696C103.215 86.4601 56.0884 63.0782 62.6835 33.5758C67.417 12.4023 134.775 -20.3342 171.095 17.0081C201.658 48.4313 216.646 37.1894 230.615 32.9945C250.762 26.9443 294.738 58.415 263.126 91.7363Z" fill="#EDF9F2"/>
<path d="M146.253 136.959L132.705 193.009C132.202 195.088 132.11 197.246 132.434 199.36C132.758 201.475 133.492 203.504 134.594 205.332C135.696 207.16 137.145 208.752 138.857 210.015C140.569 211.279 142.511 212.189 144.572 212.696L211.953 229.264C213.685 248.449 229.427 249.868 235.638 250.525C235.699 250.529 235.76 250.511 235.81 250.477C235.861 250.442 235.899 250.391 235.918 250.332C235.936 250.273 235.936 250.21 235.915 250.152C235.894 250.094 235.855 250.044 235.804 250.01C231.344 247.268 230.012 239.751 229.715 233.631L234.717 234.861C236.778 235.368 238.918 235.461 241.014 235.134C243.111 234.807 245.123 234.067 246.935 232.955C248.748 231.844 250.325 230.383 251.578 228.656C252.831 226.93 253.734 224.971 254.236 222.892L267.784 166.842C268.287 164.763 268.379 162.605 268.054 160.491C267.73 158.377 266.996 156.347 265.894 154.519C264.792 152.691 263.344 151.1 261.632 149.836C259.92 148.573 257.978 147.662 255.917 147.156L165.771 124.99C163.71 124.483 161.571 124.39 159.474 124.717C157.378 125.044 155.366 125.784 153.553 126.896C151.741 128.007 150.163 129.468 148.91 131.195C147.658 132.922 146.755 134.88 146.253 136.959Z" fill="#C6EED7"/>
<path d="M257.811 154.103L220.127 145.718C219.879 145.663 219.629 145.802 219.568 146.028L217.635 153.266C217.574 153.492 217.727 153.721 217.975 153.776L255.659 162.161C255.907 162.217 256.157 162.078 256.217 161.851L258.151 154.613C258.211 154.387 258.059 154.159 257.811 154.103Z" fill="white"/>
<path d="M252.43 174.249L150.328 151.529C150.08 151.474 149.83 151.613 149.769 151.839L147.836 159.077C147.776 159.304 147.928 159.532 148.176 159.587L250.278 182.307C250.526 182.362 250.776 182.223 250.837 181.997L252.77 174.759C252.83 174.533 252.678 174.304 252.43 174.249Z" fill="#EDF9F2"/>
<path d="M247.049 194.395L144.947 171.675C144.699 171.62 144.449 171.759 144.389 171.985L142.455 179.223C142.395 179.45 142.547 179.678 142.795 179.733L244.897 202.453C245.145 202.508 245.395 202.369 245.456 202.143L247.389 194.905C247.449 194.678 247.297 194.45 247.049 194.395Z" fill="#EDF9F2"/>
<path d="M183.965 69.6418L206.124 141.431C206.946 144.093 207.241 146.892 206.99 149.669C206.74 152.446 205.95 155.146 204.665 157.615C203.38 160.084 201.626 162.273 199.502 164.058C197.378 165.842 194.926 167.187 192.287 168.015L106.012 195.12C105.314 220.217 84.9584 223.36 76.9355 224.726C76.8559 224.737 76.7751 224.72 76.7058 224.679C76.6366 224.638 76.5829 224.575 76.5534 224.5C76.5238 224.425 76.52 224.341 76.5426 224.264C76.5652 224.186 76.6129 224.118 76.6782 224.071C82.2553 220.137 83.3778 210.249 83.2689 202.264L76.8632 204.276C74.2246 205.106 71.4498 205.403 68.6975 205.151C65.9451 204.898 63.269 204.101 60.8221 202.805C58.3751 201.508 56.2053 199.738 54.4366 197.596C52.6678 195.453 51.3348 192.98 50.5137 190.318L28.3555 118.529C27.533 115.867 27.2385 113.067 27.4888 110.29C27.739 107.513 28.5292 104.813 29.8141 102.344C31.099 99.8756 32.8535 97.6864 34.9772 95.9019C37.101 94.1174 39.5525 92.7725 42.1916 91.9442L157.615 55.6827C160.254 54.8529 163.028 54.5558 165.781 54.8083C168.533 55.0608 171.21 55.8579 173.657 57.1543C176.104 58.4506 178.274 60.2206 180.043 62.3633C181.811 64.5059 183.144 66.9792 183.965 69.6418Z" fill="#47C77D"/>
<path d="M102.449 95.3534L40.6399 114.747C40.396 114.823 40.2597 115.085 40.3356 115.331L43.5767 125.845C43.6526 126.091 43.9118 126.229 44.1558 126.152L105.965 106.759C106.209 106.682 106.345 106.421 106.269 106.175L103.028 95.6604C102.952 95.4143 102.693 95.2768 102.449 95.3534Z" fill="white"/>
<path d="M180.45 102.017L49.4709 143.168C49.227 143.244 49.0909 143.506 49.1668 143.752L52.4115 154.264C52.4874 154.51 52.7467 154.647 52.9906 154.571L183.969 113.42C184.213 113.344 184.35 113.082 184.274 112.836L181.029 102.324C180.953 102.078 180.694 101.941 180.45 102.017Z" fill="#EDF9F2"/>
<path d="M189.237 130.671L58.2268 171.776C57.9829 171.853 57.8467 172.114 57.9225 172.361L61.1636 182.875C61.2395 183.121 61.4987 183.258 61.7427 183.182L192.752 142.077C192.996 142 193.133 141.739 193.057 141.492L189.816 130.978C189.74 130.732 189.48 130.594 189.237 130.671Z" fill="#EDF9F2"/>
</svg>
