<svg width="26" height="30" viewBox="0 0 26 30" fill="none" xmlns="http://www.w3.org/2000/svg">
<g opacity="0.3">
<path opacity="0.3" d="M17.9587 6.15464C17.2753 6.15398 16.6201 5.8822 16.1369 5.39895C15.6537 4.9157 15.3819 4.26046 15.3813 3.57704V-0.000610352H3.86374C2.97183 -0.000610413 2.11645 0.353629 1.48566 0.98421C0.854867 1.61479 0.500331 2.47009 0.5 3.36203V23.6404C0.500994 24.5319 0.855824 25.3865 1.48654 26.0166C2.11726 26.6466 2.97227 27.0005 3.86374 27.0005H17.6888C18.1306 27.0007 18.5681 26.9138 18.9764 26.7448C19.3846 26.5758 19.7556 26.3281 20.0681 26.0157C20.3806 25.7033 20.6285 25.3324 20.7976 24.9242C20.9667 24.516 21.0537 24.0785 21.0537 23.6366V6.15464H17.9587Z" fill="#A140FF"/>
</g>
<path d="M21.0533 6.15464H17.9583C17.275 6.15398 16.6197 5.8822 16.1365 5.39895C15.6533 4.9157 15.3815 4.26046 15.3809 3.57704V-0.000610352L21.0533 6.15464Z" fill="#A140FF"/>
<path d="M23.493 21.3253H7.86295C6.75423 21.3253 5.85547 22.2242 5.85547 23.3329V27.9931C5.85547 29.1018 6.75423 30.0007 7.86295 30.0007H23.493C24.6017 30.0007 25.5005 29.1018 25.5005 27.9931V23.3329C25.5005 22.2242 24.6017 21.3253 23.493 21.3253Z" fill="#A140FF"/>
<path d="M10.3241 26.6718V27.5805H9.38281V26.6718H10.3241Z" fill="white"/>
<path d="M15.0231 23.8491V27.5804H14.1144V25.2504L13.3056 27.5841H12.5194L11.7056 25.2454V27.5841H10.7969V23.8529H11.9081L12.9231 26.4516L13.9231 23.8529L15.0231 23.8491Z" fill="white"/>
<path d="M16.5601 26.2628V27.5803H15.6514V23.8216H17.1251C17.5714 23.8216 17.9126 23.9328 18.1464 24.1541C18.2646 24.2703 18.357 24.4103 18.4173 24.5648C18.4777 24.7192 18.5046 24.8847 18.4964 25.0503C18.5007 25.2689 18.4467 25.4846 18.3401 25.6753C18.2309 25.8614 18.0691 26.011 17.8751 26.1053C17.6411 26.2164 17.3841 26.2704 17.1251 26.2628H16.5601ZM17.5701 25.0503C17.5701 24.717 17.3876 24.5503 17.0226 24.5503H16.5601V25.5291H17.0226C17.3876 25.5324 17.5701 25.3728 17.5701 25.0503Z" fill="white"/>
<path d="M18.8623 26.8891V26.1253L20.5798 23.7703H21.5573V26.0941H22.0098V26.8853H21.5573V27.5766H20.6373V26.8853L18.8623 26.8891ZM20.7123 24.8266L19.7873 26.0978H20.7123V24.8266Z" fill="white"/>
<path d="M15.4298 16.4888V10.5248C15.4295 10.4959 15.4266 10.467 15.4211 10.4386C15.4197 10.4301 15.4176 10.4217 15.4148 10.4136C15.4103 10.394 15.4045 10.3748 15.3973 10.3561C15.3941 10.3475 15.3903 10.3392 15.3861 10.3311C15.3784 10.3128 15.3692 10.2953 15.3586 10.2786L15.3461 10.2586C15.3303 10.2359 15.3128 10.2146 15.2936 10.1948L15.2848 10.1873C15.2678 10.1713 15.2499 10.1563 15.2311 10.1423L15.2086 10.1286L15.1586 10.1011L15.1323 10.0898C15.1128 10.0823 15.0927 10.076 15.0723 10.0711H15.0523C15.024 10.0651 14.9951 10.0621 14.9661 10.0623H6.54609C6.43037 10.0729 6.32275 10.1263 6.24436 10.2121C6.16597 10.2979 6.12246 10.4099 6.12232 10.5261C6.12232 10.5336 6.12232 10.5398 6.12232 10.5473V16.5101C6.1193 16.5868 6.14368 16.6622 6.19108 16.7226C6.23208 16.7919 6.29041 16.8493 6.36033 16.8892C6.43024 16.9291 6.50933 16.9501 6.58982 16.9501H14.9648C15.0873 16.9495 15.2046 16.9008 15.2916 16.8145C15.3786 16.7283 15.4282 16.6113 15.4298 16.4888ZM6.62482 11.1849V10.2798H7.36106V11.1849H6.62482ZM7.86732 11.1849V10.2798H8.60358V11.1849H7.86732ZM9.10981 11.1849V10.2798H9.84607V11.1849H9.10981ZM10.3523 11.1849V10.2798H11.0886V11.1849H10.3523ZM11.5948 11.1849V10.2798H12.3311V11.1849H11.5948ZM12.8373 11.1849V10.2798H13.5736V11.1849H12.8373ZM14.0798 11.1849V10.2798H14.8161V11.1849H14.0798ZM6.45481 15.5738V11.4299H15.1086V15.5738H6.45481ZM6.62357 16.7226V15.8176H7.35981V16.7226H6.62357ZM7.86606 16.7226V15.8176H8.60233V16.7226H7.86606ZM9.10859 16.7226V15.8176H9.84482V16.7226H9.10859ZM10.3511 16.7226V15.8176H11.0873V16.7226H10.3511ZM11.5936 16.7226V15.8176H12.3298V16.7226H11.5936ZM12.8361 16.7226V15.8176H13.5723V16.7226H12.8361ZM14.0786 16.7226V15.8176H14.8148V16.7226H14.0786Z" fill="#A140FF"/>
<path d="M11.7769 13.1949L10.5807 12.5036C10.5188 12.4682 10.4487 12.4496 10.3774 12.4498C10.3061 12.4499 10.2361 12.4688 10.1743 12.5044C10.1126 12.5401 10.0613 12.5914 10.0255 12.6531C9.98981 12.7148 9.9709 12.7848 9.9707 12.8561V14.2386C9.9709 14.31 9.98981 14.38 10.0255 14.4417C10.0613 14.5034 10.1126 14.5547 10.1743 14.5903C10.2361 14.626 10.3061 14.6449 10.3774 14.645C10.4487 14.6452 10.5188 14.6266 10.5807 14.5911L11.7769 13.8999C11.8387 13.8641 11.89 13.8127 11.9256 13.7508C11.9612 13.6889 11.98 13.6188 11.98 13.5474C11.98 13.476 11.9612 13.4059 11.9256 13.344C11.89 13.2821 11.8387 13.2307 11.7769 13.1949Z" fill="#A140FF"/>
</svg>
