<svg width="267" height="198" viewBox="0 0 267 198" fill="none" xmlns="http://www.w3.org/2000/svg">
<path d="M77.5562 32.886C77.5562 32.886 107.58 55.67 153.224 13.068C193.76 -24.7657 226.859 34.9275 227.09 63.5135C227.39 100.544 186.554 130.173 206.372 154.495C226.189 178.817 167.07 218.981 135.208 184.222C95.5722 140.983 84.8345 176.115 62.2424 176.115C46.0278 176.115 12.7376 135.825 35.2181 105.851C54.1352 80.6288 43.8181 72.2579 38.822 63.5135C31.6149 50.9022 48.7303 16.6715 77.5562 32.886Z" fill="#EDF9F2"/>
<path d="M198.092 83.2351C199.705 83.8347 201.469 83.8746 203.147 83.4894C210.177 81.8758 234.35 77.6033 230.15 96.335C229.235 100.051 215.077 120.865 235.239 128.462C236.717 129.026 238.279 129.334 239.86 129.372C246.068 129.5 258.369 128.034 263.517 122.794C269.736 116.463 262.942 119.465 262.942 119.465C262.942 119.465 239.298 129.783 230.946 118.836C230.017 117.618 229.425 115.849 229.255 114.326C228.961 111.686 230.134 108.197 231.674 105.159C233.759 101.048 243.766 82.5555 222.038 77.1683C217.033 75.9763 209.763 74.9056 200.389 78.8522C194.922 81.1541 196.133 82.5072 198.092 83.2351Z" fill="#C6EED7"/>
<path d="M202.93 76.3314L196.637 78.6868C194.464 79.4998 193.362 81.92 194.175 84.0925L194.487 84.926C195.3 87.0984 197.721 88.2004 199.893 87.3873L206.186 85.032C208.359 84.2189 209.461 81.7987 208.648 79.6263L208.336 78.7928C207.523 76.6204 205.102 75.5184 202.93 76.3314Z" fill="#35955E"/>
<path d="M164.3 83.1468L143.545 90.9146C142.459 91.3211 141.908 92.5312 142.315 93.6174L142.396 93.8358C142.803 94.922 144.013 95.473 145.099 95.0665L165.854 87.2988C166.94 86.8922 167.491 85.6821 167.085 84.5959L167.003 84.3775C166.597 83.2913 165.386 82.7403 164.3 83.1468Z" fill="white"/>
<path d="M170.093 98.6237L149.338 106.391C148.252 106.798 147.701 108.008 148.108 109.094L148.189 109.313C148.596 110.399 149.806 110.95 150.892 110.543L171.647 102.776C172.733 102.369 173.284 101.159 172.878 100.073L172.796 99.8543C172.39 98.7681 171.18 98.2171 170.093 98.6237Z" fill="white"/>
<path d="M189.255 72.5846L172.434 78.8802C170.261 79.6933 169.159 82.1135 169.972 84.2859L175.715 99.6311C176.528 101.803 178.949 102.905 181.121 102.092L197.942 95.7968C200.115 94.9837 201.217 92.5635 200.404 90.3911L194.661 75.046C193.848 72.8736 191.427 71.7716 189.255 72.5846Z" fill="#47C77D"/>
<path d="M174.171 76.6104L157.35 82.906C155.178 83.7191 154.076 86.1393 154.889 88.3117L161.74 106.619C162.553 108.791 164.974 109.893 167.146 109.08L183.968 102.785C186.14 101.972 187.242 99.5515 186.429 97.3791L179.577 79.0717C178.764 76.8993 176.344 75.7973 174.171 76.6104Z" fill="#47C77D"/>
<path d="M176.805 72.8951L176.673 72.9445C175.224 73.4865 174.49 75.1 175.032 76.5483L184.63 102.195C185.172 103.643 186.786 104.378 188.234 103.836L188.366 103.786C189.814 103.244 190.549 101.631 190.007 100.183L180.408 74.536C179.866 73.0877 178.253 72.353 176.805 72.8951Z" fill="#35955E"/>
<path d="M5.28147 89.2924C5.28147 89.2924 39.0646 79.7985 34.1598 101.672C33.3081 105.133 21.047 122.953 35.6518 131.509C38.7878 133.346 42.4068 134.16 46.0411 134.141C52.5571 134.107 62.887 132.853 67.5276 128.13C73.7469 121.799 66.9524 124.801 66.9524 124.801C66.9524 124.801 47.5503 132.782 37.5685 126.42C34.1602 124.248 32.6153 120.042 33.5409 116.107C34.014 114.153 34.7343 112.267 35.6846 110.495C37.8554 106.429 47.7766 87.8914 26.0486 82.5042C21.0434 81.3123 13.7736 80.2415 4.39989 84.1881C-4.97381 88.1348 5.28147 89.2924 5.28147 89.2924Z" fill="#C6EED7"/>
<path d="M72.0701 119.906L65.7768 122.262C63.6044 123.075 62.5024 125.495 63.3154 127.668L63.6274 128.501C64.4405 130.674 66.8607 131.776 69.0331 130.962L75.3264 128.607C77.4988 127.794 78.6008 125.374 77.7877 123.201L77.4758 122.368C76.6627 120.195 74.2425 119.093 72.0701 119.906Z" fill="#35955E"/>
<path d="M82.7028 109.552L73.3759 113.043C71.2035 113.856 70.1015 116.276 70.9146 118.449L75.412 130.465C76.225 132.638 78.6452 133.74 80.8177 132.927L90.1446 129.436C92.317 128.623 93.419 126.203 92.6059 124.03L88.1085 112.014C87.2955 109.841 84.8753 108.739 82.7028 109.552Z" fill="#47C77D"/>
<path d="M98.2303 100.3L84.3212 105.506C82.1488 106.319 81.0468 108.739 81.8599 110.912L88.7116 129.219C89.5247 131.392 91.9449 132.494 94.1173 131.681L108.026 126.475C110.199 125.662 111.301 123.242 110.488 121.069L103.636 102.762C102.823 100.589 100.403 99.4874 98.2303 100.3Z" fill="#47C77D"/>
<path d="M101.176 96.509L101.044 96.5583C99.5959 97.1004 98.8613 98.7139 99.4033 100.162L109.002 125.809C109.544 127.257 111.157 127.992 112.606 127.45L112.738 127.4C114.186 126.858 114.921 125.245 114.379 123.796L104.78 98.1499C104.238 96.7016 102.624 95.9669 101.176 96.509Z" fill="#35955E"/>
<path d="M136.694 80.1701C136.193 80.1145 135.733 79.8667 135.411 79.479C135.089 79.0912 134.93 78.5937 134.968 78.0911L136.006 59.1351C136.068 58.0027 137.024 57.1424 138.109 57.2425L139.621 57.3825C140.706 57.4826 141.483 58.5025 141.331 59.6269L138.781 78.4429C138.722 78.9441 138.472 79.4034 138.084 79.7251C137.695 80.0468 137.197 80.2062 136.694 80.1701Z" fill="#35955E"/>
<path d="M127.732 81.8045C127.577 81.8503 127.413 81.8649 127.252 81.8476C127.09 81.8302 126.934 81.7813 126.791 81.7035C126.649 81.6257 126.523 81.5205 126.421 81.3941C126.319 81.2677 126.243 81.1224 126.198 80.9666L122.492 69.175C122.384 68.8396 122.413 68.4752 122.574 68.1617C122.735 67.8482 123.013 67.6112 123.348 67.5027L124.308 67.2131C124.472 67.1651 124.645 67.1517 124.815 67.1738C124.985 67.1959 125.149 67.253 125.296 67.3416C125.443 67.4301 125.57 67.5481 125.669 67.6882C125.767 67.8283 125.836 67.9873 125.871 68.1554L128.618 80.2366C128.694 80.5614 128.645 80.903 128.481 81.1936C128.317 81.4841 128.05 81.7022 127.732 81.8045Z" fill="#35955E"/>
<path d="M122.732 88.6045C122.068 89.4273 120.732 89.4175 119.704 88.5822L101.452 73.7532C100.362 72.8674 100.04 71.4012 100.745 70.529L101.727 69.3127C102.431 68.4401 103.878 68.5116 104.91 69.47L122.18 85.5155C123.152 86.4191 123.396 87.7817 122.732 88.6045Z" fill="#35955E"/>
<path d="M131.169 126.906C131.639 127.088 132.02 127.445 132.232 127.902C132.444 128.359 132.471 128.881 132.306 129.357L126.462 147.419C126.113 148.498 124.969 149.085 123.945 148.711L122.518 148.19C121.495 147.816 121.003 146.631 121.438 145.584L128.709 128.043C128.893 127.573 129.252 127.193 129.71 126.981C130.169 126.769 130.691 126.742 131.169 126.906Z" fill="#35955E"/>
<path d="M140.25 127.615C140.412 127.61 140.574 127.638 140.726 127.696C140.877 127.754 141.016 127.841 141.134 127.953C141.252 128.064 141.347 128.198 141.413 128.346C141.479 128.494 141.516 128.654 141.52 128.817L142.092 141.164C142.11 141.516 141.989 141.86 141.753 142.122C141.518 142.385 141.188 142.543 140.837 142.562L139.835 142.597C139.663 142.601 139.493 142.57 139.334 142.505C139.175 142.44 139.031 142.343 138.912 142.22C138.793 142.097 138.7 141.951 138.64 141.79C138.58 141.629 138.554 141.458 138.564 141.287L138.994 128.905C139.003 128.571 139.137 128.253 139.37 128.014C139.603 127.775 139.917 127.633 140.25 127.615Z" fill="#35955E"/>
<path d="M146.822 122.317C147.674 121.691 148.963 122.042 149.743 123.112L163.603 142.11C164.43 143.245 164.367 144.744 163.463 145.408L162.203 146.333C161.299 146.997 159.918 146.558 159.165 145.368L146.565 125.444C145.857 124.323 145.969 122.943 146.822 122.317Z" fill="#35955E"/>
</svg>
