<svg width="280" height="280" viewBox="0 0 280 280" fill="none" xmlns="http://www.w3.org/2000/svg">
<path d="M52.663 127.029C52.663 127.029 91.4339 125.477 99.8124 61.7456C107.253 5.14623 172.631 30.9082 191.529 53.47C216.01 82.697 202.96 132.974 234.629 139.325C266.298 145.676 245.618 216.292 197.546 209.533C137.746 201.125 152.214 236.069 134.262 250.859C121.379 261.474 68.5513 251.256 66.7907 212.723C65.3091 180.297 51.6314 180.4 41.9365 176.723C27.9543 171.42 19.1439 133.017 52.663 127.029Z" fill="#EDF9F2"/>
<g clip-path="url(#clip0_327_6144)">
<path d="M176.667 122.667C176.667 163 195 159.333 195 177.667C195 177.667 195 185 187.667 185H92.3333C85 185 85 177.667 85 177.667C85 159.333 103.333 163 103.333 122.667C103.333 102.419 119.749 86 140 86C160.251 86 176.667 102.419 176.667 122.667Z" fill="#47C77D"/>
<path d="M140 97C146.075 97 151 92.0751 151 86C151 79.9249 146.075 75 140 75C133.925 75 129 79.9249 129 86C129 92.0751 133.925 97 140 97Z" fill="#47C77D"/>
<path d="M140 207C143.89 207 147.62 205.455 150.371 202.704C153.121 199.954 154.666 196.223 154.666 192.333H125.333C125.333 196.223 126.878 199.954 129.629 202.704C132.379 205.455 136.11 207 140 207Z" fill="#47C77D"/>
</g>
<g clip-path="url(#clip1_327_6144)">
<path d="M209.538 66.7412C217.889 74.8086 220.796 70.2794 224.592 73.9464C224.592 73.9464 226.111 75.4132 224.644 76.9315L205.575 96.6697C204.109 98.188 202.59 96.7212 202.59 96.7212C198.795 93.0542 203.221 89.9918 194.87 81.9244C190.678 77.8746 190.562 71.1917 194.612 66.9988C198.663 62.806 205.346 62.6914 209.538 66.7412Z" fill="#47C77D"/>
<path d="M196.89 69.1993C198.105 67.9415 198.07 65.9368 196.813 64.7217C195.555 63.5065 193.55 63.5411 192.335 64.7989C191.12 66.0568 191.154 68.0615 192.412 69.2766C193.67 70.4917 195.675 70.4571 196.89 69.1993Z" fill="#47C77D"/>
<path d="M219.665 91.2012C220.443 90.3958 220.869 89.3143 220.85 88.1947C220.83 87.0751 220.367 86.009 219.562 85.2309L213.694 91.3042C214.5 92.0822 215.581 92.5085 216.701 92.4892C217.82 92.4698 218.887 92.0065 219.665 91.2012Z" fill="#47C77D"/>
</g>
<g clip-path="url(#clip2_327_6144)">
<path d="M54.3636 146.177C51.682 157.475 57.0608 157.666 55.8419 162.802C55.8419 162.802 55.3543 164.856 53.3003 164.368L26.5978 158.03C24.5438 157.542 25.0314 155.488 25.0314 155.488C26.2503 150.353 31.1416 152.599 33.8232 141.302C35.1694 135.63 40.859 132.123 46.5313 133.469C52.2035 134.816 55.7098 140.506 54.3636 146.177Z" fill="#47C77D"/>
<path d="M45.8 136.55C47.5016 136.954 49.2085 135.902 49.6124 134.201C50.0163 132.499 48.9643 130.792 47.2627 130.388C45.5611 129.984 43.8542 131.036 43.4503 132.738C43.0464 134.439 44.0984 136.146 45.8 136.55Z" fill="#47C77D"/>
<path d="M38.4864 167.361C39.576 167.619 40.7236 167.435 41.6769 166.847C42.6302 166.26 43.311 165.317 43.5697 164.228L35.3535 162.278C35.0949 163.367 35.2797 164.515 35.8672 165.468C36.4548 166.421 37.3969 167.102 38.4864 167.361Z" fill="#47C77D"/>
</g>
<defs>
<clipPath id="clip0_327_6144">
<rect width="132" height="132" fill="white" transform="translate(74 75)"/>
</clipPath>
<clipPath id="clip1_327_6144">
<rect width="38" height="38" fill="white" transform="translate(179.134 78.4636) rotate(-45.9888)"/>
</clipPath>
<clipPath id="clip2_327_6144">
<rect width="38" height="38" fill="white" transform="translate(28.7764 126) rotate(13.3532)"/>
</clipPath>
</defs>
</svg>
