<svg width="135" height="133" viewBox="0 0 135 133" fill="none" xmlns="http://www.w3.org/2000/svg">
<path d="M67.7 119.121C95.7 119.121 118.4 96.4209 118.4 68.3209C118.4 40.2209 95.6 17.5209 67.7 17.5209C39.7 17.5209 17 40.2209 17 68.3209C17 96.4209 39.7 119.121 67.7 119.121Z" fill="#E0F8E9"/>
<path d="M74.0612 86.7389H62.794C60.1833 86.7389 57.9849 89.1472 57.9849 92.0071V98.1784C57.9849 104.5 62.6566 109.618 68.4276 109.618C74.1986 109.618 78.8704 104.5 78.8704 98.1784V92.0071C78.8704 88.9967 76.6719 86.7389 74.0612 86.7389Z" fill="#47C77D"/>
<g filter="url(#filter0_d_1102_11570)">
<path d="M67.4272 20.9208C70.5875 20.9208 73.061 23.3933 73.061 26.5526V27.6044C84.0857 30.1544 92.2972 40.028 92.2974 51.827V54.9872C92.2976 81.6021 112.309 99.0366 112.359 99.08H22.3589C22.4084 99.0371 42.5569 81.6025 42.5571 54.9872V51.827C42.5573 40.0279 50.7696 30.1543 61.7944 27.6044V26.5526C61.7944 23.3934 64.2671 20.921 67.4272 20.9208Z" fill="#47C77D"/>
</g>
<path d="M56.9849 65.8384C53.5498 65.8384 50.6643 63.6406 49.5651 60.4812C49.2903 59.7944 49.7025 59.1076 50.3895 58.8329C51.0765 58.5582 51.7636 58.9702 52.0384 59.6571C52.7254 61.7175 54.7865 63.2285 56.9849 63.2285C59.1834 63.2285 61.2445 61.8549 61.9315 59.6571C62.2063 58.9702 62.8933 58.5582 63.5803 58.8329C64.2674 59.1076 64.6796 59.7944 64.4048 60.4812C63.3055 63.7779 60.42 65.8384 56.9849 65.8384Z" fill="#E0F8E9"/>
<path d="M77.733 65.8384C74.2979 65.8384 71.4124 63.6406 70.3131 60.4812C70.0383 59.7944 70.4505 59.1076 71.1376 58.8329C71.8246 58.5582 72.5116 58.9702 72.7864 59.6571C73.4734 61.7175 75.5345 63.2285 77.733 63.2285C79.9314 63.2285 81.9925 61.8549 82.6795 59.6571C82.9544 58.9702 83.6414 58.5582 84.3284 58.8329C85.0154 59.1076 85.4276 59.7944 85.1528 60.4812C84.0536 63.7779 81.1681 65.8384 77.733 65.8384Z" fill="#E0F8E9"/>
<path d="M67.4274 82.6571C69.1728 82.6571 70.5877 81.2426 70.5877 79.4977C70.5877 77.7529 69.1728 76.3384 67.4274 76.3384C65.682 76.3384 64.2671 77.7529 64.2671 79.4977C64.2671 81.2426 65.682 82.6571 67.4274 82.6571Z" fill="#E0F8E9"/>
<path d="M84.3618 5.14967V0.5H102.332V5.14967L90.0699 19.9441H102.543V24.5937H83.7275V19.9441L95.9895 5.14967H84.3618Z" fill="#47C77D"/>
<path d="M99.1606 40.0222V37.0634H110.788V40.0222L102.966 49.5329H111V52.4918H98.7378V49.5329L106.56 40.0222H99.1606Z" fill="#47C77D"/>
<defs>
<filter id="filter0_d_1102_11570" x="0.358887" y="9.92078" width="134" height="122.159" filterUnits="userSpaceOnUse" color-interpolation-filters="sRGB">
<feFlood flood-opacity="0" result="BackgroundImageFix"/>
<feColorMatrix in="SourceAlpha" type="matrix" values="0 0 0 0 0 0 0 0 0 0 0 0 0 0 0 0 0 0 127 0" result="hardAlpha"/>
<feOffset dy="11"/>
<feGaussianBlur stdDeviation="11"/>
<feColorMatrix type="matrix" values="0 0 0 0 0.397708 0 0 0 0 0.47749 0 0 0 0 0.575 0 0 0 0.27 0"/>
<feBlend mode="normal" in2="BackgroundImageFix" result="effect1_dropShadow_1102_11570"/>
<feBlend mode="normal" in="SourceGraphic" in2="effect1_dropShadow_1102_11570" result="shape"/>
</filter>
</defs>
</svg>
