<svg width="212" height="190" viewBox="0 0 212 190" fill="none" xmlns="http://www.w3.org/2000/svg">
<path d="M9.61941 92.537C10.7982 92.537 11.7538 91.5805 11.7538 90.4006C11.7538 89.2207 10.7982 88.2642 9.61941 88.2642C8.4406 88.2642 7.48499 89.2207 7.48499 90.4006C7.48499 91.5805 8.4406 92.537 9.61941 92.537Z" stroke="#35B26A"/>
<path d="M13.8028 90.6179C18.108 90.1744 24.8633 90.6989 25.6617 94.0322C26.4602 97.3655 23.4112 98.5846 21.787 98.7775C15.6032 99.7612 7.40369 99.2983 7.40369 94.0322" stroke="#35B26A" stroke-linecap="round"/>
<path d="M12.2473 95.6588C12.5194 95.6588 12.7399 95.438 12.7399 95.1657C12.7399 94.8935 12.5194 94.6727 12.2473 94.6727C11.9753 94.6727 11.7548 94.8935 11.7548 95.1657C11.7548 95.438 11.9753 95.6588 12.2473 95.6588Z" stroke="#35B26A"/>
<path d="M17.0082 95.1657C17.0082 95.4052 16.7853 95.6588 16.4335 95.6588C16.0818 95.6588 15.8589 95.4052 15.8589 95.1657C15.8589 94.9263 16.0818 94.6727 16.4335 94.6727C16.7853 94.6727 17.0082 94.9263 17.0082 95.1657Z" stroke="#35B26A"/>
<path d="M20.6205 95.6588C20.8925 95.6588 21.1131 95.438 21.1131 95.1657C21.1131 94.8935 20.8925 94.6727 20.6205 94.6727C20.3485 94.6727 20.1279 94.8935 20.1279 95.1657C20.1279 95.438 20.3485 95.6588 20.6205 95.6588Z" stroke="#35B26A"/>
<path d="M46.4798 129.606C45.8896 127.326 43.9295 123.119 40.8126 124.541C37.6955 125.963 39.5137 128.51 40.8126 129.606C41.6865 130.199 43.5655 130.833 44.0889 128.629C44.6123 126.425 42.4065 125.519 41.7865 126.496C41.4596 126.881 41.0904 127.847 42.2293 128.629" stroke="#35B26A" stroke-linecap="round"/>
<path d="M60.3909 18.9907C60.2462 18.1742 61.0999 17.5459 61.8354 17.9275L63.3036 18.6894C63.8878 18.9925 64.5836 18.9885 65.1643 18.6787L66.6243 17.8997C67.3554 17.5096 68.2159 18.1277 68.0805 18.9457L67.81 20.5801C67.7026 21.2297 67.9212 21.8906 68.3949 22.3474L69.5864 23.4967C70.1829 24.0721 69.8611 25.0824 69.0419 25.2064L67.4068 25.4537C66.756 25.5522 66.1953 25.9649 65.9074 26.5573L65.1841 28.0457C64.8217 28.7915 63.7622 28.7978 63.3914 28.0564L62.6505 26.5753C62.3561 25.9866 61.791 25.5807 61.1395 25.4897L59.5002 25.2609C58.6797 25.1463 58.3468 24.14 58.9368 23.5578L60.1149 22.3951C60.5835 21.9326 60.7948 21.269 60.6798 20.6206L60.3909 18.9907Z" stroke="#35B26A"/>
<path d="M189.136 167.116C189.85 166.695 190.736 167.278 190.635 168.101L190.433 169.743C190.353 170.397 190.599 171.048 191.092 171.485L192.33 172.584C192.95 173.134 192.671 174.156 191.858 174.314L190.233 174.63C189.587 174.756 189.044 175.191 188.782 175.794L188.12 177.313C187.789 178.073 186.731 178.123 186.33 177.397L185.528 175.95C185.209 175.374 184.627 174.991 183.972 174.927L182.327 174.767C181.502 174.687 181.127 173.695 181.692 173.089L182.821 171.878C183.27 171.397 183.453 170.725 183.311 170.082L182.954 168.464C182.776 167.655 183.602 166.992 184.353 167.342L185.852 168.043C186.448 168.321 187.144 168.288 187.711 167.954L189.136 167.116Z" stroke="#35B26A"/>
<path d="M111.087 92.5228V106.492" stroke="#0D121C" stroke-linecap="round"/>
<path d="M121.595 94.1662V107.478" stroke="#0D121C" stroke-linecap="round"/>
<path d="M97.0178 154.658C93.5481 155.091 85.4253 156.686 83.6461 159.929C83.1122 160.902 82.493 163.27 84.2865 164.956C86.0802 166.643 89.3578 166.199 90.7722 165.767L99.0196 162.442" stroke="#0D121C" stroke-linecap="round"/>
<path d="M144.302 130.183C137.828 130.392 109.233 144.248 95.7447 151.15C94.5961 158.756 99.4431 164.217 102.01 165.996C115.455 162.09 143.049 154.172 145.868 153.755C148.688 153.338 151.481 151.324 152.525 150.369C159.835 141.826 154.44 134.568 150.829 132.006C148.258 130.183 146.038 130.127 144.302 130.183Z" fill="#0D121C"/>
<path d="M83.6568 128.245C88.244 128.551 108.255 136.314 117.737 140.382L96.0525 151.228C86.3482 154.076 80.3866 153.138 78.5661 152.524C68.0569 147.456 72.1744 134.954 76.3498 130.322C79.0409 128.03 82.0132 128.135 83.6568 128.245Z" fill="#0D121C"/>
<path d="M134.712 156.136C137.579 157.515 139.129 159.322 139.915 160.803C141.599 164.662 138.575 166.981 135.122 165.891C133.214 165.288 132.764 164.884 131.753 164.045C131.24 163.62 128.845 161.392 126.111 158.761" stroke="#0D121C" stroke-linecap="round"/>
<path d="M79.8493 93.7818L81.6841 127.156C81.8299 129.807 84.0218 131.881 86.6766 131.881H141.551C144.313 131.881 146.551 129.643 146.551 126.881V92.7422C146.551 89.9544 144.272 87.705 141.484 87.7426L84.7743 88.5078C81.9319 88.5462 79.6933 90.9434 79.8493 93.7818Z" fill="#0D121C"/>
<rect x="81.5334" y="132.457" width="65.018" height="3.12244" rx="1.56122" fill="#0D121C"/>
<path d="M121.759 70.3369C127.478 70.2548 140.066 74.6097 145.074 88.332" stroke="#0D121C" stroke-linecap="round"/>
<path d="M109.199 70.2556C96.1464 72.8029 89.9073 78.3904 84.9817 89.1546" stroke="#0D121C" stroke-linecap="round"/>
<path d="M152.873 83.2524L156.074 77.9114" stroke="#35B26A" stroke-linecap="round"/>
<path d="M156.074 84.7307L160.425 81.1153" stroke="#35B26A" stroke-linecap="round"/>
<path d="M156.731 87.1963C157.579 87.525 159.506 87.8373 160.425 86.4568" stroke="#35B26A" stroke-linecap="round"/>
<path d="M72.7499 82.253L67.8243 77.1584" stroke="#35B26A" stroke-linecap="round"/>
<path d="M77.7571 81.4293L74.8018 73.7876" stroke="#35B26A" stroke-linecap="round"/>
<path d="M71.5185 85.1283L67.8243 83.7315" stroke="#35B26A" stroke-linecap="round"/>
<path d="M148.358 97.5503C151.395 102.316 154.843 107.986 148.358 118.654" stroke="#0D121C" stroke-linecap="round"/>
<path d="M121.841 70.748C122.58 68.6116 121.907 67.1739 121.25 66.9C117.31 70.5155 111.333 69.1734 109.117 66.9822C108.329 67.7053 108.788 69.8441 109.117 70.5015C113.386 75.2344 119.461 72.5831 121.841 70.748Z" fill="#0D121C"/>
<path d="M104.356 83.895L104.689 83.3837C106.546 80.5303 110.163 79.3911 113.321 80.6653V80.6653C116.156 81.8096 119.405 81.0161 121.393 78.694L123.976 75.6781" stroke="#0D121C" stroke-linecap="round"/>
<path d="M78.6604 100.574C77.429 103.478 75.9677 110.517 79.9739 115.447" stroke="#0D121C" stroke-linecap="round"/>
<path d="M133.161 37.158C131.355 43.6494 130.452 44.2246 127.825 47.1005C127.825 44.2583 127.337 39.4876 127.337 37.501C118.735 37.501 111.476 33.9864 108.922 32.2291C109.013 38.1887 103.431 42.0853 103.431 42.0853C103.431 42.0853 104.232 44.492 104.689 49.8785C105.055 54.1878 104.003 53.3549 103.431 52.3999C101.784 47.0821 99.0846 48.5033 97.9408 49.8785C83.9049 27.0511 105.49 22.6404 109.608 23.0606C112.719 20.4017 117.058 18.3181 120.108 18.0125C131.108 16.9103 136.089 26.6324 133.161 37.158Z" fill="#0D121C"/>
<path d="M103.624 56.463C105.102 65.4926 115.02 71.9855 122.177 64.6709C129.334 57.3563 127.902 43.9672 127.137 37.7193" stroke="#0D121C" stroke-linecap="round"/>
<path d="M97.7788 49.3192C96.8758 51.5377 97.723 56.4539 103.624 56.4539" stroke="#0D121C" stroke-linecap="round"/>
<path d="M100.381 50.5384C100.251 51.0131 100.355 52.1379 101.818 52.8391" stroke="#0D121C" stroke-linecap="round"/>
<path d="M126.938 55.3044C128.864 54.5008 130.222 51.5246 129.7 46.7588" stroke="#0D121C" stroke-linecap="round"/>
<path d="M116.102 60.7276C117.99 61.2206 117.871 59.8639 119.304 58.6734" stroke="#0D121C" stroke-linecap="round"/>
<ellipse cx="121.739" cy="49.2469" rx="1.2314" ry="1.23254" fill="#0D121C"/>
<ellipse cx="110.902" cy="49.4114" rx="1.2314" ry="1.23254" fill="#0D121C"/>
<path d="M108.221 46.5941C108.48 45.8305 109.598 44.4177 111.997 44.8759" stroke="#0D121C" stroke-linecap="round"/>
<path d="M119.714 45.1142C120.286 44.6182 121.842 43.9237 123.49 45.1142" stroke="#0D121C" stroke-linecap="round"/>
<path d="M115.742 48.5662C115.551 50.1889 115.42 53.4796 116.43 53.6607" stroke="#0D121C" stroke-linecap="round"/>
<path d="M163.052 123.104C184.971 129.184 224.343 136.169 206.48 115.462C200.843 109.902 192.524 103.383 179.143 97.6312" stroke="#0D121C" stroke-linecap="round"/>
<path d="M186.777 80.6211C200.405 71.8838 222.356 53.8339 201.143 51.5331C179.931 49.2324 160.562 57.2028 153.529 61.4756" stroke="#0D121C" stroke-linecap="round"/>
<path d="M133.991 67.8521C143.021 48.3779 157.634 8.01626 143.842 2.363C126.603 -4.70358 104.273 15.6745 86.0487 64.3188" stroke="#0D121C" stroke-linecap="round"/>
<path d="M65.9654 51.0772C45.7704 40.0117 4.5431 22.9916 1.19369 43.4354C-2.15572 63.8792 38.7651 80.9321 59.6442 86.903" stroke="#0D121C" stroke-linecap="round"/>
<path d="M65.0055 97.6312C35.534 112.668 -1.39331 133.465 19.0611 144.303C27.4345 148.741 48.8609 146.029 58.7121 142.003" stroke="#0D121C" stroke-linecap="round"/>
<ellipse cx="113.222" cy="185.07" rx="40.6362" ry="4.93017" fill="#F3F4F6"/>
</svg>
