<svg width="178" height="201" viewBox="0 0 178 201" fill="none" xmlns="http://www.w3.org/2000/svg">
<path d="M116.664 38.7517C116.603 41.8191 116.452 50.971 116.694 53.2766L116.664 38.7517ZM116.664 38.7517C118.133 37.5889 121.375 34.7321 121.475 31.9454C121.606 28.3367 118.516 28.1463 118.516 28.1463L116.664 38.7517ZM90.2904 19.8363C90.2904 19.8363 90.7434 33.3387 91.7299 38.451C92.7163 43.5633 95.102 46.9815 97.226 48.0641C99.35 49.1467 102.249 48.9061 102.249 48.9061L102.007 52.5348" stroke="#111927" stroke-width="0.258127" stroke-linecap="round" stroke-linejoin="round"/>
<path fill-rule="evenodd" clip-rule="evenodd" d="M26.8836 0.5C26.8836 0.5 33.3562 18.854 35.2486 25.951C37.1411 33.0481 38.8825 40.3556 38.8825 40.3556L15.7605 45.1371L1.14433 17.3705L26.8836 0.5Z" fill="#35B26A"/>
<path fill-rule="evenodd" clip-rule="evenodd" d="M29.3599 1.81331L28.313 2.41476L27.9506 1.3923L1.14433 17.3706L14.4519 54.4396L41.5098 41.7491L31.7657 10.1934C32.2288 9.84258 32.6012 9.55188 32.6012 9.55188L30.7289 2.42478L29.682 2.92598L29.3599 1.81331Z" fill="white"/>
<path fill-rule="evenodd" clip-rule="evenodd" d="M30.5978 62.7695C30.5978 62.7695 27.9806 56.3942 25.5043 53.0662C24.8902 52.2442 24.3366 51.4123 23.8534 50.6404L24.0044 50.5803L24.1453 50.5101L24.2863 50.4499L24.4171 50.3998L24.4272 50.3898L24.5782 50.3297L24.7191 50.2695L24.8701 50.2094L25.011 50.1392L25.0614 50.1192L25.162 50.0791L25.3029 50.0189L25.4539 49.9487L25.5949 49.8886L25.7157 49.8385L25.7459 49.8285L25.8968 49.7583L26.0378 49.6981L26.1888 49.638L26.3398 49.5678L26.37 49.5578L26.4908 49.5077L26.7827 49.3774L26.9337 49.3172L27.0343 49.2671L27.0847 49.2471L27.2357 49.1869L27.3866 49.1167L28.3731 48.6957L28.4436 48.6657L28.5946 48.5955L28.7456 48.5354L28.8966 48.4652L29.0375 48.405H29.0476L29.1986 48.3349L29.3496 48.2747L29.5006 48.2046L29.6515 48.1444L29.7119 48.1143L29.8025 48.0742L29.9435 48.0141L30.0945 47.9439L30.2455 47.8838L30.3763 47.8236L30.3964 47.8136L30.5474 47.7535L30.6984 47.6833L30.8494 47.6232L31.0004 47.563L31.0407 47.543L31.1514 47.4929L31.2923 47.4327L31.4433 47.3625L31.5943 47.3024L31.695 47.2523L31.8862 47.1721L32.0372 47.1019L32.1882 47.0418L32.3292 46.9816L32.3493 46.9716L32.4801 46.9115L32.6211 46.8513L32.7721 46.7912L32.913 46.721L33.0036 46.6909L33.064 46.6609L33.2049 46.6007L33.3559 46.5406C34.9464 45.8389 36.4563 45.1773 37.8052 44.5959C37.8656 46.1797 37.9058 47.9239 37.7951 48.5754C37.5737 49.8786 36.416 53.7178 37.5032 56.1837C38.5903 58.6396 30.5978 62.7695 30.5978 62.7695Z" fill="white"/>
<path d="M37.8052 44.5959C37.8656 46.1797 37.9058 47.9239 37.7951 48.5754C37.5737 49.8786 36.416 53.7178 37.5032 56.1837C38.5903 58.6396 30.5978 62.7695 30.5978 62.7695C30.5978 62.7695 27.9806 56.3942 25.5043 53.0662C24.8902 52.2442 24.3366 51.4123 23.8534 50.6404" stroke="#111927" stroke-width="0.258127" stroke-linecap="round" stroke-linejoin="round"/>
<path fill-rule="evenodd" clip-rule="evenodd" d="M26.2191 190.125C26.2191 190.125 32.4802 200.399 38.369 200.399C44.2577 200.399 45.5965 196.49 46.3615 194.505C47.1266 192.51 47.2776 190.696 47.2776 190.696L40.9459 191.057C40.9459 191.057 39.7883 196.309 37.7851 196.821C35.782 197.322 34.1814 195.006 32.7319 192.18C31.2723 189.363 26.2191 190.125 26.2191 190.125Z" fill="#35B26A"/>
<path fill-rule="evenodd" clip-rule="evenodd" d="M75.9559 139.895C75.9559 139.895 76.3887 159.301 77.043 171.751C77.6973 184.211 80.6769 200.5 80.6769 200.5H130.565C132.025 183.399 136.826 145.608 135.437 130.622C134.873 124.588 75.9559 139.895 75.9559 139.895Z" fill="#111927" stroke="#111927" stroke-width="0.258127" stroke-linecap="round" stroke-linejoin="round"/>
<path fill-rule="evenodd" clip-rule="evenodd" d="M77.1035 62.8396C74.2648 66.3179 60.1218 83.8801 60.1218 83.8801C60.1218 83.8801 48.3343 63.421 45.6164 59.3312C42.8885 55.2414 41.1772 52.8456 41.1772 52.8456C41.1772 52.8456 37.1004 55.3416 33.6175 57.6973C30.1245 60.0529 28.0106 62.2582 28.0106 62.2582C28.0106 62.2582 40.0498 104.55 55.9041 107.016C63.0007 108.118 71.2248 103.186 77.0934 98.455C76.6404 107.336 74.0836 137.739 75.1808 140.576C76.0566 142.821 79.4791 144.776 94.5985 145.718C109.728 146.661 130.011 138.912 132.196 137.318C134.38 135.724 136.595 133.449 136.373 128.347C136.162 123.234 139.373 93.5132 139.373 93.5132C139.373 93.5132 145.191 81.7049 141.255 68.5333C139.001 60.9551 130.213 56.9455 123.136 54.9106L123.116 54.9006C122.512 54.7201 121.888 54.5497 121.264 54.3994C116.905 53.2967 113.583 52.9559 113.583 52.9559L112.828 53.1163C104.141 52.4246 96.0783 53.3468 96.0783 53.3468C89.7366 53.6375 81.13 57.8977 77.1035 62.8396Z" fill="#FFA033"/>
<path fill-rule="evenodd" clip-rule="evenodd" d="M69.997 124.437C69.997 124.437 77.5567 134.431 79.6002 159.341C81.6336 184.251 75.7448 198.816 68.3965 200.189C61.0582 201.562 59.8201 197.793 58.1491 195.989C56.468 194.175 54.2937 189.764 54.2937 189.764L59.5282 188.31C59.5282 188.31 62.6487 197.723 65.7088 197.292C68.7589 196.851 72.7652 185.053 72.4028 170.347C72.0304 155.652 66.4336 142.902 66.4336 142.902L69.997 124.437Z" fill="#35B26A"/>
<path fill-rule="evenodd" clip-rule="evenodd" d="M37.0098 115.265C37.0098 115.265 54.7464 111.215 64.0577 116.568C73.3689 121.931 72.4931 129.319 71.6174 138.441C70.7517 147.563 67.7922 158.068 67.7922 158.068L43.9856 165.736L23.0479 158.79L28.7152 128.377C28.7152 128.377 30.3157 117.651 37.0098 115.265Z" fill="#111927"/>
<path fill-rule="evenodd" clip-rule="evenodd" d="M42.9697 116.498C42.9697 116.498 55.6229 115.626 61.2198 118.453C66.8166 121.28 65.0751 125.259 63.3337 130.472C61.5821 135.684 51.8381 161.245 51.8381 161.245L26.9745 158.058L33.3666 125.77C33.3666 125.77 34.3833 117.731 42.9697 116.498Z" fill="#111927" stroke="#111927" stroke-width="0.103251" stroke-linecap="round" stroke-linejoin="round"/>
<path fill-rule="evenodd" clip-rule="evenodd" d="M14.4519 54.4392C14.9552 54.6598 43.2513 42.2099 43.2513 42.2099L32.3596 3.17627C32.3596 3.17627 9.69054 13.0199 1.14433 17.3703L14.4519 54.4392Z" fill="#35B26A"/>
<path fill-rule="evenodd" clip-rule="evenodd" d="M7.83827 19.8663L10.9588 29.2788C10.9588 29.2788 23.4308 25.2592 26.9641 23.926C30.4872 22.5828 32.0475 21.8209 32.0475 21.8209L28.927 11.2857C28.927 11.2857 15.4685 16.5683 7.83827 19.8663Z" fill="white"/>
<path fill-rule="evenodd" clip-rule="evenodd" d="M162.848 129.449C162.848 129.449 161.137 128.687 160.261 130.281C159.395 131.875 151.423 146.069 151.423 146.069L147.477 152.665C146.5 153.327 145.937 153.708 145.937 153.708L145.202 155.742C145.202 155.742 145.443 156.584 146.259 157.366C146.349 157.446 146.44 157.527 146.551 157.597C148.242 158.76 158.821 163.681 158.821 163.681C158.821 163.681 161.046 165.275 162.717 162.529C164.388 159.772 176.498 138.301 176.498 138.301C176.498 138.301 177.283 137.088 176.991 136.045C176.991 136.045 176.729 134.872 175.964 134.371C175.904 134.331 175.662 134.431 175.26 134.632C172.089 133.248 162.848 129.449 162.848 129.449Z" fill="white" stroke="#35B26A" stroke-width="0.258127" stroke-linecap="round" stroke-linejoin="round"/>
<path fill-rule="evenodd" clip-rule="evenodd" d="M136.645 28.1968C136.645 28.1968 134.26 26.182 133.958 24.6683C133.646 23.1447 135.407 22.0721 136.666 22.7437C137.914 23.4153 139.192 26.0617 139.192 26.0617L136.645 28.1968Z" fill="#111927"/>
<path fill-rule="evenodd" clip-rule="evenodd" d="M149.419 43.9341L151.503 45.979L151.714 45.7184L150.516 43.1422L149.419 43.9341Z" fill="#111927"/>
<path d="M84.3814 66.4483C84.3814 66.4483 81.6233 76.3721 80.3851 81.9455C79.147 87.5189 78.4927 90.9471 78.4927 90.9471" stroke="#111927" stroke-width="0.258127" stroke-linecap="round" stroke-linejoin="round"/>
<path d="M29.3792 51.6627C29.3792 51.6627 32.4595 47.7032 33.2748 46.5704" stroke="#111927" stroke-width="0.258127" stroke-linecap="round" stroke-linejoin="round"/>
<path d="M97.7892 53.1864C99.7722 66.1775 119.613 61.2056 119.381 53.9482" stroke="#6CA3B7" stroke-width="0.258127" stroke-linecap="round" stroke-linejoin="round"/>
<path d="M93.381 157.025C93.381 157.025 95.1224 161.656 96.6525 163.832C98.1825 166.007 99.4106 167.741 99.4106 167.741L103.719 199.527" stroke="white" stroke-width="0.258127" stroke-linecap="round" stroke-linejoin="round"/>
<path d="M125.593 151.011L119.191 160.143" stroke="white" stroke-width="0.258127" stroke-linecap="round" stroke-linejoin="round"/>
<path d="M127.445 156.444C127.445 156.444 124.505 159.271 123.771 160.173C123.046 161.085 121.737 162.388 121.737 162.388" stroke="white" stroke-width="0.258127" stroke-linecap="round" stroke-linejoin="round"/>
<path d="M29.0781 65.7264C29.0781 65.7264 35.0977 60.935 38.0069 58.9001C40.916 56.8752 43.0198 55.4919 43.0198 55.4919" stroke="#6CA3B7" stroke-width="0.258127" stroke-linecap="round" stroke-linejoin="round"/>
<path fill-rule="evenodd" clip-rule="evenodd" d="M77.8987 90.7164C77.8987 90.7164 70.1578 86.807 67.3493 85.5039C64.5509 84.2008 63.8261 96.1194 62.8094 100.61C61.7928 105.091 58.5917 112.338 58.5917 112.338L62.0444 111.536C62.0444 111.536 63.4235 111.977 64.7019 111.757C69.9464 110.865 72.4831 108.87 75.5734 104.429L77.8685 105.331L80.7776 91.809L77.8987 90.7164Z" fill="white" stroke="#111927" stroke-width="0.258127" stroke-linecap="round" stroke-linejoin="round"/>
<path fill-rule="evenodd" clip-rule="evenodd" d="M35.9032 90.1551L60.6358 90.7766C61.1895 90.2554 61.5015 89.9747 61.5015 89.9747L65.226 89.6539C65.226 89.6539 67.1587 90.947 67.199 92.0597C67.3097 92.3604 67.3399 92.7213 67.2292 93.1824C66.6454 95.6082 52.1198 138.261 52.1198 138.261C52.1198 138.261 51.2441 140.285 49.3214 140.135C47.3887 139.995 21.3575 137.238 21.3575 137.238C21.3575 137.238 20.4918 137.218 19.7066 136.867C19.7066 136.867 19.6664 136.857 19.606 136.817C19.5355 136.787 19.4751 136.757 19.4147 136.717C18.8711 136.406 17.7437 135.604 17.18 134.07C17.0492 133.72 18.237 132.216 20.3106 129.961C24.025 119.546 32.8128 93.9041 32.8128 93.9041C32.8128 93.9041 33.6886 89.7341 35.9032 90.1551Z" fill="#35B26A"/>
<path d="M67.1579 101.743C67.1579 101.743 65.346 105.863 64.2186 107.857C63.0912 109.852 62.0443 111.536 62.0443 111.536" stroke="#111927" stroke-width="0.258127" stroke-linecap="round" stroke-linejoin="round"/>
<path d="M69.8157 102.936C69.8157 102.936 68.5373 106.304 67.0173 108.549C65.4872 110.795 64.2591 111.807 64.2591 111.807" stroke="#111927" stroke-width="0.258127" stroke-linecap="round" stroke-linejoin="round"/>
<path d="M72.6145 103.838C72.6145 103.838 71.5274 106.264 70.1785 108.008C68.8296 109.742 67.2895 111.155 67.2895 111.155" stroke="#111927" stroke-width="0.258127" stroke-linecap="round" stroke-linejoin="round"/>
<path d="M80.476 110.183C80.476 110.183 81.7443 105.652 82.9422 100.901C84.1401 96.1595 84.8145 91.8592 84.8145 91.8592" stroke="#6CA3B7" stroke-width="0.258127" stroke-linecap="round" stroke-linejoin="round"/>
<path fill-rule="evenodd" clip-rule="evenodd" d="M90.2904 19.8362C90.2904 19.8362 90.7434 33.3386 91.7299 38.4509C92.7163 43.5631 95.102 46.9813 97.226 48.0639C99.35 49.1465 102.249 48.906 102.249 48.906L102.007 52.5347L100.206 53.0258C101.162 57.7271 104.605 59.4513 109.346 58.9701C114.53 58.4388 116.865 55.7624 117.922 53.6473L116.694 53.2764C116.452 50.9709 116.603 41.819 116.664 38.7516C118.133 37.5888 121.375 34.732 121.475 31.9453C121.606 28.3366 118.516 28.1462 118.516 28.1462C118.516 28.1462 121.606 13.7316 106.276 12.7392C90.9447 11.7569 90.2904 19.8362 90.2904 19.8362Z" fill="white"/>
<path fill-rule="evenodd" clip-rule="evenodd" d="M113.403 29.1285C113.493 29.8402 113.564 30.4717 113.644 30.9328C113.977 32.7672 114.862 31.9753 115.225 30.7023C115.587 29.4192 116.775 28.3767 118.516 28.1462C118.516 28.1462 121.607 28.3366 121.476 31.9453C121.345 35.5439 116.664 38.7516 116.664 38.7516C116.664 38.7516 116.684 41.4781 116.584 44.4252C119.664 42.1297 123.197 37.0375 125.07 28.8278C126.942 20.6281 125.462 17.0395 121.778 12.5788C118.094 8.12814 113.946 7.66704 107.494 7.92766C101.042 8.18829 93.351 8.51908 93.351 8.51908C86.2845 9.09045 82.9626 7.71716 82.2379 9.91242C81.5232 12.1077 85.0363 13.3807 85.0363 13.3807C85.0363 13.3807 80.9293 14.3631 80.9595 16.5985C80.9897 18.8238 86.9187 18.8839 86.9187 18.8839C86.9187 18.8839 83.9693 21.2296 85.0564 22.4124C86.1436 23.5852 90.4116 22.9838 90.4116 22.9838C90.4116 22.9838 92.1632 22.5628 95.2736 21.8511C96.4413 21.5904 97.8506 21.1293 99.3806 20.6782C99.2598 21.1193 99.3102 21.6005 99.7833 22.0515C101.082 23.2945 107.313 20.4477 107.313 20.4477C107.313 20.4477 108.732 23.3747 112.014 22.1819C112.99 23.8859 113.342 26.2917 113.403 29.1285Z" fill="#111927" stroke="#111927" stroke-width="0.103251" stroke-linecap="round" stroke-linejoin="round"/>
<path d="M104.867 33.0781C105.428 33.0781 105.883 32.4364 105.883 31.6447C105.883 30.853 105.428 30.2113 104.867 30.2113C104.305 30.2113 103.85 30.853 103.85 31.6447C103.85 32.4364 104.305 33.0781 104.867 33.0781Z" fill="#111927"/>
<path d="M94.2467 31.7148C94.8082 31.7148 95.2634 31.073 95.2634 30.2813C95.2634 29.4897 94.8082 28.8479 94.2467 28.8479C93.6852 28.8479 93.23 29.4897 93.23 30.2813C93.23 31.073 93.6852 31.7148 94.2467 31.7148Z" fill="#111927"/>
<path d="M98.5654 30.532C98.5654 30.532 97.3876 36.2658 98.2432 37.3183C99.0989 38.3708 100.699 37.7093 100.699 37.7093" stroke="#111927" stroke-width="0.258127" stroke-linecap="round" stroke-linejoin="round"/>
<path d="M100.89 41.0071C100.89 41.0071 101.685 41.2978 102.833 40.6462C103.99 39.9947 104.645 38.9421 104.645 38.9421" stroke="#111927" stroke-width="0.258127" stroke-linecap="round" stroke-linejoin="round"/>
<path d="M119.482 30.3418C117.137 31.2039 115.687 33.8302 115.899 36.2359" stroke="#111927" stroke-width="0.258127" stroke-linecap="round" stroke-linejoin="round"/>
<path d="M118.798 33.5794L116.815 32.6672" stroke="#111927" stroke-width="0.258127" stroke-linecap="round" stroke-linejoin="round"/>
<path d="M103.79 27.4444C103.79 27.4444 104.484 27.284 105.652 27.4344C106.82 27.5847 107.434 27.9857 107.434 27.9857" stroke="#111927" stroke-width="0.258127" stroke-linecap="round" stroke-linejoin="round"/>
<path d="M92.6967 26.7533C93.8744 26.2722 95.2233 26.4526 96.3809 26.9037" stroke="#111927" stroke-width="0.258127" stroke-linecap="round" stroke-linejoin="round"/>
<path d="M111.258 43.9543C111.258 43.9543 110.101 46.0393 107.554 47.3424C105.007 48.6455 102.249 48.9062 102.249 48.9062" stroke="#111927" stroke-width="0.258127" stroke-linecap="round" stroke-linejoin="round"/>
<path fill-rule="evenodd" clip-rule="evenodd" d="M135.991 28.4271C135.991 28.4271 135.991 27.3946 137.169 26.1817C138.357 24.9688 139.373 25.1493 139.373 25.1493L150.939 43.2527L149.53 44.4656L135.991 28.4271Z" fill="#35B26A"/>
<path fill-rule="evenodd" clip-rule="evenodd" d="M34.4633 88.4008L63.1218 89.1226C63.1218 89.1226 66.3732 88.9923 65.7894 91.4181C65.2055 93.8439 50.68 136.496 50.68 136.496C50.68 136.496 49.8143 138.531 47.8816 138.381C45.9589 138.24 19.9277 135.484 19.9277 135.484C19.9277 135.484 16.0321 135.374 17.3407 132.336C18.6493 129.299 31.373 92.1498 31.373 92.1498C31.373 92.1498 32.2488 87.9798 34.4633 88.4008Z" fill="#35B26A"/>
<path d="M42.5608 114.744C44.0922 113.832 44.7283 112.085 43.9814 110.84C43.2345 109.596 41.3875 109.326 39.8561 110.238C38.3246 111.149 37.6886 112.897 38.4355 114.141C39.1824 115.385 41.0293 115.655 42.5608 114.744Z" fill="white"/>
<path fill-rule="evenodd" clip-rule="evenodd" d="M67.3802 87.7593L67.1588 85.4337C67.1588 85.4337 64.5818 83.89 62.5384 86.1354C60.505 88.3808 58.7636 91.1274 57.8878 92.1098C57.012 93.0821 58.9448 94.3852 61.411 92.8716C63.8873 91.3479 65.2261 89.6539 65.2261 89.6539L67.3802 87.7593Z" fill="white"/>
<path fill-rule="evenodd" clip-rule="evenodd" d="M4.0835 121.21C4.0835 121.21 33.1748 121.139 38.6307 125.339C44.0866 129.54 52.2301 158.649 52.2301 158.649L67.7925 158.068C67.7925 158.068 65.1753 186.897 58.9141 190.225C53.7904 192.952 30.467 195.057 18.1862 190.646C9.96216 186.877 5.75449 175.4 3.70098 167.039C1.64748 158.669 2.6843 156.544 2.6843 156.544L5.06999 150.109C5.06999 150.109 0.419403 128.738 0.993177 125.63C1.57702 122.513 4.0835 121.21 4.0835 121.21Z" fill="#111927"/>
<path fill-rule="evenodd" clip-rule="evenodd" d="M5.06999 150.109C5.06999 150.109 0.419403 128.738 0.993177 125.63C1.05357 125.309 1.1341 125.009 1.23477 124.738C9.50919 123.595 32.1581 125.43 34.8257 128.768C37.916 132.647 41.4795 152.735 41.4795 152.735C41.4795 152.735 36.2048 152.886 26.5009 152.194C16.7871 151.512 5.06999 150.109 5.06999 150.109Z" fill="#111927"/>
<path fill-rule="evenodd" clip-rule="evenodd" d="M67.259 162.8C66.2122 171.119 63.5748 187.739 58.9142 190.225C57.676 190.887 55.3507 191.508 52.3812 192.02C51.7269 191.358 51.0524 190.466 50.4585 189.273C48.4956 185.293 47.7709 166.819 47.7709 166.819L67.259 162.8Z" fill="#111927"/>
<path fill-rule="evenodd" clip-rule="evenodd" d="M45.0727 192.891C36.2044 193.573 25.3329 193.212 18.1858 190.646C9.96175 186.877 5.75408 175.399 3.70057 167.039C2.45236 161.957 2.34163 159.181 2.45236 157.777C5.83461 157.817 15.0452 158.068 25.4033 159.572C38.4592 161.466 39.043 164.433 40.9355 170.658C42.2642 175.049 44.0963 186.486 45.0727 192.891Z" fill="#111927"/>
<path fill-rule="evenodd" clip-rule="evenodd" d="M33.3558 46.5406L34.1611 45.478C34.1611 45.478 34.2215 42.16 34.9261 39.8044C35.6308 37.4588 38.4392 37.6893 38.1272 39.0827C37.8151 40.476 37.8051 44.5959 37.8051 44.5959C36.4562 45.1773 34.9463 45.8389 33.3558 46.5406Z" fill="white"/>
<path fill-rule="evenodd" clip-rule="evenodd" d="M162.193 128.437C162.193 128.437 160.482 127.675 159.606 129.269C158.74 130.862 150.768 145.056 150.768 145.056L145.715 153.487C145.715 153.487 144.205 155.431 145.896 156.584C147.587 157.747 158.166 162.669 158.166 162.669C158.166 162.669 160.391 164.262 162.062 161.516C163.733 158.759 175.843 137.288 175.843 137.288C175.843 137.288 177.383 134.882 175.329 133.94C173.276 132.997 162.193 128.437 162.193 128.437Z" fill="white" stroke="#35B26A" stroke-width="0.258127" stroke-linecap="round" stroke-linejoin="round"/>
<path fill-rule="evenodd" clip-rule="evenodd" d="M171.747 132.406C169.774 131.574 167.398 130.592 165.516 129.81L165.194 131.424L170.388 133.559L171.747 132.406Z" fill="#35B26A" stroke="#35B26A" stroke-width="0.258127" stroke-linecap="round" stroke-linejoin="round"/>
<path d="M138.9 25.3096C138.9 25.3096 139.917 23.415 141.377 23.8862C142.182 24.1468 142.433 25.4399 142.705 26.8733C142.937 28.0762 143.198 29.3894 143.752 30.081C144.427 30.913 144.437 29.7101 144.437 29.7101L145.121 29.7202C145.121 29.7302 145.101 32.8276 143.219 30.5121C142.554 29.6801 142.282 28.2767 142.031 26.9936C141.799 25.7707 141.578 24.668 141.165 24.5377C140.259 24.247 139.504 25.6404 139.494 25.6404L138.9 25.3096Z" fill="#111927"/>
<path d="M115.496 102.244L112.949 101.041" stroke="#111927" stroke-width="0.258127" stroke-linecap="round" stroke-linejoin="round"/>
<path d="M115.738 100.691C114.862 100.661 113.835 100.661 112.949 101.041" stroke="#111927" stroke-width="0.258127" stroke-linecap="round" stroke-linejoin="round"/>
<path d="M67.1588 85.4337C67.1588 85.4337 64.5818 83.89 62.5384 86.1354C60.505 88.3808 58.7636 91.1274 57.8878 92.1098C57.012 93.0821 58.9448 94.3852 61.411 92.8716C63.8873 91.3479 65.2261 89.6539 65.2261 89.6539" stroke="#111927" stroke-width="0.258127" stroke-linecap="round" stroke-linejoin="round"/>
<path d="M33.3558 46.5406L34.1611 45.478C34.1611 45.478 34.2215 42.16 34.9261 39.8044C35.6308 37.4588 38.4392 37.6893 38.1272 39.0827C37.8151 40.476 37.8051 44.5959 37.8051 44.5959" stroke="#111927" stroke-width="0.258127" stroke-linecap="round" stroke-linejoin="round"/>
<path d="M61.2195 118.453C66.8163 121.28 65.0748 125.259 63.3334 130.472C61.9141 134.712 55.2804 152.084 52.8142 158.559" stroke="white" stroke-width="0.258127" stroke-linecap="round" stroke-linejoin="round"/>
<path d="M38.4695 125.349C43.9153 129.549 52.0588 158.659 52.0588 158.659L55.28 158.539" stroke="white" stroke-width="0.258127" stroke-linecap="round" stroke-linejoin="round"/>
<path d="M52.3812 192.02C51.7269 191.358 51.0525 190.466 50.4585 189.273C48.4956 185.293 47.7709 166.819 47.7709 166.819L67.259 162.8" stroke="white" stroke-width="0.258127" stroke-linecap="round" stroke-linejoin="round"/>
<path d="M2.45247 157.777C5.83471 157.817 15.0453 158.068 25.4034 159.572C38.4593 161.466 39.0431 164.433 40.9356 170.658C42.2643 175.049 44.0964 186.486 45.0728 192.891" stroke="white" stroke-width="0.258127" stroke-linecap="round" stroke-linejoin="round"/>
<path d="M1.23497 124.738C9.50939 123.595 32.1583 125.43 34.8259 128.768C37.9162 132.647 41.4796 152.735 41.4796 152.735C41.4796 152.735 36.205 152.886 26.5011 152.194C16.7873 151.512 5.07019 150.109 5.07019 150.109" stroke="white" stroke-width="0.258127" stroke-linecap="round" stroke-linejoin="round"/>
<path d="M65.7897 91.4183C65.2059 93.8441 50.6803 136.496 50.6803 136.496C50.6803 136.496 49.8147 138.531 47.8819 138.381" stroke="white" stroke-width="0.258127" stroke-linecap="round" stroke-linejoin="round"/>
<path d="M61.3402 85.544L60.1222 83.88" stroke="#111927" stroke-width="0.258127" stroke-linecap="round" stroke-linejoin="round"/>
<path d="M29.8625 60.5539L31.2617 64.0022" stroke="#6CA3B7" stroke-width="0.258127" stroke-linecap="round" stroke-linejoin="round"/>
<path d="M32.028 58.82L33.4977 62.2583" stroke="#6CA3B7" stroke-width="0.258127" stroke-linecap="round" stroke-linejoin="round"/>
<path d="M34.1715 57.3261L35.8022 60.5038" stroke="#6CA3B7" stroke-width="0.258127" stroke-linecap="round" stroke-linejoin="round"/>
<path d="M36.4464 55.8329L38.0066 58.9003" stroke="#6CA3B7" stroke-width="0.258127" stroke-linecap="round" stroke-linejoin="round"/>
<path d="M38.5602 54.4795L40.2211 57.3664" stroke="#6CA3B7" stroke-width="0.258127" stroke-linecap="round" stroke-linejoin="round"/>
<path d="M77.8085 105.592L81.3116 107.125" stroke="#6CA3B7" stroke-width="0.258127" stroke-linecap="round" stroke-linejoin="round"/>
<path d="M78.4927 102.405L82.1467 103.978" stroke="#6CA3B7" stroke-width="0.258127" stroke-linecap="round" stroke-linejoin="round"/>
<path d="M79.0769 99.7181L82.9423 100.901" stroke="#6CA3B7" stroke-width="0.258127" stroke-linecap="round" stroke-linejoin="round"/>
<path d="M79.6806 96.8913L83.6165 98.044" stroke="#6CA3B7" stroke-width="0.258127" stroke-linecap="round" stroke-linejoin="round"/>
<path d="M80.2547 94.215L84.1805 95.3979" stroke="#6CA3B7" stroke-width="0.258127" stroke-linecap="round" stroke-linejoin="round"/>
<path d="M80.7176 92.0499L84.583 93.2328" stroke="#6CA3B7" stroke-width="0.258127" stroke-linecap="round" stroke-linejoin="round"/>
<path d="M139.373 93.5131C139.373 93.5131 133.968 115.676 119.422 120.959C104.876 126.242 77.2548 108.208 77.2548 108.208L81.0296 90.6262L112.949 101.041L125.532 73.5953" stroke="#111927" stroke-width="0.258127" stroke-linecap="round" stroke-linejoin="round"/>
<path d="M1.14433 17.3707L14.4518 54.4396L33.2756 46.5707" stroke="#111927" stroke-width="0.258127" stroke-linecap="round" stroke-linejoin="round"/>
<path d="M89.7265 16.829C91.4277 15.5459 94.0449 14.1225 97.6486 13.2404" stroke="white" stroke-width="0.258127" stroke-linecap="round" stroke-linejoin="round"/>
<path d="M89.7969 12.0179C91.8202 11.4264 93.1086 11.0756 95.6151 10.835" stroke="white" stroke-width="0.258127" stroke-linecap="round" stroke-linejoin="round"/>
<path d="M96.5919 17.3502C97.5884 16.5783 98.9272 15.7664 100.608 15.0446" stroke="white" stroke-width="0.258127" stroke-linecap="round" stroke-linejoin="round"/>
<path d="M144.618 36.6463L146.128 38.6811M138.648 28.597L143.218 34.7718L138.648 28.597Z" stroke="white" stroke-width="0.258127" stroke-linecap="round" stroke-linejoin="round"/>
<path d="M70.9831 197.442C67.1479 199.016 64.3596 196.901 64.3596 196.901C64.3596 196.901 62.447 195.307 61.229 192.48C60.011 189.643 59.6788 188.731 59.6788 188.731" stroke="#111927" stroke-width="0.258127" stroke-linecap="round" stroke-linejoin="round"/>
<path d="M42.285 198.234C38.8122 198.946 36.0641 196.56 36.0641 196.56C36.0641 196.56 34.7555 195.658 33.9905 194.385C33.2254 193.112 33.0845 192.862 33.0845 192.862" stroke="#111927" stroke-width="0.258127" stroke-linecap="round" stroke-linejoin="round"/>
<path d="M71.5873 153.006C71.1847 151.542 70.2687 147.793 69.3728 146.681" stroke="#111927" stroke-width="0.258127" stroke-linecap="round" stroke-linejoin="round"/>
<path d="M72.5938 149.667C72.1911 148.214 71.2449 145.107 70.3792 143.352" stroke="#111927" stroke-width="0.258127" stroke-linecap="round" stroke-linejoin="round"/>
<path d="M73.3491 145.819C72.9364 144.365 71.9499 141.137 71.1245 139.503" stroke="#111927" stroke-width="0.258127" stroke-linecap="round" stroke-linejoin="round"/>
<path d="M74.4461 142.16C74.0434 140.706 72.5335 136.126 71.6477 134.311" stroke="#111927" stroke-width="0.258127" stroke-linecap="round" stroke-linejoin="round"/>
<path d="M31.0711 3.73793L30.7289 2.42478L29.682 2.92598L29.3599 1.81331L28.313 2.41476L27.9506 1.3923L26.3501 2.34459L1.14433 17.3706" stroke="#111927" stroke-width="0.258127" stroke-linecap="round" stroke-linejoin="round"/>
<path d="M117.691 26.6226C117.872 25.7004 118.023 24.6378 118.094 23.5653C118.124 23.054 118.134 22.5428 118.114 22.0316" stroke="white" stroke-width="0.258127" stroke-linecap="round" stroke-linejoin="round"/>
<path d="M120.147 25.3898C120.389 24.0165 120.58 22.3625 120.48 20.7888" stroke="white" stroke-width="0.258127" stroke-linecap="round" stroke-linejoin="round"/>
<path d="M121.869 26.9634C122.221 25.6202 122.553 23.9862 122.583 22.4125" stroke="white" stroke-width="0.258127" stroke-linecap="round" stroke-linejoin="round"/>
<path d="M31.6544 177.094C31.6544 177.094 29.8324 168.984 20.3803 166.448C10.9281 163.912 5.86483 165.636 3.53954 166.378" stroke="white" stroke-width="0.258127" stroke-linecap="round" stroke-linejoin="round"/>
</svg>
