<svg width="201" height="191" viewBox="0 0 201 191" fill="none" xmlns="http://www.w3.org/2000/svg">
<path fill-rule="evenodd" clip-rule="evenodd" d="M161.501 45.2098L192.339 37.1705L174.728 65.5095L161.501 45.2098ZM167.734 47.3299L174.699 57.4702L184.121 42.7443L167.734 47.3299Z" fill="#FFA033"/>
<path d="M178.139 56.5585L179.449 57.9112" stroke="#9DA4AE" stroke-width="0.256965" stroke-linecap="round" stroke-linejoin="round"/>
<path d="M181.232 53.0574L182.021 53.7766" stroke="#9DA4AE" stroke-width="0.256965" stroke-linecap="round" stroke-linejoin="round"/>
<path d="M183.1 48.5672L184.41 49.9198" stroke="#9DA4AE" stroke-width="0.256965" stroke-linecap="round" stroke-linejoin="round"/>
<path d="M186.038 45.3156L186.828 46.0352" stroke="#9DA4AE" stroke-width="0.256965" stroke-linecap="round" stroke-linejoin="round"/>
<path d="M188.014 40.6628L189.324 42.0154" stroke="#9DA4AE" stroke-width="0.256965" stroke-linecap="round" stroke-linejoin="round"/>
<path fill-rule="evenodd" clip-rule="evenodd" d="M155.411 1.60784C155.411 1.60784 166.827 -1.51003 171.143 6.11676C175.459 13.7435 171.702 21.9172 161.056 20.1807C159.303 19.9025 157.733 19.49 156.346 18.9816L150.748 21.5718L151.914 16.6312C145.536 11.7769 147.222 3.96783 155.411 1.60784Z" fill="#35B26A"/>
<path fill-rule="evenodd" clip-rule="evenodd" d="M167.318 14.7605L162.482 4.32286C162.482 4.32286 162.02 3.13328 161.191 3.824C160.363 4.51473 154.091 13.9067 154.091 13.9067C154.091 13.9067 153.108 15.173 155.131 15.5568C157.155 15.9405 166.75 16.1132 166.75 16.1132C166.75 16.1132 168.05 16.4298 167.318 14.7605Z" fill="white"/>
<path fill-rule="evenodd" clip-rule="evenodd" d="M162.396 7.00875L160.508 6.89363L160.527 11.5369L161.779 11.6136L162.396 7.00875ZM160.989 14.1175C161.269 14.1367 161.51 14.0599 161.702 13.8968C161.905 13.7242 162.011 13.5131 162.02 13.2541C162.039 13.0047 161.962 12.784 161.789 12.6017C161.616 12.4195 161.394 12.3139 161.105 12.2947C160.826 12.2756 160.585 12.3523 160.392 12.5058C160.199 12.6689 160.093 12.8799 160.074 13.139C160.055 13.3884 160.132 13.6186 160.315 13.8009C160.488 13.9928 160.71 14.0983 160.989 14.1175Z" fill="#35B26A"/>
<path fill-rule="evenodd" clip-rule="evenodd" d="M185.787 90.261C188.822 90.2418 195.633 89.7621 198.494 85.8864C202.213 80.8306 198.388 75.2856 190.488 75.0746C172.107 74.5949 172.02 88.6397 182.136 90.0979L183.803 93.7242L185.787 90.261Z" fill="white" stroke="#111927" stroke-width="0.256965" stroke-linecap="round" stroke-linejoin="round"/>
<path fill-rule="evenodd" clip-rule="evenodd" d="M182.82 82.6057C183.35 82.6057 183.774 83.047 183.774 83.5842C183.774 84.1215 183.35 84.5628 182.82 84.5628C182.29 84.5628 181.857 84.1215 181.857 83.5842C181.857 83.047 182.29 82.6057 182.82 82.6057ZM192.974 81.0995C193.504 81.0995 193.928 81.5408 193.928 82.0781C193.928 82.6153 193.504 83.0566 192.974 83.0566C192.444 83.0566 192.011 82.6153 192.011 82.0781C192.011 81.5408 192.444 81.0995 192.974 81.0995ZM187.791 81.9438C188.321 81.9438 188.754 82.3755 188.754 82.9223C188.754 83.4595 188.321 83.8912 187.791 83.8912C187.261 83.8912 186.837 83.4595 186.837 82.9223C186.837 82.3755 187.261 81.9438 187.791 81.9438Z" fill="#111927"/>
<path fill-rule="evenodd" clip-rule="evenodd" d="M63.0339 55.9354C66.7525 50.8797 62.9279 45.3347 55.0282 45.1236C42.8415 44.807 38.6989 50.8701 40.2403 55.4174L38.1691 59.1588L42.4657 58.4585C43.5544 59.2931 44.9705 59.9071 46.6853 60.147C51.9069 60.3676 59.6524 60.5211 63.0339 55.9354Z" fill="white" stroke="#111927" stroke-width="0.256965" stroke-linecap="round" stroke-linejoin="round"/>
<path fill-rule="evenodd" clip-rule="evenodd" d="M47.3596 52.6546C47.8895 52.6546 48.3134 53.0959 48.3134 53.6331C48.3134 54.1704 47.8895 54.6021 47.3596 54.6021C46.8298 54.6021 46.3962 54.1704 46.3962 53.6331C46.3962 53.0959 46.8298 52.6546 47.3596 52.6546ZM57.5136 51.1485C58.0435 51.1485 58.4674 51.5898 58.4674 52.127C58.4674 52.6642 58.0435 53.1055 57.5136 53.1055C56.9838 53.1055 56.5503 52.6642 56.5503 52.127C56.5503 51.5898 56.9838 51.1485 57.5136 51.1485ZM52.3403 51.9927C52.8702 51.9927 53.294 52.4244 53.294 52.9712C53.294 53.5084 52.8702 53.9401 52.3403 53.9401C51.8104 53.9401 51.3769 53.5084 51.3769 52.9712C51.3769 52.4244 51.8104 51.9927 52.3403 51.9927Z" fill="#111927"/>
<path fill-rule="evenodd" clip-rule="evenodd" d="M54.4215 8.20785L52.6874 27.8168L69.1515 24.8717L70.7122 5.15714L54.4215 8.20785Z" fill="#35B26A"/>
<path fill-rule="evenodd" clip-rule="evenodd" d="M55.7322 9.69507L55.2408 14.9715L68.6704 12.5635L69.0943 7.19118L55.7322 9.69507Z" fill="white"/>
<path d="M57.2057 15.9882L57.0323 17.9837L55.0284 18.2235" stroke="#111927" stroke-width="0.256965" stroke-linecap="round" stroke-linejoin="round"/>
<path d="M60.6647 15.5369L60.4913 17.5228L58.4874 17.7626" stroke="#111927" stroke-width="0.256965" stroke-linecap="round" stroke-linejoin="round"/>
<path d="M64.1999 14.8083L64.0265 16.8038L62.0227 17.0436" stroke="#111927" stroke-width="0.256965" stroke-linecap="round" stroke-linejoin="round"/>
<path d="M67.6484 14.0886L67.475 16.084L65.4712 16.3239" stroke="#111927" stroke-width="0.256965" stroke-linecap="round" stroke-linejoin="round"/>
<path d="M57.0323 19.3653L56.8589 21.3511L54.8551 21.6006" stroke="#111927" stroke-width="0.256965" stroke-linecap="round" stroke-linejoin="round"/>
<path d="M60.4907 18.9044L60.3173 20.8998L58.3135 21.1397" stroke="#111927" stroke-width="0.256965" stroke-linecap="round" stroke-linejoin="round"/>
<path d="M64.026 18.1851L63.8526 20.171L61.8488 20.4108" stroke="#111927" stroke-width="0.256965" stroke-linecap="round" stroke-linejoin="round"/>
<path d="M67.4751 17.4653L67.3017 19.4608L65.2979 19.7006" stroke="#111927" stroke-width="0.256965" stroke-linecap="round" stroke-linejoin="round"/>
<path d="M56.8491 22.6557L56.6757 24.6512L54.6719 24.891" stroke="#111927" stroke-width="0.256965" stroke-linecap="round" stroke-linejoin="round"/>
<path d="M60.2985 22.2046L60.1251 24.1905L58.1212 24.4399" stroke="#111927" stroke-width="0.256965" stroke-linecap="round" stroke-linejoin="round"/>
<path d="M63.8337 21.4754L63.6603 23.4708L61.6565 23.7107" stroke="#111927" stroke-width="0.256965" stroke-linecap="round" stroke-linejoin="round"/>
<path d="M67.2825 20.7654L67.1091 22.7512L65.1149 23.0007" stroke="#111927" stroke-width="0.256965" stroke-linecap="round" stroke-linejoin="round"/>
<path fill-rule="evenodd" clip-rule="evenodd" d="M106.627 49.4689L102.071 54.2465C102.071 54.2465 92.6874 43.2332 91.541 41.3241C90.3945 39.415 90.0092 38.6571 90.0092 38.6571C90.0092 38.6571 89.8743 34.2537 90.25 32.5941C90.6354 30.9248 91.9071 28.8142 91.6084 28.2194C91.3098 27.6342 90.1826 27.3081 89.1903 28.6703C88.198 30.0422 87.2443 31.8937 87.2443 31.8937C87.2443 31.8937 82.4756 26.0801 81.0979 25.4182C79.7299 24.7562 78.8918 25.399 78.8918 25.399C78.8918 25.399 78.0248 24.4108 76.782 25.1879C75.5489 25.9746 77.2541 27.2217 78.545 29.3707C79.8263 31.5196 80.6837 33.4575 80.6837 33.4575C80.6837 33.4575 76.1462 28.843 75.0768 28.5168C74.0171 28.1907 73.1115 29.0349 74.2772 30.4067C75.4429 31.7786 76.1462 32.5557 77.0614 33.7165C77.9862 34.8773 78.4198 35.7983 78.4198 35.7983C78.4198 35.7983 75.3755 34.2345 73.6318 34.1002C71.8977 33.9563 72.4853 35.6352 73.3042 35.8846C74.1231 36.1244 78.0055 38.3597 79.7396 39.7124C81.4833 41.0651 82.4274 42.1395 82.4274 42.1395L94.566 62.0651C95.6835 63.8879 98.747 66.9865 104.065 64.4827C109.392 61.9884 116.146 56.7216 116.146 56.7216L106.627 49.4689Z" fill="white" stroke="#111927" stroke-width="0.256965" stroke-linecap="round" stroke-linejoin="round"/>
<path fill-rule="evenodd" clip-rule="evenodd" d="M93.4107 158.336C93.4107 158.336 92.3317 168.927 90.771 173.848C89.22 178.77 87.2547 184.305 93.2084 183.624C99.1717 182.952 102.081 176.208 103.372 171.958C104.653 167.708 105.27 164.945 105.27 164.945L104.518 156.714L93.4107 158.336Z" fill="white" stroke="#111927" stroke-width="0.256965" stroke-linecap="round" stroke-linejoin="round"/>
<path fill-rule="evenodd" clip-rule="evenodd" d="M104.556 158.22C104.556 158.22 104.055 164.619 102.909 170.672C101.762 176.726 98.7662 185.158 104.749 184.698C110.741 184.237 114.161 175.718 115.221 169.953C116.271 164.187 116.531 162.019 116.531 162.019L116.011 154.881L104.556 158.22Z" fill="white" stroke="#111927" stroke-width="0.256965" stroke-linecap="round" stroke-linejoin="round"/>
<path fill-rule="evenodd" clip-rule="evenodd" d="M145.384 80.8872C146.01 80.7529 146.915 87.8136 146.357 94.4715C145.798 101.129 140.721 106.53 135.355 110.617C129.998 114.704 118.515 118.8 118.515 118.8C118.149 131.339 117.089 144.137 116.916 156.57C115.808 161.779 106.039 163.343 103.862 158.853C103.862 158.853 100.769 161.175 96.8003 161.242C92.8312 161.319 91.8197 159.515 91.8197 159.515C90.6636 149.893 82.234 110.54 88.8814 102.357C96.4921 93.0133 109.17 87.0078 117.85 83.4102L145.384 80.8872Z" fill="#FFA033"/>
<path d="M105.828 101.772C105.029 102.252 98.8342 106.176 99.6338 115.98C100.433 125.794 103.719 157.242 103.776 157.75" stroke="#111927" stroke-width="0.256965" stroke-linecap="round" stroke-linejoin="round"/>
<path fill-rule="evenodd" clip-rule="evenodd" d="M135.163 40.5183L142.283 37.8321C142.283 37.8321 149.749 39.4822 152.36 45.6796C154.961 51.8865 155.77 55.7335 155.77 55.7335L146.194 60.3767C146.194 60.3767 143.102 69.3466 144.489 75.1026C145.886 80.8587 146.541 81.0985 145.78 82.6239C145.009 84.1492 141.396 88.025 130.674 89.416C119.961 90.7975 115.433 85.6746 115.087 84.9071C114.74 84.1492 116.647 75.8605 116.58 72.263C116.512 68.6558 116.021 65.2598 116.021 65.2598C116.021 65.2598 113.555 63.5329 112.755 61.9021C111.956 60.2712 113.064 56.5681 113.064 56.5681L105.019 50.1981C105.019 50.1981 108.507 45.3726 110.732 43.1181C112.958 40.8636 115.482 38.9929 119.354 38.2446C119.354 38.2446 119.932 38.1967 120.934 38.1295C125.761 38.1487 135.163 40.5183 135.163 40.5183Z" fill="#111927" stroke="#111927" stroke-width="0.102786" stroke-linecap="round" stroke-linejoin="round"/>
<path d="M104.142 56.6259L102.07 54.2467" stroke="#111927" stroke-width="0.256965" stroke-linecap="round" stroke-linejoin="round"/>
<path d="M83.7859 36.7867C83.7859 36.7867 85.5585 35.1174 86.204 33.995C86.8494 32.863 87.2444 31.894 87.2444 31.894" stroke="#111927" stroke-width="0.256965" stroke-linecap="round" stroke-linejoin="round"/>
<path d="M83.4584 31.9705C82.3987 30.2245 80.6164 27.404 78.892 25.399" stroke="#111927" stroke-width="0.256965" stroke-linecap="round" stroke-linejoin="round"/>
<path d="M115.712 46.6389C115.712 46.6389 115.413 49.6704 114.932 51.5412C114.643 52.6252 114.122 53.9683 113.727 54.9181" stroke="white" stroke-width="0.256965" stroke-linecap="round" stroke-linejoin="round"/>
<path fill-rule="evenodd" clip-rule="evenodd" d="M83.7469 72.0616L82.5908 73.1552L90.3653 98.4915L126.386 103.672L144.131 89.7423L122.619 87.5646L119.305 76.7528L83.7469 72.0616Z" fill="#35B26A"/>
<path d="M83.7671 73.3089L118.218 77.8849L125.944 102.483" stroke="white" stroke-width="0.256965" stroke-linecap="round" stroke-linejoin="round"/>
<path fill-rule="evenodd" clip-rule="evenodd" d="M114.865 19.7773C115.347 22.3388 115.848 24.5357 116.426 26.3489C116.888 27.6536 117.63 29.2365 118.728 30.5987C121.079 33.496 124.605 33.3329 124.605 33.3329L124.817 36.7961L119.354 38.2447C119.354 38.2447 115.973 50.3804 126.763 49.824C137.553 49.2676 142.283 37.8322 142.283 37.8322L134.277 36.1054C134.277 36.1054 133.477 30.4836 133.41 28.5841C133.343 26.675 133.477 25.3607 133.477 25.3607C133.477 25.3607 135.568 25.1017 136.127 22.5307C136.676 19.9692 135.799 18.6069 135.414 18.1656C140.539 1.07013 110.79 -1.94221 114.865 19.7773Z" fill="white"/>
<path fill-rule="evenodd" clip-rule="evenodd" d="M124.604 33.3328C124.604 33.3328 121.079 33.4959 118.728 30.5987C117.63 29.2364 116.888 27.6535 116.425 26.3488C115.847 24.5357 115.346 22.3388 114.865 19.7773C114.643 18.6165 114.528 17.5324 114.499 16.5155C114.605 16.2661 116.58 11.7284 120.934 9.95362C120.934 9.95362 120.857 13.7334 124.267 15.7481C127.678 17.7531 130.635 17.6188 130.635 17.6188C130.635 17.6188 130.587 19.384 130.799 20.5064C131.001 21.6384 131.628 22.2044 131.733 22.1181C131.839 22.0318 131.406 19.1537 133.092 18.2232C134.778 17.283 135.414 18.1656 135.414 18.1656C135.799 18.6069 136.676 19.9692 136.126 22.5306C135.568 25.1017 133.477 25.3607 133.477 25.3607C133.477 25.3607 133.342 26.675 133.41 28.5841C133.468 30.1478 134.017 34.225 134.209 35.6257C140.096 34.014 143.13 30.7426 143.13 30.7426C142.986 22.3388 139.691 -2.57541 126.589 3.12309C126.589 3.12309 122.273 -0.129082 117.813 3.64114C113.362 7.42095 111.512 14.4242 110.684 22.214C109.846 30.0135 108.208 34.7239 108.208 34.7239C108.208 34.7239 109.518 35.3187 110.597 34.0715C111.676 32.8244 113.237 29.1789 113.237 29.1789C113.237 29.1789 112.649 35.1076 113.689 35.8751C114.402 36.3931 119.412 36.9112 124.816 36.7673L124.604 33.3328Z" fill="#35B26A"/>
<path d="M133.284 23.5765C133.284 23.5765 132.918 22.4157 133.38 20.7176C133.852 19.0196 134.912 19.3266 134.912 19.3266" stroke="#111927" stroke-width="0.256965" stroke-linecap="round" stroke-linejoin="round"/>
<path d="M134.768 22.0605L133.323 20.9573" stroke="#111927" stroke-width="0.256965" stroke-linecap="round" stroke-linejoin="round"/>
<path fill-rule="evenodd" clip-rule="evenodd" d="M117.051 20.2666C117.455 20.1227 117.908 20.3817 118.062 20.8326C118.226 21.2931 118.033 21.7728 117.629 21.9167C117.224 22.051 116.771 21.7919 116.617 21.3411C116.453 20.8806 116.646 20.4009 117.051 20.2666ZM124.189 20.6024C124.594 20.4585 125.047 20.7175 125.21 21.178C125.365 21.6289 125.172 22.1085 124.777 22.2524C124.372 22.3867 123.92 22.1373 123.756 21.6768C123.602 21.2259 123.794 20.7367 124.189 20.6024Z" fill="#111927"/>
<path d="M120.423 20.4296C120.423 20.4296 120.269 23.0102 120.115 24.1423C119.961 25.2647 119.749 26.013 119.749 26.013C120.375 26.1761 121.155 26.1761 121.82 25.9746" stroke="#111927" stroke-width="0.256965" stroke-linecap="round" stroke-linejoin="round"/>
<path d="M117.696 23.8156C119.248 23.0794 119.86 21.1083 119.063 19.4131C118.265 17.7178 116.361 16.9404 114.809 17.6767C113.257 18.4129 112.645 20.384 113.442 22.0792C114.24 23.7744 116.144 24.5518 117.696 23.8156Z" stroke="#111927" stroke-width="0.34824" stroke-linecap="round" stroke-linejoin="round"/>
<path d="M126.334 23.8067C127.886 23.0705 128.498 21.0994 127.7 19.4041C126.903 17.7089 124.998 16.9315 123.446 17.6677C121.894 18.404 121.282 20.375 122.08 22.0703C122.877 23.7655 124.782 24.5429 126.334 23.8067Z" stroke="#111927" stroke-width="0.34824" stroke-linecap="round" stroke-linejoin="round"/>
<path d="M132.273 19.0484L128.024 20.5162" stroke="#111927" stroke-width="0.256965" stroke-linecap="round" stroke-linejoin="round"/>
<path d="M119.411 20.7559L121.743 20.8137" stroke="#111927" stroke-width="0.256965" stroke-linecap="round" stroke-linejoin="round"/>
<path d="M131.165 29.1503C130.009 31.3377 127.947 32.6807 125.529 33.1988" stroke="#111927" stroke-width="0.256965" stroke-linecap="round" stroke-linejoin="round"/>
<path d="M123.795 29.966C124.287 29.8024 124.544 29.1906 124.368 28.5995C124.192 28.0083 123.651 27.6617 123.158 27.8253C122.666 27.9889 122.409 28.6007 122.585 29.1918C122.761 29.783 123.302 30.1296 123.795 29.966Z" fill="#111927" stroke="#111927" stroke-width="0.316937" stroke-linecap="round" stroke-linejoin="round"/>
<path d="M121.704 27.8746L123.274 27.7975" stroke="#111927" stroke-width="0.256965" stroke-linecap="round" stroke-linejoin="round"/>
<path d="M142.293 54.2848L144.277 60.4534" stroke="white" stroke-width="0.256965" stroke-linecap="round" stroke-linejoin="round"/>
<path fill-rule="evenodd" clip-rule="evenodd" d="M145.462 60.6547L147.812 70.3825L136.117 84.1011C136.117 84.1011 128.67 86.8352 127.659 87.8137C126.657 88.7827 124.672 90.8453 124.422 91.1427C124.181 91.4401 124.701 91.9389 125.154 92.0253C125.607 92.1116 125.973 92.0253 125.973 92.0253C125.973 92.0253 124.508 94.5387 124.759 95.1239C125 95.7187 126.165 95.1815 126.165 95.1815C126.165 95.1815 126.271 96.1504 126.84 96.1888C127.418 96.2176 128.285 95.4213 128.285 95.4213C128.285 95.4213 128.458 96.2176 129.421 96.0641C130.375 95.9106 130.857 94.9513 130.857 94.9513C130.857 94.9513 131.473 96.3615 132.88 94.9417C136.223 91.5648 135.202 93.1381 138.67 90.3944C140.346 89.0801 141.319 87.8713 141.319 87.8713C141.319 87.8713 157.042 79.2084 157.494 72.0997C157.947 65.0005 155.047 56.0786 155.047 56.0786L145.462 60.6547Z" fill="white" stroke="#111927" stroke-width="0.256965" stroke-linecap="round" stroke-linejoin="round"/>
<path d="M134.161 90.8454C133.564 91.2579 131.926 92.8408 130.856 94.9514" stroke="#111927" stroke-width="0.256965" stroke-linecap="round" stroke-linejoin="round"/>
<path d="M132.099 90.3563C130.857 91.3828 128.988 93.6085 128.284 95.4216" stroke="#111927" stroke-width="0.256965" stroke-linecap="round" stroke-linejoin="round"/>
<path d="M130.355 90.078C128.274 91.824 127.166 93.1575 126.164 95.1817" stroke="#111927" stroke-width="0.256965" stroke-linecap="round" stroke-linejoin="round"/>
<path d="M128.688 89.3395C127.773 90.059 126.598 91.0663 125.972 92.0257" stroke="#111927" stroke-width="0.256965" stroke-linecap="round" stroke-linejoin="round"/>
<path d="M126.049 3.57387C126.049 3.57387 124.71 4.08232 123.352 5.4254C121.993 6.77808 121.3 8.36099 121.3 8.36099" stroke="white" stroke-width="0.256965" stroke-linecap="round" stroke-linejoin="round"/>
<path d="M124.575 9.15736C124.575 9.15736 125.404 12.8988 129.334 14.3186C133.274 15.7385 134.662 15.3547 134.662 15.3547" stroke="white" stroke-width="0.256965" stroke-linecap="round" stroke-linejoin="round"/>
<path d="M129.16 10.0881C129.16 10.0881 129.786 11.8917 132.118 12.5536C134.449 13.206 135.461 13.2827 135.461 13.2827" stroke="white" stroke-width="0.256965" stroke-linecap="round" stroke-linejoin="round"/>
<path d="M133.968 10.5386C133.968 10.5386 135.288 10.7496 136.328 11.6514C137.379 12.5532 137.764 13.0041 137.764 13.0041" stroke="white" stroke-width="0.256965" stroke-linecap="round" stroke-linejoin="round"/>
<path d="M139.325 24.4015C139.325 24.4015 139.739 26.3777 139.739 28.1141C139.739 29.8409 139.739 29.8409 139.739 29.8409V29.6683" stroke="white" stroke-width="0.256965" stroke-linecap="round" stroke-linejoin="round"/>
<path d="M137.446 25.9651C137.446 25.9651 137.59 27.3082 137.725 28.1812C137.86 29.0446 137.86 29.1118 137.86 29.1118" stroke="white" stroke-width="0.256965" stroke-linecap="round" stroke-linejoin="round"/>
<path d="M116.328 31.5101L116.29 33.5536" stroke="white" stroke-width="0.256965" stroke-linecap="round" stroke-linejoin="round"/>
<path d="M149.902 70.3829H147.812" stroke="#111927" stroke-width="0.256965" stroke-linecap="round" stroke-linejoin="round"/>
<path d="M124.72 34.9252L124.855 36.8439L121.435 37.7553M138.053 36.9494L134.267 36.134C134.267 36.134 133.477 30.4835 133.409 28.584C133.342 26.6749 133.477 25.3606 133.477 25.3606C133.477 25.3606 135.567 25.1016 136.126 22.5305C136.675 19.9691 135.799 18.6068 135.413 18.1655" stroke="#111927" stroke-width="0.256965" stroke-linecap="round" stroke-linejoin="round"/>
<path d="M118.121 128.596C118.275 125.315 118.419 122.044 118.516 118.801C118.516 118.801 129.999 114.705 135.355 110.618C140.721 106.531 145.798 101.13 146.357 94.472C146.916 87.8141 146.28 84.7826 146.28 84.7826M91.4157 99.5565C90.5197 100.458 89.672 101.389 88.882 102.358C86.2809 105.562 85.9918 113.544 86.6662 122.648L91.4157 99.5565Z" stroke="#111927" stroke-width="0.256965" stroke-linecap="round" stroke-linejoin="round"/>
<path fill-rule="evenodd" clip-rule="evenodd" d="M160.527 101.917C160.527 101.917 158.34 103.126 156.876 106.177C155.421 109.227 154.545 113.698 154.545 113.698C154.545 113.698 150.682 118.034 150.402 118.897C150.123 119.761 153.36 120.336 153.36 120.336C153.36 120.336 152.753 122.313 152.791 122.533C152.82 122.764 157.907 123.09 158.321 123.301C158.302 123.742 154.265 125.651 153.533 126.14C152.801 126.62 154.179 128.145 154.179 128.145C154.179 128.145 152.445 133.691 154.246 134.352C156.057 135.014 163.61 133.767 163.61 133.767L164.063 139.552L178.571 136.636L177.464 125.546C177.464 125.546 184.766 117.161 182.194 108.709C179.612 100.257 167.367 97.8974 160.527 101.917Z" fill="white" stroke="#111927" stroke-width="0.256965" stroke-linecap="round" stroke-linejoin="round"/>
<path d="M158.792 115.776C159.334 115.829 159.828 115.33 159.894 114.66C159.961 113.991 159.575 113.405 159.033 113.352C158.491 113.298 157.998 113.798 157.931 114.467C157.865 115.136 158.25 115.722 158.792 115.776Z" fill="#111927"/>
<path d="M157.849 110.523C157.849 110.523 158.514 110.129 159.728 110.407C160.951 110.686 161.24 111.309 161.24 111.309" stroke="#111927" stroke-width="0.256965" stroke-linecap="round" stroke-linejoin="round"/>
<path fill-rule="evenodd" clip-rule="evenodd" d="M99.6224 126.658C99.6224 126.658 104.757 155.822 104.17 155.88C103.592 155.937 143.842 146.728 143.842 146.728L139.497 117.439L99.6224 126.658Z" fill="#35B26A"/>
<path fill-rule="evenodd" clip-rule="evenodd" d="M155.952 98.0411C155.325 102.684 157.869 103.864 160.268 104.574C162.666 105.284 166.761 105.255 166.51 108.306C166.269 111.347 165.296 111.664 166.125 113.323C166.963 114.993 165.749 117.967 167.002 118.216C168.254 118.456 168.148 114.926 171.77 116.269C175.383 117.621 173.61 122.543 171.944 123.857C170.267 125.181 169.959 124.864 170.373 126.735C170.797 128.606 171.867 131.273 173.437 131.378C175.007 131.484 174.516 130.102 176.501 130.237C178.485 130.371 178.832 129.824 180.046 127.253C181.269 124.692 183.947 124.73 185.055 122.754C186.173 120.778 185.614 118.667 186.799 116.72C187.984 114.782 191.568 112.287 190.45 109.601C189.342 106.915 187.146 105.044 187.184 103.797C187.213 102.55 187.204 98.895 184.506 98.7894C181.809 98.6839 178.793 100.075 176.722 97.6958C174.66 95.3262 172.897 92.688 170.46 94.2517C166.077 97.053 156.886 91.1243 155.952 98.0411Z" fill="#111927" stroke="#111927" stroke-width="0.102786" stroke-linecap="round" stroke-linejoin="round"/>
<path d="M169.564 122.783C169.564 122.783 168.87 120.375 169.91 118.955C170.96 117.535 172.261 118.485 172.261 118.485" stroke="#111927" stroke-width="0.256965" stroke-linecap="round" stroke-linejoin="round"/>
<path d="M171.588 121.248L169.719 119.271" stroke="#111927" stroke-width="0.256965" stroke-linecap="round" stroke-linejoin="round"/>
<path fill-rule="evenodd" clip-rule="evenodd" d="M148.523 150.824C148.523 150.824 142.791 150.085 142.175 149.5C141.558 148.915 141.028 147.62 142.001 146.699C142.984 145.778 145.46 143.552 145.46 143.552C145.46 143.552 141.096 140.386 139.766 139.37C138.427 138.353 136.78 137.364 137.069 136.396C137.367 135.417 139.699 136.635 141.539 137.374C143.379 138.113 147.28 139.878 147.28 139.878C147.28 139.878 147.936 138.967 148.735 138.688C149.544 138.41 149.804 138.717 150.171 138.516C150.546 138.314 151.288 137.269 151.847 137.518C152.406 137.767 152.762 138.036 153.321 137.671C153.87 137.297 154.881 137.24 155.729 137.844C156.577 138.439 160.623 144.243 160.546 143.744C160.459 143.236 148.523 150.824 148.523 150.824Z" fill="white" stroke="#111927" stroke-width="0.256965" stroke-linecap="round" stroke-linejoin="round"/>
<path d="M103.476 128.462L130.827 122.293" stroke="#111927" stroke-width="0.256965" stroke-linecap="round" stroke-linejoin="round"/>
<path d="M133.592 120.768L136.337 122.389" stroke="#111927" stroke-width="0.256965" stroke-linecap="round" stroke-linejoin="round"/>
<path d="M135.894 120.163L133.967 122.994" stroke="#111927" stroke-width="0.256965" stroke-linecap="round" stroke-linejoin="round"/>
<path fill-rule="evenodd" clip-rule="evenodd" d="M104.458 132.386L107.271 148.81L121.886 145.548L119.131 129.018L104.458 132.386Z" fill="white"/>
<path fill-rule="evenodd" clip-rule="evenodd" d="M123.177 128.05L123.524 129.853L137.272 126.63L136.954 124.759L123.177 128.05Z" fill="white"/>
<path fill-rule="evenodd" clip-rule="evenodd" d="M124.083 132.722L124.43 134.525L133.621 132.376L133.303 130.506L124.083 132.722Z" fill="white"/>
<path d="M125.143 137.815L136.434 135.216" stroke="white" stroke-width="0.256965" stroke-linecap="round" stroke-linejoin="round"/>
<path d="M125.769 140.665L135.248 138.43" stroke="white" stroke-width="0.256965" stroke-linecap="round" stroke-linejoin="round"/>
<path d="M126.24 143.649L137.04 141.116" stroke="white" stroke-width="0.256965" stroke-linecap="round" stroke-linejoin="round"/>
<path fill-rule="evenodd" clip-rule="evenodd" d="M115.73 153.808C115.73 153.808 112.705 150.412 111.347 145.941C109.989 141.471 109.748 138.007 108.601 138.247C107.445 138.487 107.07 140.08 107.07 142.027C107.07 143.965 107.339 145.596 107.339 145.596L102.118 141.25L101.684 138.669C101.684 138.669 98.9195 139.571 98.3992 140.751C97.879 141.931 98.6401 144.042 98.6401 144.042C98.6401 144.042 97.7345 144.541 97.7345 145.769C97.7345 147.006 98.7846 148.109 98.7846 148.109C98.7846 148.109 98.0813 149.03 98.1487 149.875C98.2258 150.728 99.0736 151.697 99.0736 151.697C99.0736 151.697 98.4956 154.585 100.153 155.803C101.81 157.022 106.588 160.859 106.588 160.859L115.73 153.808Z" fill="white" stroke="#111927" stroke-width="0.256965" stroke-linecap="round" stroke-linejoin="round"/>
<path fill-rule="evenodd" clip-rule="evenodd" d="M142.484 155.707C142.484 155.707 146.867 147.534 152.339 145.068C153.822 144.406 156.539 143.61 159.844 142.814C159.844 142.814 160.422 139.226 161.915 138.641C163.418 138.056 177.059 135.935 177.059 135.935C177.059 135.935 180.739 135.072 181.577 135.907C182.416 136.732 183.533 138.458 183.533 138.458C184.583 138.334 185.489 138.247 186.192 138.209C192.521 137.864 197.955 139.523 199.419 149.366C200.7 158.048 199.506 182.876 199.198 188.632H126.463C117.994 180.075 112.551 173.168 104.892 160.83C105.528 152.781 113.871 151.17 115.596 152.657L136.26 170.405C136.26 170.405 141.549 157.194 142.484 155.707Z" fill="#35B26A"/>
<path d="M133.418 177.782L136.26 170.405" stroke="#111927" stroke-width="0.256965" stroke-linecap="round" stroke-linejoin="round"/>
<path d="M157.849 168.351L150.749 188.632" stroke="#111927" stroke-width="0.256965" stroke-linecap="round" stroke-linejoin="round"/>
<path d="M106.655 163.641C106.655 163.641 106.877 159.228 110.277 156.552C113.688 153.875 117.676 154.451 117.676 154.451" stroke="#CA4D04" stroke-width="0.256965" stroke-linecap="round" stroke-linejoin="round"/>
<path d="M105.278 158.681L107.263 160.907" stroke="#CA4D04" stroke-width="0.256965" stroke-linecap="round" stroke-linejoin="round"/>
<path d="M106.414 156.206L108.611 158.307" stroke="#CA4D04" stroke-width="0.256965" stroke-linecap="round" stroke-linejoin="round"/>
<path d="M108.341 154.124L110.48 156.398" stroke="#CA4D04" stroke-width="0.256965" stroke-linecap="round" stroke-linejoin="round"/>
<path d="M110.75 152.753L112.715 155.151" stroke="#CA4D04" stroke-width="0.256965" stroke-linecap="round" stroke-linejoin="round"/>
<path d="M113.496 152.167L115.297 154.489" stroke="#CA4D04" stroke-width="0.256965" stroke-linecap="round" stroke-linejoin="round"/>
<path d="M100.885 140.377L102.118 141.25" stroke="#111927" stroke-width="0.256965" stroke-linecap="round" stroke-linejoin="round"/>
<path d="M148.418 140.377L147.281 139.878" stroke="#111927" stroke-width="0.256965" stroke-linecap="round" stroke-linejoin="round"/>
<path d="M171.231 99.1059C171.231 99.1059 173.447 98.914 174.747 99.7679C176.038 100.622 176.52 102.195 176.52 102.195" stroke="white" stroke-width="0.256965" stroke-linecap="round" stroke-linejoin="round"/>
<path d="M180.258 114.465C180.258 114.465 180.711 116.921 180.113 117.967C179.526 119.003 178.765 119.454 178.765 119.454" stroke="white" stroke-width="0.256965" stroke-linecap="round" stroke-linejoin="round"/>
<path d="M182.888 116.729C182.888 116.729 183.899 114.753 183.726 113.304C183.552 111.846 182.618 110.647 182.618 110.647" stroke="white" stroke-width="0.256965" stroke-linecap="round" stroke-linejoin="round"/>
<path d="M171.25 102.512C170.787 101.351 168.909 101.044 167.656 101.351" stroke="white" stroke-width="0.256965" stroke-linecap="round" stroke-linejoin="round"/>
<path d="M162.752 142.277C170.382 140.636 175.835 139.667 183.532 138.459" stroke="#CA4D04" stroke-width="0.256965" stroke-linecap="round" stroke-linejoin="round"/>
<path d="M17.1203 71.6781L16.0798 62.1135M16.0798 62.1135C14.7022 61.4803 11.5905 59.8302 10.9836 57.6525C10.1936 54.8417 12.6021 54.103 12.6021 54.103L16.0798 62.1135ZM33.2858 42.2359C33.2858 42.2359 35.4823 52.9709 35.675 57.1825C35.8677 61.4036 34.6345 64.5502 33.1702 65.7974C31.6962 67.0541 29.3745 67.4091 29.3745 67.4091" stroke="#111927" stroke-width="0.256965" stroke-linecap="round" stroke-linejoin="round"/>
<path fill-rule="evenodd" clip-rule="evenodd" d="M15.2416 135.964C15.2416 135.964 17.255 151.006 22.8234 163.89C26.5516 172.515 32.2067 183.614 35.54 190.023H77.7649L58.9501 126.677L15.2416 135.964Z" fill="#111927"/>
<path fill-rule="evenodd" clip-rule="evenodd" d="M18.5457 72.6952L16.0024 72.3403C16.0024 72.3403 -0.0764279 79.4874 0.000642393 91.4024C0.0680789 103.327 2.0141 109.419 4.94278 114.062C7.86181 118.705 12.1778 120.998 12.1778 120.998L13.4976 136.588C13.4976 136.588 13.4301 140.262 16.1083 140.329C18.7865 140.406 38.6225 140.54 49.4123 136.242C60.2022 131.944 61.0981 130.074 60.7513 127.646C60.4045 125.219 56.3679 110.388 56.3679 110.388C56.3679 110.388 66.0403 106.857 64.5856 98.6071C63.1212 90.3663 55.366 77.9908 49.4798 73.5203C43.6032 69.0497 31.7632 70.2681 31.7632 70.2681C31.7632 70.2681 25.4049 75.4294 18.5457 72.6952Z" fill="#FFA033"/>
<path fill-rule="evenodd" clip-rule="evenodd" d="M33.2858 42.2359C33.2858 42.2359 35.4823 52.971 35.675 57.1825C35.8676 61.4036 34.6345 64.5502 33.1702 65.7974C31.6962 67.0541 29.3745 67.4091 29.3745 67.4091L30.2512 70.2296L31.7637 70.2679C31.7637 70.2679 33.016 77.5302 25.0489 78.5087C17.0818 79.4776 16.0028 72.3401 16.0028 72.3401L17.1203 71.6782L16.0798 62.1135C14.7022 61.4803 11.5905 59.8303 10.9836 57.6526C10.1936 54.8417 12.6021 54.103 12.6021 54.103C12.6021 54.103 7.41907 43.32 19.3264 39.6553C31.2242 35.9906 33.2858 42.2359 33.2858 42.2359Z" fill="white"/>
<path fill-rule="evenodd" clip-rule="evenodd" d="M16.8117 53.9109C16.8791 54.4961 16.9466 55.0046 16.9658 55.3787C17.0525 56.8849 16.2048 56.434 15.6749 55.4938C15.1451 54.5537 14.0179 53.9493 12.6017 54.1028C12.6017 54.1028 10.1933 54.8415 10.9833 57.6523C11.7732 60.4728 16.0795 62.1133 16.0795 62.1133C16.0795 62.1133 16.3107 64.3102 16.5612 66.5838C13.7 65.3559 10.5979 61.9886 7.56326 55.8776C4.52862 49.7665 5.01031 46.6487 7.07194 42.4467C9.13357 38.2352 12.3127 37.0936 17.4475 36.0863C22.5823 35.079 28.7191 33.8894 28.7191 33.8894C34.3934 33.0068 36.7536 31.2992 37.7363 32.8917C38.7286 34.4842 36.1949 36.1534 36.1949 36.1534C36.1949 36.1534 39.6245 36.1534 40.0195 37.9186C40.4145 39.6838 35.7614 40.8542 35.7614 40.8542C35.7614 40.8542 38.5263 42.1398 37.8904 43.2814C37.2642 44.4134 33.7768 44.7396 33.7768 44.7396C33.7768 44.7396 32.3221 44.73 29.7306 44.7684C28.7576 44.7779 27.563 44.682 26.2721 44.6149C26.4551 44.9314 26.5033 45.3248 26.2143 45.7661C25.4243 46.994 19.9716 45.9196 19.9716 45.9196C19.9716 45.9196 19.4128 48.4906 16.5901 48.174C16.147 49.6994 16.33 51.666 16.8117 53.9109Z" fill="#111927" stroke="#111927" stroke-width="0.102786" stroke-linecap="round" stroke-linejoin="round"/>
<path d="M24.4783 54.717C24.0343 54.8231 23.5522 54.4022 23.4015 53.7769C23.2509 53.1516 23.4888 52.5587 23.9329 52.4526C24.3769 52.3466 24.859 52.7675 25.0097 53.3928C25.1603 54.018 24.9224 54.6109 24.4783 54.717Z" fill="#111927"/>
<path d="M32.4124 52.3511C31.9683 52.4572 31.4862 52.0363 31.3356 51.411C31.185 50.7857 31.4229 50.1929 31.8669 50.0868C32.311 49.9807 32.7931 50.4016 32.9438 51.0269C33.0944 51.6522 32.8565 52.245 32.4124 52.3511Z" fill="#111927"/>
<path d="M28.7864 51.7623C28.7864 51.7623 30.7999 56.0601 30.3278 57.0482C29.8461 58.0364 28.4685 57.8253 28.4685 57.8253" stroke="#111927" stroke-width="0.256965" stroke-linecap="round" stroke-linejoin="round"/>
<path d="M12.255 56.0117C14.2685 56.2612 15.9159 58.0552 16.2049 59.993" stroke="#111927" stroke-width="0.256965" stroke-linecap="round" stroke-linejoin="round"/>
<path d="M13.4117 58.4389L14.799 57.3452" stroke="#111927" stroke-width="0.256965" stroke-linecap="round" stroke-linejoin="round"/>
<path d="M24.2488 50.0643C24.2488 50.0643 23.6804 50.0739 22.7845 50.4097C21.8885 50.7455 21.4839 51.1772 21.4839 51.1772" stroke="#111927" stroke-width="0.256965" stroke-linecap="round" stroke-linejoin="round"/>
<path d="M32.698 48.1455C31.6768 47.9824 30.646 48.3854 29.8175 48.9514" stroke="#111927" stroke-width="0.256965" stroke-linecap="round" stroke-linejoin="round"/>
<path d="M33.1507 39.751C31.5708 39.0603 29.2297 38.4367 26.224 38.4175" stroke="white" stroke-width="0.256965" stroke-linecap="round" stroke-linejoin="round"/>
<path d="M32.1776 35.9812C30.4724 35.8852 29.3935 35.8564 27.3704 36.1347" stroke="white" stroke-width="0.256965" stroke-linecap="round" stroke-linejoin="round"/>
<path d="M27.8428 41.4583C26.8987 41.0458 25.6944 40.6525 24.2301 40.403" stroke="white" stroke-width="0.256965" stroke-linecap="round" stroke-linejoin="round"/>
<path d="M12.3896 52.1937C12.2932 51.4358 12.216 50.5724 12.2257 49.6994C12.2257 49.2869 12.245 48.8648 12.2932 48.4523" stroke="white" stroke-width="0.256965" stroke-linecap="round" stroke-linejoin="round"/>
<path d="M10.4634 51.0618C10.3381 49.9489 10.2803 48.5962 10.4345 47.3299" stroke="white" stroke-width="0.256965" stroke-linecap="round" stroke-linejoin="round"/>
<path d="M8.12171 50.5534C8.0253 49.8052 7.97709 49.0185 8.00602 48.251" stroke="white" stroke-width="0.256965" stroke-linecap="round" stroke-linejoin="round"/>
<path d="M28.5647 62.948C29.1818 62.948 29.6822 62.3381 29.6822 61.5857C29.6822 60.8334 29.1818 60.2234 28.5647 60.2234C27.9475 60.2234 27.4471 60.8334 27.4471 61.5857C27.4471 62.3381 27.9475 62.948 28.5647 62.948Z" fill="#111927" stroke="#111927" stroke-width="0.256965" stroke-linecap="round" stroke-linejoin="round"/>
<path d="M30.1835 59.974C29.432 59.8588 28.5168 60.0795 28.1315 60.3289" stroke="#111927" stroke-width="0.256965" stroke-linecap="round" stroke-linejoin="round"/>
<path fill-rule="evenodd" clip-rule="evenodd" d="M16.6861 93.0714L14.3837 105.198C14.3837 105.198 11.8789 106.205 10.7325 106.483C9.58604 106.761 9.23922 106.051 9.23922 106.051C9.23922 106.051 8.34328 106.272 7.97719 105.802C7.62074 105.341 7.71708 104.401 7.71708 104.401C7.71708 104.401 7.09088 104.181 6.99455 103.452C6.88858 102.722 7.17759 101.734 7.17759 101.734C7.17759 101.734 6.34908 98.4438 9.5475 95.6329C12.7459 92.8316 16.6861 93.0714 16.6861 93.0714Z" fill="white"/>
<path d="M13.1125 102.55C13.1125 102.55 11.2532 103.605 10.521 104.363C9.78887 105.13 9.23975 106.051 9.23975 106.051" stroke="#111927" stroke-width="0.256965" stroke-linecap="round" stroke-linejoin="round"/>
<path d="M13.3917 98.7893C13.3917 98.7893 11.3783 100.056 10.1066 101.284C8.83493 102.512 7.71741 104.401 7.71741 104.401" stroke="#111927" stroke-width="0.256965" stroke-linecap="round" stroke-linejoin="round"/>
<path d="M13.4976 95.959C13.4976 95.959 11.8117 96.3428 10.2414 97.6763C8.68073 99.0098 7.17786 101.734 7.17786 101.734" stroke="#111927" stroke-width="0.256965" stroke-linecap="round" stroke-linejoin="round"/>
<path d="M56.3682 110.387C56.3682 110.387 51.5127 112.316 44.0658 112.181C36.6285 112.037 29.9908 109.198 29.9908 109.198" stroke="#111927" stroke-width="0.256965" stroke-linecap="round" stroke-linejoin="round"/>
<path d="M58.4103 95.9304L31.1755 96.0935" stroke="#111927" stroke-width="0.256965" stroke-linecap="round" stroke-linejoin="round"/>
<path d="M47.6201 81.6169L52.0035 95.9687" stroke="#111927" stroke-width="0.256965" stroke-linecap="round" stroke-linejoin="round"/>
<path d="M13.1704 87.7183L13.7581 93.436" stroke="#111927" stroke-width="0.256965" stroke-linecap="round" stroke-linejoin="round"/>
<path d="M19.3645 81.2523C19.3645 81.2523 24.3452 82.202 27.0041 82.8064C29.663 83.4204 31.532 83.9192 31.532 83.9192" stroke="#9DA4AE" stroke-width="0.256965" stroke-linecap="round" stroke-linejoin="round"/>
<path d="M21.9369 79.2375L21.532 81.6742" stroke="#9DA4AE" stroke-width="0.256965" stroke-linecap="round" stroke-linejoin="round"/>
<path d="M23.7004 79.6115L23.3436 82.0387" stroke="#9DA4AE" stroke-width="0.256965" stroke-linecap="round" stroke-linejoin="round"/>
<path d="M25.7038 80.0243L25.3567 82.4514" stroke="#9DA4AE" stroke-width="0.256965" stroke-linecap="round" stroke-linejoin="round"/>
<path d="M27.6116 80.4272L27.2452 82.864" stroke="#9DA4AE" stroke-width="0.256965" stroke-linecap="round" stroke-linejoin="round"/>
<path d="M29.2975 80.7918L29.0758 83.2957" stroke="#9DA4AE" stroke-width="0.256965" stroke-linecap="round" stroke-linejoin="round"/>
<path d="M47.2058 142.343V148.435L58.9687 190.023" stroke="white" stroke-width="0.256965" stroke-linecap="round" stroke-linejoin="round"/>
<path d="M21.5712 143.763C21.5712 143.763 22.7176 144.588 24.4517 145.289C26.1954 145.979 27.8331 146.459 27.8331 146.459" stroke="white" stroke-width="0.256965" stroke-linecap="round" stroke-linejoin="round"/>
<path d="M22.4673 147.61C22.4673 147.61 23.8449 148.416 24.5578 148.684C25.2707 148.943 25.5212 149.116 25.5212 149.116" stroke="white" stroke-width="0.256965" stroke-linecap="round" stroke-linejoin="round"/>
<path d="M21.3301 65.2024C21.3301 65.2024 22.6306 66.6318 24.8849 67.1786C27.1393 67.7255 29.3743 67.4089 29.3743 67.4089" stroke="#111927" stroke-width="0.256965" stroke-linecap="round" stroke-linejoin="round"/>
<path d="M29.2966 79.9089C32.5047 78.7577 34.6145 74.6805 34.6145 70.1236M14.0078 73.347C14.0078 73.347 15.3758 78.3452 19.5472 80.4557L14.0078 73.347Z" stroke="#9DA4AE" stroke-width="0.256965" stroke-linecap="round" stroke-linejoin="round"/>
<path fill-rule="evenodd" clip-rule="evenodd" d="M21.089 79.0648L29.0561 80.7245C29.0561 80.7245 29.4029 78.7482 29.4029 78.6331C29.4029 78.5084 33.6707 76.0333 33.9501 75.1123C34.2198 74.1914 33.584 73.3951 33.584 73.3951C33.584 73.3951 34.0464 72.666 33.8249 71.9273C33.5936 71.179 33.3239 71.0255 33.3239 71.0255C33.3239 71.0255 33.6996 70.0854 33.3239 69.6153C32.9385 69.1548 32.3702 69.0205 32.3702 69.0205C32.3702 69.0205 33.5358 67.3896 33.3817 66.6701C33.2276 65.941 31.9463 66.3919 31.9463 66.3919L26.0697 68.5984C26.0697 68.5984 23.7479 63.629 22.0427 64.3197C20.4917 64.9433 23.2084 67.9364 23.2084 70.5075C23.2084 73.0689 21.089 79.0648 21.089 79.0648Z" fill="white" stroke="#111927" stroke-width="0.256965" stroke-linecap="round" stroke-linejoin="round"/>
<path d="M13.6903 108.574L14.3839 105.197L16.6864 93.0714L19.3646 81.2522L19.9234 78.8059L21.0891 79.0649L29.0562 80.7246L31.5417 81.4441C31.5417 81.4441 31.6477 99.2879 29.7691 110.656C27.8905 122.024 22.0043 123.406 18.7384 123.511C15.4629 123.617 12.6113 121.324 12.6113 121.324" stroke="#111927" stroke-width="0.256965" stroke-linecap="round" stroke-linejoin="round"/>
<path fill-rule="evenodd" clip-rule="evenodd" d="M31.8495 138.899L53.487 145.644L85.3941 130.38L90.6445 110.637L92.0799 104.737L90.1339 103.605L87.5231 104.737C81.1648 107.423 59.7393 116.748 59.7393 116.748L58.4195 117.381C58.1401 118.868 57.7162 120.231 57.2731 121.564L56.0881 126.783L55.6353 127.004L31.8495 138.899Z" fill="#35B26A"/>
<path d="M53.8529 144.138L60.2208 118.331L90.7985 105.246" stroke="white" stroke-width="0.256965" stroke-linecap="round" stroke-linejoin="round"/>
<path d="M55.789 127.848L52.3594 142.583" stroke="#111927" stroke-width="0.256965" stroke-linecap="round" stroke-linejoin="round"/>
<path d="M48.1111 133.105L55.481 129.172" stroke="#111927" stroke-width="0.256965" stroke-linecap="round" stroke-linejoin="round"/>
<path d="M51.6375 141.068L49.0846 140.271L51.5316 138.813" stroke="#111927" stroke-width="0.256965" stroke-linecap="round" stroke-linejoin="round"/>
<path d="M48.0148 140.012L45.7991 139.408L48.5351 137.93" stroke="#111927" stroke-width="0.256965" stroke-linecap="round" stroke-linejoin="round"/>
<path d="M44.653 139.091L42.6685 138.477L45.5201 137.038" stroke="#111927" stroke-width="0.256965" stroke-linecap="round" stroke-linejoin="round"/>
<path d="M51.9067 137.883L49.7006 137.269L52.4269 135.801" stroke="#111927" stroke-width="0.256965" stroke-linecap="round" stroke-linejoin="round"/>
<path d="M48.5544 136.962L46.5602 136.348L49.4118 134.899" stroke="#111927" stroke-width="0.256965" stroke-linecap="round" stroke-linejoin="round"/>
<path d="M52.7642 134.65L50.77 134.045L53.6216 132.597" stroke="#111927" stroke-width="0.256965" stroke-linecap="round" stroke-linejoin="round"/>
</svg>
