<svg width="182" height="201" viewBox="0 0 182 201" fill="none" xmlns="http://www.w3.org/2000/svg">
<path fill-rule="evenodd" clip-rule="evenodd" d="M94.1325 129.638C128.369 124.019 139.721 106.168 139.721 106.168C139.721 106.168 87.6328 97.0294 59.2283 100.007C30.8239 102.985 17.1242 106.168 17.1242 106.168L0.936646 123.354C26.3589 134.207 59.8956 135.257 94.1325 129.638Z" fill="#9DA4AE"/>
<path fill-rule="evenodd" clip-rule="evenodd" d="M137.687 160.434C137.687 160.434 134.383 164.052 130.956 165.767C127.537 167.489 125.272 168.794 126.079 170.836C126.878 172.879 133.164 172.321 137.687 170.836C142.209 169.352 145.537 167.014 145.834 166.333C146.13 165.652 145.661 160.64 145.125 159.368C144.59 158.096 137.687 160.434 137.687 160.434Z" fill="white" stroke="#111927" stroke-width="0.219587" stroke-linecap="round" stroke-linejoin="round"/>
<path fill-rule="evenodd" clip-rule="evenodd" d="M169.88 148.047C169.88 148.047 170.918 153.708 170.737 157.292C170.564 160.877 169.79 163.904 172.352 164.79C174.905 165.676 178.563 161.919 180.112 155.192C181.661 148.466 180.861 143.01 180.829 142.682C180.796 142.362 176.751 140.935 176.421 140.877C176.1 140.82 169.88 148.047 169.88 148.047Z" fill="white" stroke="#111927" stroke-width="0.219587" stroke-linecap="round" stroke-linejoin="round"/>
<path fill-rule="evenodd" clip-rule="evenodd" d="M126.557 74.774C126.557 74.774 123.641 79.0398 126.73 102.034C129.827 125.028 136.047 160.853 136.286 161.091C137.653 162.452 144.392 160.746 146.196 159.663C144.713 138.925 144.062 118.507 142.983 97.7929L143.815 97.678C143.815 97.678 146.369 114.954 149.648 124.438C152.918 133.913 168.751 148.794 169.518 149.261C170.292 149.737 172.912 148.08 175.416 145.767C177.912 143.453 177.583 140.639 177.583 140.639C177.583 140.639 162.944 122.272 162.59 119.015C162.235 115.75 160.39 83.6912 159.673 79.4254C158.957 75.1596 158.784 74.7986 158.784 74.7986L126.557 74.774Z" fill="#111927" stroke="#111927" stroke-width="0.0878348" stroke-linecap="round" stroke-linejoin="round"/>
<path fill-rule="evenodd" clip-rule="evenodd" d="M120.873 48.662L119.917 57.8499L112.454 82.6981L117.322 86.0615C117.322 86.0615 128.369 63.3626 129.498 58.4406C130.626 53.5267 130.923 49.7285 130.923 49.7285L120.873 48.662Z" fill="white" stroke="#111927" stroke-width="0.219587" stroke-linecap="round" stroke-linejoin="round"/>
<path fill-rule="evenodd" clip-rule="evenodd" d="M127.546 33.5351C127.546 33.5351 135.668 27.8337 145.99 29.6794C159.385 32.0748 162.944 37.7762 162.005 50.5982L157.12 51.1889C157.12 51.1889 156.345 57.2348 157.416 63.9944C157.993 67.6204 158.759 70.9592 159.344 73.2725C159.352 73.412 159.393 73.5761 159.476 73.7811C159.566 74.1503 159.657 74.4866 159.739 74.7902C159.896 76.1848 158.99 76.9969 158.215 77.4235C155.299 78.6376 149.434 80.6064 142.242 80.5244C135.092 80.4423 129.498 78.9247 126.722 77.9895C124.621 77.1199 125.503 75.389 126.038 73.8796C126.664 72.001 128.13 68.1454 128.345 66.3898C128.617 64.2323 128.617 62.2717 128.617 62.2717C128.617 62.2717 125.165 59.9666 124.654 57.2348C124.152 54.5113 125.099 50.7213 125.099 50.7213L119.151 49.4743C119.151 49.4743 120.033 38.047 127.546 33.5351Z" fill="#9DA4AE"/>
<path fill-rule="evenodd" clip-rule="evenodd" d="M148.947 52.0999L157.119 51.1893L160.563 50.7709C160.563 50.7709 160.192 60.9596 153.89 69.7865C147.58 78.6134 140.858 83.1827 140.858 83.1827C140.858 83.1827 140.94 85.6109 140.825 86.2918C140.71 86.9727 140.438 87.9817 140.438 87.9817C140.438 87.9817 141.69 87.8341 141.393 89.2287C141.097 90.615 139.457 92.1573 138.205 92.8136C136.953 93.4616 136.096 92.4362 136.096 92.4362C136.096 92.4362 135.132 92.3542 134.622 92.1245C134.119 91.903 133.88 91.5174 133.88 91.5174C133.88 91.5174 132.587 91.4436 131.961 90.7955C131.335 90.1392 130.832 87.5387 130.832 87.5387C130.832 87.5387 125.889 91.7389 124.703 91.7963C123.509 91.8538 123.805 91.099 124.711 89.9259C125.618 88.7611 129.522 85.3156 130.651 84.1015C131.78 82.8874 137.793 75.0613 137.793 75.0613L148.297 59.7127L148.947 52.0999Z" fill="white"/>
<path fill-rule="evenodd" clip-rule="evenodd" d="M125.897 6.44731C120.839 9.64665 120.897 12.5507 121.671 17.0544C122.479 21.7221 126.713 30.8854 132.628 30.3603C128.385 41.1397 139.861 41.9928 142.233 33.9452C142.826 31.9272 142.95 29.3841 142.95 29.3841L140.775 20.7869C140.775 20.7869 143.658 19.3267 143.601 16.4473C143.543 13.5761 141.162 13.7484 141.162 13.7484C141.492 5.43008 131.804 2.71474 125.897 6.44731Z" fill="white"/>
<path d="M132.182 19.6037C132.58 19.5554 132.856 19.139 132.799 18.6736C132.742 18.2083 132.373 17.8701 131.976 17.9184C131.578 17.9667 131.302 18.3831 131.359 18.8484C131.416 19.3138 131.785 19.6519 132.182 19.6037Z" fill="#111927"/>
<path d="M124.938 20.7314C125.335 20.6832 125.611 20.2668 125.554 19.8014C125.497 19.336 125.129 18.9979 124.731 19.0462C124.334 19.0944 124.058 19.5108 124.115 19.9762C124.172 20.4416 124.54 20.7797 124.938 20.7314Z" fill="#111927"/>
<path d="M127.826 18.9084C127.826 18.9084 127.966 20.9264 127.966 21.8452C127.966 22.764 127.859 23.2316 127.859 23.2316L129.778 23.4121" stroke="#111927" stroke-width="0.219587" stroke-linecap="round" stroke-linejoin="round"/>
<path fill-rule="evenodd" clip-rule="evenodd" d="M130.577 25.0693L133.32 23.7403C133.32 23.7403 133.732 25.6517 132.398 26.1275C131.055 26.5951 130.577 25.0693 130.577 25.0693Z" stroke="#111927" stroke-width="0.219587" stroke-linecap="round" stroke-linejoin="round"/>
<path d="M130.651 15.7666C130.651 15.7666 131.384 15.6025 132.216 15.6025C133.048 15.6025 133.271 15.6517 133.271 15.6517" stroke="#111927" stroke-width="0.219587" stroke-linecap="round" stroke-linejoin="round"/>
<path d="M125.255 16.6359C125.255 16.6359 124.67 16.6769 123.929 16.9312C123.188 17.1856 122.842 17.4645 122.842 17.4645" stroke="#111927" stroke-width="0.219587" stroke-linecap="round" stroke-linejoin="round"/>
<path d="M140.734 19.1219C140.734 19.1219 140.438 17.9817 140.627 16.825C140.825 15.6683 141.764 15.0776 141.764 15.0776" stroke="#111927" stroke-width="0.219587" stroke-linecap="round" stroke-linejoin="round"/>
<path d="M141.937 17.227L140.627 16.825" stroke="#111927" stroke-width="0.219587" stroke-linecap="round" stroke-linejoin="round"/>
<path d="M129.926 25.3644L130.577 25.0692" stroke="#111927" stroke-width="0.219587" stroke-linecap="round" stroke-linejoin="round"/>
<path d="M137.473 26.0864C136.805 28.3014 135.413 29.2694 133.51 30.0323" stroke="#111927" stroke-width="0.219587" stroke-linecap="round" stroke-linejoin="round"/>
<path d="M133.37 32.6823L132.81 30.9431" stroke="#111927" stroke-width="0.219587" stroke-linecap="round" stroke-linejoin="round"/>
<path d="M126.697 44.6589L125.519 49.6466" stroke="#111927" stroke-width="0.219587" stroke-linecap="round" stroke-linejoin="round"/>
<path d="M139.359 45.9963C139.846 45.9963 140.241 45.5776 140.241 45.0611C140.241 44.5446 139.846 44.1259 139.359 44.1259C138.872 44.1259 138.478 44.5446 138.478 45.0611C138.478 45.5776 138.872 45.9963 139.359 45.9963Z" fill="#111927"/>
<path d="M132.958 88.6624C132.958 88.6624 133.147 90.0077 133.329 90.4671C133.502 90.9265 133.881 91.5171 133.881 91.5171" stroke="#111927" stroke-width="0.219587" stroke-linecap="round" stroke-linejoin="round"/>
<path d="M135.339 89.2855C135.339 89.2855 135.545 90.6309 135.693 91.1231C135.841 91.6071 136.097 92.4356 136.097 92.4356" stroke="#111927" stroke-width="0.219587" stroke-linecap="round" stroke-linejoin="round"/>
<path d="M137.818 91.345C137.818 91.345 138.831 90.5739 139.457 89.6879C140.084 88.7938 140.438 87.9816 140.438 87.9816" stroke="#111927" stroke-width="0.219587" stroke-linecap="round" stroke-linejoin="round"/>
<path d="M130.552 31.9192C127.66 46.0702 147.151 42.3458 145.701 29.6305" stroke="#6CA3B7" stroke-width="0.219587" stroke-linecap="round" stroke-linejoin="round"/>
<path d="M135.544 50.0813C135.774 47.0871 135.708 46.7425 135.964 40.9673" stroke="#6CA3B7" stroke-width="0.219587" stroke-linecap="round" stroke-linejoin="round"/>
<path d="M160.563 50.7709C160.563 50.7709 160.192 60.9596 153.89 69.7865C147.58 78.6134 140.858 83.1827 140.858 83.1827C140.858 83.1827 140.94 85.6109 140.825 86.2918C140.71 86.9727 140.438 87.9817 140.438 87.9817C140.438 87.9817 141.69 87.8341 141.393 89.2287C141.097 90.615 139.457 92.1573 138.205 92.8136C136.953 93.4616 136.096 92.4362 136.096 92.4362C136.096 92.4362 135.132 92.3542 134.622 92.1245C134.119 91.903 133.88 91.5174 133.88 91.5174C133.88 91.5174 132.587 91.4436 131.961 90.7955C131.335 90.1392 130.832 87.5387 130.832 87.5387C130.832 87.5387 125.889 91.7389 124.703 91.7963C123.509 91.8538 123.805 91.099 124.711 89.9259C125.618 88.7611 129.522 85.3156 130.651 84.1015C131.78 82.8874 137.793 75.0613 137.793 75.0613L148.297 59.7127L148.947 52.0999" stroke="#111927" stroke-width="0.219587" stroke-linecap="round" stroke-linejoin="round"/>
<path d="M150.603 60.2618L148.297 59.7122" stroke="#111927" stroke-width="0.219587" stroke-linecap="round" stroke-linejoin="round"/>
<path d="M121.77 58.1781L119.916 57.85" stroke="#111927" stroke-width="0.219587" stroke-linecap="round" stroke-linejoin="round"/>
<path d="M148.017 45.6189L147.704 52.0012L154.879 51.4433" stroke="#111927" stroke-width="0.219587" stroke-linecap="round" stroke-linejoin="round"/>
<path fill-rule="evenodd" clip-rule="evenodd" d="M124.572 3.5516C118.204 8.71156 117.191 20.6804 119.217 30.0405C119.975 33.5598 121.326 36.2013 123.089 37.8912C124.226 36.2013 125.676 34.6508 127.546 33.5352C127.546 33.5352 129.342 32.3129 132.324 31.189C132.415 30.9183 132.514 30.6394 132.629 30.3604C126.714 30.8855 122.48 21.7222 121.672 17.0545C121.516 16.1111 121.384 15.2333 121.326 14.413L121.335 14.5442C123.04 14.0274 127.53 12.5918 129.581 11.189C132.135 9.44167 133.568 7.93224 133.568 7.93224C133.568 7.93224 133.444 10.746 134.697 12.9035C135.949 15.0692 136.715 13.7403 136.715 13.7403C136.715 13.7403 138.115 17.3252 138.774 17.7107C139.392 18.0717 139.26 15.463 139.862 14.536C140.134 14.1504 140.537 13.8387 141.163 13.7485C141.163 13.7485 143.544 13.5762 143.602 16.4474C143.659 19.3268 140.776 20.787 140.776 20.787L140.29 21.1726C140.29 21.1726 138.684 28.9659 138.684 34.2981C138.684 39.6385 137.613 46.5048 142.193 47.7517C143.89 48.2193 145.109 47.924 145.966 47.3826C147.614 47.481 149.105 47.1201 149.986 46.5787C151.708 45.5122 153.018 43.97 153.018 43.97C153.018 43.97 149.69 42.1324 149.747 32.6492C149.805 23.166 148.825 10.664 145.579 6.45562C142.341 2.24725 138.799 2.3703 138.799 2.3703C134.375 -0.697785 128.683 0.229204 124.572 3.5516Z" fill="#35B26A"/>
<path d="M134.252 6.4474C134.252 6.4474 135.026 5.14305 135.973 4.13402C136.929 3.125 137.934 2.71483 137.934 2.71483" stroke="white" stroke-width="0.219587" stroke-linecap="round" stroke-linejoin="round"/>
<path d="M130.38 6.62805C130.38 6.62805 126.393 8.70352 125.083 9.8274C123.773 10.9513 123.361 11.3943 123.361 11.3943" stroke="white" stroke-width="0.219587" stroke-linecap="round" stroke-linejoin="round"/>
<path d="M131.985 4.34778C131.985 4.34778 130.049 4.20012 128.806 4.70053C127.553 5.20093 126.087 6.33301 126.087 6.33301" stroke="white" stroke-width="0.219587" stroke-linecap="round" stroke-linejoin="round"/>
<path d="M130.733 2.29654C130.733 2.29654 131.927 2.14888 132.875 2.32936C133.83 2.50983 134.399 2.62468 134.399 2.62468" stroke="white" stroke-width="0.219587" stroke-linecap="round" stroke-linejoin="round"/>
<path d="M138.412 7.54671C138.412 7.54671 139.244 9.14638 139.483 9.62218C139.722 10.0898 140.109 10.5984 140.109 10.5984" stroke="white" stroke-width="0.219587" stroke-linecap="round" stroke-linejoin="round"/>
<path d="M141.088 7.4238C141.088 7.4238 142.934 10.0899 143.378 11.1892C143.831 12.2884 144.367 13.117 144.367 13.117" stroke="white" stroke-width="0.219587" stroke-linecap="round" stroke-linejoin="round"/>
<path d="M142.308 30.0898C142.308 30.0898 142.242 35.0119 142.068 36.9643C141.904 38.9249 142.134 39.6386 142.134 39.6386" stroke="white" stroke-width="0.219587" stroke-linecap="round" stroke-linejoin="round"/>
<path d="M144.449 26.48L144.392 33.3545" stroke="white" stroke-width="0.219587" stroke-linecap="round" stroke-linejoin="round"/>
<path d="M146.823 29.8358C146.823 29.8358 146.534 32.1082 146.773 33.3551C147.012 34.5938 147.136 35.1927 147.136 35.1927" stroke="white" stroke-width="0.219587" stroke-linecap="round" stroke-linejoin="round"/>
<path d="M141.699 5.79932C141.699 5.79932 142.457 6.15207 142.992 6.9396C143.527 7.71893 143.692 8.17832 143.692 8.17832" stroke="white" stroke-width="0.219587" stroke-linecap="round" stroke-linejoin="round"/>
<path d="M123.122 31.9932C122.364 30.7791 121.919 29.0072 121.82 27.5634" stroke="white" stroke-width="0.219587" stroke-linecap="round" stroke-linejoin="round"/>
<path d="M124.843 29.6797L124.58 28.7034" stroke="white" stroke-width="0.219587" stroke-linecap="round" stroke-linejoin="round"/>
<path d="M156.238 81.5338C156.238 81.5338 155.431 83.0432 154.804 83.7241C154.178 84.405 153.791 84.7332 153.791 84.7332" stroke="white" stroke-width="0.219587" stroke-linecap="round" stroke-linejoin="round"/>
<path d="M156.502 84.4622L155.077 86.2751" stroke="white" stroke-width="0.219587" stroke-linecap="round" stroke-linejoin="round"/>
<path d="M86.9158 48.9002C86.9488 48.9658 86.3968 54.4539 86.2238 56.2095L86.9158 48.9002ZM86.9158 48.9002C86.8911 48.8264 84.5433 48.088 84.5433 45.4793C84.5433 42.8707 86.6028 43.1988 86.6028 43.1988L86.9158 48.9002ZM105.377 38.4326C105.509 39.4498 105.459 40.5737 105.394 41.7796C105.155 46.2259 103.993 51.23 101.579 54.7C99.8082 57.2513 97.3368 57.5384 96.1588 57.5138" stroke="#111927" stroke-width="0.219587" stroke-linecap="round" stroke-linejoin="round"/>
<path fill-rule="evenodd" clip-rule="evenodd" d="M89.7003 169.967C89.7003 169.967 89.3708 174.413 90.3264 178.441C91.2737 182.469 95.2938 189.819 98.0288 189.843C100.772 189.876 103.598 188.957 103.598 186.324C103.598 183.683 100.616 171.148 100.616 171.148L89.7003 169.967Z" fill="white" stroke="#111927" stroke-width="0.219587" stroke-linecap="round" stroke-linejoin="round"/>
<path fill-rule="evenodd" clip-rule="evenodd" d="M108.532 164.93C108.532 164.93 108.507 170.467 108.952 171.148C109.397 171.829 115.855 184.569 120.106 183.65C124.365 182.732 124.241 179.918 123.385 176.842C122.52 173.757 118.738 165.012 118.738 165.012L108.532 164.93Z" fill="white" stroke="#111927" stroke-width="0.219587" stroke-linecap="round" stroke-linejoin="round"/>
<path fill-rule="evenodd" clip-rule="evenodd" d="M65.505 99.655C65.505 99.655 63.5443 114.881 69.5498 120.155C75.5635 125.43 89.3126 130.533 89.3126 130.533C89.3126 130.533 88.6865 169.253 89.0737 170.237C89.4609 171.214 91.6934 173.437 95.7959 173.765C99.9066 174.085 101.241 171.271 101.241 171.271L108.235 131.804C108.235 131.804 107.906 164.815 108.178 165.52C108.441 166.234 110.855 168.753 114.488 168.695C118.112 168.63 119.809 165.881 119.809 165.881C119.809 165.881 126.804 129.13 126.268 122.854C125.733 116.571 123.236 111.714 115.262 107.21C107.288 102.698 101.159 97.7846 101.159 97.7846L65.505 99.655Z" fill="#111927" stroke="#111927" stroke-width="0.219587" stroke-linecap="round" stroke-linejoin="round"/>
<path fill-rule="evenodd" clip-rule="evenodd" d="M76.4033 113.733L93.39 123.035L122.734 115.628L130.494 99.9754L132.701 95.2666L131.26 93.9868L128.879 94.4955C123.088 95.6686 103.547 99.8769 103.547 99.8769L102.328 100.18C101.85 101.378 101.265 102.453 100.656 103.495L98.7776 107.67L98.3657 107.777L76.4033 113.733Z" fill="#35B26A"/>
<path d="M93.9507 121.837L103.688 101.287L131.532 95.4794" stroke="white" stroke-width="0.219587" stroke-linecap="round" stroke-linejoin="round"/>
<path fill-rule="evenodd" clip-rule="evenodd" d="M83.1255 110.746C83.9822 111.558 86.0088 113.535 86.9644 114.667C88.1836 116.119 88.5708 116.841 89.3946 116.89C90.2101 116.932 90.3666 116.735 90.5314 116.628C90.5314 116.628 91.0751 117.202 91.7918 117.104C92.5003 117.005 92.6897 116.644 92.6897 116.644C92.6897 116.644 93.1428 116.767 93.5712 116.612C94.0078 116.456 94.0243 116.103 94.0243 116.103C94.0243 116.103 94.8645 115.898 95.1117 115.02C95.3671 114.151 95.0458 112.904 95.0458 112.904C95.0458 112.904 95.8284 111.821 95.2188 110.385C94.6668 109.081 92.3932 105.619 90.2678 104.027L83.1255 110.746Z" fill="white"/>
<path d="M87.1379 111.969C87.9452 112.896 90.153 115.562 90.5319 116.628" stroke="#111927" stroke-width="0.219587" stroke-linecap="round" stroke-linejoin="round"/>
<path d="M89.1485 111.009C89.1485 111.009 89.9476 111.78 91.0762 113.388C92.213 115.004 92.4025 115.988 92.6496 116.702" stroke="#111927" stroke-width="0.219587" stroke-linecap="round" stroke-linejoin="round"/>
<path d="M90.9761 109.868C92.3766 111.345 93.6947 114.093 94.0242 116.103" stroke="#111927" stroke-width="0.219587" stroke-linecap="round" stroke-linejoin="round"/>
<path d="M92.4511 108.794C93.3902 109.795 94.4694 111.657 95.0461 112.904" stroke="#111927" stroke-width="0.219587" stroke-linecap="round" stroke-linejoin="round"/>
<path d="M83.1255 110.746C83.9822 111.558 86.0088 113.535 86.9644 114.667C88.1836 116.119 88.5708 116.841 89.3946 116.89C90.2101 116.932 90.3666 116.735 90.5314 116.628C90.5314 116.628 91.0751 117.202 91.7918 117.104C92.5003 117.005 92.6897 116.644 92.6897 116.644C92.6897 116.644 93.1428 116.767 93.5712 116.612C94.0078 116.456 94.0243 116.103 94.0243 116.103C94.0243 116.103 94.8645 115.898 95.1117 115.02C95.3671 114.151 95.0458 112.904 95.0458 112.904C95.0458 112.904 95.8284 111.821 95.2188 110.385C94.6668 109.081 92.3932 105.619 90.2678 104.027" stroke="#111927" stroke-width="0.219587" stroke-linecap="round" stroke-linejoin="round"/>
<path fill-rule="evenodd" clip-rule="evenodd" d="M74.1058 61.4519C74.1058 61.4519 79.1639 57.0056 89.6343 55.6438C100.113 54.282 110.526 56.497 114.513 66.4313C118.5 76.3575 117.594 88.876 117.124 96.9646L106.069 99.3353L105.122 84.1262C105.122 84.1262 103.507 96.6528 103.449 98.3099C103.392 99.967 101.126 101.157 98.5066 102.166C95.8869 103.166 91.1583 103.199 91.1583 103.199L83.0028 110.861C83.0028 110.861 62.4738 103.552 60.2743 94.2492C58.0665 84.9465 67.6225 65.3567 74.1058 61.4519Z" fill="#9DA4AE"/>
<path d="M77.6312 77.0384L73.1086 90.5495C73.1086 90.5495 81.503 96.2099 84.4193 98.2525C87.3355 100.295 91.1579 103.199 91.1579 103.199" stroke="#111927" stroke-width="0.219587" stroke-linecap="round" stroke-linejoin="round"/>
<path d="M107.593 68.9169L105.912 78.4411L104.52 88.5313" stroke="#111927" stroke-width="0.219587" stroke-linecap="round" stroke-linejoin="round"/>
<path d="M83.7852 56.8246C83.7852 56.8246 86.1247 63.6253 91.8995 63.7483C97.6743 63.8632 97.6002 59.3431 97.6249 58.0715C97.6579 56.8 97.419 55.0855 97.419 55.0855" stroke="#6CA3B7" stroke-width="0.219587" stroke-linecap="round" stroke-linejoin="round"/>
<path fill-rule="evenodd" clip-rule="evenodd" d="M94.4036 82.5922L90.8284 95.6602L119.875 89.4912L123.566 77.1697L94.4036 82.5922Z" fill="#35B26A"/>
<path fill-rule="evenodd" clip-rule="evenodd" d="M97.4023 84.6014L96.7845 86.8574L99.503 86.2831L100.146 84.019L97.4023 84.6014Z" fill="white"/>
<path fill-rule="evenodd" clip-rule="evenodd" d="M96.3074 89.1547L95.6895 91.4106L98.4163 90.8282L99.0506 88.5723L96.3074 89.1547Z" fill="white"/>
<path d="M102.979 84.5446L118.186 81.5831" stroke="white" stroke-width="0.219587" stroke-linecap="round" stroke-linejoin="round"/>
<path d="M102.435 88.966L117.634 86.0045" stroke="white" stroke-width="0.219587" stroke-linecap="round" stroke-linejoin="round"/>
<path fill-rule="evenodd" clip-rule="evenodd" d="M97.0567 33.3631C105.69 33.9538 105.632 37.3336 105.394 41.7798C105.155 46.2261 103.993 51.2302 101.579 54.7003C99.8082 57.2515 97.3368 57.5387 96.1588 57.514C96.5048 59.2286 95.9858 62.3869 91.3808 62.1244C86.784 61.8537 85.1611 56.4722 85.1611 56.4722C85.1611 56.4722 85.8202 56.3245 86.2238 56.2097C86.3968 54.4542 86.9488 48.9661 86.9158 48.9004C86.8911 48.8266 84.5433 48.0883 84.5433 45.4796C84.5433 42.8709 86.6028 43.199 86.6028 43.199C87.4348 37.1695 89.3048 32.8299 97.0567 33.3631Z" fill="white"/>
<path fill-rule="evenodd" clip-rule="evenodd" d="M105.427 38.9169C103.861 39.0071 102.008 38.9333 100.088 38.7856C100.212 39.0891 100.278 39.4993 100.055 39.9013C99.6024 40.6888 96.3155 39.1712 96.3155 39.1712C96.3155 39.1712 96.0024 40.3935 94.3548 40.1638C93.0697 39.9915 92.1223 39.3352 91.7599 39.0399L91.6857 39.0563C91.6857 39.0563 90.0381 44.569 89.9311 45.2417C89.8322 45.9062 88.58 43.6256 86.6029 43.199C86.6029 43.199 84.5434 42.8709 84.5434 45.4796C84.5434 48.0883 86.8913 48.8266 86.916 48.9004C86.9324 48.9333 86.8171 50.1474 86.6771 51.6158C86.6771 51.6158 85.4249 50.9759 84.0244 48.0719C82.6322 45.1679 81.586 37.8914 84.8565 34.2737C88.1352 30.656 94.7667 30.2458 96.5214 29.7372C98.2843 29.2368 106.209 27.1367 107.387 28.359C108.565 29.5895 106.39 31.2384 106.39 31.2384C106.39 31.2384 108.87 31.222 109.348 32.2557C109.826 33.2975 107.33 34.1835 107.297 34.5116C107.264 34.8397 108.977 35.7093 109.142 37.2516C109.307 38.7938 105.427 38.9169 105.427 38.9169Z" fill="#111927" stroke="#111927" stroke-width="0.219587" stroke-linecap="round" stroke-linejoin="round"/>
<path d="M98.9018 46.4969C98.9348 48.1294 99.0172 49.2451 99.2973 50.853C98.7783 51.017 98.0039 51.1073 97.4767 50.976" stroke="#111927" stroke-width="0.219587" stroke-linecap="round" stroke-linejoin="round"/>
<path d="M94.6598 47.7263C95.0168 47.7578 95.3362 47.447 95.373 47.0322C95.4099 46.6174 95.1504 46.2556 94.7933 46.2241C94.4362 46.1926 94.1169 46.5034 94.08 46.9182C94.0431 47.3331 94.3027 47.6949 94.6598 47.7263Z" fill="#111927"/>
<path d="M93.218 44.9707C93.6793 44.7328 94.5443 44.4539 95.3434 44.257" stroke="#111927" stroke-width="0.219587" stroke-linecap="round" stroke-linejoin="round"/>
<path d="M101.884 44.2491C101.983 44.2655 102.082 44.2819 102.164 44.2983C102.7 44.3968 103.078 44.5362 103.078 44.5362" stroke="#111927" stroke-width="0.219587" stroke-linecap="round" stroke-linejoin="round"/>
<path fill-rule="evenodd" clip-rule="evenodd" d="M97.7565 53.4537C97.7565 53.4537 96.043 52.6662 95.2275 52.3298C94.4119 51.9853 93.9176 51.7064 93.9176 51.7064C93.9176 51.7064 93.6046 53.5275 95.0215 54.0936C96.4302 54.6514 97.7565 53.4537 97.7565 53.4537Z" fill="white" stroke="#111927" stroke-width="0.219587" stroke-linecap="round" stroke-linejoin="round"/>
<path d="M85.8036 44.3969C85.8036 44.3969 86.7263 44.9137 87.3524 45.7586C87.9702 46.6036 88.2091 47.7439 88.2091 47.7439" stroke="#111927" stroke-width="0.219587" stroke-linecap="round" stroke-linejoin="round"/>
<path d="M86.2328 46.9565L87.3532 45.7588" stroke="#111927" stroke-width="0.219587" stroke-linecap="round" stroke-linejoin="round"/>
<path d="M88.794 52.2886C88.794 52.2886 89.5354 54.6594 91.3231 56.1114C93.1025 57.5634 96.1587 57.5142 96.1587 57.5142" stroke="#111927" stroke-width="0.219587" stroke-linecap="round" stroke-linejoin="round"/>
<path d="M101.371 47.4449C101.728 47.4764 102.047 47.1656 102.084 46.7508C102.121 46.3359 101.861 45.9741 101.504 45.9427C101.147 45.9112 100.828 46.222 100.791 46.6368C100.754 47.0516 101.014 47.4134 101.371 47.4449Z" fill="#111927"/>
<path d="M98.3822 53.6831L97.7564 53.4535" stroke="#111927" stroke-width="0.219587" stroke-linecap="round" stroke-linejoin="round"/>
<path d="M80.2275 109.77C80.2275 109.77 82.9625 106.505 85.4009 104.429C87.8393 102.354 89.0503 101.616 89.0503 101.616" stroke="#6CA3B7" stroke-width="0.219587" stroke-linecap="round" stroke-linejoin="round"/>
<path d="M90.1282 104.167L87.9946 102.354" stroke="#6CA3B7" stroke-width="0.219587" stroke-linecap="round" stroke-linejoin="round"/>
<path d="M83.9753 109.942L81.4297 108.391" stroke="#6CA3B7" stroke-width="0.219587" stroke-linecap="round" stroke-linejoin="round"/>
<path d="M85.1113 108.876L82.6646 107.055" stroke="#6CA3B7" stroke-width="0.219587" stroke-linecap="round" stroke-linejoin="round"/>
<path d="M86.4048 107.662L83.8757 105.833" stroke="#6CA3B7" stroke-width="0.219587" stroke-linecap="round" stroke-linejoin="round"/>
<path d="M87.6651 106.48L85.3173 104.503" stroke="#6CA3B7" stroke-width="0.219587" stroke-linecap="round" stroke-linejoin="round"/>
<path d="M88.9411 105.283L86.7087 103.347" stroke="#6CA3B7" stroke-width="0.219587" stroke-linecap="round" stroke-linejoin="round"/>
<path d="M98.3506 108.515L92.963 120.279" stroke="#111927" stroke-width="0.219587" stroke-linecap="round" stroke-linejoin="round"/>
<path d="M66.3459 92.3212C69.4187 90.9512 70.9592 90.6066 73.1093 90.5492" stroke="#111927" stroke-width="0.219587" stroke-linecap="round" stroke-linejoin="round"/>
<path d="M107.328 120.68C107.328 120.68 109.388 123.412 109.001 126.636C108.613 129.868 108.177 134.019 108.012 133.986" stroke="white" stroke-width="0.219587" stroke-linecap="round" stroke-linejoin="round"/>
<path d="M105.426 34.7248C103.795 34.1013 101.414 33.5763 98.3747 33.6829" stroke="white" stroke-width="0.219587" stroke-linecap="round" stroke-linejoin="round"/>
<path d="M104.281 30.9594C102.551 30.943 101.464 30.9594 99.4293 31.3286" stroke="white" stroke-width="0.219587" stroke-linecap="round" stroke-linejoin="round"/>
<path d="M100.138 36.6773C99.1823 36.3 97.9466 35.9554 96.4556 35.7668" stroke="white" stroke-width="0.219587" stroke-linecap="round" stroke-linejoin="round"/>
<path d="M87.9453 42.4364C87.9947 41.6734 88.0854 40.8039 88.2666 39.9343C88.349 39.5241 88.4478 39.114 88.5714 38.7202" stroke="white" stroke-width="0.219587" stroke-linecap="round" stroke-linejoin="round"/>
<path d="M86.5618 40.984C86.6524 39.8519 86.8583 38.4983 87.262 37.276" stroke="white" stroke-width="0.219587" stroke-linecap="round" stroke-linejoin="round"/>
<path d="M85.0288 41.8783C85.0288 41.2384 85.0618 40.5329 85.136 39.811" stroke="white" stroke-width="0.219587" stroke-linecap="round" stroke-linejoin="round"/>
<path d="M44.655 62.0342L47.0935 56.9481M47.0935 56.9481C46.4097 56.5461 45.3882 55.7094 44.8857 54.1343C44.0701 51.6159 46.0143 50.3279 46.0143 50.3279L47.0935 56.9481ZM64.7556 41.4682C65.4888 43.314 65.6371 45.7504 65.5876 48.9251C65.4641 56.2754 63.9318 62.2147 61.9218 64.0851C59.9117 65.9555 56.8389 65.1187 56.8389 65.1187" stroke="#111927" stroke-width="0.219587" stroke-linecap="round" stroke-linejoin="round"/>
<path fill-rule="evenodd" clip-rule="evenodd" d="M68.4786 79.8847C68.4786 79.8847 67.1029 95.2908 66.5674 100.869C66.032 106.439 66.5674 113.724 66.5674 113.724C66.5674 113.724 69.7226 118.055 70.3239 120.065C70.9171 122.083 69.459 123.978 69.459 123.978C69.459 123.978 69.1294 125.315 68.6269 125.397C68.1162 125.488 67.4901 125.283 67.4901 125.283C67.4901 125.283 67.2182 125.783 66.7157 125.955C66.2214 126.128 65.7025 125.644 65.7025 125.644C65.7025 125.644 65.0681 126.021 64.7469 125.709C64.4256 125.397 63.9066 124.61 63.9066 124.61C63.9066 124.61 62.7203 124.265 61.7235 123.396C60.7267 122.518 58.4284 120.705 58.1812 116.472C57.9341 112.239 56.8714 111.082 57.168 103.913C57.4645 96.7428 58.1812 80.5 58.1812 80.5L68.4786 79.8847Z" fill="white"/>
<path d="M61.4689 119.327C61.4689 119.327 62.6964 120.885 63.3225 122.296C63.9485 123.699 63.9074 124.61 63.9074 124.61" stroke="#111927" stroke-width="0.219587" stroke-linecap="round" stroke-linejoin="round"/>
<path d="M64.4505 119.228C64.4505 119.228 65.0354 120.541 65.3896 122.379C65.7439 124.216 65.8345 125.225 65.8345 125.225" stroke="#111927" stroke-width="0.219587" stroke-linecap="round" stroke-linejoin="round"/>
<path d="M66.5104 119.155C66.5104 119.155 67.3424 121.017 67.5072 122.411C67.6637 123.806 67.5648 124.946 67.5648 124.946" stroke="#111927" stroke-width="0.219587" stroke-linecap="round" stroke-linejoin="round"/>
<path d="M68.3221 118.408C68.3221 118.408 68.907 120.164 69.1542 121.247C69.3931 122.338 69.4096 123.519 69.4096 123.519" stroke="#111927" stroke-width="0.219587" stroke-linecap="round" stroke-linejoin="round"/>
<path d="M68.4786 79.8847C68.4786 79.8847 67.1029 95.2908 66.5674 100.869C66.032 106.439 66.5674 113.724 66.5674 113.724C66.5674 113.724 69.7226 118.055 70.3239 120.065C70.9171 122.083 69.459 123.978 69.459 123.978C69.459 123.978 69.1294 125.315 68.6269 125.397C68.1162 125.488 67.4901 125.283 67.4901 125.283C67.4901 125.283 67.2182 125.783 66.7157 125.955C66.2215 126.128 65.7025 125.644 65.7025 125.644C65.7025 125.644 65.0681 126.021 64.7469 125.709C64.4256 125.397 63.9066 124.61 63.9066 124.61C63.9066 124.61 62.7203 124.265 61.7235 123.396C60.7267 122.518 58.4284 120.705 58.1812 116.472C57.9341 112.239 56.8714 111.082 57.168 103.913C57.4645 96.7428 58.1812 80.5 58.1812 80.5" stroke="#111927" stroke-width="0.219587" stroke-linecap="round" stroke-linejoin="round"/>
<path fill-rule="evenodd" clip-rule="evenodd" d="M78.5293 184.044C78.5293 184.044 83.3815 185.135 88.9091 185.168C94.445 185.2 96.0267 187.038 94.3874 189.081C92.748 191.123 82.7554 194.265 77.516 194.528C72.2767 194.798 70.2255 188.104 70.2255 188.104L78.5293 184.044Z" fill="white" stroke="#111927" stroke-width="0.219587" stroke-linecap="round" stroke-linejoin="round"/>
<path fill-rule="evenodd" clip-rule="evenodd" d="M60.3484 194.077C60.3484 194.077 61.0321 198.22 67.4577 199.942C73.8833 201.657 86.232 199.081 87.8714 196.8C89.5107 194.52 88.9423 192.92 86.9487 192.231C84.9551 191.55 72.73 190.279 70.4975 189.45C68.2651 188.621 60.3484 194.077 60.3484 194.077Z" fill="white" stroke="#111927" stroke-width="0.219587" stroke-linecap="round" stroke-linejoin="round"/>
<path fill-rule="evenodd" clip-rule="evenodd" d="M19.5042 104.84C19.5042 104.84 17.8978 117.932 27.6598 140.336C37.4217 162.74 51.1049 185.644 55.0344 190.057C58.9639 194.47 60.8916 195.955 60.8916 195.955L71.9057 189.819L71.4609 189.04C71.4609 189.04 73.3803 188.342 76.3378 186.677C79.3034 185.02 80.1602 184.339 80.1602 184.339C80.1602 184.339 59.6065 119.524 58.2967 113.831C56.9868 108.146 56.7479 106.603 56.7479 106.603L19.5042 104.84Z" fill="#111927" stroke="#111927" stroke-width="0.0878348" stroke-linecap="round" stroke-linejoin="round"/>
<path fill-rule="evenodd" clip-rule="evenodd" d="M34.6211 61.5747C34.6211 61.5747 46.6403 62.2884 59.4915 60.0981C67.2352 61.1645 69.7395 65.3975 70.5386 70.1555C71.3377 74.9135 70.5056 82.1981 70.5056 82.1981C70.5056 82.1981 67.886 83.4122 65.1757 83.9783C62.4736 84.5443 60.8672 84.7494 60.8672 84.7494L58.3052 107.268C58.3052 107.268 58.2476 110.295 51.5254 111.296C44.795 112.305 35.0989 112.6 27.7754 110.828C20.4601 109.048 17.7828 107.448 18.4336 104.84C19.0844 102.231 24.5626 82.8872 24.5626 82.8872L16.4565 79.7371L14.7512 79.007L23.9695 66.5542C23.9695 66.5542 28.8463 61.3368 34.6211 61.5747Z" fill="#35B26A"/>
<path fill-rule="evenodd" clip-rule="evenodd" d="M47.3813 87.5633C47.3813 87.5633 47.645 86.218 48.6335 85.9226C49.6221 85.6355 57.5305 84.2163 57.5305 84.2163C58.173 84.0441 58.9886 84.5609 59.3428 85.0613C59.5158 85.3484 59.5653 85.5043 59.5735 85.8488C59.6147 87.268 57.4811 104.413 57.4811 104.413C57.4811 104.413 57.3822 105.25 56.5831 105.619C55.9158 105.923 49.4573 106.882 47.5131 107.17C47.472 107.178 47.4308 107.178 47.3813 107.194L46.9118 107.26C46.7635 107.268 46.6399 107.26 46.5328 107.235C46.5328 107.235 44.9923 107.129 45.0912 105.89C45.05 105.578 45.1077 105.291 45.1077 105.291L47.3813 87.5633Z" fill="#9DA4AE" stroke="#111927" stroke-width="0.219587" stroke-linecap="round" stroke-linejoin="round"/>
<path fill-rule="evenodd" clip-rule="evenodd" d="M17.5931 80.1802L14.438 86.3738C14.438 86.3738 10.3932 93.5436 17.2966 96.5625C24.2 99.5814 40.7417 106.226 40.7417 106.226C40.7417 106.226 45.528 107.063 49.787 106.464C54.0378 105.873 54.6227 103.929 54.6227 103.929C54.6227 103.929 55.3641 103.626 55.4382 102.986C55.5124 102.346 55.1252 101.87 55.1252 101.87C55.6112 101.238 55.6359 100.139 54.7957 99.9915C54.3755 99.9177 54.5897 98.7446 52.9256 98.6872C51.2616 98.6298 49.8117 99.0728 48.5348 99.0563C47.2579 99.0399 45.9399 98.8102 45.9399 98.8102L46.5001 94.4788C46.5001 94.4788 41.5738 99.3107 41.0054 99.163C40.4452 99.0153 25.5757 89.3189 25.5757 89.3189L28.8544 84.5527L17.5931 80.1802Z" fill="white"/>
<path d="M47.0931 101.066C47.818 101.107 48.889 101.115 50.2482 100.943C52.8679 100.615 54.5484 99.9339 54.5484 99.9339" stroke="#111927" stroke-width="0.219587" stroke-linecap="round" stroke-linejoin="round"/>
<path d="M47.1256 103.142C49.6052 103.207 53.9713 102.707 55.1741 101.804" stroke="#111927" stroke-width="0.219587" stroke-linecap="round" stroke-linejoin="round"/>
<path d="M47.0518 104.881C49.8938 105.078 52.1016 104.618 54.6718 103.864" stroke="#111927" stroke-width="0.219587" stroke-linecap="round" stroke-linejoin="round"/>
<path d="M36.3917 76.2505L30.7735 85.0036L24.5456 82.9281" stroke="#111927" stroke-width="0.219587" stroke-linecap="round" stroke-linejoin="round"/>
<path d="M62.234 76.4069L61.1136 83.2321" stroke="#111927" stroke-width="0.219587" stroke-linecap="round" stroke-linejoin="round"/>
<path d="M43.0161 61.6405C41.8793 69.5814 46.5255 72.6413 50.9493 72.5674C57.482 72.4608 59.7227 66.743 58.3717 61.0908" stroke="#CA4D04" stroke-width="0.219587" stroke-linecap="round" stroke-linejoin="round"/>
<path fill-rule="evenodd" clip-rule="evenodd" d="M57.745 36.9154C64.805 38.1459 65.777 41.5668 65.5876 48.9253C65.3899 56.2755 63.9317 62.2148 61.9217 64.0852C59.9116 65.9556 56.8389 65.1189 56.8389 65.1189C57.2013 68.8842 53.1483 71.1238 49.6883 70.4757C49.6801 70.4757 49.6719 70.4675 49.6554 70.4675C49.6142 70.4593 49.573 70.4511 49.5318 70.4429C49.4989 70.4347 49.4741 70.4265 49.4412 70.4265C43.5264 69.0975 44.655 62.0344 44.655 62.0344L47.0934 56.9482C46.4096 56.5463 45.3881 55.7095 44.8856 54.1344C44.0701 51.616 46.0142 50.328 46.0142 50.328C41.3927 42.0508 49.3835 35.4716 57.745 36.9154Z" fill="white"/>
<path d="M46.459 51.5253C46.459 51.5253 47.6123 51.5417 48.1478 53.0594C48.675 54.577 47.5299 55.7419 47.5299 55.7419" stroke="#111927" stroke-width="0.219587" stroke-linecap="round" stroke-linejoin="round"/>
<path d="M46.5416 54.0439L48.148 53.0594" stroke="#111927" stroke-width="0.219587" stroke-linecap="round" stroke-linejoin="round"/>
<path d="M54.9938 52.6736C54.9938 52.6736 55.1421 51.2052 56.419 51.0903C57.7041 50.9755 57.6877 52.2388 57.6877 52.2388" stroke="#111927" stroke-width="0.219587" stroke-linecap="round" stroke-linejoin="round"/>
<path d="M61.5586 52.1082C61.5586 52.1082 61.7069 50.6398 62.9838 50.5249C64.2606 50.4183 64.2442 51.6734 64.2442 51.6734" stroke="#111927" stroke-width="0.219587" stroke-linecap="round" stroke-linejoin="round"/>
<path d="M60.0766 51.1236C60.0766 51.1236 60.299 53.2729 60.9663 54.7741C61.6336 56.2672 60.0931 56.4476 60.0931 56.4476" stroke="#111927" stroke-width="0.219587" stroke-linecap="round" stroke-linejoin="round"/>
<path fill-rule="evenodd" clip-rule="evenodd" d="M60.3149 59.2125C59.9524 59.1304 59.5323 59.0074 59.0874 58.8187C57.9423 58.3347 56.7066 57.3667 56.7066 57.3667C56.7066 57.3667 55.8828 59.4012 57.9588 60.5742C58.2307 60.7301 58.486 60.8203 58.7249 60.8696L60.3149 59.2125Z" stroke="#111927" stroke-width="0.219587" stroke-linecap="round" stroke-linejoin="round"/>
<path d="M56.8393 65.1187C54.9857 64.6101 53.0004 63.8062 51.0562 61.5667" stroke="#111927" stroke-width="0.219587" stroke-linecap="round" stroke-linejoin="round"/>
<path fill-rule="evenodd" clip-rule="evenodd" d="M65.0524 42.2064C62.9929 41.7552 55.8918 40.4016 52.9179 42.4033C49.4168 44.7576 50.5207 48.925 50.809 50.0817C51.1056 51.2466 50.2323 51.9521 49.9028 52.5017C49.9028 52.5017 48.6424 49.3106 46.0145 50.3278C46.0145 50.3278 44.9601 51.0251 44.7294 52.395V52.4032V52.4114C44.7212 52.4607 44.7129 52.5099 44.7047 52.5673V52.5755C44.6965 52.6493 44.6882 52.7314 44.6882 52.8134C44.6882 52.8872 44.68 52.9611 44.6882 53.0431V53.0513C44.6882 53.1662 44.6965 53.2892 44.7212 53.4205V53.4287C44.7294 53.4779 44.7376 53.5353 44.7459 53.5927V53.6009V53.6092V53.6174L44.7541 53.6256V53.6338V53.642V53.6502V53.6584L44.7624 53.6666V53.6748V53.683V53.6912V53.6994L44.7706 53.7076V53.7158V53.724V53.7322L44.7788 53.7404V53.7486V53.7568V53.765V53.7732L44.7871 53.7814V53.7896V53.7978V53.806L44.7953 53.8142V53.8224V53.8306V53.8388L44.8035 53.8471V53.8553V53.8635V53.8717L44.8118 53.8799V53.8881V53.8963L44.82 53.9045V53.9127V53.9209V53.9291L44.8283 53.9373V53.9455V53.9537V53.9619V53.9701L44.8365 53.9783V53.9865V53.9947L44.8447 54.0029V54.0111V54.0193L44.853 54.0275V54.0357V54.0439L44.8612 54.0521V54.0603V54.0685L44.8695 54.0767V54.085V54.0932L44.8777 54.1014V54.1096V54.1178V54.126L44.8859 54.1342L44.9024 54.1916V54.208L44.9106 54.2244L44.9271 54.2572V54.2736L44.9354 54.2818L44.9436 54.3146L44.9518 54.3475H44.9601L44.9765 54.4049L44.9848 54.4213L44.993 54.4377L45.0095 54.4869V54.4951L45.0342 54.5525L45.0424 54.5608L45.0672 54.6182V54.6264V54.6346L45.0836 54.6592L45.0919 54.692L45.1001 54.7002L45.1166 54.7412L45.1248 54.7576L45.1331 54.774L45.1495 54.7987L45.1578 54.8151V54.8233L45.1743 54.8561L45.1825 54.8807L45.1907 54.8889L45.2072 54.9299L45.2154 54.9463L45.2237 54.9545L45.2402 54.9791L45.2484 55.0037V55.0119L45.2813 55.0612L45.2896 55.0858L45.3061 55.1104L45.3143 55.1268L45.3225 55.135L45.3308 55.1596L45.3473 55.1842L45.3637 55.2088L45.372 55.2334L45.3802 55.2416L45.3884 55.258L45.4049 55.2745L45.4132 55.2909L45.4214 55.2991L45.4296 55.3237L45.4461 55.3483L45.4626 55.3729L45.4791 55.3975V55.4057L45.4873 55.4139L45.5038 55.4385L45.5202 55.4549V55.4631L45.5367 55.4795L45.5532 55.5041V55.5124L45.5614 55.5288L45.5779 55.5452L45.5862 55.5616L45.5944 55.5698L45.6109 55.5944L45.6273 55.6108L45.6438 55.6354L45.6603 55.6518V55.66L45.6685 55.6764L45.685 55.6928L45.6932 55.7092L45.7015 55.7174L45.718 55.7338L45.7344 55.7585C46.1875 56.3409 46.6983 56.7183 47.0937 56.948L45.8086 59.6305C45.2237 59.2039 44.2351 58.3918 44.0704 57.6534C43.8397 56.587 44.161 55.6354 44.161 55.6354C44.161 55.6354 41.1212 53.0513 42.0933 50.5329C41.6896 50.4754 41.1294 50.2704 41.0965 49.491C41.047 48.2605 42.085 47.3417 42.085 47.3417C42.085 47.3417 40.075 46.8577 40.7258 43.0513C41.3683 39.2449 44.3999 40.0653 44.68 38.4328C44.9518 36.8085 46.377 34.3557 49.6639 34.9053C52.9509 35.4549 54.3348 35.053 55.1586 33.9373C55.9824 32.8216 58.4785 32.0833 59.7884 33.2236C61.1064 34.3721 62.5151 35.8897 63.7426 35.8897C64.9783 35.8897 67.2272 36.2097 67.6144 39.2777C68.0016 42.3376 65.0524 42.2064 65.0524 42.2064Z" fill="#111927" stroke="#111927" stroke-width="0.219587" stroke-linecap="round" stroke-linejoin="round"/>
<path d="M54.3764 49.1712C54.3764 49.1712 54.64 48.7528 55.6945 48.3836C56.7407 48.0145 57.375 48.1375 57.375 48.1375" stroke="#111927" stroke-width="0.219587" stroke-linecap="round" stroke-linejoin="round"/>
<path d="M61.8058 47.8832C61.8058 47.8832 62.8026 47.6864 63.4863 47.8668C64.1701 48.0391 64.4255 48.2852 64.4255 48.2852" stroke="#111927" stroke-width="0.219587" stroke-linecap="round" stroke-linejoin="round"/>
<path d="M55.4213 66.6034L56.0145 64.9381" stroke="#111927" stroke-width="0.219587" stroke-linecap="round" stroke-linejoin="round"/>
<path d="M22.2878 87.3989L25.616 89.2447" stroke="#111927" stroke-width="0.219587" stroke-linecap="round" stroke-linejoin="round"/>
<path d="M17.6424 80.1066L14.4872 86.3002C14.4872 86.3002 10.4424 93.47 17.3458 96.497C24.2492 99.5159 40.7828 106.161 40.7828 106.161C40.7828 106.161 45.5772 106.989 49.8363 106.399C54.087 105.808 54.6719 103.864 54.6719 103.864C54.6719 103.864 55.4133 103.552 55.4875 102.912C55.5616 102.28 55.1744 101.805 55.1744 101.805C55.6605 101.165 55.6852 100.074 54.8449 99.9179C54.4248 99.844 54.639 98.6792 52.9749 98.6217C51.3026 98.5561 49.861 98.9991 48.5841 98.9909C47.3072 98.9745 45.9891 98.7366 45.9891 98.7366L46.4669 94.7497C46.4669 94.7497 41.623 99.237 41.0546 99.0893C40.4944 98.9417 25.6167 89.2452 25.6167 89.2452L28.9036 84.479" stroke="#111927" stroke-width="0.219587" stroke-linecap="round" stroke-linejoin="round"/>
<path d="M48.5595 114.741L45.5856 120.434C45.5856 120.434 57.4894 159.663 61.7731 168.195C66.0569 176.735 70.2829 186.923 70.2829 186.923" stroke="white" stroke-width="0.219587" stroke-linecap="round" stroke-linejoin="round"/>
<path d="M57.7862 85.1513L49.367 86.8658C49.367 86.8658 48.6009 86.9725 48.4114 88.162C48.2137 89.3433 47.8183 92.6739 47.8183 92.6739L47.2664 97.7436" stroke="#6CA3B7" stroke-width="0.219587" stroke-linecap="round" stroke-linejoin="round"/>
<path d="M51.9041 39.6798C51.9041 39.6798 52.6785 38.5231 54.1036 38.2277C55.537 37.9324 56.4597 38.6133 56.4597 38.6133" stroke="white" stroke-width="0.219587" stroke-linecap="round" stroke-linejoin="round"/>
<path d="M48.2552 42.5181C47.6621 43.3057 47.4396 44.1096 47.4396 44.9956" stroke="white" stroke-width="0.219587" stroke-linecap="round" stroke-linejoin="round"/>
<path d="M44.5638 44.8724C43.946 46.0455 44.0531 47.3498 44.5638 48.2194" stroke="white" stroke-width="0.219587" stroke-linecap="round" stroke-linejoin="round"/>
<path d="M58.9394 36.1359C59.9938 35.9964 61.3119 36.7921 61.2295 37.9488" stroke="white" stroke-width="0.219587" stroke-linecap="round" stroke-linejoin="round"/>
<path d="M49.9191 90.256C50.2368 90.6323 50.8456 90.6015 51.2789 90.1871C51.7122 89.7727 51.8058 89.1317 51.4881 88.7554C51.1704 88.3791 50.5616 88.4099 50.1283 88.8242C49.695 89.2386 49.6014 89.8796 49.9191 90.256Z" fill="#111927"/>
<path d="M24.8262 112.592C24.8262 112.592 25.6253 113.511 26.6138 114.224C27.5941 114.938 28.1543 115.348 28.1543 115.348" stroke="white" stroke-width="0.219587" stroke-linecap="round" stroke-linejoin="round"/>
<path d="M25.7814 116.636L27.6926 117.645" stroke="white" stroke-width="0.219587" stroke-linecap="round" stroke-linejoin="round"/>
<path fill-rule="evenodd" clip-rule="evenodd" d="M51.9377 22.9858C54.5327 22.9776 60.3569 22.5674 62.8036 19.2533C65.9834 14.93 62.7129 10.1885 55.9578 10.008C40.2398 9.59781 40.1657 21.6076 48.8238 22.8546L50.2407 25.9555L51.9377 22.9858Z" fill="white" stroke="#111927" stroke-width="0.219587" stroke-linecap="round" stroke-linejoin="round"/>
<path fill-rule="evenodd" clip-rule="evenodd" d="M49.4004 16.4478C49.8535 16.4478 50.2159 16.8251 50.2159 17.2845C50.2159 17.7439 49.8535 18.1131 49.4004 18.1131C48.9473 18.1131 48.5766 17.7439 48.5766 17.2845C48.5766 16.8251 48.9473 16.4478 49.4004 16.4478ZM58.0832 15.1599C58.5363 15.1599 58.8987 15.5372 58.8987 15.9966C58.8987 16.456 58.5363 16.8334 58.0832 16.8334C57.6301 16.8334 57.2594 16.456 57.2594 15.9966C57.2594 15.5372 57.6301 15.1599 58.0832 15.1599ZM53.6594 15.8818C54.1125 15.8818 54.475 16.2509 54.475 16.7185C54.475 17.1779 54.1125 17.5471 53.6594 17.5471C53.2063 17.5471 52.8356 17.1779 52.8356 16.7185C52.8356 16.2509 53.2063 15.8818 53.6594 15.8818Z" fill="#111927"/>
<path fill-rule="evenodd" clip-rule="evenodd" d="M177.418 23.404C180.606 19.0807 177.327 14.3392 170.572 14.1587C160.16 13.8798 156.617 19.0643 157.927 22.961L156.156 26.1603L159.838 25.5615C160.761 26.2752 161.98 26.792 163.438 27.0053C167.912 27.194 174.535 27.3252 177.418 23.404Z" fill="white" stroke="#111927" stroke-width="0.219587" stroke-linecap="round" stroke-linejoin="round"/>
<path fill-rule="evenodd" clip-rule="evenodd" d="M164.015 20.5984C164.468 20.5984 164.838 20.9675 164.838 21.4269C164.838 21.8945 164.468 22.2637 164.015 22.2637C163.561 22.2637 163.199 21.8945 163.199 21.4269C163.199 20.9675 163.561 20.5984 164.015 20.5984ZM172.697 19.3104C173.15 19.3104 173.521 19.6878 173.521 20.1472C173.521 20.6066 173.15 20.9757 172.697 20.9757C172.244 20.9757 171.882 20.6066 171.882 20.1472C171.882 19.6878 172.244 19.3104 172.697 19.3104ZM168.274 20.0323C168.727 20.0323 169.097 20.4015 169.097 20.8609C169.097 21.3203 168.727 21.6976 168.274 21.6976C167.82 21.6976 167.45 21.3203 167.45 20.8609C167.45 20.4015 167.82 20.0323 168.274 20.0323Z" fill="#111927"/>
</svg>
