<svg width="26" height="30" viewBox="0 0 26 30" fill="none" xmlns="http://www.w3.org/2000/svg">
<g opacity="0.3">
<path opacity="0.3" d="M17.9587 6.15564C17.2754 6.15498 16.6201 5.88319 16.1369 5.39996C15.6537 4.91673 15.3819 4.26152 15.3812 3.57812V-0.000610352H3.86375C2.97162 -0.000610352 2.11605 0.353794 1.48522 0.984619C0.854396 1.61544 0.5 2.47101 0.5 3.36313V23.6406C0.501325 24.5319 0.856302 25.3862 1.48698 26.0159C2.11767 26.6457 2.97249 26.9994 3.86375 26.9994H17.69C18.5813 26.9994 19.4361 26.6457 20.0668 26.0159C20.6974 25.3862 21.0524 24.5319 21.0537 23.6406V6.15564H17.9587Z" fill="#FF3E4C"/>
</g>
<path d="M21.0534 6.15564H17.9584C17.275 6.15498 16.6198 5.88319 16.1365 5.39996C15.6533 4.91673 15.3815 4.26152 15.3809 3.57812V-0.000610352L21.0534 6.15564Z" fill="#FF3E4C"/>
<path d="M16.8249 18.8544H3.91992C3.7956 18.8544 3.67637 18.805 3.58846 18.7171C3.50056 18.6292 3.45117 18.51 3.45117 18.3857C3.4515 18.2615 3.50103 18.1426 3.58891 18.055C3.67678 17.9674 3.79582 17.9182 3.91992 17.9182H16.8249C16.9489 17.9182 17.0678 17.9674 17.1555 18.0551C17.2432 18.1427 17.2924 18.2617 17.2924 18.3857C17.2926 18.4471 17.2806 18.5081 17.2572 18.5649C17.2338 18.6218 17.1994 18.6735 17.1559 18.717C17.1125 18.7606 17.0609 18.7951 17.0041 18.8187C16.9473 18.8423 16.8864 18.8544 16.8249 18.8544Z" fill="#FF3E4C"/>
<path d="M16.8249 13.5744H3.91992C3.79582 13.5744 3.67678 13.5252 3.58891 13.4376C3.50103 13.3499 3.4515 13.231 3.45117 13.1069C3.45117 12.9826 3.50056 12.8634 3.58846 12.7755C3.67637 12.6875 3.7956 12.6382 3.91992 12.6382H16.8249C16.8864 12.6382 16.9473 12.6503 17.0041 12.6739C17.0609 12.6975 17.1125 12.732 17.1559 12.7755C17.1994 12.8191 17.2338 12.8708 17.2572 12.9276C17.2806 12.9845 17.2926 13.0454 17.2924 13.1069C17.2924 13.2309 17.2432 13.3498 17.1555 13.4375C17.0678 13.5252 16.9489 13.5744 16.8249 13.5744Z" fill="#FF3E4C"/>
<path d="M16.8249 16.2144H3.91992C3.7956 16.2144 3.67637 16.165 3.58846 16.0771C3.50056 15.9892 3.45117 15.87 3.45117 15.7456C3.4515 15.6215 3.50103 15.5026 3.58891 15.415C3.67678 15.3273 3.79582 15.2781 3.91992 15.2781H16.8249C16.9489 15.2781 17.0678 15.3274 17.1555 15.4151C17.2432 15.5027 17.2924 15.6216 17.2924 15.7456C17.2926 15.8071 17.2806 15.8681 17.2572 15.9249C17.2338 15.9818 17.1994 16.0335 17.1559 16.077C17.1125 16.1206 17.0609 16.1551 17.0041 16.1787C16.9473 16.2023 16.8864 16.2144 16.8249 16.2144Z" fill="#FF3E4C"/>
<path d="M11.7349 10.9344H3.91992C3.79582 10.9344 3.67678 10.8852 3.58891 10.7976C3.50103 10.7099 3.4515 10.591 3.45117 10.4669C3.45117 10.3426 3.50056 10.2234 3.58846 10.1355C3.67637 10.0476 3.7956 9.99817 3.91992 9.99817H11.7349C11.859 9.9985 11.9779 10.048 12.0656 10.1359C12.1532 10.2238 12.2024 10.3428 12.2024 10.4669C12.2021 10.5908 12.1527 10.7095 12.0651 10.7971C11.9775 10.8847 11.8588 10.9341 11.7349 10.9344Z" fill="#FF3E4C"/>
<path d="M11.7349 8.2944H3.91992C3.79582 8.2944 3.67678 8.24517 3.58891 8.15753C3.50103 8.06989 3.4515 7.95101 3.45117 7.8269C3.45117 7.70258 3.50056 7.58333 3.58846 7.49542C3.67637 7.40751 3.7956 7.35815 3.91992 7.35815H11.7349C11.859 7.35849 11.9779 7.40801 12.0656 7.49588C12.1532 7.58375 12.2024 7.7028 12.2024 7.8269C12.2021 7.95079 12.1527 8.0695 12.0651 8.1571C11.9775 8.24471 11.8588 8.29407 11.7349 8.2944Z" fill="#FF3E4C"/>
<path d="M23.493 21.3257H7.86297C6.75426 21.3257 5.85547 22.2245 5.85547 23.3332V27.9932C5.85547 29.1019 6.75426 30.0007 7.86297 30.0007H23.493C24.6017 30.0007 25.5005 29.1019 25.5005 27.9932V23.3332C25.5005 22.2245 24.6017 21.3257 23.493 21.3257Z" fill="#FF3E4C"/>
<path d="M10.983 26.6719V27.5806H10.043V26.6719H10.983Z" fill="white"/>
<path d="M12.3648 26.2619V27.5806H11.4561V23.8219H12.9286C13.3748 23.8219 13.7161 23.9331 13.9498 24.1544C14.0681 24.2706 14.1604 24.4106 14.2207 24.565C14.2811 24.7195 14.308 24.885 14.2998 25.0506C14.3044 25.2692 14.2504 25.4849 14.1436 25.6756C14.0344 25.8621 13.8727 26.0121 13.6786 26.1069C13.4444 26.2176 13.1874 26.2711 12.9286 26.2632L12.3648 26.2619ZM13.3748 25.0506C13.3748 24.7173 13.1923 24.5506 12.8273 24.5506H12.3648V25.5294H12.8273C13.1923 25.5327 13.3748 25.3731 13.3748 25.0506Z" fill="white"/>
<path d="M17.8908 26.6744C17.7343 26.9586 17.4979 27.1907 17.2108 27.3419C16.8878 27.5073 16.5286 27.5893 16.1658 27.5807H14.7471V23.8219H16.1658C16.5289 23.8128 16.8886 23.8931 17.2133 24.0557C17.4996 24.2036 17.7354 24.4334 17.8908 24.7157C18.0535 25.0154 18.1353 25.3523 18.1283 25.6932C18.1351 26.0353 18.0533 26.3733 17.8908 26.6744ZM16.9133 26.4857C17.0149 26.3814 17.0937 26.257 17.1445 26.1205C17.1953 25.9841 17.217 25.8385 17.2083 25.6932C17.2171 25.548 17.1953 25.4026 17.1445 25.2663C17.0937 25.1301 17.015 25.0059 16.9133 24.9019C16.686 24.7024 16.389 24.6009 16.0871 24.6194H15.6558V26.7669H16.0871C16.3887 26.7852 16.6855 26.6842 16.9133 26.4857Z" fill="white"/>
<path d="M21.0948 23.8219V24.5457H19.5536V25.3694H20.7436V26.0606H19.5536V27.5806H18.6436V23.8219H21.0948Z" fill="white"/>
<path d="M16.596 7.35815H14.386C14.0008 7.35815 13.6885 7.67044 13.6885 8.05565V10.2657C13.6885 10.6509 14.0008 10.9632 14.386 10.9632H16.596C16.9812 10.9632 17.2935 10.6509 17.2935 10.2657V8.05565C17.2935 7.67044 16.9812 7.35815 16.596 7.35815Z" fill="#FF3E4C"/>
</svg>
