<svg width="20" height="18" viewBox="0 0 20 18" fill="none" xmlns="http://www.w3.org/2000/svg">
<path fill-rule="evenodd" clip-rule="evenodd" d="M6 1C6 0.447715 6.41328 0 6.92308 0H13.0769C13.5867 0 14 0.447715 14 1C14 1.55228 13.5867 2 13.0769 2H6.92308C6.41328 2 6 1.55228 6 1Z" fill="#47C77D"/>
<path fill-rule="evenodd" clip-rule="evenodd" d="M7.77778 18H12.2222C15.3433 18 16.9038 18 18.0248 17.2777C18.51 16.965 18.9267 16.5632 19.251 16.0953C20 15.0143 20 13.5095 20 10.4999C20 7.49027 19.9998 5.9857 19.2508 4.90473C18.9266 4.43676 18.5099 4.03497 18.0246 3.72228C16.9036 3 15.3431 3 12.2221 3H7.77761C4.65659 3 3.09607 3 1.97508 3.72228C1.48979 4.03497 1.07312 4.43676 0.748859 4.90473C-5.96046e-08 5.98547 -3.64038e-08 7.48961 0 10.4979L0 10.4999C0 13.5095 5.96046e-08 15.0143 0.749024 16.0953C1.07328 16.5632 1.48995 16.965 1.97524 17.2777C3.09624 18 4.65675 18 7.77778 18ZM5.83333 10.4999C5.83333 8.28085 7.69881 6.48196 10 6.48196C12.3012 6.48196 14.1667 8.28085 14.1667 10.4999C14.1667 12.7189 12.3012 14.5178 10 14.5178C7.69881 14.5178 5.83333 12.7189 5.83333 10.4999ZM7.5 10.4999C7.5 9.16846 8.61929 8.08913 10 8.08913C11.3807 8.08913 12.5 9.16846 12.5 10.4999C12.5 11.8313 11.3807 12.9106 10 12.9106C8.61929 12.9106 7.5 11.8313 7.5 10.4999ZM16.1111 6.48196C15.6509 6.48196 15.2778 6.84174 15.2778 7.28554C15.2778 7.72935 15.6509 8.08913 16.1111 8.08913H16.6667C17.1269 8.08913 17.5 7.72935 17.5 7.28554C17.5 6.84174 17.1269 6.48196 16.6667 6.48196H16.1111Z" fill="#47C77D"/>
</svg>
