<svg width="23" height="26" viewBox="0 0 23 26" fill="none" xmlns="http://www.w3.org/2000/svg">
<path d="M8.37595 1.2913C8.26752 1.11058 8.07221 1 7.86146 1H2.06088C1.59451 1 1.30644 1.50878 1.54639 1.9087L8.02639 12.7087C8.13482 12.8894 8.33013 13 8.54088 13H14.3415C14.8078 13 15.0959 12.4912 14.856 12.0913L8.37595 1.2913Z" fill="#C52229"/>
<path fill-rule="evenodd" clip-rule="evenodd" d="M7.86111 0.399902H2.06054C1.12779 0.399902 0.551654 1.41747 1.03155 2.2173L7.51155 13.0173C7.72842 13.3787 8.11903 13.5999 8.54054 13.5999H14.3411C15.2739 13.5999 15.85 12.5823 15.3701 11.7825L8.89011 0.982508C8.67324 0.621062 8.28263 0.399902 7.86111 0.399902ZM7.86111 0.999902C8.07187 0.999902 8.26718 1.11048 8.37561 1.29121L14.8556 12.0912C15.0956 12.4911 14.8075 12.9999 14.3411 12.9999H8.54054C8.32979 12.9999 8.13448 12.8893 8.02605 12.7086L1.54605 1.9086C1.3061 1.50869 1.59417 0.999902 2.06054 0.999902H7.86111Z" fill="#9B0F15"/>
<path d="M14.626 1.2913C14.7344 1.11058 14.9297 1 15.1405 1H20.9411C21.4074 1 21.6955 1.50878 21.4556 1.9087L14.9756 12.7087C14.8671 12.8894 14.6718 13 14.4611 13H8.6605C8.19412 13 7.90605 12.4912 8.146 12.0913L14.626 1.2913Z" fill="#F1333B"/>
<path fill-rule="evenodd" clip-rule="evenodd" d="M15.1408 0.399902H20.9414C21.8742 0.399902 22.4503 1.41747 21.9704 2.2173L15.4904 13.0173C15.2735 13.3787 14.8829 13.5999 14.4614 13.5999H8.66084C7.72808 13.5999 7.15195 12.5823 7.63185 11.7825L14.1118 0.982508C14.3287 0.621062 14.7193 0.399902 15.1408 0.399902ZM15.1408 0.999902C14.9301 0.999902 14.7348 1.11048 14.6263 1.29121L8.14634 12.0912C7.90639 12.4911 8.19446 12.9999 8.66084 12.9999H14.4614C14.6722 12.9999 14.8675 12.8893 14.9759 12.7086L21.4559 1.9086C21.6959 1.50869 21.4078 0.999902 20.9414 0.999902H15.1408Z" fill="#9B0F15"/>
<path fill-rule="evenodd" clip-rule="evenodd" d="M15.2503 1.34042C15.3936 1.42361 15.4423 1.60721 15.3591 1.75049L12.6591 6.4005C12.5759 6.54378 12.3923 6.59249 12.249 6.50929C12.1057 6.42609 12.057 6.2425 12.1402 6.09921L14.8402 1.44921C14.9234 1.30593 15.107 1.25722 15.2503 1.34042Z" fill="#FE666D"/>
<path fill-rule="evenodd" clip-rule="evenodd" d="M2.0495 1.34042C1.90622 1.42361 1.85751 1.60721 1.94071 1.75049L4.64071 6.4005C4.72391 6.54378 4.9075 6.59249 5.05079 6.50929C5.19407 6.42609 5.24278 6.2425 5.15958 6.09921L2.45958 1.44921C2.37639 1.30593 2.19279 1.25722 2.0495 1.34042Z" fill="#DF3840"/>
<path d="M7.75 1.98447C7.75 2.19676 7.58211 2.36885 7.375 2.36885C7.16789 2.36885 7 2.19676 7 1.98447C7 1.77219 7.16789 1.6001 7.375 1.6001C7.58211 1.6001 7.75 1.77219 7.75 1.98447Z" fill="#AA161D"/>
<path d="M6.43293 2.07822C6.43293 2.34228 6.22408 2.55635 5.96646 2.55635C5.70884 2.55635 5.5 2.34228 5.5 2.07822C5.5 1.81416 5.70884 1.6001 5.96646 1.6001C6.22408 1.6001 6.43293 1.81416 6.43293 2.07822Z" fill="#AA161D"/>
<path d="M7.59992 3.44688C7.59992 3.71094 7.39108 3.925 7.13346 3.925C6.87584 3.925 6.66699 3.71094 6.66699 3.44688C6.66699 3.18281 6.87584 2.96875 7.13346 2.96875C7.39108 2.96875 7.59992 3.18281 7.59992 3.44688Z" fill="#AA161D"/>
<path d="M8.66666 2.79521C8.66666 2.92725 8.56224 3.03428 8.43343 3.03428C8.30462 3.03428 8.2002 2.92725 8.2002 2.79521C8.2002 2.66318 8.30462 2.55615 8.43343 2.55615C8.56224 2.55615 8.66666 2.66318 8.66666 2.79521Z" fill="#AA161D"/>
<path d="M6.19986 3.20781C6.19986 3.33984 6.09544 3.44688 5.96663 3.44688C5.83782 3.44688 5.7334 3.33984 5.7334 3.20781C5.7334 3.07578 5.83782 2.96875 5.96663 2.96875C6.09544 2.96875 6.19986 3.07578 6.19986 3.20781Z" fill="#AA161D"/>
<path d="M4.90006 1.74541C4.90006 1.87744 4.79564 1.98447 4.66683 1.98447C4.53802 1.98447 4.43359 1.87744 4.43359 1.74541C4.43359 1.61338 4.53802 1.50635 4.66683 1.50635C4.79564 1.50635 4.90006 1.61338 4.90006 1.74541Z" fill="#AA161D"/>
<path d="M8.43326 4.46416C8.43326 4.59619 8.32884 4.70322 8.20003 4.70322C8.07122 4.70322 7.9668 4.59619 7.9668 4.46416C7.9668 4.33213 8.07122 4.2251 8.20003 4.2251C8.32884 4.2251 8.43326 4.33213 8.43326 4.46416Z" fill="#AA161D"/>
<path d="M7.23307 4.70317C7.23307 4.8352 7.12864 4.94224 6.99983 4.94224C6.87102 4.94224 6.7666 4.8352 6.7666 4.70317C6.7666 4.57114 6.87102 4.46411 6.99983 4.46411C7.12864 4.46411 7.23307 4.57114 7.23307 4.70317Z" fill="#AA161D"/>
<path d="M9.55895 3.83584C9.55895 4.05071 9.38901 4.2249 9.17938 4.2249C8.96975 4.2249 8.7998 4.05071 8.7998 3.83584C8.7998 3.62097 8.96975 3.44678 9.17938 3.44678C9.38901 3.44678 9.55895 3.62097 9.55895 3.83584Z" fill="#AA161D"/>
<path d="M10.0544 4.94219C10.0544 5.07422 9.94993 5.18125 9.82112 5.18125C9.69231 5.18125 9.58789 5.07422 9.58789 4.94219C9.58789 4.81016 9.69231 4.70312 9.82112 4.70312C9.94993 4.70312 10.0544 4.81016 10.0544 4.94219Z" fill="#AA161D"/>
<path d="M19.6004 16.9C19.6004 21.3736 15.9739 25 11.5004 25C7.02688 25 3.40039 21.3736 3.40039 16.9C3.40039 12.4265 7.02688 8.80005 11.5004 8.80005C15.9739 8.80005 19.6004 12.4265 19.6004 16.9Z" fill="#BCCCD2"/>
<path fill-rule="evenodd" clip-rule="evenodd" d="M20.2008 16.9C20.2008 21.7048 16.3057 25.6 11.5008 25.6C6.6959 25.6 2.80078 21.7048 2.80078 16.9C2.80078 12.0951 6.6959 8.19995 11.5008 8.19995C16.3057 8.19995 20.2008 12.0951 20.2008 16.9ZM11.5008 25C15.9743 25 19.6008 21.3735 19.6008 16.9C19.6008 12.4264 15.9743 8.79995 11.5008 8.79995C7.02728 8.79995 3.40078 12.4264 3.40078 16.9C3.40078 21.3735 7.02728 25 11.5008 25Z" fill="#81A5B0"/>
<path fill-rule="evenodd" clip-rule="evenodd" d="M4.00078 17.2C3.8351 17.2 3.70078 17.0656 3.70078 16.9C3.70078 12.5921 7.19296 9.09995 11.5008 9.09995C11.6665 9.09995 11.8008 9.23427 11.8008 9.39995C11.8008 9.56564 11.6665 9.69995 11.5008 9.69995C7.52433 9.69995 4.30078 12.9235 4.30078 16.9C4.30078 17.0656 4.16647 17.2 4.00078 17.2Z" fill="#D0DEE3"/>
<path fill-rule="evenodd" clip-rule="evenodd" d="M19.0002 16.6001C19.1659 16.6001 19.3002 16.7344 19.3002 16.9001C19.3002 21.2079 15.808 24.7001 11.5002 24.7001C11.3345 24.7001 11.2002 24.5658 11.2002 24.4001C11.2002 24.2344 11.3345 24.1001 11.5002 24.1001C15.4766 24.1001 18.7002 20.8765 18.7002 16.9001C18.7002 16.7344 18.8345 16.6001 19.0002 16.6001Z" fill="#A2B9C1"/>
<path d="M17.5 16.9001C17.5 20.2139 14.8137 22.9001 11.5 22.9001C8.18629 22.9001 5.5 20.2139 5.5 16.9001C5.5 13.5864 8.18629 10.9001 11.5 10.9001C14.8137 10.9001 17.5 13.5864 17.5 16.9001Z" fill="#C7D4D8"/>
<path fill-rule="evenodd" clip-rule="evenodd" d="M18.1004 16.9C18.1004 20.5451 15.1455 23.5 11.5004 23.5C7.85531 23.5 4.90039 20.5451 4.90039 16.9C4.90039 13.255 7.85531 10.3 11.5004 10.3C15.1455 10.3 18.1004 13.255 18.1004 16.9ZM11.5004 22.9C14.8141 22.9 17.5004 20.2138 17.5004 16.9C17.5004 13.5863 14.8141 10.9 11.5004 10.9C8.18668 10.9 5.50039 13.5863 5.50039 16.9C5.50039 20.2138 8.18668 22.9 11.5004 22.9Z" fill="#81A5B0"/>
<path fill-rule="evenodd" clip-rule="evenodd" d="M11.5002 22.0001C14.3168 22.0001 16.6002 19.7167 16.6002 16.9001C16.6002 16.7344 16.7345 16.6001 16.9002 16.6001C17.0659 16.6001 17.2002 16.7344 17.2002 16.9001C17.2002 20.0481 14.6482 22.6001 11.5002 22.6001C11.3345 22.6001 11.2002 22.4658 11.2002 22.3001C11.2002 22.1344 11.3345 22.0001 11.5002 22.0001Z" fill="#B5C3C8"/>
<path fill-rule="evenodd" clip-rule="evenodd" d="M11.5008 11.8C8.68413 11.8 6.40078 14.0833 6.40078 16.9C6.40078 17.0656 6.26647 17.2 6.10078 17.2C5.9351 17.2 5.80078 17.0656 5.80078 16.9C5.80078 13.7519 8.35276 11.2 11.5008 11.2C11.6665 11.2 11.8008 11.3343 11.8008 11.5C11.8008 11.6656 11.6665 11.8 11.5008 11.8Z" fill="#D9EAEF"/>
<path d="M13.257 19.3001H9.74844V18.6041L11.4043 16.8392C11.6316 16.5908 11.7992 16.374 11.907 16.1888C12.0172 16.0037 12.0723 15.8279 12.0723 15.6615C12.0723 15.4341 12.0148 15.256 11.9 15.1271C11.7852 14.9958 11.6211 14.9302 11.4078 14.9302C11.1781 14.9302 10.9965 15.0099 10.8629 15.1693C10.7316 15.3263 10.666 15.5337 10.666 15.7916H9.64648C9.64648 15.4798 9.72031 15.1951 9.86797 14.9373C10.018 14.6794 10.2289 14.4779 10.5008 14.3326C10.7727 14.1849 11.0809 14.1111 11.4254 14.1111C11.9527 14.1111 12.3617 14.2376 12.6523 14.4908C12.9453 14.7439 13.0918 15.1013 13.0918 15.563C13.0918 15.8162 13.0262 16.074 12.8949 16.3365C12.7637 16.599 12.5387 16.9048 12.2199 17.2541L11.0563 18.481H13.257V19.3001Z" fill="#D9EAEF"/>
<path fill-rule="evenodd" clip-rule="evenodd" d="M13.8574 19.3C13.8574 19.6314 13.5888 19.9 13.2574 19.9H9.74883C9.41746 19.9 9.14883 19.6314 9.14883 19.3V18.604C9.14883 18.4514 9.20691 18.3046 9.31127 18.1934L10.9645 16.4314C11.1759 16.2001 11.3115 16.0197 11.3889 15.8868L11.3918 15.8819C11.4627 15.7628 11.4727 15.6924 11.4727 15.6614C11.4727 15.5973 11.4645 15.5598 11.4585 15.5414C11.4575 15.5382 11.4566 15.5356 11.4557 15.5335C11.4461 15.5318 11.4307 15.5301 11.4082 15.5301C11.3633 15.5301 11.3445 15.5377 11.3408 15.5393C11.3384 15.5404 11.3368 15.5414 11.335 15.5427C11.3332 15.544 11.3292 15.5473 11.3234 15.5543C11.3037 15.578 11.2664 15.6375 11.2664 15.7915C11.2664 16.1228 10.9978 16.3915 10.6664 16.3915H9.64688C9.3155 16.3915 9.04688 16.1228 9.04688 15.7915C9.04688 15.3805 9.14546 14.9921 9.34771 14.639L9.34974 14.6354C9.55732 14.2786 9.85082 14.0001 10.2166 13.8043C10.5855 13.6043 10.9935 13.511 11.4258 13.511C12.044 13.511 12.6116 13.6597 13.0459 14.0374C13.4957 14.4266 13.6922 14.9642 13.6922 15.5629C13.6922 15.923 13.5982 16.2722 13.432 16.6047C13.2656 16.9374 12.9997 17.29 12.6635 17.6584C12.6609 17.6613 12.6583 17.6641 12.6557 17.6668L12.4526 17.8809H13.2574C13.5888 17.8809 13.8574 18.1495 13.8574 18.4809V19.3ZM11.0566 18.4809L12.2203 17.254C12.5391 16.9047 12.7641 16.5989 12.8953 16.3364C13.0266 16.0739 13.0922 15.8161 13.0922 15.5629C13.0922 15.1012 12.9457 14.7438 12.6527 14.4907C12.3621 14.2375 11.9531 14.111 11.4258 14.111C11.0813 14.111 10.773 14.1848 10.5012 14.3325C10.2293 14.4778 10.0184 14.6793 9.86836 14.9372C9.82137 15.0192 9.78187 15.104 9.74983 15.1915C9.68119 15.3789 9.64688 15.5789 9.64688 15.7915H10.6664C10.6664 15.5336 10.732 15.3262 10.8633 15.1692C10.9969 15.0098 11.1785 14.9301 11.4082 14.9301C11.6215 14.9301 11.7855 14.9958 11.9004 15.127C12.0152 15.2559 12.0727 15.434 12.0727 15.6614C12.0727 15.8278 12.0176 16.0036 11.9074 16.1887C11.7996 16.3739 11.632 16.5907 11.4047 16.8391L9.74883 18.604V19.3H13.2574V18.4809H11.0566Z" fill="#81A5B0"/>
</svg>
