<svg width="23" height="26" viewBox="0 0 23 26" fill="none" xmlns="http://www.w3.org/2000/svg">
<path d="M8.37595 1.2913C8.26752 1.11058 8.07221 1 7.86146 1H2.06088C1.59451 1 1.30644 1.50878 1.54639 1.9087L8.02639 12.7087C8.13482 12.8894 8.33013 13 8.54088 13H14.3415C14.8078 13 15.0959 12.4912 14.856 12.0913L8.37595 1.2913Z" fill="#C52229"/>
<path fill-rule="evenodd" clip-rule="evenodd" d="M7.86111 0.399902H2.06054C1.12779 0.399902 0.551654 1.41747 1.03155 2.2173L7.51155 13.0173C7.72842 13.3787 8.11903 13.5999 8.54054 13.5999H14.3411C15.2739 13.5999 15.85 12.5823 15.3701 11.7825L8.89011 0.982508C8.67324 0.621062 8.28263 0.399902 7.86111 0.399902ZM7.86111 0.999902C8.07187 0.999902 8.26718 1.11048 8.37561 1.29121L14.8556 12.0912C15.0956 12.4911 14.8075 12.9999 14.3411 12.9999H8.54054C8.32979 12.9999 8.13448 12.8893 8.02605 12.7086L1.54605 1.9086C1.3061 1.50869 1.59417 0.999902 2.06054 0.999902H7.86111Z" fill="#9B0F15"/>
<path d="M14.626 1.2913C14.7344 1.11058 14.9297 1 15.1405 1H20.9411C21.4074 1 21.6955 1.50878 21.4556 1.9087L14.9756 12.7087C14.8671 12.8894 14.6718 13 14.4611 13H8.6605C8.19412 13 7.90605 12.4912 8.146 12.0913L14.626 1.2913Z" fill="#F1333B"/>
<path fill-rule="evenodd" clip-rule="evenodd" d="M15.1408 0.399902H20.9414C21.8742 0.399902 22.4503 1.41747 21.9704 2.2173L15.4904 13.0173C15.2735 13.3787 14.8829 13.5999 14.4614 13.5999H8.66084C7.72808 13.5999 7.15195 12.5823 7.63185 11.7825L14.1118 0.982508C14.3287 0.621062 14.7193 0.399902 15.1408 0.399902ZM15.1408 0.999902C14.9301 0.999902 14.7348 1.11048 14.6263 1.29121L8.14634 12.0912C7.90639 12.4911 8.19446 12.9999 8.66084 12.9999H14.4614C14.6722 12.9999 14.8675 12.8893 14.9759 12.7086L21.4559 1.9086C21.6959 1.50869 21.4078 0.999902 20.9414 0.999902H15.1408Z" fill="#9B0F15"/>
<path fill-rule="evenodd" clip-rule="evenodd" d="M15.2503 1.34042C15.3936 1.42361 15.4423 1.60721 15.3591 1.75049L12.6591 6.4005C12.5759 6.54378 12.3923 6.59249 12.249 6.50929C12.1057 6.42609 12.057 6.2425 12.1402 6.09921L14.8402 1.44921C14.9234 1.30593 15.107 1.25722 15.2503 1.34042Z" fill="#FE666D"/>
<path fill-rule="evenodd" clip-rule="evenodd" d="M2.0495 1.34042C1.90622 1.42361 1.85751 1.60721 1.94071 1.75049L4.64071 6.4005C4.72391 6.54378 4.9075 6.59249 5.05079 6.50929C5.19407 6.42609 5.24278 6.2425 5.15958 6.09921L2.45958 1.44921C2.37639 1.30593 2.19279 1.25722 2.0495 1.34042Z" fill="#DF3840"/>
<path d="M7.75 1.98447C7.75 2.19676 7.58211 2.36885 7.375 2.36885C7.16789 2.36885 7 2.19676 7 1.98447C7 1.77219 7.16789 1.6001 7.375 1.6001C7.58211 1.6001 7.75 1.77219 7.75 1.98447Z" fill="#AA161D"/>
<path d="M6.43293 2.07822C6.43293 2.34228 6.22408 2.55635 5.96646 2.55635C5.70884 2.55635 5.5 2.34228 5.5 2.07822C5.5 1.81416 5.70884 1.6001 5.96646 1.6001C6.22408 1.6001 6.43293 1.81416 6.43293 2.07822Z" fill="#AA161D"/>
<path d="M7.59992 3.44688C7.59992 3.71094 7.39108 3.925 7.13346 3.925C6.87584 3.925 6.66699 3.71094 6.66699 3.44688C6.66699 3.18281 6.87584 2.96875 7.13346 2.96875C7.39108 2.96875 7.59992 3.18281 7.59992 3.44688Z" fill="#AA161D"/>
<path d="M8.66666 2.79521C8.66666 2.92725 8.56224 3.03428 8.43343 3.03428C8.30462 3.03428 8.2002 2.92725 8.2002 2.79521C8.2002 2.66318 8.30462 2.55615 8.43343 2.55615C8.56224 2.55615 8.66666 2.66318 8.66666 2.79521Z" fill="#AA161D"/>
<path d="M6.19986 3.20781C6.19986 3.33984 6.09544 3.44688 5.96663 3.44688C5.83782 3.44688 5.7334 3.33984 5.7334 3.20781C5.7334 3.07578 5.83782 2.96875 5.96663 2.96875C6.09544 2.96875 6.19986 3.07578 6.19986 3.20781Z" fill="#AA161D"/>
<path d="M4.90006 1.74541C4.90006 1.87744 4.79564 1.98447 4.66683 1.98447C4.53802 1.98447 4.43359 1.87744 4.43359 1.74541C4.43359 1.61338 4.53802 1.50635 4.66683 1.50635C4.79564 1.50635 4.90006 1.61338 4.90006 1.74541Z" fill="#AA161D"/>
<path d="M8.43326 4.46416C8.43326 4.59619 8.32884 4.70322 8.20003 4.70322C8.07122 4.70322 7.9668 4.59619 7.9668 4.46416C7.9668 4.33213 8.07122 4.2251 8.20003 4.2251C8.32884 4.2251 8.43326 4.33213 8.43326 4.46416Z" fill="#AA161D"/>
<path d="M7.23307 4.70317C7.23307 4.8352 7.12864 4.94224 6.99983 4.94224C6.87102 4.94224 6.7666 4.8352 6.7666 4.70317C6.7666 4.57114 6.87102 4.46411 6.99983 4.46411C7.12864 4.46411 7.23307 4.57114 7.23307 4.70317Z" fill="#AA161D"/>
<path d="M9.55895 3.83584C9.55895 4.05071 9.38901 4.2249 9.17938 4.2249C8.96975 4.2249 8.7998 4.05071 8.7998 3.83584C8.7998 3.62097 8.96975 3.44678 9.17938 3.44678C9.38901 3.44678 9.55895 3.62097 9.55895 3.83584Z" fill="#AA161D"/>
<path d="M10.0544 4.94219C10.0544 5.07422 9.94993 5.18125 9.82112 5.18125C9.69231 5.18125 9.58789 5.07422 9.58789 4.94219C9.58789 4.81016 9.69231 4.70312 9.82112 4.70312C9.94993 4.70312 10.0544 4.81016 10.0544 4.94219Z" fill="#AA161D"/>
<path d="M19.6004 16.9C19.6004 21.3736 15.9739 25 11.5004 25C7.02688 25 3.40039 21.3736 3.40039 16.9C3.40039 12.4265 7.02688 8.80005 11.5004 8.80005C15.9739 8.80005 19.6004 12.4265 19.6004 16.9Z" fill="#DCA16A"/>
<path fill-rule="evenodd" clip-rule="evenodd" d="M20.2008 16.9C20.2008 21.7048 16.3057 25.6 11.5008 25.6C6.6959 25.6 2.80078 21.7048 2.80078 16.9C2.80078 12.0951 6.6959 8.19995 11.5008 8.19995C16.3057 8.19995 20.2008 12.0951 20.2008 16.9ZM11.5008 25C15.9743 25 19.6008 21.3735 19.6008 16.9C19.6008 12.4264 15.9743 8.79995 11.5008 8.79995C7.02728 8.79995 3.40078 12.4264 3.40078 16.9C3.40078 21.3735 7.02728 25 11.5008 25Z" fill="#C38144"/>
<path fill-rule="evenodd" clip-rule="evenodd" d="M4.00078 17.2C3.8351 17.2 3.70078 17.0656 3.70078 16.9C3.70078 12.5921 7.19296 9.09995 11.5008 9.09995C11.6665 9.09995 11.8008 9.23427 11.8008 9.39995C11.8008 9.56564 11.6665 9.69995 11.5008 9.69995C7.52433 9.69995 4.30078 12.9235 4.30078 16.9C4.30078 17.0656 4.16647 17.2 4.00078 17.2Z" fill="#F0B57F"/>
<path fill-rule="evenodd" clip-rule="evenodd" d="M19.0002 16.6001C19.1659 16.6001 19.3002 16.7344 19.3002 16.9001C19.3002 21.2079 15.808 24.7001 11.5002 24.7001C11.3345 24.7001 11.2002 24.5658 11.2002 24.4001C11.2002 24.2344 11.3345 24.1001 11.5002 24.1001C15.4766 24.1001 18.7002 20.8765 18.7002 16.9001C18.7002 16.7344 18.8345 16.6001 19.0002 16.6001Z" fill="#CF945D"/>
<path d="M17.5 16.9001C17.5 20.2139 14.8137 22.9001 11.5 22.9001C8.18629 22.9001 5.5 20.2139 5.5 16.9001C5.5 13.5864 8.18629 10.9001 11.5 10.9001C14.8137 10.9001 17.5 13.5864 17.5 16.9001Z" fill="#F7BA82"/>
<path fill-rule="evenodd" clip-rule="evenodd" d="M18.1004 16.9C18.1004 20.5451 15.1455 23.5 11.5004 23.5C7.85531 23.5 4.90039 20.5451 4.90039 16.9C4.90039 13.255 7.85531 10.3 11.5004 10.3C15.1455 10.3 18.1004 13.255 18.1004 16.9ZM11.5004 22.9C14.8141 22.9 17.5004 20.2138 17.5004 16.9C17.5004 13.5863 14.8141 10.9 11.5004 10.9C8.18668 10.9 5.50039 13.5863 5.50039 16.9C5.50039 20.2138 8.18668 22.9 11.5004 22.9Z" fill="#C38144"/>
<path fill-rule="evenodd" clip-rule="evenodd" d="M11.5002 22.0001C14.3168 22.0001 16.6002 19.7167 16.6002 16.9001C16.6002 16.7344 16.7345 16.6001 16.9002 16.6001C17.0659 16.6001 17.2002 16.7344 17.2002 16.9001C17.2002 20.0481 14.6482 22.6001 11.5002 22.6001C11.3345 22.6001 11.2002 22.4658 11.2002 22.3001C11.2002 22.1344 11.3345 22.0001 11.5002 22.0001Z" fill="#E6A66C"/>
<path fill-rule="evenodd" clip-rule="evenodd" d="M11.5008 11.8C8.68413 11.8 6.40078 14.0833 6.40078 16.9C6.40078 17.0656 6.26647 17.2 6.10078 17.2C5.9351 17.2 5.80078 17.0656 5.80078 16.9C5.80078 13.7519 8.35276 11.2 11.5008 11.2C11.6665 11.2 11.8008 11.3343 11.8008 11.5C11.8008 11.6656 11.6665 11.8 11.5008 11.8Z" fill="#FFD5AE"/>
<path d="M10.7816 16.2908H11.323C11.5809 16.2908 11.7719 16.2263 11.8961 16.0974C12.0203 15.9685 12.0824 15.7974 12.0824 15.5841C12.0824 15.3779 12.0203 15.2173 11.8961 15.1025C11.7742 14.9876 11.6055 14.9302 11.3898 14.9302C11.1953 14.9302 11.0324 14.9841 10.9012 15.0919C10.7699 15.1974 10.7043 15.3357 10.7043 15.5068H9.68828C9.68828 15.2396 9.75977 15.0005 9.90273 14.7896C10.048 14.5763 10.2496 14.4099 10.5074 14.2904C10.7676 14.1708 11.0535 14.1111 11.3652 14.1111C11.9066 14.1111 12.3309 14.2412 12.6379 14.5013C12.9449 14.7591 13.0984 15.1154 13.0984 15.5701C13.0984 15.8044 13.027 16.0201 12.884 16.2169C12.741 16.4138 12.5535 16.565 12.3215 16.6705C12.6098 16.7736 12.8242 16.9283 12.9648 17.1345C13.1078 17.3408 13.1793 17.5845 13.1793 17.8658C13.1793 18.3205 13.0129 18.6849 12.6801 18.9591C12.3496 19.2333 11.9113 19.3705 11.3652 19.3705C10.8543 19.3705 10.4359 19.2357 10.1102 18.9662C9.78672 18.6966 9.625 18.3404 9.625 17.8974H10.641C10.641 18.0896 10.7125 18.2466 10.8555 18.3685C11.0008 18.4904 11.1789 18.5513 11.3898 18.5513C11.6313 18.5513 11.8199 18.488 11.9559 18.3615C12.0941 18.2326 12.1633 18.0626 12.1633 17.8517C12.1633 17.3408 11.882 17.0853 11.3195 17.0853H10.7816V16.2908Z" fill="#FFD5AE"/>
<path fill-rule="evenodd" clip-rule="evenodd" d="M10.2108 16.1067H9.68867C9.3573 16.1067 9.08867 15.8381 9.08867 15.5067C9.08867 15.1256 9.19278 14.7681 9.40646 14.4529L9.40727 14.4517C9.61966 14.1399 9.90955 13.9063 10.2554 13.7459L10.2573 13.7451C10.6028 13.5863 10.9752 13.511 11.3656 13.511C11.9993 13.511 12.5774 13.6637 13.0251 14.0426C13.4864 14.4304 13.6988 14.9651 13.6988 15.57C13.6988 15.9361 13.5842 16.2742 13.3699 16.5694C13.356 16.5885 13.3418 16.6073 13.3274 16.6258C13.3746 16.6785 13.4188 16.7347 13.4596 16.7945C13.6796 17.1126 13.7797 17.4784 13.7797 17.8657C13.7797 18.488 13.5418 19.0263 13.0629 19.4214C12.5983 19.8065 12.0124 19.9704 11.3656 19.9704C10.7453 19.9704 10.1826 19.8044 9.72807 19.4284L9.72643 19.427C9.25823 19.0368 9.02539 18.5077 9.02539 17.8973C9.02539 17.5659 9.29402 17.2973 9.62539 17.2973H10.2206C10.1957 17.2314 10.182 17.1599 10.182 17.0852V16.2907C10.182 16.2265 10.1921 16.1647 10.2108 16.1067ZM11.2028 17.6852C11.2278 17.7512 11.2414 17.8226 11.2414 17.8973C11.2414 17.9023 11.2416 17.9062 11.2419 17.9089C11.2424 17.9094 11.2429 17.9099 11.2435 17.9104C11.2685 17.9308 11.3058 17.9512 11.3902 17.9512C11.4594 17.9512 11.5007 17.9421 11.522 17.9349C11.5398 17.9289 11.5456 17.9239 11.5471 17.9225M11.2028 17.6852H11.3199C11.469 17.6852 11.5298 17.7108 11.5464 17.7197C11.5468 17.7207 11.5472 17.7217 11.5477 17.723C11.5533 17.7383 11.5637 17.7774 11.5637 17.8516C11.5637 17.8911 11.5574 17.9079 11.5561 17.9111C11.5553 17.9131 11.5547 17.9141 11.5541 17.9149C11.5535 17.9157 11.5515 17.9184 11.5471 17.9225M12.6805 18.959C13.0133 18.6848 13.1797 18.3204 13.1797 17.8657C13.1797 17.5844 13.1082 17.3407 12.9652 17.1344C12.9421 17.1005 12.9169 17.0679 12.8898 17.0368C12.752 16.8786 12.5627 16.7565 12.3219 16.6704C12.5389 16.5717 12.717 16.4331 12.8561 16.2545C12.8657 16.2421 12.8751 16.2296 12.8844 16.2168C13.0273 16.02 13.0988 15.8043 13.0988 15.57C13.0988 15.1153 12.9453 14.759 12.6383 14.5012C12.3313 14.2411 11.907 14.111 11.3656 14.111C11.0539 14.111 10.768 14.1708 10.5078 14.2903C10.25 14.4098 10.0484 14.5762 9.90313 14.7895C9.87727 14.8276 9.85376 14.8667 9.83258 14.9067C9.73664 15.0878 9.68867 15.2878 9.68867 15.5067H10.7047C10.7047 15.3356 10.7703 15.1973 10.9016 15.0918C11.0328 14.984 11.1957 14.9301 11.3902 14.9301C11.6059 14.9301 11.7746 14.9875 11.8965 15.1024C12.0207 15.2172 12.0828 15.3778 12.0828 15.584C12.0828 15.7973 12.0207 15.9684 11.8965 16.0973C11.7723 16.2262 11.5813 16.2907 11.3234 16.2907H10.782V17.0852H11.3199C11.8824 17.0852 12.1637 17.3407 12.1637 17.8516C12.1637 18.0625 12.0945 18.2325 11.9563 18.3614C11.8203 18.4879 11.6316 18.5512 11.3902 18.5512C11.1793 18.5512 11.0012 18.4903 10.8559 18.3684C10.7129 18.2465 10.6414 18.0895 10.6414 17.8973H9.62539C9.62539 18.119 9.66591 18.319 9.74695 18.4973C9.82781 18.6752 9.94901 18.8314 10.1105 18.9661C10.4363 19.2356 10.8547 19.3704 11.3656 19.3704C11.9117 19.3704 12.35 19.2333 12.6805 18.959ZM11.276 15.6907C11.2911 15.6436 11.3006 15.5941 11.3036 15.5428C11.3195 15.5363 11.3457 15.5301 11.3902 15.5301C11.4381 15.5301 11.4662 15.5357 11.4798 15.5395C11.4813 15.549 11.4828 15.5634 11.4828 15.584C11.4828 15.6326 11.4758 15.6579 11.4722 15.6676C11.4714 15.6699 11.4706 15.6717 11.4699 15.6733C11.4694 15.6734 11.4688 15.6736 11.4682 15.6738C11.449 15.6803 11.4044 15.6907 11.3234 15.6907H11.276Z" fill="#C28044"/>
</svg>
