<svg width="23" height="26" viewBox="0 0 23 26" fill="none" xmlns="http://www.w3.org/2000/svg">
<path d="M8.37595 1.2913C8.26752 1.11058 8.07221 1 7.86146 1H2.06088C1.59451 1 1.30644 1.50878 1.54639 1.9087L8.02639 12.7087C8.13482 12.8894 8.33013 13 8.54088 13H14.3415C14.8078 13 15.0959 12.4912 14.856 12.0913L8.37595 1.2913Z" fill="#C52229"/>
<path fill-rule="evenodd" clip-rule="evenodd" d="M7.86111 0.399902H2.06054C1.12779 0.399902 0.551654 1.41747 1.03155 2.2173L7.51155 13.0173C7.72842 13.3787 8.11903 13.5999 8.54054 13.5999H14.3411C15.2739 13.5999 15.85 12.5823 15.3701 11.7825L8.89011 0.982508C8.67324 0.621062 8.28263 0.399902 7.86111 0.399902ZM7.86111 0.999902C8.07187 0.999902 8.26718 1.11048 8.37561 1.29121L14.8556 12.0912C15.0956 12.4911 14.8075 12.9999 14.3411 12.9999H8.54054C8.32979 12.9999 8.13448 12.8893 8.02605 12.7086L1.54605 1.9086C1.3061 1.50869 1.59417 0.999902 2.06054 0.999902H7.86111Z" fill="#9B0F15"/>
<path d="M14.626 1.2913C14.7344 1.11058 14.9297 1 15.1405 1H20.9411C21.4074 1 21.6955 1.50878 21.4556 1.9087L14.9756 12.7087C14.8671 12.8894 14.6718 13 14.4611 13H8.6605C8.19412 13 7.90605 12.4912 8.146 12.0913L14.626 1.2913Z" fill="#F1333B"/>
<path fill-rule="evenodd" clip-rule="evenodd" d="M15.1408 0.399902H20.9414C21.8742 0.399902 22.4503 1.41747 21.9704 2.2173L15.4904 13.0173C15.2735 13.3787 14.8829 13.5999 14.4614 13.5999H8.66084C7.72808 13.5999 7.15195 12.5823 7.63185 11.7825L14.1118 0.982508C14.3287 0.621062 14.7193 0.399902 15.1408 0.399902ZM15.1408 0.999902C14.9301 0.999902 14.7348 1.11048 14.6263 1.29121L8.14634 12.0912C7.90639 12.4911 8.19446 12.9999 8.66084 12.9999H14.4614C14.6722 12.9999 14.8675 12.8893 14.9759 12.7086L21.4559 1.9086C21.6959 1.50869 21.4078 0.999902 20.9414 0.999902H15.1408Z" fill="#9B0F15"/>
<path fill-rule="evenodd" clip-rule="evenodd" d="M15.2503 1.34042C15.3936 1.42361 15.4423 1.60721 15.3591 1.75049L12.6591 6.4005C12.5759 6.54378 12.3923 6.59249 12.249 6.50929C12.1057 6.42609 12.057 6.2425 12.1402 6.09921L14.8402 1.44921C14.9234 1.30593 15.107 1.25722 15.2503 1.34042Z" fill="#FE666D"/>
<path fill-rule="evenodd" clip-rule="evenodd" d="M2.0495 1.34042C1.90622 1.42361 1.85751 1.60721 1.94071 1.75049L4.64071 6.4005C4.72391 6.54378 4.9075 6.59249 5.05079 6.50929C5.19407 6.42609 5.24278 6.2425 5.15958 6.09921L2.45958 1.44921C2.37639 1.30593 2.19279 1.25722 2.0495 1.34042Z" fill="#DF3840"/>
<path d="M7.75 1.98447C7.75 2.19676 7.58211 2.36885 7.375 2.36885C7.16789 2.36885 7 2.19676 7 1.98447C7 1.77219 7.16789 1.6001 7.375 1.6001C7.58211 1.6001 7.75 1.77219 7.75 1.98447Z" fill="#AA161D"/>
<path d="M6.43293 2.07822C6.43293 2.34228 6.22408 2.55635 5.96646 2.55635C5.70884 2.55635 5.5 2.34228 5.5 2.07822C5.5 1.81416 5.70884 1.6001 5.96646 1.6001C6.22408 1.6001 6.43293 1.81416 6.43293 2.07822Z" fill="#AA161D"/>
<path d="M7.59992 3.44688C7.59992 3.71094 7.39108 3.925 7.13346 3.925C6.87584 3.925 6.66699 3.71094 6.66699 3.44688C6.66699 3.18281 6.87584 2.96875 7.13346 2.96875C7.39108 2.96875 7.59992 3.18281 7.59992 3.44688Z" fill="#AA161D"/>
<path d="M8.66666 2.79521C8.66666 2.92725 8.56224 3.03428 8.43343 3.03428C8.30462 3.03428 8.2002 2.92725 8.2002 2.79521C8.2002 2.66318 8.30462 2.55615 8.43343 2.55615C8.56224 2.55615 8.66666 2.66318 8.66666 2.79521Z" fill="#AA161D"/>
<path d="M6.19986 3.20781C6.19986 3.33984 6.09544 3.44688 5.96663 3.44688C5.83782 3.44688 5.7334 3.33984 5.7334 3.20781C5.7334 3.07578 5.83782 2.96875 5.96663 2.96875C6.09544 2.96875 6.19986 3.07578 6.19986 3.20781Z" fill="#AA161D"/>
<path d="M4.90006 1.74541C4.90006 1.87744 4.79564 1.98447 4.66683 1.98447C4.53802 1.98447 4.43359 1.87744 4.43359 1.74541C4.43359 1.61338 4.53802 1.50635 4.66683 1.50635C4.79564 1.50635 4.90006 1.61338 4.90006 1.74541Z" fill="#AA161D"/>
<path d="M8.43326 4.46416C8.43326 4.59619 8.32884 4.70322 8.20003 4.70322C8.07122 4.70322 7.9668 4.59619 7.9668 4.46416C7.9668 4.33213 8.07122 4.2251 8.20003 4.2251C8.32884 4.2251 8.43326 4.33213 8.43326 4.46416Z" fill="#AA161D"/>
<path d="M7.23307 4.70317C7.23307 4.8352 7.12864 4.94224 6.99983 4.94224C6.87102 4.94224 6.7666 4.8352 6.7666 4.70317C6.7666 4.57114 6.87102 4.46411 6.99983 4.46411C7.12864 4.46411 7.23307 4.57114 7.23307 4.70317Z" fill="#AA161D"/>
<path d="M9.55895 3.83584C9.55895 4.05071 9.38901 4.2249 9.17938 4.2249C8.96975 4.2249 8.7998 4.05071 8.7998 3.83584C8.7998 3.62097 8.96975 3.44678 9.17938 3.44678C9.38901 3.44678 9.55895 3.62097 9.55895 3.83584Z" fill="#AA161D"/>
<path d="M10.0544 4.94219C10.0544 5.07422 9.94993 5.18125 9.82112 5.18125C9.69231 5.18125 9.58789 5.07422 9.58789 4.94219C9.58789 4.81016 9.69231 4.70312 9.82112 4.70312C9.94993 4.70312 10.0544 4.81016 10.0544 4.94219Z" fill="#AA161D"/>
<path d="M19.6014 16.9C19.6014 21.3736 15.9749 25 11.5014 25C7.02786 25 3.40137 21.3736 3.40137 16.9C3.40137 12.4265 7.02786 8.80005 11.5014 8.80005C15.9749 8.80005 19.6014 12.4265 19.6014 16.9Z" fill="#FFBB0D"/>
<path fill-rule="evenodd" clip-rule="evenodd" d="M20.2008 16.9C20.2008 21.7048 16.3057 25.6 11.5008 25.6C6.6959 25.6 2.80078 21.7048 2.80078 16.9C2.80078 12.0951 6.6959 8.19995 11.5008 8.19995C16.3057 8.19995 20.2008 12.0951 20.2008 16.9ZM11.5008 25C15.9743 25 19.6008 21.3735 19.6008 16.9C19.6008 12.4264 15.9743 8.79995 11.5008 8.79995C7.02728 8.79995 3.40078 12.4264 3.40078 16.9C3.40078 21.3735 7.02728 25 11.5008 25Z" fill="#E89B05"/>
<path fill-rule="evenodd" clip-rule="evenodd" d="M4.00078 17.2C3.8351 17.2 3.70078 17.0656 3.70078 16.9C3.70078 12.5921 7.19296 9.09995 11.5008 9.09995C11.6665 9.09995 11.8008 9.23427 11.8008 9.39995C11.8008 9.56564 11.6665 9.69995 11.5008 9.69995C7.52433 9.69995 4.30078 12.9235 4.30078 16.9C4.30078 17.0656 4.16647 17.2 4.00078 17.2Z" fill="#E8AA0A"/>
<path fill-rule="evenodd" clip-rule="evenodd" d="M19.0012 16.5999C19.1669 16.5999 19.3012 16.7342 19.3012 16.8999C19.3012 21.2077 15.809 24.6999 11.5012 24.6999C11.3355 24.6999 11.2012 24.5655 11.2012 24.3999C11.2012 24.2342 11.3355 24.0999 11.5012 24.0999C15.4776 24.0999 18.7012 20.8763 18.7012 16.8999C18.7012 16.7342 18.8355 16.5999 19.0012 16.5999Z" fill="#E8AA0A"/>
<path d="M17.501 16.8999C17.501 20.2136 14.8147 22.8999 11.501 22.8999C8.18727 22.8999 5.50098 20.2136 5.50098 16.8999C5.50098 13.5862 8.18727 10.8999 11.501 10.8999C14.8147 10.8999 17.501 13.5862 17.501 16.8999Z" fill="#FFDD28"/>
<path fill-rule="evenodd" clip-rule="evenodd" d="M18.1014 16.9C18.1014 20.5451 15.1464 23.5 11.5014 23.5C7.85629 23.5 4.90137 20.5451 4.90137 16.9C4.90137 13.255 7.85629 10.3 11.5014 10.3C15.1464 10.3 18.1014 13.255 18.1014 16.9ZM11.5014 22.9C14.8151 22.9 17.5014 20.2138 17.5014 16.9C17.5014 13.5863 14.8151 10.9 11.5014 10.9C8.18766 10.9 5.50137 13.5863 5.50137 16.9C5.50137 20.2138 8.18766 22.9 11.5014 22.9Z" fill="#E89B05"/>
<path fill-rule="evenodd" clip-rule="evenodd" d="M11.5012 21.9999C14.3178 21.9999 16.6012 19.7165 16.6012 16.8999C16.6012 16.7342 16.7355 16.5999 16.9012 16.5999C17.0669 16.5999 17.2012 16.7342 17.2012 16.8999C17.2012 20.0479 14.6492 22.5999 11.5012 22.5999C11.3355 22.5999 11.2012 22.4655 11.2012 22.2999C11.2012 22.1342 11.3355 21.9999 11.5012 21.9999Z" fill="#ECC704"/>
<path fill-rule="evenodd" clip-rule="evenodd" d="M11.5008 11.8C8.68413 11.8 6.40078 14.0833 6.40078 16.9C6.40078 17.0656 6.26647 17.2 6.10078 17.2C5.9351 17.2 5.80078 17.0656 5.80078 16.9C5.80078 13.7519 8.35276 11.2 11.5008 11.2C11.6665 11.2 11.8008 11.3343 11.8008 11.5C11.8008 11.6656 11.6665 11.8 11.5008 11.8Z" fill="#FFEF9C"/>
<path d="M12.2162 19.3001H11.2002V15.3837L9.9873 15.7599V14.9337L12.1072 14.1743H12.2162V19.3001Z" fill="#FFEF9C"/>
<path fill-rule="evenodd" clip-rule="evenodd" d="M12.8166 19.3C12.8166 19.6314 12.548 19.9 12.2166 19.9H11.2006C10.8692 19.9 10.6006 19.6314 10.6006 19.3V16.1979L10.1654 16.3328C9.98334 16.3893 9.78525 16.3559 9.63177 16.2428C9.4783 16.1297 9.3877 15.9504 9.3877 15.7598V14.9336C9.3877 14.6802 9.54684 14.4542 9.78536 14.3687L11.9053 13.6094C11.9702 13.5861 12.0387 13.5742 12.1076 13.5742H12.2166C12.548 13.5742 12.8166 13.8428 12.8166 14.1742V19.3ZM11.2006 15.3836V19.3H12.2166V14.1742H12.1076L9.9877 14.9336V15.7598L11.2006 15.3836Z" fill="#E89B05"/>
</svg>
