<svg width="25" height="24" viewBox="0 0 25 24" fill="none" xmlns="http://www.w3.org/2000/svg">
<path d="M11.3335 6C11.3335 5.44772 10.884 4.99356 10.3361 5.06242C9.10726 5.21683 7.92625 5.65513 6.88893 6.34824C5.57334 7.22729 4.54796 8.47672 3.94246 9.93853C3.33696 11.4003 3.17853 13.0089 3.48721 14.5607C3.7959 16.1126 4.55782 17.538 5.67664 18.6569C6.79546 19.7757 8.22093 20.5376 9.77277 20.8463C11.3246 21.155 12.9332 20.9965 14.395 20.391C15.8568 19.7855 17.1062 18.7602 17.9853 17.4446C18.6784 16.4072 19.1167 15.2262 19.2711 13.9974C19.3399 13.4494 18.8858 13 18.3335 13H12.8335C12.0051 13 11.3335 12.3284 11.3335 11.5V6Z" fill="#3A8FF7" stroke="#3A8FF7" stroke-width="1.5"/>
<path d="M14.3335 4C14.3335 3.44772 14.7834 2.99268 15.3301 3.07131C15.9066 3.15423 16.4718 3.30896 17.0123 3.53284C17.8616 3.88463 18.6332 4.40024 19.2832 5.05025C19.9333 5.70026 20.4489 6.47194 20.8007 7.32122C21.0245 7.86171 21.1793 8.4269 21.2622 9.00339C21.3408 9.55005 20.8858 10 20.3335 10L14.5335 10C14.423 10 14.3335 9.91046 14.3335 9.8V4Z" fill="#3A8FF7" stroke="#3A8FF7" stroke-width="1.5"/>
</svg>
