<svg width="46" height="46" viewBox="0 0 46 46" fill="none" xmlns="http://www.w3.org/2000/svg">
<circle cx="23" cy="23" r="20" stroke="#F3F4F6" stroke-width="6"/>
<path d="M11.8633 25L14.8513 19.6H16.4113L13.3513 25H11.8633ZM11.8633 25.84V25L12.4513 24.604H18.3793V25.84H11.8633ZM15.8473 28V22.504H17.2033V28H15.8473ZM22.6589 28.12C22.0269 28.12 21.4469 27.944 20.9189 27.592C20.3989 27.232 19.9829 26.728 19.6709 26.08C19.3589 25.432 19.2029 24.668 19.2029 23.788C19.2029 22.908 19.3549 22.148 19.6589 21.508C19.9709 20.86 20.3869 20.36 20.9069 20.008C21.4269 19.656 22.0029 19.48 22.6349 19.48C23.2749 19.48 23.8549 19.656 24.3749 20.008C24.8949 20.36 25.3069 20.86 25.6109 21.508C25.9229 22.148 26.0789 22.912 26.0789 23.8C26.0789 24.68 25.9229 25.444 25.6109 26.092C25.3069 26.74 24.8949 27.24 24.3749 27.592C23.8629 27.944 23.2909 28.12 22.6589 28.12ZM22.6349 26.824C23.0509 26.824 23.4109 26.712 23.7149 26.488C24.0189 26.264 24.2549 25.928 24.4229 25.48C24.5989 25.032 24.6869 24.468 24.6869 23.788C24.6869 23.116 24.5989 22.556 24.4229 22.108C24.2549 21.66 24.0149 21.328 23.7029 21.112C23.3989 20.888 23.0429 20.776 22.6349 20.776C22.2269 20.776 21.8669 20.888 21.5549 21.112C21.2509 21.328 21.0149 21.66 20.8469 22.108C20.6789 22.548 20.5949 23.108 20.5949 23.788C20.5949 24.468 20.6789 25.032 20.8469 25.48C21.0149 25.928 21.2509 26.264 21.5549 26.488C21.8669 26.712 22.2269 26.824 22.6349 26.824ZM27.1742 28L32.5622 19.6H33.8702L28.4822 28H27.1742ZM32.2742 28.12C31.9622 28.12 31.6742 28.044 31.4102 27.892C31.1542 27.74 30.9502 27.536 30.7982 27.28C30.6462 27.024 30.5702 26.736 30.5702 26.416C30.5702 26.096 30.6462 25.812 30.7982 25.564C30.9502 25.308 31.1542 25.104 31.4102 24.952C31.6662 24.8 31.9542 24.724 32.2742 24.724C32.5942 24.724 32.8822 24.8 33.1382 24.952C33.4022 25.104 33.6102 25.308 33.7622 25.564C33.9142 25.812 33.9902 26.096 33.9902 26.416C33.9902 26.736 33.9142 27.024 33.7622 27.28C33.6102 27.536 33.4062 27.74 33.1502 27.892C32.8942 28.044 32.6022 28.12 32.2742 28.12ZM32.2742 27.1C32.4742 27.1 32.6342 27.036 32.7542 26.908C32.8822 26.78 32.9462 26.616 32.9462 26.416C32.9462 26.224 32.8822 26.064 32.7542 25.936C32.6262 25.808 32.4662 25.744 32.2742 25.744C32.0822 25.744 31.9262 25.808 31.8062 25.936C31.6862 26.064 31.6262 26.224 31.6262 26.416C31.6262 26.616 31.6862 26.78 31.8062 26.908C31.9262 27.036 32.0822 27.1 32.2742 27.1ZM28.7582 22.876C28.4462 22.876 28.1582 22.8 27.8942 22.648C27.6382 22.496 27.4342 22.292 27.2822 22.036C27.1302 21.78 27.0542 21.492 27.0542 21.172C27.0542 20.852 27.1302 20.568 27.2822 20.32C27.4342 20.064 27.6382 19.86 27.8942 19.708C28.1502 19.556 28.4382 19.48 28.7582 19.48C29.0782 19.48 29.3662 19.556 29.6222 19.708C29.8862 19.86 30.0942 20.064 30.2462 20.32C30.3982 20.568 30.4742 20.852 30.4742 21.172C30.4742 21.492 30.3982 21.78 30.2462 22.036C30.0942 22.292 29.8902 22.496 29.6342 22.648C29.3782 22.8 29.0862 22.876 28.7582 22.876ZM28.7582 21.856C28.9582 21.856 29.1182 21.792 29.2382 21.664C29.3582 21.536 29.4182 21.372 29.4182 21.172C29.4182 20.972 29.3542 20.812 29.2262 20.692C29.1062 20.564 28.9502 20.5 28.7582 20.5C28.5662 20.5 28.4102 20.564 28.2902 20.692C28.1702 20.812 28.1102 20.972 28.1102 21.172C28.1102 21.372 28.1702 21.536 28.2902 21.664C28.4102 21.792 28.5662 21.856 28.7582 21.856Z" fill="#35B26A"/>
<path d="M31.6014 41.0569C32.3138 42.5523 34.1172 43.2028 35.5073 42.3021C39.3575 39.8073 42.3945 36.2032 44.1941 31.9335C46.3842 26.7377 46.5894 20.9185 44.7707 15.5813C42.952 10.2442 39.2361 5.76103 34.329 2.98368C30.2967 0.701417 25.6909 -0.298323 21.1184 0.077032C19.4677 0.212547 18.4367 1.82895 18.7857 3.44811C19.1347 5.06726 20.7346 6.06848 22.3898 6.00905C25.5107 5.897 28.6232 6.64649 31.3746 8.20371C35.0019 10.2568 37.7487 13.5707 39.0931 17.516C40.4376 21.4613 40.2859 25.763 38.667 29.6038C37.439 32.517 35.4318 35.0111 32.8919 36.8281C31.5447 37.7918 30.8891 39.5616 31.6014 41.0569Z" fill="#35B26A"/>
</svg>
