<svg width="25" height="22" viewBox="0 0 25 22" fill="none" xmlns="http://www.w3.org/2000/svg">
<path fill-rule="evenodd" clip-rule="evenodd" d="M12.7 0.75C10.0766 0.75 7.94995 2.87665 7.94995 5.5C7.94995 8.12335 10.0766 10.25 12.7 10.25C15.3233 10.25 17.45 8.12335 17.45 5.5C17.45 2.87665 15.3233 0.75 12.7 0.75ZM9.44995 5.5C9.44995 3.70507 10.905 2.25 12.7 2.25C14.4949 2.25 15.95 3.70507 15.95 5.5C15.95 7.29493 14.4949 8.75 12.7 8.75C10.905 8.75 9.44995 7.29493 9.44995 5.5Z" fill="#8491A5"/>
<path d="M18.7 2.75C18.2857 2.75 17.95 3.08579 17.95 3.5C17.95 3.91421 18.2857 4.25 18.7 4.25C20.0764 4.25 20.95 5.15573 20.95 6C20.95 6.84427 20.0764 7.75 18.7 7.75C18.2857 7.75 17.95 8.08579 17.95 8.5C17.95 8.91421 18.2857 9.25 18.7 9.25C20.6372 9.25 22.45 7.91715 22.45 6C22.45 4.08285 20.6372 2.75 18.7 2.75Z" fill="#8491A5"/>
<path d="M7.44995 3.5C7.44995 3.08579 7.11416 2.75 6.69995 2.75C4.76273 2.75 2.94995 4.08285 2.94995 6C2.94995 7.91715 4.76273 9.25 6.69995 9.25C7.11416 9.25 7.44995 8.91421 7.44995 8.5C7.44995 8.08579 7.11416 7.75 6.69995 7.75C5.32347 7.75 4.44995 6.84427 4.44995 6C4.44995 5.15573 5.32347 4.25 6.69995 4.25C7.11416 4.25 7.44995 3.91421 7.44995 3.5Z" fill="#8491A5"/>
<path fill-rule="evenodd" clip-rule="evenodd" d="M12.7 11.75C10.9157 11.75 9.2664 12.2308 8.04129 13.0475C6.82141 13.8608 5.94995 15.0666 5.94995 16.5C5.94995 17.9334 6.82141 19.1392 8.04129 19.9525C9.2664 20.7692 10.9157 21.25 12.7 21.25C14.4842 21.25 16.1335 20.7692 17.3586 19.9525C18.5785 19.1392 19.45 17.9334 19.45 16.5C19.45 15.0666 18.5785 13.8608 17.3586 13.0475C16.1335 12.2308 14.4842 11.75 12.7 11.75ZM7.44995 16.5C7.44995 15.7242 7.92164 14.9301 8.87334 14.2956C9.81979 13.6646 11.1705 13.25 12.7 13.25C14.2294 13.25 15.5801 13.6646 16.5266 14.2956C17.4783 14.9301 17.95 15.7242 17.95 16.5C17.95 17.2758 17.4783 18.0699 16.5266 18.7044C15.5801 19.3354 14.2294 19.75 12.7 19.75C11.1705 19.75 9.81979 19.3354 8.87334 18.7044C7.92164 18.0699 7.44995 17.2758 7.44995 16.5Z" fill="#8491A5"/>
<path d="M19.9674 13.3393C20.0561 12.9347 20.456 12.6787 20.8606 12.7674C21.8225 12.9783 22.6892 13.3593 23.3328 13.8859C23.9757 14.412 24.45 15.1352 24.45 16C24.45 16.8648 23.9757 17.588 23.3328 18.1141C22.6892 18.6407 21.8225 19.0217 20.8606 19.2326C20.456 19.3213 20.0561 19.0653 19.9674 18.6607C19.8786 18.2561 20.1347 17.8561 20.5393 17.7674C21.3317 17.5936 21.9649 17.2952 22.3828 16.9532C22.8013 16.6108 22.95 16.2763 22.95 16C22.95 15.7237 22.8013 15.3892 22.3828 15.0468C21.9649 14.7048 21.3317 14.4064 20.5393 14.2326C20.1347 14.1439 19.8786 13.7439 19.9674 13.3393Z" fill="#8491A5"/>
<path d="M4.5393 12.7674C4.9439 12.6787 5.34382 12.9347 5.43254 13.3393C5.52127 13.7439 5.2652 14.1439 4.8606 14.2326C4.06824 14.4064 3.435 14.7048 3.01707 15.0468C2.59858 15.3892 2.44995 15.7237 2.44995 16C2.44995 16.2763 2.59858 16.6108 3.01707 16.9532C3.435 17.2952 4.06824 17.5936 4.8606 17.7674C5.2652 17.8561 5.52127 18.2561 5.43254 18.6607C5.34382 19.0653 4.9439 19.3213 4.5393 19.2326C3.57742 19.0217 2.71065 18.6407 2.06714 18.1141C1.4242 17.588 0.949951 16.8648 0.949951 16C0.949951 15.1352 1.4242 14.412 2.06714 13.8859C2.71065 13.3593 3.57742 12.9783 4.5393 12.7674Z" fill="#8491A5"/>
</svg>
