<svg width="22" height="23" viewBox="0 0 22 23" fill="none" xmlns="http://www.w3.org/2000/svg">
<path fill-rule="evenodd" clip-rule="evenodd" d="M7.04522 0.750001H15.155C16.5226 0.74998 17.6249 0.749963 18.4918 0.866524C19.392 0.98754 20.1498 1.24643 20.7518 1.84835C21.3537 2.45027 21.6126 3.20814 21.7336 4.10825C21.8501 4.97522 21.8501 6.07754 21.8501 7.44513V11.5549C21.8501 12.9225 21.8501 14.0248 21.7336 14.8918C21.6126 15.7919 21.3537 16.5497 20.7518 17.1516C20.2538 17.6496 19.647 17.9146 18.9362 18.0593C18.246 18.1998 17.4134 18.2352 16.4277 18.2457L16.4221 18.2458L16.1977 18.2464C16.1009 18.5506 15.9436 18.84 15.7256 19.0958C15.5945 19.2496 15.5153 19.4408 15.4992 19.6423C15.4031 20.8466 14.4467 21.803 13.2424 21.8991C13.0409 21.9152 12.8497 21.9944 12.6959 22.1255C11.7763 22.9091 10.4239 22.9091 9.5043 22.1255C9.35049 21.9944 9.15925 21.9152 8.95781 21.8991C7.75346 21.803 6.79711 20.8466 6.701 19.6423C6.68492 19.4409 6.60571 19.2496 6.47464 19.0958C6.25692 18.8403 6.09969 18.5514 6.00294 18.2477C4.96262 18.2407 4.0918 18.2125 3.37645 18.0811C2.61845 17.9418 1.97338 17.6766 1.44845 17.1517C0.846532 16.5497 0.587638 15.7919 0.466622 14.8918C0.350061 14.0248 0.350078 12.9225 0.350098 11.5549V7.44513C0.350078 6.07754 0.350061 4.97522 0.466622 4.10825C0.587638 3.20814 0.846532 2.45027 1.44845 1.84835C2.05036 1.24643 2.80824 0.98754 3.70835 0.866524C4.57531 0.749963 5.67763 0.74998 7.04522 0.750001ZM6.00444 16.7476C6.1013 16.4456 6.25803 16.1584 6.47464 15.9042C6.60571 15.7504 6.68492 15.5592 6.701 15.3577C6.79711 14.1534 7.75346 13.197 8.95781 13.1009C9.15925 13.0848 9.35049 13.0056 9.5043 12.8745C10.4239 12.0909 11.7763 12.0909 12.6959 12.8745C12.8497 13.0056 13.0409 13.0848 13.2424 13.1009C14.4467 13.197 15.4031 14.1534 15.4992 15.3577C15.5153 15.5592 15.5945 15.7504 15.7256 15.9042C15.9419 16.158 16.0985 16.4448 16.1954 16.7464L16.4145 16.7457C17.3998 16.7352 18.1023 16.6983 18.6369 16.5895C19.1514 16.4847 19.4591 16.3229 19.6911 16.091C19.9679 15.8142 20.1483 15.4257 20.247 14.6919C20.3485 13.9365 20.3501 12.9354 20.3501 11.5V7.5C20.3501 6.06458 20.3485 5.06347 20.247 4.30812C20.1483 3.57435 19.9679 3.18577 19.6911 2.90901C19.4143 2.63225 19.0258 2.4518 18.292 2.35315C17.5366 2.25159 16.5355 2.25 15.1001 2.25H7.1001C5.66468 2.25 4.66357 2.25159 3.90822 2.35315C3.17444 2.4518 2.78587 2.63225 2.50911 2.90901C2.23235 3.18577 2.0519 3.57435 1.95325 4.30812C1.85169 5.06347 1.8501 6.06459 1.8501 7.5V11.5C1.8501 12.9354 1.85169 13.9365 1.95325 14.6919C2.0519 15.4257 2.23235 15.8142 2.50911 16.091C2.75256 16.3344 3.08064 16.5016 3.64745 16.6057C4.21763 16.7105 4.96335 16.7404 6.00444 16.7476ZM7.3501 5.5C7.3501 5.08579 7.68589 4.75 8.1001 4.75H14.1001C14.5143 4.75 14.8501 5.08579 14.8501 5.5C14.8501 5.91421 14.5143 6.25 14.1001 6.25H8.1001C7.68589 6.25 7.3501 5.91421 7.3501 5.5ZM5.3501 9C5.3501 8.58579 5.68589 8.25 6.1001 8.25H16.1001C16.5143 8.25 16.8501 8.58579 16.8501 9C16.8501 9.41422 16.5143 9.75 16.1001 9.75H6.1001C5.68589 9.75 5.3501 9.41422 5.3501 9ZM11.723 14.0162C11.3641 13.7103 10.8361 13.7103 10.4772 14.0162C10.0832 14.352 9.59322 14.555 9.07713 14.5961C8.60704 14.6337 8.23376 15.0069 8.19625 15.477C8.15506 15.9931 7.95212 16.4831 7.61631 16.8771C7.31043 17.236 7.31043 17.764 7.61631 18.1229C7.95212 18.5169 8.15506 19.0069 8.19625 19.523C8.23376 19.9931 8.60704 20.3663 9.07713 20.4039C9.59322 20.445 10.0832 20.648 10.4772 20.9838C10.8361 21.2897 11.3641 21.2897 11.723 20.9838C12.117 20.648 12.607 20.445 13.1231 20.4039C13.5932 20.3663 13.9664 19.9931 14.004 19.523C14.0451 19.0069 14.2481 18.5169 14.5839 18.1229C14.8898 17.764 14.8898 17.236 14.5839 16.8771C14.2481 16.4831 14.0451 15.9931 14.004 15.477C13.9664 15.0069 13.5932 14.6337 13.1231 14.5961C12.607 14.555 12.117 14.352 11.723 14.0162ZM12.0884 15.9517C12.3912 15.6691 12.8658 15.6854 13.1484 15.9883C13.431 16.2911 13.4146 16.7657 13.1118 17.0483L10.969 19.0483C10.6808 19.3172 10.2337 19.3172 9.9455 19.0483L9.08836 18.2483C8.78555 17.9657 8.76918 17.4911 9.05181 17.1883C9.33443 16.8854 9.80902 16.8691 10.1118 17.1517L10.4572 17.4741L12.0884 15.9517Z" fill="#8491A5"/>
</svg>
