<svg width="20" height="20" viewBox="0 0 20 20" fill="none" xmlns="http://www.w3.org/2000/svg">
<path d="M10.8151 10.197L3.28308 11.452C3.19649 11.4665 3.11522 11.5035 3.04746 11.5593C2.97971 11.6151 2.92784 11.6878 2.89708 11.77L0.30008 18.728C0.0520799 19.368 0.72108 19.978 1.33508 19.67L19.3351 10.67C19.4595 10.6076 19.5641 10.5119 19.6372 10.3935C19.7103 10.2751 19.749 10.1387 19.749 9.9995C19.749 9.86034 19.7103 9.72392 19.6372 9.60551C19.5641 9.48709 19.4595 9.39136 19.3351 9.329L1.33508 0.329001C0.72108 0.0220009 0.0520799 0.632001 0.30008 1.271L2.89808 8.229C2.92884 8.31123 2.98071 8.38391 3.04846 8.43973C3.11622 8.49555 3.19749 8.53255 3.28408 8.547L10.8161 9.802C10.8631 9.8095 10.9058 9.8335 10.9367 9.8697C10.9676 9.9059 10.9846 9.95192 10.9846 9.9995C10.9846 10.0471 10.9676 10.0931 10.9367 10.1293C10.9058 10.1655 10.8631 10.1895 10.8161 10.197" fill="#47C77D"/>
</svg>
