<svg width="200" height="201" viewBox="0 0 200 201" fill="none" xmlns="http://www.w3.org/2000/svg">
<path d="M27.7548 130.632C26.9218 130.767 25.8688 130.914 25.5298 130.914C24.6948 130.914 25.1508 130.899 22.1948 126.306C20.8578 124.227 15.3508 115.87 15.3648 115.569C15.4688 115.348 18.3618 115.134 22.2778 114.338C22.1288 113.92 22.1528 113.552 22.3708 113.236C20.9208 113.567 20.0898 113.741 16.9988 114.156C16.3348 114.245 14.7178 114.591 14.6488 114.618C13.8498 114.928 13.8498 115.084 14.1438 115.725C14.8768 117.332 17.6558 121.573 19.8898 124.981C23.8178 130.974 22.1498 128.666 23.7748 131.101C24.5988 132.335 24.7148 132.473 28.4768 131.611C28.1908 131.231 27.9808 130.941 27.7568 130.632H27.7548Z" fill="#35B26A"/>
<path d="M32.5107 150.356C32.9307 150.134 32.8847 150.192 32.4247 149.319C29.9757 149.937 26.9297 150.703 23.0657 151.671C22.4927 151.815 22.1327 152.063 21.7207 151.599C19.3247 148.895 8.59267 133.043 6.16767 128.821C6.01267 128.551 6.31867 128.606 7.12467 128.028C7.28467 127.913 7.36567 127.934 7.46667 128.084C8.82267 130.095 17.7077 144.213 21.2777 148.192C22.0517 149.054 24.4577 148.093 29.3687 146.733C31.4297 146.163 32.7987 145.839 33.7647 145.629C33.6547 145.408 33.5007 145.084 33.3467 144.752C32.6337 144.941 31.7357 145.174 30.5857 145.464C27.9397 146.131 23.7407 147.138 22.6477 147.446C21.9287 147.649 21.8457 147.191 21.3007 146.614C19.7057 144.928 10.8787 131.73 9.50567 129.629C6.06367 124.362 6.08767 124.339 6.33967 124.186C7.52367 123.468 7.65567 123.281 7.86667 123.585C9.37467 125.753 8.64467 124.956 10.3227 127.41C16.8817 137.006 17.8977 139.931 21.6737 143.882C22.5467 144.795 22.1887 144.969 26.6467 143.787C29.7127 142.975 32.3697 142.273 34.6787 141.668C34.6727 141.638 34.6607 141.603 34.6447 141.56C34.5107 141.206 34.3897 140.876 34.3387 140.577C31.4617 141.299 28.7227 141.985 26.6227 142.484C25.3967 142.775 24.4247 143.244 23.7297 143.356C23.1337 143.452 22.7717 143.562 22.0257 142.735C20.6777 141.242 20.5027 141.375 16.7287 135.591C16.0877 134.609 14.4537 132.196 14.0317 131.468C12.6357 129.056 12.1577 128.856 10.5657 126.038C8.03467 121.558 8.17967 122.16 7.35467 120.272C7.10067 119.69 7.52467 119.605 8.35367 119.246C8.76867 119.066 8.69967 118.95 9.03067 119.481C12.4097 124.912 11.8937 124.023 13.3387 126.74C14.2377 128.43 20.4307 137.765 21.4117 139.125C21.7397 139.58 22.1297 139.985 22.6067 140.294C23.2117 140.686 22.8957 140.622 29.9527 138.776C31.3337 138.415 32.4087 138.09 33.4817 137.773C33.2067 137.436 32.9677 137.145 32.7547 136.887C32.6367 136.92 32.5207 136.952 32.4057 136.984C29.3747 137.813 25.3047 138.791 23.3667 139.321C23.0387 139.411 22.8527 139.333 22.6797 139.081C13.1807 125.283 15.0357 127.768 13.1027 124.509C9.39167 118.251 9.48867 119.085 8.17067 116.054C7.90767 115.448 8.32767 115.36 9.02567 115.134C9.96667 114.828 9.31167 114.911 12.9097 120.112C15.2247 123.458 16.5437 126.213 19.6207 131.234C20.5707 132.785 22.6487 135.672 23.0697 136.295C23.4527 136.86 23.9967 136.915 24.6547 136.74C26.9267 136.136 29.0617 135.559 31.1647 134.993C30.9327 134.717 30.6967 134.433 30.4007 134.066C28.2357 134.67 26.2327 135.273 24.5097 135.858C23.6387 136.154 23.4897 135.568 15.1417 121.858C13.1827 118.64 10.5707 114.828 9.75467 112.972C9.45967 112.301 10.8037 112.384 15.9997 111.567C18.6127 111.156 20.9907 110.818 23.2447 110.512C23.0487 110.165 22.8857 109.867 22.8357 109.762C22.7847 109.654 22.7567 109.552 22.7467 109.453C16.4347 110.311 10.7917 111.102 9.43367 111.662C8.32467 112.12 8.60467 112.928 8.97967 113.916C9.12067 114.288 8.91967 114.107 7.88167 114.565C7.40667 114.774 6.88767 115.209 7.13167 115.871C7.23667 116.158 8.00867 117.835 8.20967 118.197C8.40167 118.541 8.09967 118.45 7.30367 118.72C6.12867 119.119 5.86967 119.831 6.34367 120.839C7.16967 122.597 7.36967 122.438 6.84667 122.714C5.53567 123.407 4.99867 123.541 5.23367 124.402C5.44267 125.169 5.59167 125.393 6.52467 126.752C6.86167 127.244 6.65767 127.09 5.51167 127.773C5.16767 127.978 4.87167 128.287 4.95167 128.677C5.05467 129.177 5.19367 129.507 5.48067 129.927C11.3717 138.558 9.23867 135.798 12.4337 140.579C13.6167 142.348 13.7007 142.315 16.6607 146.744C19.0517 150.321 17.1587 147.524 19.4807 150.721C20.8577 152.617 21.3887 153.427 22.7767 153.096C28.0347 151.846 27.9977 151.679 29.9937 151.18C30.4177 151.074 31.0407 150.923 31.7537 150.752C31.9687 150.639 32.2217 150.513 32.5127 150.359L32.5107 150.356Z" fill="#35B26A"/>
<path d="M54.8771 143.732C55.1391 143.465 54.8371 143.315 54.7131 142.818C54.5281 142.079 54.9841 141.656 55.3201 141.808C56.0381 142.131 55.8081 142.918 56.2561 142.783C56.5781 142.686 56.9161 142.576 57.2351 142.583C58.4341 142.61 58.7301 143.598 58.4231 144.074C58.0121 144.711 57.3581 143.889 56.1751 144.543C55.0641 145.157 54.9201 146.738 56.2821 146.475C57.7091 146.199 58.4751 145.738 59.5801 145.836C61.1231 145.972 62.6751 147.604 62.0071 149.763C61.3671 151.829 60.4641 151.504 60.7871 152.182C60.8021 152.214 61.1351 152.804 61.2741 153.465C61.4441 154.277 60.6731 154.926 60.2011 154.229C59.3331 152.945 59.5691 152.715 59.0931 152.921C58.2341 153.293 57.4651 153.654 56.4771 153.32C55.8221 153.099 55.6891 152.313 55.8701 151.943C56.0671 151.54 56.3481 151.589 56.7471 151.588C58.5751 151.585 60.5911 149.987 60.1131 148.499C59.8821 147.778 58.9991 147.79 57.4041 148.229C56.4831 148.483 55.3981 148.626 54.5351 148.085C53.3791 147.361 53.3961 145.245 54.8771 143.732Z" fill="#35B26A"/>
<path d="M114.941 164.699C114.579 164.785 114.216 164.871 113.851 164.95C113.114 165.111 112.369 165.233 111.631 165.388C107.807 166.193 108.156 166.376 108.205 165.751C108.433 164.512 108.516 164.087 108.56 163.77C108.229 163.636 107.87 163.492 107.477 163.341C106.951 163.138 106.444 162.89 105.93 162.655C105.555 165.24 105.234 167.332 105.224 167.385C105.165 167.723 105.044 167.947 104.691 168.075C104.102 168.289 103.892 168.128 103.936 167.492C103.981 166.843 104.332 164.728 104.712 162.162C104.606 162.127 104.5 162.094 104.392 162.064C103.824 161.907 103.284 161.654 102.722 161.47C102.11 161.269 98.7187 160.259 95.3297 158.951C94.3787 158.584 93.4667 158.118 92.5367 157.698C92.3677 157.621 92.2357 157.52 92.1307 157.401C92.0477 158.5 91.8137 160.171 90.8127 168.868C90.6907 169.929 90.6217 170.468 90.4597 170.525C90.2087 170.614 89.9457 170.687 89.6807 170.716C89.5927 170.726 89.4417 170.607 89.4027 170.512C89.0137 169.573 90.6507 160.086 90.7837 155.52C90.3437 155.344 89.6687 155.054 86.9857 154.083C87.0607 154.2 87.1227 154.303 87.1687 154.387C86.4767 154.734 61.8737 159.526 50.1717 163.5C49.3007 163.796 49.1517 163.21 40.8047 149.5C38.8457 146.282 36.2337 142.47 35.4177 140.614C35.3527 140.465 35.3677 140.353 35.4877 140.26C35.3517 140.09 35.1977 139.898 35.0227 139.681C34.9557 139.598 34.8907 139.517 34.8267 139.437C34.0387 139.91 34.3007 140.659 34.6417 141.557C34.7827 141.929 34.5817 141.748 33.5437 142.206C33.0687 142.415 32.5497 142.85 32.7937 143.511C32.8987 143.798 33.6707 145.476 33.8717 145.838C34.0637 146.182 33.7617 146.091 32.9657 146.361C31.7907 146.76 31.5317 147.472 32.0057 148.48C32.8317 150.238 33.0327 150.079 32.5087 150.355C31.1977 151.048 30.6607 151.182 30.8947 152.043C31.1037 152.81 31.2527 153.034 32.1857 154.393C32.5227 154.885 32.3187 154.731 31.1727 155.414C30.8287 155.619 30.5327 155.928 30.6127 156.318C30.7157 156.818 30.8547 157.148 31.1417 157.568C37.0327 166.199 34.8997 163.439 38.0947 168.22C39.2777 169.989 39.3617 169.956 42.3217 174.385C44.7127 177.962 42.8187 175.165 45.1417 178.362C46.5187 180.258 47.0497 181.068 48.4377 180.737C53.6957 179.487 53.6587 179.32 55.6547 178.821C57.4507 178.372 62.8007 177.122 63.5487 176.931C75.2797 173.927 83.4317 172.432 84.0557 172.263C84.9167 172.029 85.1407 171.789 85.6717 172.378C86.6977 173.516 87.7477 172.945 91.2217 172.221C92.3107 171.994 93.3557 171.579 94.4717 171.458C95.0577 171.395 95.6317 171.232 96.2157 171.141C96.8518 171.042 100.362 170.592 103.918 169.849C104.916 169.64 105.891 169.328 106.876 169.063C107.383 168.927 107.639 168.55 107.791 168.086C108.043 167.32 107.965 167.368 108.284 167.321C109.46 167.147 108.52 167.158 117.309 165.601C116.199 165.176 115.393 164.873 114.937 164.698L114.941 164.699ZM86.3397 167.92L86.2987 167.914C86.2027 168.724 86.1037 169.53 86.0147 170.339C85.9927 170.543 85.4077 170.589 83.2807 171.06C81.4617 171.462 78.4697 172.225 74.1697 173.132C66.6717 174.714 69.4747 174.123 48.7307 179.317C48.1577 179.461 47.7977 179.709 47.3857 179.245C44.9897 176.541 34.2577 160.689 31.8327 156.467C31.6777 156.197 31.9837 156.252 32.7897 155.674C32.9497 155.559 33.0307 155.58 33.1317 155.729C34.4877 157.741 43.3727 171.858 46.9437 175.837C47.7177 176.699 50.1237 175.738 55.0347 174.378C59.8747 173.038 60.9007 173.063 61.8407 172.709C62.9917 172.275 64.2208 172.154 65.3957 171.82C67.6088 171.191 71.3567 170.324 72.8477 170.059C72.9177 170.047 86.1017 167.215 86.1267 167.211C86.4517 167.147 86.3857 167.328 86.3397 167.922V167.92ZM86.7297 164.079C86.4887 166.751 86.9277 165.958 84.6497 166.439C84.0127 166.573 84.6567 166.474 71.2307 169.415C65.2077 170.734 67.8267 170.323 62.4077 171.478C61.4577 171.681 61.0747 171.892 56.2507 173.107C53.6047 173.774 49.4057 174.781 48.3127 175.089C47.5937 175.292 47.5107 174.834 46.9657 174.257C45.3707 172.571 36.5437 159.373 35.1707 157.272C31.7287 152.005 31.7527 151.982 32.0047 151.829C33.1887 151.111 33.3207 150.924 33.5317 151.228C35.0397 153.396 34.3107 152.599 35.9877 155.053C42.5467 164.649 43.5627 167.574 47.3387 171.525C48.2117 172.438 47.8537 172.612 52.3117 171.43C81.1317 163.79 73.7837 166.058 81.3447 164.553C87.2307 163.382 86.8227 163.051 86.7297 164.079ZM87.2747 160.002C87.1747 161.302 87.3287 160.042 86.9747 162.258C86.9137 162.639 86.9667 162.356 82.5757 163.372C81.6357 163.59 76.3087 164.491 75.3547 164.634C71.4477 165.223 58.8017 168.581 52.2877 170.126C51.0627 170.417 50.0907 170.886 49.3947 170.998C48.7987 171.094 48.4367 171.204 47.6907 170.377C46.3437 168.884 46.1677 169.016 42.3937 163.233C41.7527 162.251 40.1187 159.838 39.6967 159.11C38.3007 156.698 37.8227 156.498 36.2307 153.68C33.6997 149.2 33.8447 149.802 33.0197 147.914C32.7657 147.332 33.1897 147.247 34.0187 146.888C34.4337 146.708 34.3647 146.592 34.6957 147.123C38.0747 152.554 37.5587 151.665 39.0027 154.382C39.9017 156.072 46.0947 165.406 47.0757 166.767C47.4037 167.222 47.7937 167.627 48.2707 167.936C48.8757 168.328 48.5597 168.264 55.6167 166.418C59.7687 165.333 61.1527 164.58 68.0157 163.338C69.6867 163.036 71.8387 162.938 80.1957 160.786C81.7337 160.39 81.7847 160.515 86.4857 159.538C87.3737 159.353 87.3307 159.28 87.2747 160.002ZM87.4937 156.933C87.3787 158.423 87.4607 158.28 87.0367 158.361C74.7227 160.721 75.8897 161.018 67.8187 162.281C63.2097 163.002 60.3467 164.003 58.0697 164.626C55.0387 165.455 50.9687 166.433 49.0307 166.963C48.7027 167.053 48.5167 166.975 48.3437 166.723C38.8447 152.925 40.6997 155.41 38.7667 152.151C35.0557 145.893 35.1527 146.727 33.8347 143.696C33.5717 143.09 33.9917 143.002 34.6897 142.776C35.6307 142.47 34.9757 142.553 38.5737 147.754C40.8887 151.1 42.2067 153.855 45.2847 158.876C46.2357 160.427 48.3127 163.314 48.7337 163.937C49.1167 164.502 49.6607 164.557 50.3187 164.382C61.6887 161.36 69.6337 159.002 87.1837 155.522C87.7337 155.413 87.6037 155.497 87.4927 156.934L87.4937 156.933Z" fill="#35B26A"/>
<path d="M81.902 152.281C73.935 153.944 56.3549 157.733 54.1749 158.147C53.4149 158.291 51.6529 158.559 51.1959 158.559C50.3609 158.559 50.8169 158.544 47.8609 153.951C46.9259 152.497 43.9519 147.974 42.2529 145.282L41.6739 145.475C41.4479 145.55 41.2429 145.591 41.0499 145.6C42.2589 147.599 44.033 150.307 45.5549 152.627C49.4829 158.62 47.8149 156.312 49.4399 158.747C50.3759 160.15 50.3969 160.137 55.8989 158.848C67.4819 156.133 79.008 153.976 84.035 153.031C83.391 152.804 82.6829 152.555 81.902 152.281Z" fill="#35B26A"/>
<path d="M149.953 95.1449C147.917 94.5649 146.049 95.5599 145.964 96.9209C145.914 97.7269 146.308 98.4499 146.803 99.0579C146.865 99.0779 146.927 99.0969 146.991 99.1169C147.657 99.3289 148.308 99.5969 148.975 99.8139C149.418 99.9589 149.872 100.105 150.336 100.253C149.892 99.2549 149.128 98.7999 148.213 97.6879C147.332 96.6169 148.791 95.9879 149.86 96.6719C150.999 97.3999 150.589 98.3669 151.345 98.4239C151.91 98.4659 152.637 97.7349 152.089 96.6689C151.943 96.3849 151.685 96.1399 151.446 95.9039C151.114 95.5739 151.915 95.4009 151.857 94.6159C151.829 94.2479 151.241 94.0489 150.68 94.5649C150.303 94.9119 150.315 95.2479 149.955 95.1459L149.953 95.1449Z" fill="#35B26A"/>
<path d="M141.769 89.7778C141.803 89.7898 141.838 89.8018 141.873 89.8138C146.432 91.3758 146.183 91.3118 147.514 91.6308C150.964 92.4558 153.733 93.3408 155.693 94.1188C160.501 96.0248 164.477 96.8328 164.563 97.1088C164.545 97.2988 161.888 100.386 159.534 103.1C159.962 103.23 160.388 103.36 160.81 103.489C163.53 100.367 166.13 97.2958 165.999 96.7788C165.953 96.5988 165.771 96.4698 165.404 96.2658C165.339 96.2288 163.785 95.6638 163.14 95.4848C157.991 94.0498 159.32 94.2318 153.045 92.0498C149.18 90.7058 147.856 90.7768 143.787 89.2788C143.019 89.4688 142.352 89.6348 141.769 89.7778Z" fill="#35B26A"/>
<path d="M132.908 91.8168C133.065 92.0088 133.21 92.2178 133.342 92.4488C133.407 92.5638 133.465 92.6788 133.515 92.7918C134.028 92.9378 134.392 93.0278 134.62 93.1078C134.677 93.1278 134.733 93.1478 134.788 93.1668C134.623 92.5888 134.33 92.0408 133.959 91.5288C133.617 91.6208 133.265 91.7178 132.907 91.8168H132.908Z" fill="#35B26A"/>
<path d="M147.835 88.2678C147.804 88.2758 147.774 88.2828 147.744 88.2908C153.028 89.8268 158.035 91.1008 164.486 93.0538C169.52 94.5778 170.863 94.6808 170.478 95.3048C169.415 97.0318 166.302 100.448 163.919 103.365C163.679 103.659 163.444 103.946 163.215 104.226C163.531 104.323 163.843 104.419 164.151 104.515C164.851 103.655 165.565 102.818 166.369 101.943C170.649 97.2878 170.011 97.1148 170.901 97.5468C171.562 97.8668 171.966 98.0128 171.622 98.5758C170.014 101.209 170.091 100.676 166.416 105.222C166.706 105.313 166.99 105.404 167.268 105.493C167.852 104.783 168.726 103.74 170.299 101.853C170.699 101.373 170.615 101.478 171.001 101.713C171.772 102.183 172.181 102.326 171.849 102.867C170.988 104.271 170.96 104.185 169.387 106.183C169.764 106.309 170.121 106.431 170.457 106.547C170.581 106.409 170.722 106.255 170.886 106.078C171.137 105.807 171.242 106.01 172.316 106.884C172.397 106.949 172.451 106.995 172.309 107.233C172.678 107.382 172.979 107.517 173.204 107.635C173.264 107.519 173.321 107.395 173.383 107.25C173.734 106.429 173.22 106.223 172.017 105.356C171.537 105.009 171.713 105.195 172.773 103.567C173.381 102.634 173.223 101.894 172.114 101.337C171.363 100.96 171.052 101.008 171.289 100.694C171.538 100.363 172.533 98.8068 172.677 98.5378C173.01 97.9168 172.555 97.4138 172.114 97.1418C171.148 96.5448 170.925 96.6968 171.115 96.3478C171.622 95.4208 172.011 94.6598 170.975 94.0528C169.141 92.9798 158.505 90.1988 149.819 87.6968C149.163 88.0588 148.366 88.1348 147.833 88.2688L147.835 88.2678Z" fill="#35B26A"/>
<path d="M187.619 116.704C187.57 116.525 187.386 116.399 187.016 116.202C186.95 116.166 185.387 115.628 184.739 115.459C179.674 114.14 180.845 114.266 174.972 112.323C174.871 112.49 174.628 112.859 174.368 113.245C175.472 113.578 176.442 113.907 177.27 114.22C182.11 116.044 186.099 116.784 186.19 117.059C186.167 117.36 179.691 124.99 178.113 126.892C174.624 131.095 175.074 131.163 174.246 131.063C173.792 131.008 172.075 130.529 171.338 130.294C171.224 130.257 171.066 130.206 170.869 130.14C170.575 130.458 170.319 130.737 170.095 130.983C174.85 132.724 174.907 132.694 175.967 131.461C176.441 130.908 176.649 130.662 177.376 129.712C179.761 126.599 187.867 117.611 187.62 116.703L187.619 116.704Z" fill="#35B26A"/>
<path d="M195.183 127.047C195.52 126.22 195.003 126.023 193.785 125.176C193.299 124.838 193.478 125.02 194.511 123.375C195.103 122.432 194.932 121.694 193.814 121.156C193.057 120.791 192.746 120.845 192.978 120.527C193.221 120.192 194.19 118.619 194.329 118.348C194.651 117.721 194.188 117.226 193.742 116.961C192.766 116.381 192.545 116.536 192.73 116.184C193.221 115.248 193.597 114.48 192.551 113.892C190.89 112.957 182.122 110.769 174.035 108.629C174.051 108.96 173.896 109.317 173.683 109.707C177.482 110.693 181.388 111.68 186.045 113.003C191.104 114.441 192.448 114.521 192.074 115.152C191.04 116.896 187.987 120.365 185.653 123.322C175.71 135.924 175.492 136.488 174.663 136.089C172.789 135.188 170.556 134.219 168.133 133.229C167.921 133.477 167.683 133.751 167.366 134.106C169.643 135.023 171.943 135.958 174.412 136.946C175.044 137.199 175.59 137.211 176.039 136.696C176.532 136.129 178.943 133.513 180.074 132.089C183.736 127.477 185.377 124.901 188.079 121.859C192.279 117.131 191.638 116.97 192.536 117.387C193.202 117.696 193.609 117.834 193.274 118.404C191.6 121.254 191.797 120.437 187.357 126.201C185.045 129.203 187.186 126.961 176.09 139.511C175.888 139.74 175.694 139.795 175.379 139.666C173.519 138.906 169.598 137.444 166.688 136.254C166.388 136.131 166.078 136.001 165.755 135.862C165.455 136.184 165.213 136.437 164.984 136.673C166.2 137.195 167.347 137.712 168.907 138.329C175.69 141.014 175.368 141.039 176.016 140.724C176.527 140.475 176.964 140.119 177.344 139.707C178.482 138.476 185.757 129.957 186.853 128.388C188.615 125.866 187.995 126.686 192.006 121.702C192.398 121.215 192.316 121.321 192.706 121.55C193.486 122.007 193.896 122.143 193.573 122.689C192.526 124.464 192.742 123.884 189.689 128.025C187.768 130.63 187.27 130.771 185.592 132.997C185.085 133.669 183.172 135.866 182.417 136.764C177.972 142.05 177.814 141.897 176.296 143.216C175.455 143.946 175.109 143.794 174.53 143.627C173.853 143.432 172.945 142.849 171.763 142.413C170.86 142.08 169.837 141.693 168.734 141.274C168.637 141.567 168.46 141.88 168.266 142.215C168.232 142.274 168.21 142.319 168.203 142.355C169.268 142.779 170.393 143.229 171.582 143.704C175.864 145.415 175.53 145.2 176.507 144.398C180.732 140.933 182.094 138.152 189.764 129.418C191.726 127.185 190.906 127.888 192.664 125.918C192.91 125.643 193.019 125.844 194.108 126.699C194.34 126.881 194.361 126.907 190.308 131.72C188.691 133.639 178.336 145.676 176.548 147.157C175.936 147.663 175.799 148.108 175.11 147.82C174.264 147.466 171.464 146.417 169.078 145.508C168.881 145.799 168.681 146.09 168.529 146.302C173.236 148.244 175.508 149.487 176.38 148.725C180.405 145.206 190.93 132.265 192.519 130.432C192.637 130.296 192.72 130.285 192.865 130.418C193.595 131.089 193.905 131.072 193.719 131.321C190.802 135.22 178.233 149.66 175.529 152.054C175.064 152.465 174.736 152.176 174.185 151.964C172.384 151.273 170.767 150.652 169.31 150.091C168.614 151.029 168.553 150.939 168.952 151.242C169.007 151.283 169.059 151.323 169.111 151.361C170.004 151.75 171.181 152.255 174.302 153.41C175.64 153.906 176.265 153.166 177.861 151.45C180.553 148.557 178.335 151.104 181.141 147.843C184.614 143.805 184.694 143.847 186.082 142.234C189.831 137.874 187.381 140.356 194.271 132.5C194.607 132.117 194.784 131.806 194.947 131.322C195.074 130.945 194.818 130.602 194.501 130.357C193.446 129.542 193.225 129.669 193.619 129.222C194.709 127.986 194.884 127.781 195.184 127.045L195.183 127.047Z" fill="#35B26A"/>
<path d="M145.337 143.005C145.279 142.931 145.232 142.859 145.195 142.791C144.565 142.527 143.855 142.232 143.15 141.938C143.13 142.018 143.116 142.1 143.108 142.184C143.02 143.199 143.642 144.099 144.288 144.803C145.406 146.021 145.819 146.802 145.282 147.337C144.175 148.441 141.834 147.375 140.998 145.749C140.815 145.394 140.731 145.121 140.282 145.129C139.87 145.137 139.232 145.614 139.334 146.297C139.487 147.329 140.159 147.849 140.882 148.444C141.282 148.774 140.969 148.669 140.223 150.027C139.817 150.765 140.746 151.155 141.392 150.633C141.917 150.209 142.29 149.643 142.312 149.615C142.768 149.018 142.891 149.971 145.021 149.598C147.247 149.209 147.992 147.084 147.41 145.648C146.993 144.62 146.233 144.148 145.338 143.004L145.337 143.005Z" fill="#35B26A"/>
<path d="M85.4525 132.573C84.8245 132.795 84.2085 133.052 83.5725 133.247C89.5485 135.201 95.0915 136.947 95.1535 136.895L95.9635 136.195C96.1895 135.999 95.9515 135.987 85.4525 132.573Z" fill="#35B26A"/>
<path d="M162.559 141.998C162.503 141.965 161.333 141.506 160.607 141.258C160.279 141.61 160.019 141.889 159.81 142.114C160.962 142.481 161.665 142.705 161.698 142.82C161.662 143.12 154.879 150.478 153.223 152.313C149.564 156.368 150.011 156.456 149.187 156.322C148.736 156.248 147.04 155.699 146.313 155.434C143.611 154.448 116.288 143.687 116.174 143.773C115.14 144.544 115.129 144.53 115.166 144.63C115.205 144.733 129.884 149.797 144.499 155.847C149.721 158.008 149.739 158.025 150.89 156.791C151.387 156.258 151.604 156.02 152.37 155.102C154.881 152.089 163.35 143.442 163.14 142.525C163.098 142.344 162.92 142.211 162.558 141.998H162.559Z" fill="#35B26A"/>
<path d="M168.952 151.244C168.48 150.886 168.652 151.076 169.751 149.474C170.381 148.556 170.241 147.812 169.146 147.228C168.404 146.832 168.092 146.874 168.337 146.565C168.594 146.24 169.626 144.709 169.777 144.443C170.124 143.83 169.683 143.317 169.247 143.034C168.296 142.414 168.069 142.56 168.268 142.216C168.797 141.301 169.204 140.549 168.183 139.918C167.553 139.528 165.857 138.905 163.549 138.144C163.299 138.403 163.009 138.705 162.662 139.07C166.884 140.428 168.028 140.584 167.655 141.158C166.551 142.859 163.357 146.199 160.904 149.058C150.452 161.241 150.21 161.794 149.399 161.362C138.493 155.551 114.986 146.849 114.359 146.395C115.178 145.336 118.277 142.645 118.721 142.271C118.915 142.107 119.101 141.874 119.323 141.827C119.515 141.786 119.745 141.982 119.968 142.05C122.81 142.916 126.408 143.866 129.896 142.279C130.593 141.962 131.104 141.445 131.629 140.928C131.779 140.781 132.297 139.744 132.111 138.546C132.03 138.029 131.843 137.532 131.583 137.059C130.972 136.808 130.38 136.566 129.807 136.334C130.107 136.646 130.376 136.991 130.6 137.408C131.281 138.674 131.037 139.875 130.697 140.296C129.679 141.555 128.012 141.839 126.288 142.029C125.591 142.106 123.761 142.12 120.344 141.119C120.009 141.021 120.259 141.036 122.736 138.981C124.327 137.66 126.268 135.995 127.13 135.262C125.943 134.792 124.879 134.377 123.953 134.02C123.849 134.11 123.739 134.203 123.625 134.3C122.878 134.938 123.575 134.241 120.728 136.758C111.933 144.53 110.921 144.992 110.696 146.355C109.996 150.579 110.113 161.045 109.552 161.948C109.498 162.035 109.33 162.128 109.245 162.104C108.988 162.032 108.74 161.918 108.507 161.79C108.357 161.707 108.375 161.165 108.426 160.098C109.079 146.397 108.802 150.022 109.276 146.09C109.495 144.268 110.999 143.298 120.085 135.417C120.894 134.715 121.648 134.058 122.386 133.421C120.886 132.85 119.98 132.515 119.795 132.43C118.983 132.061 118.8 131.788 118.181 132.284C116.986 133.242 116.041 132.511 112.728 131.239C111.689 130.84 110.725 130.263 109.642 129.965C109.467 129.917 109.295 129.86 109.123 129.798C106.33 132.182 102.54 135.4 97.2045 139.783C96.7275 140.175 96.4765 140.66 96.3815 141.248C95.6345 145.892 95.8335 155.145 95.6955 156.622C95.6365 157.258 95.4035 157.382 94.8565 157.076C94.5285 156.892 94.4455 156.653 94.4415 156.309C94.4405 156.19 94.5425 146.349 94.7855 142.821C94.8785 141.465 95.0925 140.678 95.1215 140.524C95.2955 139.583 95.5335 139.298 96.5485 138.459C96.5725 138.439 101.482 134.41 101.506 134.392C105.469 131.432 103.993 132.427 107.788 129.314C107.287 129.157 106.158 128.812 104.736 128.34C99.9175 132.238 94.2675 136.811 92.7795 138.315C92.5965 138.5 92.4725 138.547 92.2265 138.456C88.4655 137.055 84.3195 135.603 80.3505 134.255C79.2925 134.534 78.6845 134.501 78.0355 133.896C77.4555 133.356 77.2525 133.615 76.4155 133.923C76.3545 133.946 76.2175 133.988 76.0095 134.051C82.8865 136.355 90.6465 139.078 91.9035 139.618C92.2145 139.752 92.1235 139.634 92.0445 141.722C92.0705 141.724 92.0675 141.726 92.0305 142.103C92.0185 142.225 91.9885 142.308 91.8305 142.255C86.6115 140.524 77.9395 137.542 71.6315 135.361C71.0485 135.539 70.4185 135.733 69.7435 135.943C70.4565 136.193 71.2605 136.474 72.1695 136.787C92.0245 143.627 92.0065 143.266 91.9985 143.702C91.9985 143.723 91.9425 145.435 91.9635 145.435C91.9525 145.561 91.9375 145.687 91.9325 145.814C91.9125 146.348 91.1815 145.613 89.4945 145.064C87.2585 144.338 86.7525 143.826 82.0065 142.327C80.4325 141.83 74.0565 139.868 71.5765 139.049C69.6825 138.424 67.5145 137.801 65.6225 137.25C65.0705 137.429 64.4995 137.614 63.9135 137.807C64.7345 138.082 67.0505 138.769 68.7365 139.309C69.7795 139.643 70.8045 140.036 71.8535 140.347C73.0925 140.714 74.3355 141.074 75.5475 141.523C77.1205 142.106 83.5965 143.865 84.6055 144.303C86.9195 145.306 87.5975 145.423 91.5865 147.011C91.8165 147.103 91.9105 147.24 91.8865 147.51C91.6485 150.23 91.9685 150.038 91.3985 149.831C91.1935 149.757 63.9075 140.275 61.7545 139.375C61.2115 139.148 62.3415 138.741 62.9945 138.11C62.0305 138.43 61.0255 138.767 59.9835 139.122C59.7645 139.783 60.7455 140.283 61.6945 140.6C63.2665 141.124 62.5445 140.76 59.8695 142.802C59.4025 143.158 59.0445 144.012 59.4535 144.439C60.1015 145.115 61.1355 145.281 61.7715 145.5C71.7985 148.941 71.3365 148.733 72.2035 148.933C73.9305 149.331 76.6005 150.441 79.2215 151.35C91.4855 155.603 90.1585 155.348 91.4315 155.754C91.7385 155.852 91.6685 155.792 91.7945 156.588C91.8705 157.069 92.0615 157.483 92.5405 157.7C93.4705 158.12 94.3815 158.586 95.3335 158.953C98.7225 160.261 102.115 161.272 102.726 161.472C103.288 161.656 103.828 161.909 104.396 162.066C105.478 162.365 106.442 162.943 107.48 163.343C110.791 164.619 111.736 165.352 112.932 164.394C113.551 163.899 113.734 164.172 114.546 164.542C115.134 164.81 122.938 167.601 134.03 172.46C134.737 172.77 139.816 174.867 141.516 175.6C143.405 176.414 143.342 176.573 148.329 178.656C149.646 179.206 150.3 178.493 151.965 176.844C154.773 174.064 152.453 176.518 155.39 173.374C159.026 169.482 159.104 169.527 160.557 167.973C164.482 163.771 161.932 166.149 169.139 158.583C169.491 158.214 169.681 157.911 169.863 157.434C170.006 157.062 169.763 156.709 169.457 156.451C168.436 155.593 168.21 155.712 168.622 155.281C169.762 154.091 169.945 153.893 170.275 153.17C170.646 152.358 170.137 152.14 168.955 151.244H168.952ZM91.7915 151.343C91.7115 152.347 91.7215 151.992 91.7645 154.215C91.7115 154.84 92.0855 154.716 88.4425 153.303C87.7395 153.031 87.0235 152.789 86.3225 152.512C85.5695 152.215 84.8295 151.888 84.0785 151.593C79.7525 149.893 70.8445 147.261 64.3865 144.914C63.4615 144.578 62.3335 144.301 61.2535 143.894C60.7725 143.712 61.0295 143.408 61.3565 143.197C61.5175 143.093 63.6295 141.764 64.0215 141.595C64.1715 141.53 64.3065 141.523 64.4795 141.572C67.6095 142.451 82.8965 148.129 91.5745 151.014C91.7405 151.069 91.8055 151.174 91.7925 151.344L91.7915 151.343ZM106.331 145.462C104.886 144.992 102.727 144.157 98.0585 142.156C97.4435 141.893 97.7615 140.989 98.6045 141.236C100.757 141.864 107.045 144.267 107.972 144.77C108.428 145.017 107.95 145.99 106.332 145.463L106.331 145.462ZM113.629 148.857C113.752 147.421 113.637 147.317 114.162 147.514C130.919 153.782 138.379 157.392 149.112 162.211C149.733 162.49 150.279 162.524 150.748 162.028C151.264 161.482 153.78 158.967 154.969 157.59C158.817 153.132 160.563 150.626 163.388 147.697C167.779 143.146 167.145 142.959 168.025 143.412C168.678 143.748 169.078 143.903 168.721 144.458C166.931 147.236 167.161 146.429 162.489 152.005C160.055 154.91 162.287 152.757 150.685 164.84C150.474 165.06 150.278 165.107 149.968 164.965C148.141 164.129 144.283 162.507 141.425 161.199C139.279 160.217 136.615 158.766 132.183 157.31C124.422 154.761 125.622 154.656 113.85 150.338C113.445 150.19 113.502 150.344 113.629 148.855V148.857ZM113.349 151.92C113.411 151.199 113.356 151.264 114.203 151.59C118.685 153.313 118.755 153.198 120.209 153.838C128.109 157.311 130.217 157.756 131.817 158.324C138.389 160.657 139.633 161.624 143.556 163.366C150.223 166.327 149.9 166.339 150.561 166.051C151.082 165.823 151.532 165.486 151.929 165.09C153.117 163.906 160.735 155.694 161.896 154.172C163.761 151.724 163.107 152.518 167.319 147.704C167.731 147.233 167.644 147.336 168.025 147.581C168.785 148.069 169.19 148.223 168.845 148.755C167.726 150.485 167.966 149.915 164.745 153.927C162.719 156.45 162.215 156.571 160.447 158.726C159.913 159.376 157.911 161.493 157.12 162.359C152.462 167.457 152.31 167.298 150.739 168.554C149.869 169.249 149.53 169.083 148.957 168.892C148.289 168.67 147.405 168.05 146.243 167.565C140.064 164.988 128.126 159.632 124.366 158.42C123.448 158.124 118.336 156.375 117.444 156.008C113.274 154.296 113.281 154.584 113.282 154.198C113.29 151.953 113.239 153.222 113.35 151.923L113.349 151.92ZM168.634 157.382C165.559 161.158 152.408 175.069 149.607 177.35C149.126 177.742 148.81 177.438 148.268 177.204C128.635 168.728 131.306 169.764 124.162 166.992C120.065 165.403 117.235 164.167 115.505 163.476C113.483 162.669 112.912 162.528 112.924 162.323C112.967 161.511 113 160.699 113.036 159.885H112.994C113.045 159.29 113.009 159.101 113.319 159.217C113.343 159.226 125.896 164.149 125.964 164.172C127.392 164.675 130.951 166.135 133.034 167.114C134.14 167.633 135.333 167.952 136.399 168.565C137.27 169.066 138.286 169.208 142.846 171.312C147.473 173.447 149.693 174.784 150.596 174.058C154.762 170.707 165.811 158.21 167.473 156.444C167.597 156.313 167.68 156.305 167.819 156.444C168.52 157.145 168.831 157.14 168.635 157.381L168.634 157.382ZM165.21 157.639C163.516 159.491 152.674 171.091 150.827 172.497C150.195 172.977 150.04 173.416 149.363 173.1C148.333 172.62 144.352 170.948 141.849 169.862C137.285 167.883 136.941 167.613 136.036 167.259C130.875 165.244 133.394 166.073 127.662 163.798C114.887 158.728 115.507 158.93 114.9 158.694C112.73 157.852 113.035 158.705 113.228 156.029C113.303 154.999 112.846 155.26 118.466 157.367C125.684 160.074 118.8 156.648 146.007 168.842C150.215 170.728 149.89 170.498 150.9 169.738C155.264 166.449 156.739 163.726 164.762 155.316C166.814 153.165 165.966 153.834 167.804 151.937C168.061 151.672 168.162 151.877 169.214 152.777C169.439 152.968 169.458 152.995 165.211 157.637L165.21 157.639Z" fill="#35B26A"/>
<path d="M44.8517 108.048C45.0887 107.759 44.7757 107.636 44.6077 107.152C44.3587 106.432 44.7757 105.971 45.1237 106.093C45.8667 106.352 45.7067 107.156 46.1417 106.983C46.4537 106.859 46.7807 106.719 47.0997 106.698C48.2957 106.62 48.6777 107.579 48.4127 108.08C48.0597 108.751 47.3357 107.989 46.2137 108.743C45.1607 109.452 45.1557 111.04 46.4887 110.659C47.8857 110.26 48.6087 109.733 49.7177 109.734C51.2667 109.735 52.9557 111.225 52.4777 113.434C52.0207 115.548 51.0927 115.303 51.4737 115.95C51.4917 115.981 51.8747 116.539 52.0707 117.186C52.3107 117.98 51.5997 118.694 51.0687 118.04C50.0917 116.837 50.3067 116.587 49.8507 116.833C49.0277 117.279 48.2937 117.706 47.2787 117.459C46.6067 117.296 46.4057 116.525 46.5537 116.14C46.7147 115.721 46.9987 115.745 47.3967 115.71C49.2177 115.547 51.0857 113.78 50.4807 112.339C50.1867 111.641 49.3087 111.73 47.7587 112.307C46.8637 112.64 45.7957 112.877 44.8887 112.414C43.6737 111.794 43.5077 109.684 44.8517 108.048Z" fill="#35B26A"/>
<path d="M97.7808 125.611C97.5068 125.487 97.3268 125.299 97.2088 125.07C97.1318 126.336 97.0768 127.179 97.0738 127.213C97.0438 127.555 96.9438 127.788 96.6028 127.947C96.0348 128.212 95.8118 128.07 95.7998 127.431C95.7898 126.901 95.8978 125.381 96.0218 123.433C95.3068 123.147 93.9668 122.561 84.4548 119.275C84.0228 119.126 83.5898 118.971 83.1588 118.815C83.1498 119.983 83.0568 122.186 82.8468 129.948C82.8178 131.016 82.7958 131.558 82.6398 131.629C82.3978 131.74 82.1418 131.835 81.8808 131.888C81.7948 131.906 81.6338 131.8 81.5858 131.709C81.1668 130.904 81.7598 123.175 81.7038 118.281C80.5368 117.851 79.4328 117.446 78.4898 117.156C78.5088 117.365 78.4898 117.735 78.4968 118.349C78.5118 119.844 78.5808 119.694 78.1658 119.811C66.1048 123.238 67.2928 123.432 59.3638 125.395C54.8358 126.516 52.0708 127.763 49.8578 128.583C46.9098 129.674 42.9418 131.003 41.0568 131.701C40.7378 131.819 40.5458 131.757 40.3518 131.522C29.6838 118.606 31.7488 120.919 29.5388 117.841C25.2958 111.932 25.4648 112.754 23.8868 109.85C23.5718 109.269 23.9828 109.145 24.6588 108.859C25.5698 108.472 24.9238 108.612 28.9628 113.478C31.5618 116.609 33.1158 119.239 36.6198 123.972C37.7028 125.434 40.0238 128.129 40.4978 128.712C40.9288 129.242 41.4758 129.249 42.1158 129.017C53.1558 125.021 60.8558 121.982 77.9608 117.001C77.7778 116.95 77.6018 116.905 77.4348 116.867C77.0498 116.779 76.9268 116.771 76.0298 116.488C70.0028 118.385 51.4168 123.957 41.8938 128.151C41.0518 128.522 40.8528 127.951 31.3388 115.023C29.1058 111.989 26.1708 108.419 25.1958 106.641C24.8428 105.997 26.1888 105.963 31.2938 104.696C37.1718 103.236 41.8578 102.266 46.6328 101.165C46.3248 100.764 46.0808 100.441 45.8768 100.165C37.1398 102.203 26.6238 104.398 24.7608 105.365C23.6958 105.918 24.0458 106.698 24.5048 107.65C24.6778 108.008 24.4618 107.845 23.4678 108.393C23.0128 108.643 22.5338 109.121 22.8338 109.759C22.9638 110.035 23.8788 111.64 24.1108 111.982C24.3318 112.309 24.0238 112.244 23.2548 112.583C22.1188 113.084 21.9238 113.815 22.4838 114.778C23.4608 116.457 23.6458 116.28 23.1488 116.602C21.9028 117.407 21.3798 117.587 21.6888 118.425C21.9638 119.17 22.1318 119.381 23.1798 120.653C23.5588 121.113 23.3418 120.979 22.2598 121.758C21.9348 121.992 21.6668 122.326 21.7818 122.708C21.9278 123.197 22.0948 123.514 22.4178 123.908C29.0398 131.991 26.6738 129.429 30.2748 133.912C31.6078 135.571 31.6888 135.532 35.0248 139.684C37.7188 143.038 35.5888 140.417 38.1808 143.4C39.7188 145.169 40.3178 145.929 41.6718 145.478C46.7998 143.773 46.7488 143.61 48.6938 142.939C50.4438 142.335 55.6638 140.623 56.3928 140.367C67.8158 136.349 75.8068 134.148 76.4128 133.925C77.2498 133.617 77.4528 133.358 78.0328 133.898C79.1548 134.942 80.1508 134.282 83.5478 133.256C84.6128 132.935 85.6178 132.431 86.7188 132.213C87.2978 132.099 87.8548 131.887 88.4278 131.745C89.0528 131.591 92.5108 130.835 95.9878 129.785C96.9638 129.49 97.9078 129.094 98.8658 128.744C99.3588 128.564 99.5808 128.166 99.6918 127.691C99.8768 126.905 99.8028 126.961 100.116 126.886C100.239 126.857 100.338 126.832 100.428 126.807C99.5288 126.451 98.6618 126.012 97.7788 125.614L97.7808 125.611ZM78.1948 131.833C78.1908 132.038 77.6118 132.136 75.5348 132.79C73.7578 133.349 70.8438 134.37 66.6398 135.649C59.3088 137.88 62.0498 137.047 41.8388 144.033C41.2808 144.226 40.9428 144.504 40.4928 144.078C37.8698 141.594 25.7938 126.741 23.0088 122.745C22.8308 122.49 23.1408 122.518 23.8928 121.871C24.0418 121.743 24.1238 121.757 24.2378 121.896C25.7638 123.782 35.8488 137.069 39.7528 140.721C40.5988 141.513 42.9118 140.345 47.6858 138.561C52.3908 136.803 53.4148 136.738 54.3208 136.303C55.4298 135.771 56.6438 135.542 57.7848 135.107C59.9348 134.287 63.5928 133.096 65.0548 132.701C65.1238 132.682 78.0098 128.711 78.0338 128.703C78.3518 128.611 78.3018 128.797 78.3078 129.393C78.3078 129.393 78.2138 131.017 78.1958 131.831L78.1948 131.833ZM76.4948 128.067C75.8718 128.256 76.5048 128.102 63.3868 132.204C57.5018 134.045 60.0748 133.406 54.7778 135.03C53.8488 135.315 53.4858 135.559 48.7868 137.191C46.2098 138.087 42.1148 139.457 41.0518 139.859C40.3538 140.124 40.2308 139.674 39.6368 139.148C37.8998 137.608 27.9548 125.231 26.4028 123.258C22.5138 118.312 22.5348 118.287 22.7728 118.112C23.8888 117.294 24.0048 117.096 24.2418 117.38C25.9328 119.408 25.1368 118.678 27.0228 120.976C34.3948 129.962 35.6628 132.788 39.7698 136.393C40.7188 137.227 40.3778 137.431 44.7158 135.865C72.7578 125.736 65.6368 128.638 73.0368 126.478C78.7978 124.796 78.3628 124.501 78.3598 125.534C78.3538 128.217 78.7218 127.389 76.4948 128.067ZM78.4458 123.7C78.4188 124.085 78.4458 123.798 74.1608 125.194C73.2438 125.493 68.0158 126.856 67.0778 127.083C63.2368 128.01 50.9328 132.46 44.5788 134.569C43.3828 134.965 42.4558 135.518 41.7728 135.69C41.1878 135.837 40.8368 135.979 40.0218 135.22C38.5488 133.851 38.3858 133.998 34.1208 128.566C33.3958 127.643 31.5578 125.383 31.0738 124.694C29.4718 122.414 28.9788 122.256 27.1468 119.588C24.2348 115.346 24.4308 115.933 23.4448 114.124C23.1408 113.567 23.5558 113.444 24.3498 113.014C24.7478 112.799 24.6688 112.689 25.0448 113.19C28.8858 118.305 28.2938 117.464 29.9698 120.044C31.0128 121.649 37.9978 130.407 39.0938 131.676C39.4598 132.1 39.8848 132.47 40.3868 132.737C41.0238 133.074 40.7028 133.038 47.5728 130.583C51.6148 129.139 52.9278 128.269 59.6558 126.432C61.2938 125.985 63.4288 125.699 71.5668 122.826C73.0648 122.297 73.1258 122.416 77.7238 121.033C78.5928 120.771 78.5438 120.702 78.5508 121.426C78.5648 122.731 78.6088 121.461 78.4488 123.7H78.4458Z" fill="#35B26A"/>
<path d="M70.7717 114.733C62.4177 117.27 47.3987 121.908 45.4107 122.469C44.6657 122.679 42.9347 123.1 42.4787 123.14C41.6467 123.212 42.0997 123.158 38.7537 118.841C37.2397 116.887 31.0247 109.043 31.0117 108.742C31.1117 108.47 35.1237 107.865 40.0217 106.204C42.0187 105.526 44.8287 104.782 48.3157 104.132C48.5537 104.088 48.7407 104.053 48.9147 104.018C48.6177 103.659 48.3757 103.368 48.1007 103.029C46.4897 103.367 45.0827 103.597 42.7707 104.272C36.3937 106.133 37.7307 106.019 32.5147 107.191C31.8617 107.337 30.2807 107.823 30.2137 107.857C29.8377 108.042 29.6487 108.162 29.5937 108.339C29.3157 109.238 37.1147 118.493 39.3947 121.685C40.0897 122.658 40.2887 122.912 40.7447 123.479C41.7997 124.795 41.8197 124.78 47.1887 123.015C57.0917 119.759 66.9887 116.931 72.6007 115.352C72.0627 115.17 71.4567 114.965 70.7707 114.731L70.7717 114.733Z" fill="#35B26A"/>
<path d="M152.362 108.357C152.719 108.468 152.715 108.131 153.1 107.793C153.673 107.29 154.257 107.503 154.276 107.871C154.317 108.657 153.511 108.812 153.836 109.149C154.069 109.391 154.321 109.641 154.461 109.929C154.985 111.007 154.241 111.722 153.677 111.667C152.923 111.593 153.355 110.635 152.233 109.881C151.179 109.173 149.707 109.768 150.563 110.859C151.46 112.002 152.22 112.473 152.638 113.501C153.222 114.936 152.479 117.062 150.253 117.454C148.123 117.829 147.999 116.877 147.544 117.474C147.522 117.502 147.15 118.068 146.625 118.493C145.98 119.015 145.051 118.626 145.456 117.888C146.201 116.529 146.514 116.634 146.114 116.305C145.391 115.711 144.718 115.192 144.563 114.16C144.461 113.476 145.099 112.999 145.51 112.991C145.959 112.982 146.043 113.255 146.226 113.609C147.064 115.234 149.406 116.297 150.512 115.192C151.048 114.657 150.634 113.877 149.515 112.659C148.868 111.956 148.246 111.056 148.333 110.041C148.449 108.682 150.339 107.73 152.362 108.357Z" fill="#35B26A"/>
<path d="M98.2421 102.941C96.7411 103.394 96.0231 103.481 95.2531 102.749C94.6891 102.213 94.4801 102.454 93.6711 102.746C97.4781 103.963 100.327 104.842 100.371 104.805L101.18 104.104C101.328 103.975 101.278 103.926 98.2421 102.941Z" fill="#35B26A"/>
<path d="M168.366 110.359C168.324 110.178 168.145 110.045 167.783 109.833C167.719 109.795 166.178 109.194 165.537 109C160.422 107.447 161.747 107.66 155.524 105.334C151.575 103.858 150.288 103.946 145.96 102.202C144.247 101.512 137.266 99.0746 136.767 98.8256C136.73 98.8066 136.685 98.8136 136.655 98.8416C135.836 99.5936 135.752 99.6166 135.774 99.7166C135.801 99.8316 135.796 99.6656 144.406 102.841C148.928 104.508 148.681 104.437 150.004 104.787C153.434 105.691 156.182 106.64 158.123 107.463C162.886 109.48 166.842 110.378 166.922 110.656C166.887 110.956 160.112 118.321 158.458 120.158C154.803 124.217 155.251 124.305 154.427 124.171C153.976 124.098 152.28 123.551 151.552 123.287C148.849 122.304 121.514 111.574 121.4 111.66C120.383 112.42 120.355 112.418 120.393 112.518C120.432 112.621 135.116 117.669 149.738 123.702C154.962 125.857 154.981 125.874 156.13 124.639C156.626 124.106 156.843 123.868 157.608 122.949C160.116 119.933 168.575 111.277 168.364 110.36L168.366 110.359Z" fill="#35B26A"/>
<path d="M175.509 120.996C175.879 120.184 175.37 119.966 174.187 119.071C173.715 118.714 173.886 118.903 174.984 117.3C175.613 116.381 175.472 115.637 174.376 115.054C173.634 114.659 173.322 114.701 173.566 114.392C173.823 114.067 174.853 112.535 175.003 112.268C175.35 111.654 174.907 111.142 174.472 110.859C173.52 110.24 173.293 110.386 173.492 110.042C174.02 109.127 174.426 108.375 173.405 107.745C171.347 106.476 157.947 102.736 148.974 99.8118C148.307 99.5948 147.656 99.3268 146.99 99.1148C141.523 97.3798 141.271 97.5318 141.293 96.9568C141.356 95.3168 138.914 94.6158 134.621 93.1068C134.173 92.9488 133.206 92.7538 131.604 92.1738C131.057 92.3228 130.503 92.4718 129.952 92.6118C117.379 95.8088 118.67 95.6738 117.411 95.9618C117.097 96.0328 117.171 95.9788 116.978 96.7608C116.86 97.2358 116.636 97.6308 116.139 97.8058C115.177 98.1468 114.227 98.5338 113.249 98.8188C113.129 98.8538 113.009 98.8888 112.889 98.9228C110.269 101.157 106.889 104.013 102.426 107.689C101.95 108.082 101.699 108.567 101.605 109.155C100.863 113.799 101.072 123.052 100.937 124.53C100.878 125.166 100.646 125.291 100.098 124.985C99.77 124.801 99.687 124.562 99.682 124.218C99.681 124.099 99.772 114.258 100.011 110.729C100.103 109.373 100.316 108.586 100.344 108.432C100.517 107.491 100.755 107.206 101.768 106.366C101.792 106.346 106.696 102.311 106.72 102.294C108.869 100.685 109.417 100.243 110.075 99.6768C107.874 100.23 106.1 100.6 105.668 100.702C105.093 100.837 104.533 101.044 103.954 101.153C103.934 101.157 103.915 101.161 103.896 101.165C101.171 103.405 98.87 105.345 97.998 106.227C97.815 106.412 97.691 106.46 97.445 106.369C95.123 105.507 92.653 104.625 90.17 103.761C89.593 103.929 88.935 104.123 88.19 104.345C92.592 105.86 96.289 107.174 97.123 107.532C97.434 107.665 97.343 107.547 97.267 109.636C97.293 109.638 97.29 109.64 97.254 110.017C97.242 110.139 97.212 110.222 97.054 110.169C93.588 109.023 88.601 107.329 83.793 105.683C83.198 105.867 82.571 106.062 81.911 106.269C97.246 111.486 97.231 111.216 97.224 111.615C97.224 111.636 97.17 113.348 97.191 113.348C97.18 113.474 97.165 113.6 97.16 113.727C97.141 114.261 96.409 113.526 94.721 112.98C92.485 112.256 91.978 111.745 87.23 110.251C85.901 109.833 81.148 108.374 78.207 107.439C77.598 107.633 76.968 107.835 76.317 108.045C76.569 108.128 76.821 108.207 77.076 108.282C78.315 108.648 79.558 109.006 80.772 109.454C82.346 110.036 88.823 111.787 89.833 112.224C92.149 113.224 92.827 113.341 96.817 114.924C97.048 115.015 97.141 115.153 97.118 115.423C96.883 118.143 97.203 117.951 96.632 117.744C96.478 117.688 81.029 112.339 72.443 109.302C71.902 109.479 71.348 109.66 70.782 109.846C75.438 111.351 88.882 116.3 96.811 118.927C96.977 118.982 97.042 119.086 97.029 119.256C96.95 120.26 96.959 119.905 97.005 122.128C96.953 122.753 97.327 122.628 93.682 121.22C92.979 120.948 92.263 120.708 91.561 120.431C90.808 120.135 90.067 119.808 89.316 119.514C84.988 117.819 76.077 115.197 69.617 112.857C68.691 112.522 67.564 112.247 66.483 111.84C66.112 111.7 66.18 111.488 66.379 111.301C66.194 111.363 66.008 111.425 65.821 111.487C65.279 111.668 64.892 111.811 64.505 111.959C64.516 112.121 64.57 112.27 64.682 112.387C65.33 113.062 66.365 113.228 67.001 113.446C77.032 116.876 76.57 116.669 77.437 116.867C79.164 117.263 81.836 118.37 84.458 119.276C96.727 123.515 95.4 123.261 96.673 123.666C96.98 123.764 96.91 123.703 97.037 124.5C97.113 124.981 97.305 125.395 97.784 125.611C98.714 126.03 99.627 126.495 100.578 126.861C103.969 128.165 107.361 129.172 107.973 129.372C108.535 129.556 109.075 129.808 109.643 129.964C110.725 130.262 111.69 130.839 112.729 131.238C116.042 132.51 116.987 133.242 118.182 132.283C118.801 131.787 118.984 132.06 119.796 132.429C120.384 132.696 128.192 135.478 139.288 140.325C139.996 140.634 145.076 142.725 146.777 143.457C148.667 144.269 148.604 144.428 153.593 146.505C154.91 147.054 155.564 146.34 157.227 144.689C160.032 141.906 157.715 144.362 160.648 141.215C164.28 137.319 164.358 137.364 165.809 135.808C169.729 131.601 167.182 133.983 174.38 126.409C174.731 126.04 174.921 125.737 175.103 125.26C175.245 124.888 175.003 124.535 174.696 124.278C173.674 123.421 173.448 123.54 173.86 123.109C174.998 121.918 175.182 121.72 175.511 120.997L175.509 120.996ZM174.076 116.579C172.959 118.31 173.198 117.74 169.982 121.756C167.959 124.282 167.455 124.403 165.69 126.56C165.157 127.211 163.157 129.33 162.367 130.197C157.714 135.301 157.562 135.142 155.993 136.399C155.124 137.095 154.784 136.929 154.212 136.739C153.543 136.517 152.659 135.898 151.496 135.415C145.314 132.845 133.37 127.502 129.608 126.295C128.689 126 123.576 124.256 122.683 123.891C118.512 122.184 118.518 122.472 118.519 122.086C118.524 119.841 118.475 121.11 118.584 119.811C118.645 119.09 118.59 119.155 119.438 119.48C123.922 121.198 123.991 121.083 125.446 121.721C133.35 125.185 135.459 125.628 137.06 126.194C143.634 128.52 144.88 129.485 148.804 131.222C155.474 134.176 155.152 134.188 155.812 133.899C156.333 133.67 156.783 133.333 157.179 132.936C158.365 131.751 165.975 123.531 167.133 122.006C168.995 119.556 168.342 120.351 172.549 115.532C172.96 115.061 172.874 115.164 173.255 115.408C174.015 115.895 174.42 116.048 174.076 116.581V116.579ZM173.948 112.285C172.161 115.065 172.391 114.258 167.724 119.839C165.294 122.746 167.523 120.591 155.934 132.687C155.723 132.907 155.527 132.955 155.217 132.813C153.389 131.979 149.529 130.361 146.67 129.057C144.523 128.077 141.857 126.629 137.424 125.179C129.66 122.638 130.86 122.532 119.083 118.228C118.678 118.08 118.736 118.234 118.861 116.745C118.982 115.309 118.867 115.205 119.392 115.401C136.156 121.65 143.621 125.252 154.359 130.059C154.98 130.337 155.526 130.371 155.994 129.874C156.51 129.327 159.023 126.81 160.21 125.432C164.053 120.97 165.796 118.461 168.618 115.53C173.004 110.974 172.37 110.787 173.25 111.24C173.903 111.575 174.305 111.73 173.948 112.285ZM139.423 97.6698C149.759 101.62 156.424 103.149 166.94 106.599C171.938 108.239 173.278 108.372 172.878 108.988C171.775 110.69 168.586 114.033 166.136 116.895C155.698 129.089 155.457 129.644 154.645 129.212C143.732 123.413 120.216 114.737 119.589 114.284C120.407 113.224 123.503 110.529 123.946 110.155C124.14 109.991 124.325 109.758 124.547 109.711C124.739 109.67 124.969 109.866 125.192 109.933C128.035 110.796 131.634 111.743 135.12 110.151C135.817 109.833 136.327 109.315 136.851 108.798C137.001 108.65 137.518 107.613 137.33 106.416C137.05 104.635 135.507 103.088 134.09 101.954C133.913 101.812 133.821 101.827 134.264 101.46C138.955 97.5848 138.851 97.4508 139.423 97.6698ZM127.955 106.86C129.887 105.253 132.334 103.136 132.736 102.804C132.954 102.624 133.239 102.654 133.457 102.839C134.373 103.617 135.244 104.214 135.818 105.279C136.5 106.544 136.257 107.746 135.918 108.167C134.902 109.427 133.235 109.713 131.511 109.905C130.814 109.983 128.985 109.999 125.566 109.001C125.231 108.903 125.481 108.918 127.955 106.86ZM111.559 113.359C110.113 112.89 107.954 112.058 103.283 110.062C102.668 109.799 102.985 108.895 103.828 109.141C105.981 109.766 112.271 112.163 113.199 112.664C113.655 112.91 113.178 113.884 111.559 113.359ZM115.923 114.247C115.228 118.472 115.356 128.938 114.797 129.841C114.743 129.928 114.575 130.022 114.49 129.998C114.233 129.926 113.985 129.813 113.752 129.685C113.602 129.602 113.62 129.06 113.669 127.993C114.306 114.291 114.034 117.917 114.503 113.984C114.72 112.161 116.223 111.19 125.3 103.298C128.299 100.691 130.557 98.6808 133.95 96.1328C134.799 95.4948 135.298 94.5368 136.062 95.1138C136.132 95.1668 136.225 95.1838 136.306 95.2228C137.115 95.6188 136.145 96.1728 135.494 96.6838C130.689 100.457 132.85 98.7468 128.839 102.178C128.092 102.817 128.789 102.119 125.945 104.639C117.159 112.421 116.148 112.884 115.924 114.247H115.923ZM173.876 125.209C170.805 128.988 157.669 142.914 154.871 145.198C154.39 145.59 154.074 145.287 153.532 145.054C133.889 136.6 136.561 137.633 129.414 134.869C125.315 133.284 122.484 132.052 120.753 131.363C118.73 130.558 118.159 130.418 118.17 130.213C118.212 129.401 118.244 128.588 118.279 127.774H118.237C118.287 127.179 118.251 126.99 118.561 127.106C118.585 127.115 131.144 132.023 131.211 132.047C132.64 132.548 136.2 134.005 138.284 134.981C139.39 135.499 140.584 135.816 141.651 136.429C142.522 136.929 143.539 137.07 148.101 139.169C152.73 141.299 154.952 142.633 155.853 141.906C160.015 138.551 171.05 126.041 172.71 124.273C172.834 124.142 172.917 124.134 173.056 124.273C173.758 124.973 174.069 124.968 173.873 125.21L173.876 125.209ZM170.453 125.47C168.761 127.324 157.932 138.936 156.087 140.344C155.456 140.825 155.301 141.264 154.624 140.949C153.594 140.47 149.611 138.802 147.106 137.72C142.54 135.747 142.195 135.477 141.29 135.124C136.127 133.115 138.646 133.941 132.912 131.672C120.132 126.616 120.752 126.818 120.144 126.583C117.973 125.744 118.279 126.596 118.469 123.92C118.542 122.89 118.086 123.152 123.709 125.253C130.93 127.951 124.042 124.534 151.263 136.697C155.473 138.578 155.148 138.349 156.156 137.588C160.517 134.294 161.989 131.57 170.002 123.15C172.052 120.997 171.204 121.667 173.04 119.768C173.297 119.502 173.398 119.708 174.451 120.606C174.676 120.797 174.695 120.823 170.453 125.47Z" fill="#35B26A"/>
<path d="M62.9882 80.1732C65.8122 79.6072 66.1672 79.4772 66.9012 79.4962C68.9652 79.5492 70.8712 81.3032 69.5662 83.5092C68.7452 84.8982 67.9032 84.7282 68.2922 85.1662C68.4102 85.2992 68.6902 85.7802 68.7542 85.9612C69.0362 86.7652 68.1682 87.4132 67.5482 86.6932C66.8582 85.8922 66.9142 85.5932 66.5922 85.7372C65.7892 86.0952 64.7372 86.4472 63.8832 86.2142C62.6902 85.8892 62.6592 85.0452 63.3082 84.6532C64.2032 84.1112 64.7902 84.4752 66.3552 83.6532C66.8452 83.3962 67.5982 83.0452 67.8732 82.3462C68.0062 82.0082 67.9052 81.7942 67.5662 81.6582C67.4052 81.5932 67.2132 81.5352 67.0482 81.5582C64.5532 81.9002 63.5352 82.3382 61.7632 81.8852C59.6572 81.3472 59.6062 78.8812 61.3822 77.3552C61.5692 77.1942 61.4732 77.1612 61.0442 76.3142C60.5802 75.3972 61.8872 74.5562 62.6122 76.1592C62.8762 76.7432 62.8392 76.0802 64.5522 76.2072C65.6022 76.2852 66.1482 77.1282 65.7892 77.7052C65.2812 78.5232 64.3422 77.2602 62.7532 78.4262C62.4982 78.6132 62.2822 78.8742 62.0982 79.1362C61.7842 79.5822 61.9982 80.0292 62.5472 80.1142C62.6892 80.1362 62.8372 80.1182 62.9802 80.1182L62.9892 80.1722L62.9882 80.1732Z" fill="#35B26A"/>
<path d="M117.99 62.7411C118.277 62.4511 117.853 62.3121 117.583 61.8001C117.17 61.0181 117.692 60.5451 118.178 60.6981C119.191 61.0171 119.043 61.8511 119.596 61.6911C119.99 61.5771 120.4 61.4471 120.805 61.4411C122.817 61.4101 123.004 63.1961 121.857 63.1481C121.766 63.1441 121.665 63.1611 121.587 63.1281C121.082 62.9201 120.625 63.1171 120.182 63.3091C119.483 63.6121 119.073 64.0971 118.915 64.6311C118.749 65.1881 119.577 65.4261 120.195 65.2861C121.854 64.9121 122.758 64.4471 124.034 64.4541C125.757 64.4641 127.508 65.7611 126.959 67.6011C126.454 69.2931 125.513 69.1511 125.896 69.6331C125.913 69.6551 126.288 70.0621 126.471 70.5351C126.691 71.1051 125.986 71.6761 125.471 71.2381C124.485 70.3991 124.706 70.1921 124.236 70.4101C123.382 70.8071 122.927 71.2541 121.514 71.0721C120.771 70.9771 120.504 70.3931 120.649 70.0751C121.177 68.9231 123.473 69.3351 124.922 67.4731C125.122 67.2161 125.252 66.9221 125.072 66.6241C124.449 65.5911 121.215 67.9041 118.428 66.9531C116.832 66.4081 116.376 64.3701 117.99 62.7411Z" fill="#35B26A"/>
<path d="M94.635 82.6858L93.973 82.0239C93.948 81.9989 93.91 81.9879 93.875 81.9979C83.163 84.9619 80.878 85.3959 69.004 89.1159C67.389 89.6219 61.534 91.4929 59.808 91.6279C58.976 91.6929 59.432 91.6489 56.126 87.2909C51.547 81.2539 51.272 81.1268 48.511 77.1588C48.303 76.8588 52.23 76.4019 57.526 74.6679C59.503 74.0199 62.378 73.2869 65.84 72.6829C69.262 72.0809 79.769 68.7778 80.358 68.6728C80.454 68.6568 80.471 68.5249 80.382 68.4849C80.132 68.3669 80.057 68.0129 79.701 67.7529C79.553 67.6439 78.867 68.1189 73.798 69.4319C68.551 70.7959 69.082 70.9229 64.642 71.7789C57.979 73.0609 56.994 74.0918 50.001 75.5888C49.329 75.7328 47.75 76.2049 47.696 76.2299C46.916 76.5889 46.936 76.7569 47.276 77.3729C48.577 79.7289 55.061 87.7769 56.506 89.8279C57.121 90.7069 57.385 91.1019 58.062 91.9609C59.557 93.8569 58.881 93.0329 75.411 88.2418C82.535 86.1779 94.625 82.9178 94.66 82.7828C94.668 82.7488 94.659 82.7129 94.634 82.6879L94.635 82.6858Z" fill="#35B26A"/>
<path d="M148.512 79.9861C149.012 79.8091 149.723 79.6731 150.352 79.3741C151.043 79.0461 150.69 78.2281 150.221 77.8561C149.312 77.1341 148.599 76.8761 147.725 76.2581C147.878 76.2061 148.03 76.1541 148.182 76.1031C148.215 76.0921 148.256 76.1011 148.289 76.0901C148.679 75.9581 149.084 75.8501 149.458 75.6801C150.151 75.3661 150.303 74.5931 149.756 74.0841C149.064 73.4391 148.809 73.3941 147.994 72.9391C147.894 72.8831 147.889 72.7731 148.025 72.7341C148.095 72.7141 148.171 72.7291 148.241 72.7101C148.783 72.5601 149.361 72.5311 149.761 72.0151C150.19 71.4621 150.162 70.9611 149.539 70.5191C137.862 62.2241 138.566 63.3561 133.94 59.8681C130.697 57.4221 131.213 57.6641 129.11 56.2881C128.065 55.6041 126.458 54.7161 126.194 54.5201C124.918 53.5711 122.818 53.8351 112.2 56.4021C106.562 57.7641 104.275 58.2881 98.6659 59.8121C97.8729 60.0271 97.4509 59.1351 96.2469 59.0801C92.5319 59.6381 92.5059 59.7741 89.8949 60.4321C88.7319 60.7251 87.5539 60.9601 86.4109 61.3161C84.0429 62.0521 82.7089 62.1891 82.1489 62.3351C77.7459 63.4841 75.2529 63.9731 75.1779 65.6121C75.1519 66.1851 74.9149 66.0131 69.3199 67.2841C68.6379 67.4391 67.9679 67.6521 67.2859 67.8111C58.0949 69.9601 44.4309 72.5761 42.2749 73.6691C41.2059 74.2111 41.5449 74.9961 41.9959 75.9511C42.1659 76.3111 41.9519 76.1471 40.9509 76.6831C40.4919 76.9291 40.0079 77.4021 40.3019 78.0421C40.4299 78.3211 41.3279 79.9341 41.5559 80.2781C41.7739 80.6071 41.4659 80.5391 40.6939 80.8701C39.5529 81.3601 39.3509 82.0901 39.9009 83.0561C40.8619 84.7441 41.0489 84.5701 40.5479 84.8871C39.2959 85.6801 38.7689 85.8541 39.0689 86.6951C39.3369 87.4421 39.5019 87.6581 40.5369 88.9401C40.9119 89.4041 40.6959 89.2661 39.6049 90.0351C39.2779 90.2661 39.0059 90.5991 39.1169 90.9801C39.2599 91.4701 39.4219 91.7881 39.7419 92.1841C46.3019 100.318 43.9409 97.7501 47.4949 102.269C48.8099 103.941 48.8899 103.905 52.1839 108.09C54.8439 111.47 52.7409 108.828 55.3019 111.838C56.8199 113.621 57.4119 114.388 58.7709 113.952C63.9169 112.301 63.8649 112.136 65.8179 111.485C86.1779 104.698 92.9179 103.009 93.6309 102.757C94.4719 102.459 94.6789 102.201 95.2509 102.746C96.3619 103.802 97.3639 103.153 100.771 102.16C101.838 101.849 102.849 101.357 103.953 101.149C104.532 101.041 105.092 100.834 105.667 100.698C106.294 100.551 109.759 99.8341 113.248 98.8171C114.226 98.5321 115.176 98.1451 116.138 97.8041C116.635 97.6281 116.859 97.2341 116.977 96.7591C117.171 95.9771 117.097 96.0311 117.41 95.9601C118.669 95.6731 117.378 95.8071 129.951 92.6111C132.64 91.9271 135.395 91.0481 137.15 90.7991C138.03 90.6741 137.551 90.8411 147.834 88.2641C148.485 88.1011 149.533 88.0221 150.234 87.4041C150.676 87.0141 150.393 86.1301 149.96 85.7381C147.465 83.4791 146.717 83.7781 148.329 83.3901C149.479 83.1141 150.695 82.5831 149.947 81.6671C149.571 81.2071 148.163 80.2211 148.163 80.1301C148.164 79.9411 148.389 80.0251 148.511 79.9821L148.512 79.9861ZM148.207 74.5681C148.324 74.6621 148.337 74.7121 148.2 74.7971C147.779 75.0581 147.312 75.1891 146.841 75.3111C146.682 75.3531 127.263 80.2961 118.152 82.4891C117.988 82.5281 117.965 82.4431 117.964 82.3211C117.961 81.9401 117.955 81.9401 117.984 81.9401C118.084 79.8521 117.982 79.9631 118.304 79.8561C120.67 79.0691 145.205 72.8871 145.926 73.2201C146.732 73.5931 147.509 74.0121 148.206 74.5681H148.207ZM48.8109 73.0811C59.5769 70.5241 66.3399 69.5371 76.9789 66.4891C77.2719 66.4051 77.3919 66.4111 77.8649 66.8291C79.1149 67.9341 80.7039 69.6251 81.7309 70.6171C82.2279 71.0961 82.1369 71.0621 81.9379 71.1971C80.4339 72.2121 78.7629 73.6211 78.3359 75.3721C77.9249 77.0571 78.7149 78.4301 80.2259 79.2811C83.6569 81.2151 87.4669 80.4631 90.1389 79.9001C90.3659 79.8521 90.6119 79.6771 90.7989 79.7321C91.0559 79.8081 94.6079 83.5651 95.3519 84.7111C94.6899 85.1091 70.5299 91.7881 59.1669 96.6471C58.3199 97.0091 58.1289 96.4381 48.7489 83.4111C46.5479 80.3531 43.6509 76.7541 42.6929 74.9661C42.3469 74.3191 43.6929 74.2981 48.8099 73.0821L48.8109 73.0811ZM82.4429 71.8371C82.6759 71.6711 82.6999 71.6741 82.9019 71.8721C83.2759 72.2361 85.8509 74.8331 87.6409 76.5981C89.9319 78.8561 90.1839 78.8601 89.8399 78.9301C86.3489 79.6381 84.5269 79.4681 83.8399 79.3331C80.5109 78.6791 78.0799 77.2051 79.9349 74.3641C80.5969 73.3511 81.4609 72.5361 82.4409 71.8381L82.4429 71.8371ZM41.3479 78.1551C41.0399 77.5721 41.4519 77.4511 42.1319 77.1711C43.0459 76.7941 42.3999 76.9261 46.3869 81.8331C48.9529 84.9911 50.4789 87.6391 53.9369 92.4061C55.0049 93.8791 57.2969 96.5981 57.7649 97.1861C58.1899 97.7191 58.7379 97.7321 59.3809 97.5081C70.4889 93.6311 78.2199 90.6351 95.4519 85.8311C95.9919 85.6801 95.8719 85.7791 95.8719 87.2181C95.8719 88.7141 95.9369 88.5641 95.5209 88.6771C83.4249 91.9741 84.6129 92.1881 76.6619 94.0691C72.1239 95.1431 69.3449 96.3611 67.1239 97.1571C64.1649 98.2181 60.1849 99.5111 58.2909 100.184C57.9709 100.298 57.7789 100.234 57.5869 99.9961C47.0649 86.9581 49.0939 89.3041 46.9169 86.2051C42.7329 80.2511 42.8889 81.0781 41.3459 78.1541L41.3479 78.1551ZM95.5639 98.2611L95.5209 98.2591C95.5059 99.0721 95.4529 99.8841 95.4269 100.696C95.4199 100.903 94.8429 100.991 92.7599 101.624C90.9739 102.166 88.0519 103.156 83.8359 104.392C76.4819 106.547 79.2289 105.733 58.9489 112.521C58.3889 112.709 58.0489 112.983 57.6029 112.552C55.0069 110.041 43.0809 95.0661 40.3409 91.0411C40.1659 90.7841 40.4759 90.8121 41.2339 90.1761C41.3839 90.0501 41.4669 90.0651 41.5779 90.2071C43.0739 92.1141 53.0319 105.497 56.8979 109.19C57.7339 109.989 60.0599 108.846 64.8509 107.112C69.5719 105.403 70.5979 105.349 71.5079 104.924C72.6229 104.403 73.8359 104.187 74.9839 103.763C77.1419 102.965 80.8099 101.805 82.2769 101.432C82.3469 101.414 95.2729 97.5761 95.2969 97.5691C95.6179 97.4791 95.5639 97.6671 95.5639 98.2611ZM93.7739 96.9151C93.1469 97.0981 93.7809 96.9481 80.6209 100.915C74.7169 102.695 77.2949 102.081 71.9839 103.652C71.0519 103.928 70.6859 104.168 65.9719 105.752C63.3849 106.621 59.2749 107.951 58.2109 108.341C57.5099 108.598 57.3919 108.148 56.8039 107.616C55.0829 106.058 45.2639 93.5791 43.7339 91.5901C39.8959 86.6041 39.9189 86.5791 40.1579 86.4071C41.2829 85.6001 41.4009 85.4061 41.6339 85.6911C43.3049 87.7381 42.5159 86.9981 44.3779 89.3151C51.6579 98.3751 52.8909 101.219 56.9649 104.862C57.8889 105.688 57.5219 105.92 61.9149 104.383C90.0109 94.5531 82.8119 97.3981 90.3319 95.2891C96.1109 93.6681 95.6809 93.3711 95.6669 94.4031C95.6309 97.0861 96.0089 96.2621 93.7739 96.9151ZM95.7669 92.5601C95.7369 92.9431 95.7649 92.6641 91.4639 94.0151C90.5429 94.3051 85.3029 95.6131 84.3629 95.8311C80.5129 96.7241 68.1639 101.046 61.7869 103.085C60.5869 103.469 59.6549 104.013 58.9689 104.176C58.3829 104.315 58.0309 104.454 57.2219 103.688C55.7609 102.303 55.5969 102.449 51.3899 96.9721C50.6759 96.0421 48.8599 93.7621 48.3849 93.0691C46.8089 90.7711 46.3159 90.6111 44.5109 87.9231C41.6429 83.6521 41.8309 84.2411 40.8649 82.4201C40.5689 81.8611 40.9819 81.7421 41.7819 81.3201C42.1819 81.1091 42.1059 81.0001 42.4739 81.5031C46.2529 86.6621 45.6789 85.8111 47.3279 88.4061C48.3549 90.0221 55.2479 98.8491 56.3309 100.131C56.6929 100.559 57.1129 100.932 57.6129 101.205C58.2469 101.549 57.9259 101.509 64.8209 99.1251C68.8779 97.7231 70.1999 96.8671 76.9459 95.0991C78.5899 94.6681 80.7269 94.4051 88.8949 91.6151C90.3979 91.1021 90.4589 91.2221 95.0689 89.8861C95.9399 89.6341 95.8899 89.5641 95.8899 90.2871C95.8899 91.5911 95.9439 90.3221 95.7669 92.5601ZM100.107 98.8551C100.066 99.9241 100.037 100.465 99.8829 100.534C99.6389 100.643 99.3819 100.733 99.1209 100.784C99.0359 100.801 98.8749 100.695 98.8289 100.603C98.3529 99.6531 99.3519 89.2371 99.0139 84.9691C98.9049 83.5931 97.9319 83.0431 89.8279 74.5551C87.2039 71.8061 87.8399 72.5581 87.1499 71.8591C83.4409 68.1011 85.4519 69.9901 80.9809 65.8271C80.3759 65.2641 79.4549 64.6331 80.2949 64.3031C80.3779 64.2711 80.4739 64.2601 80.5479 64.2141C81.3589 63.7051 81.7739 64.6991 82.5689 65.4071C85.7359 68.2281 87.8169 70.4201 90.5869 73.2701C98.9699 81.8951 100.386 82.9871 100.45 84.8231C100.587 88.7821 100.632 85.1481 100.108 98.8541L100.107 98.8551ZM111.91 81.8061C107.09 83.4071 104.693 83.7571 103.215 84.1031C101.551 84.4931 101.791 83.4281 102.267 83.2201C103.232 82.7991 109.293 81.3411 111.487 80.8911C112.603 80.6621 112.303 81.6751 111.909 81.8061H111.91ZM115.166 82.7971C115.115 85.8921 114.368 96.1501 114.358 96.2661C114.327 96.6081 114.223 96.8401 113.881 96.9961C113.31 97.2561 113.089 97.1111 113.084 96.4731C113.073 95.1701 114.075 86.0351 113.709 81.0971C113.665 80.5051 113.455 79.9991 113.014 79.5681C99.7939 66.6291 96.8719 63.0181 94.3319 61.3821C93.4959 60.8441 94.7829 60.2041 95.5119 60.6811C96.3829 61.2511 96.3139 61.0831 100.945 65.6641C101.637 66.3481 101.842 66.7681 102.809 67.7041C107.021 71.7831 105.344 70.3451 109.187 73.8301C109.209 73.8501 113.76 78.2811 113.782 78.3031C114.715 79.2341 114.931 79.5291 115.025 80.4811C115.041 80.6381 115.187 81.4391 115.165 82.7981L115.166 82.7971ZM108.964 69.9851C107.447 68.5541 101.152 62.3151 100.094 61.4221C99.4889 60.9121 99.3369 60.8161 99.6069 60.7431C120.568 55.0691 121.37 55.7141 123.642 55.0861C124.019 54.9821 125.084 55.0441 125.595 55.3691C134.054 60.7331 130.275 58.7361 138.504 64.4451C148.364 71.2861 147.674 70.6261 148.4 71.2391C148.374 71.2461 131.033 75.0231 118.082 78.6671C117.829 78.7381 117.71 78.6801 117.544 78.4791C115.841 76.4301 109.087 70.1011 108.964 69.9851ZM148.437 86.0131C148.746 86.2481 148.975 86.5751 148.481 86.7141C147.37 87.0291 146.223 87.2091 145.273 87.4651C138.641 89.2571 129.538 91.1171 125.086 92.4471C124.315 92.6771 123.548 92.9401 122.773 93.1731C122.05 93.3891 121.316 93.5691 120.593 93.7801C116.843 94.8751 117.202 95.0321 117.202 94.4051C117.435 92.1951 117.417 92.5481 117.42 91.5411C117.42 91.1261 117.37 91.3591 123.985 89.6531C130.627 87.9401 142.96 84.5991 145.459 84.1291C145.635 84.0951 145.769 84.1161 145.914 84.1921C145.979 84.2261 146.051 84.2481 146.108 84.2901C147.499 85.3111 148.127 85.7771 148.436 86.0121L148.437 86.0131ZM148.367 82.1761C146.146 82.8891 118.149 90.0201 117.94 90.0771C117.354 90.2361 117.65 90.4531 117.65 87.7231C117.65 87.4511 117.75 87.3231 117.99 87.2501C122.099 86.0111 122.785 85.9481 125.177 85.1451C126.22 84.7941 132.823 83.5911 134.439 83.1441C135.687 82.7991 136.952 82.5481 138.219 82.2861C139.291 82.0641 140.347 81.7611 141.414 81.5171C143.274 81.0921 145.874 80.5591 146.514 80.3891C146.734 80.3301 146.921 80.3481 147.039 80.5441C147.531 81.3631 148.997 81.9741 148.367 82.1761ZM138.609 81.0111C136.07 81.6151 129.548 83.0321 127.938 83.3931C123.082 84.4851 122.533 84.9501 120.244 85.4861C118.517 85.8911 117.728 86.5601 117.751 86.0261C117.768 85.6211 117.866 83.9281 117.866 83.9161C117.877 83.4801 117.848 83.8371 138.212 78.7071C146.485 76.6231 146.359 76.4161 146.64 76.7931C146.958 77.2201 147.457 77.3741 147.87 77.6551C149.288 78.6191 149.105 78.3981 149.27 78.6481C147.865 79.2011 142.646 80.0491 138.609 81.0111Z" fill="#35B26A"/>
<path d="M142.305 69.671C142.047 69.129 141.903 69.257 139.421 67.526C136.497 65.485 128.65 59.652 125.512 57.786C124.478 57.171 124.42 57.118 122.698 57.428C115.747 58.679 107.701 60.307 100.947 62.375C100.883 62.395 100.855 62.472 100.894 62.527C101.469 63.343 101.455 63.387 101.556 63.35C102.624 62.948 103.299 62.792 105.437 62.185C113.702 59.837 117.409 59.64 123.396 58.396C124.411 58.186 124.77 58.515 127.268 60.285C129.998 62.22 130.36 62.216 134.196 65.2C137.71 67.9349 139.947 69.172 140.596 69.781C114.399 75.948 114.488 75.783 114.701 76.013C115.403 76.786 115.499 76.881 115.561 76.881C121.661 75.477 139.56 71.45 142.037 70.411C142.357 70.277 142.472 70.023 142.305 69.671Z" fill="#35B26A"/>
<path d="M139.255 33.8281C139.699 30.1631 139.644 30.8211 139.73 30.0171C139.78 29.5511 139.857 29.6861 136.899 30.5551C136.178 30.7671 135.806 30.3391 135.96 29.9001C136.21 29.1901 136.894 28.9331 137.94 28.5501C138.9 28.1981 139.344 28.2491 139.131 28.0061C139.112 27.9841 138.23 27.0581 136.982 25.6321C136.645 25.2461 136.608 24.6901 137.115 24.6151C137.363 24.5781 137.588 24.6451 137.777 24.7961C138.202 25.1331 138.625 25.4711 139.027 25.8331C139.829 26.5551 140.197 27.1751 140.262 26.7891C140.597 24.8031 140.609 24.3631 141.39 20.9161C141.473 20.5501 141.686 20.3811 141.974 20.3691C142.987 20.3271 142.512 21.6911 141.852 25.1801C141.425 27.4341 141.144 27.7381 141.645 27.6581C145.115 27.1061 143.441 27.4271 145.41 27.3401C145.467 27.3381 145.56 27.3861 145.578 27.4341C145.668 27.6841 145.155 27.7961 142.355 28.8541C141.636 29.1261 142.671 29.1641 143.899 31.5241C143.998 31.7131 144.054 31.9191 143.879 32.0731C143.679 32.2501 143.463 32.1281 143.284 32.0031C141.613 30.8351 141.038 29.4461 140.869 30.2001C139.778 35.0621 139.95 35.1801 139.626 35.1831C139.356 35.1851 139.413 35.0961 139.256 33.8311L139.255 33.8281Z" fill="#35B26A"/>
<path d="M21.4548 58.3442C21.2588 56.2562 21.2028 55.8592 21.2108 55.1582C21.2178 54.5482 21.9428 54.4782 22.2078 54.8952C22.8688 55.9332 22.6478 57.9702 22.9328 58.8822C23.5488 58.5902 24.7748 57.5652 27.0028 56.4392C27.0508 56.4152 27.1378 56.4392 27.1898 56.4672C27.4878 56.6502 25.7938 58.1612 23.8618 59.9902C25.1228 60.7132 25.5308 60.8952 25.8608 61.3142C26.0818 61.5952 26.0608 61.9962 25.6498 61.8932C25.1508 61.7692 23.9008 61.5012 23.2918 61.3572C22.9608 61.2792 23.0288 61.2352 23.1568 62.7332C23.4168 65.7692 23.5048 65.8452 23.2328 65.9522C23.0668 66.0172 22.8918 65.9962 22.7968 65.8412C22.6558 65.6112 22.5048 65.3732 22.4378 65.1182C21.8068 62.7302 21.9018 62.2962 21.8328 61.9972C21.7328 61.5682 21.7548 61.7652 19.6988 63.3122C19.5078 63.4562 18.6758 64.0602 18.3658 64.1222C17.9518 64.2062 17.6248 63.8782 17.7628 63.4802C18.0408 62.6722 18.9008 62.0982 20.5418 60.7272C20.8578 60.4632 20.6048 60.5322 18.9458 59.7842C17.3188 59.0512 18.0048 57.9852 18.6758 58.1832C19.5378 58.4382 20.3848 58.7392 21.2388 59.0212C21.4958 59.1062 21.4548 59.1302 21.4548 58.3422V58.3442Z" fill="#35B26A"/>
<path d="M65.0961 29.0871C65.2661 31.4451 61.9371 33.1521 59.7241 31.1511C58.4671 30.0151 58.4521 28.2091 59.5321 27.0331C61.3161 25.0911 65.1131 26.1471 65.0961 29.0871ZM63.8021 28.9651C63.7581 28.7931 63.7221 28.6211 63.6691 28.4511C63.1351 26.7211 60.5361 27.0311 60.1961 28.4881C60.0471 29.1241 60.2041 29.7191 60.7431 30.1411C61.4671 30.7081 62.1891 30.7441 62.9101 30.3631C63.4371 30.0841 63.8071 29.6361 63.8031 28.9651H63.8021Z" fill="#35B26A"/>
<path d="M171.454 59.8883C168.586 59.7053 167.561 56.6853 169.302 55.1893C169.77 54.7863 170.171 54.8043 170.543 54.4513C170.998 54.0203 173.603 54.4073 174.188 56.4243C174.765 58.4123 172.955 59.9853 171.453 59.8893L171.454 59.8883ZM170.936 55.7333C170.664 55.7403 170.416 55.6963 170.178 55.9293C169.527 56.5673 169.501 57.4603 170.191 58.0673C171.384 59.1173 172.804 58.3223 172.83 57.3483C172.849 56.6383 172.379 56.0123 171.678 55.8503C171.434 55.7943 171.184 55.7693 170.935 55.7323L170.936 55.7333Z" fill="#35B26A"/>
<path d="M102.299 41.4059C102.305 42.2639 101.567 43.0329 100.677 43.0109C99.6909 42.9869 99.0709 42.3119 99.0499 41.4079C99.0309 40.5609 99.8449 39.7529 100.655 39.7529C101.572 39.7529 102.292 40.5109 102.299 41.4059Z" fill="#35B26A"/>
</svg>
