<svg width="113" height="112" viewBox="0 0 113 112" fill="none" xmlns="http://www.w3.org/2000/svg">
<circle cx="56.5" cy="56" r="56" fill="#EDF9F2"/>
<path d="M55.4997 29.3333C40.8063 29.3333 28.833 41.3066 28.833 56C28.833 70.6933 40.8063 82.6666 55.4997 82.6666C70.193 82.6666 82.1663 70.6933 82.1663 56C82.1663 41.3066 70.193 29.3333 55.4997 29.3333ZM68.2463 49.8666L53.1263 64.9866C52.753 65.36 52.2463 65.5733 51.713 65.5733C51.1797 65.5733 50.673 65.36 50.2997 64.9866L42.753 57.44C41.9797 56.6666 41.9797 55.3866 42.753 54.6133C43.5263 53.84 44.8063 53.84 45.5797 54.6133L51.713 60.7466L65.4197 47.04C66.193 46.2666 67.473 46.2666 68.2463 47.04C69.0197 47.8133 69.0197 49.0666 68.2463 49.8666Z" fill="#47C77D"/>
</svg>
