<svg width="40" height="40" viewBox="0 0 40 40" fill="none" xmlns="http://www.w3.org/2000/svg">
<mask id="path-1-inside-1_1361_1892" fill="white">
<path d="M0 20C0 8.95431 8.95431 0 20 0C31.0457 0 40 8.95431 40 20C40 31.0457 31.0457 40 20 40C8.95431 40 0 31.0457 0 20Z"/>
</mask>
<path d="M0 20C0 8.95431 8.95431 0 20 0C31.0457 0 40 8.95431 40 20C40 31.0457 31.0457 40 20 40C8.95431 40 0 31.0457 0 20Z" fill="#F9FAFB"/>
<path d="M20 40V38.5C9.78273 38.5 1.5 30.2173 1.5 20H0H-1.5C-1.5 31.8741 8.12588 41.5 20 41.5V40ZM40 20H38.5C38.5 30.2173 30.2173 38.5 20 38.5V40V41.5C31.8741 41.5 41.5 31.8741 41.5 20H40ZM20 0V1.5C30.2173 1.5 38.5 9.78273 38.5 20H40H41.5C41.5 8.12588 31.8741 -1.5 20 -1.5V0ZM20 0V-1.5C8.12588 -1.5 -1.5 8.12588 -1.5 20H0H1.5C1.5 9.78273 9.78273 1.5 20 1.5V0Z" fill="#F3F4F6" mask="url(#path-1-inside-1_1361_1892)"/>
<path fill-rule="evenodd" clip-rule="evenodd" d="M9.25 20C9.25 14.0629 14.0629 9.25 20 9.25C25.9371 9.25 30.75 14.0629 30.75 20C30.75 25.9371 25.9371 30.75 20 30.75C18.113 30.75 16.3375 30.2632 14.7945 29.4077C14.7001 29.3554 14.6082 29.3531 14.5427 29.3762L12.0201 30.2676C10.4746 30.8138 8.98573 29.3249 9.53188 27.7793L10.4602 25.1523C10.4824 25.0893 10.4814 25.0013 10.434 24.9092C9.67697 23.4367 9.25 21.7671 9.25 20ZM15.0498 21.2998C15.7402 21.2998 16.2998 20.7402 16.2998 20.0498C16.2998 19.3594 15.7402 18.7998 15.0498 18.7998C14.3594 18.7998 13.7998 19.3594 13.7998 20.0498C13.7998 20.7402 14.3594 21.2998 15.0498 21.2998ZM21.2998 20.0498C21.2998 20.7402 20.7402 21.2998 20.0498 21.2998C19.3594 21.2998 18.7998 20.7402 18.7998 20.0498C18.7998 19.3594 19.3594 18.7998 20.0498 18.7998C20.7402 18.7998 21.2998 19.3594 21.2998 20.0498ZM25.0498 21.2998C25.7402 21.2998 26.2998 20.7402 26.2998 20.0498C26.2998 19.3594 25.7402 18.7998 25.0498 18.7998C24.3594 18.7998 23.7998 19.3594 23.7998 20.0498C23.7998 20.7402 24.3594 21.2998 25.0498 21.2998Z" fill="#1F2A37"/>
</svg>
