<svg width="18" height="20" viewBox="0 0 18 20" fill="none" xmlns="http://www.w3.org/2000/svg">
<path fill-rule="evenodd" clip-rule="evenodd" d="M4.24502 0H13.755C14.9139 0 15.4933 0 15.9606 0.162607C16.8468 0.470955 17.5425 1.18719 17.842 2.09946C18 2.58055 18 3.17705 18 4.37006V18.3742C18 19.2324 17.015 19.6878 16.3919 19.1176C16.0258 18.7826 15.4742 18.7826 15.1081 19.1176L14.625 19.5597C13.9834 20.1468 13.0166 20.1468 12.375 19.5597C11.7334 18.9726 10.7666 18.9726 10.125 19.5597C9.48341 20.1468 8.51659 20.1468 7.875 19.5597C7.23341 18.9726 6.26659 18.9726 5.625 19.5597C4.98341 20.1468 4.01659 20.1468 3.375 19.5597L2.8919 19.1176C2.52583 18.7826 1.97417 18.7826 1.6081 19.1176C0.984997 19.6878 0 19.2324 0 18.3742V4.37006C0 3.17705 0 2.58055 0.157954 2.09946C0.457479 1.18719 1.15322 0.470955 2.03939 0.162607C2.50671 0 3.08614 0 4.24502 0ZM12.0595 6.49952C12.3353 6.19054 12.3085 5.71643 11.9995 5.44055C11.6905 5.16468 11.2164 5.19152 10.9405 5.5005L7.92857 8.87391L7.05945 7.9005C6.78358 7.59152 6.30947 7.56468 6.00049 7.84055C5.69151 8.11643 5.66467 8.59054 5.94055 8.89952L7.36912 10.4995C7.51141 10.6589 7.71492 10.75 7.92857 10.75C8.14222 10.75 8.34573 10.6589 8.48802 10.4995L12.0595 6.49952ZM4.5 12.75C4.08579 12.75 3.75 13.0858 3.75 13.5C3.75 13.9142 4.08579 14.25 4.5 14.25H13.5C13.9142 14.25 14.25 13.9142 14.25 13.5C14.25 13.0858 13.9142 12.75 13.5 12.75H4.5Z" fill="#47C77D"/>
</svg>
