<svg width="24" height="25" viewBox="0 0 24 25" fill="none" xmlns="http://www.w3.org/2000/svg">
<path d="M21 6.48096C17.67 6.15096 14.32 5.98096 10.98 5.98096C9 5.98096 7.02 6.08096 5.04 6.28096L3 6.48096" stroke="#F55555" stroke-width="1.5" stroke-linecap="round" stroke-linejoin="round"/>
<path d="M8.5 5.47098L8.72 4.16098C8.88 3.21098 9 2.50098 10.69 2.50098H13.31C15 2.50098 15.13 3.25098 15.28 4.17098L15.5 5.47098" stroke="#F55555" stroke-width="1.5" stroke-linecap="round" stroke-linejoin="round"/>
<path d="M18.8499 9.64111L18.1999 19.7111C18.0899 21.2811 17.9999 22.5011 15.2099 22.5011H8.7899C5.9999 22.5011 5.9099 21.2811 5.7999 19.7111L5.1499 9.64111" stroke="#F55555" stroke-width="1.5" stroke-linecap="round" stroke-linejoin="round"/>
<path d="M10.3301 17.001H13.6601" stroke="#F55555" stroke-width="1.5" stroke-linecap="round" stroke-linejoin="round"/>
<path d="M9.5 13.001H14.5" stroke="#F55555" stroke-width="1.5" stroke-linecap="round" stroke-linejoin="round"/>
</svg>
