<svg width="21" height="20" viewBox="0 0 21 20" fill="none" xmlns="http://www.w3.org/2000/svg">
<path d="M15.9998 3.99994C18.6773 3.99994 20.8626 6.10468 20.9929 8.74994H16.4998C14.7048 8.74994 13.2498 10.205 13.2498 11.9999C13.2498 13.7949 14.7048 15.2499 16.4998 15.2499H20.9929C20.8626 17.8952 18.6773 19.9999 15.9998 19.9999H5.99976C3.23833 19.9999 0.999756 17.7614 0.999756 14.9999V8.99994C0.999756 6.23852 3.23833 3.99994 5.99976 3.99994H15.9998ZM4.99976 14.7499C4.58554 14.7499 4.24976 15.0857 4.24976 15.4999C4.24976 15.9142 4.58554 16.2499 4.99976 16.2499H10.9998L11.0769 16.246C11.4549 16.2074 11.7498 15.8881 11.7498 15.4999C11.7498 15.0857 11.414 14.7499 10.9998 14.7499H4.99976ZM20.9998 13.7499H16.4998C15.5333 13.7499 14.7498 12.9664 14.7498 11.9999C14.7498 11.0334 15.5333 10.2499 16.4998 10.2499H20.9998V13.7499ZM16.4998 11.2499C16.0855 11.2499 15.7498 11.5857 15.7498 11.9999C15.7498 12.4142 16.0855 12.7499 16.4998 12.7499H16.7L16.7761 12.746C17.1545 12.7078 17.45 12.3884 17.45 11.9999C17.45 11.6115 17.1545 11.2921 16.7761 11.2538L16.7 11.2499H16.4998Z" fill="#35B26A"/>
<path d="M18.4875 2.9929C17.7665 1.00153 15.6603 -0.284119 13.4411 0.172778L4.8404 1.94351C3.04402 2.31336 1.58863 3.49758 0.827393 5.06292C2.01486 3.50518 3.88998 2.49988 5.9999 2.49988H15.9999C16.8811 2.49988 17.7213 2.67522 18.4875 2.9929Z" fill="#35B26A"/>
</svg>
